  0
SECTION
  2
HEADER
  9
$ACADVER
  1
AC1014
  9
$ACADMAINTVER
 70
     9
  9
$DWGCODEPAGE
  3
ANSI_932
  9
$INSBASE
 10
0.0
 20
0.0
 30
0.0
  9
$EXTMIN
 10
1.000000000000000E+20
 20
1.000000000000000E+20
 30
1.000000000000000E+20
  9
$EXTMAX
 10
-1.000000000000000E+20
 20
-1.000000000000000E+20
 30
-1.000000000000000E+20
  9
$LIMMIN
 10
0.0
 20
0.0
  9
$LIMMAX
 10
12.0
 20
9.0
  9
$ORTHOMODE
 70
     0
  9
$REGENMODE
 70
     1
  9
$FILLMODE
 70
     1
  9
$QTEXTMODE
 70
     0
  9
$MIRRTEXT
 70
     1
  9
$DRAGMODE
 70
     2
  9
$LTSCALE
 40
1.0
  9
$OSMODE
 70
    37
  9
$ATTMODE
 70
     1
  9
$TEXTSIZE
 40
0.2
  9
$TRACEWID
 40
0.05
  9
$TEXTSTYLE
  7
STANDARD
  9
$CLAYER
  8
0
  9
$CELTYPE
  6
BYLAYER
  9
$CECOLOR
 62
   256
  9
$CELTSCALE
 40
1.0
  9
$DELOBJ
 70
     1
  9
$DISPSILH
 70
     0
  9
$DIMSCALE
 40
1.0
  9
$DIMASZ
 40
0.18
  9
$DIMEXO
 40
0.0625
  9
$DIMDLI
 40
0.38
  9
$DIMRND
 40
0.0
  9
$DIMDLE
 40
0.0
  9
$DIMEXE
 40
0.18
  9
$DIMTP
 40
0.0
  9
$DIMTM
 40
0.0
  9
$DIMTXT
 40
0.18
  9
$DIMCEN
 40
0.09
  9
$DIMTSZ
 40
0.0
  9
$DIMTOL
 70
     0
  9
$DIMLIM
 70
     0
  9
$DIMTIH
 70
     1
  9
$DIMTOH
 70
     1
  9
$DIMSE1
 70
     0
  9
$DIMSE2
 70
     0
  9
$DIMTAD
 70
     0
  9
$DIMZIN
 70
     0
  9
$DIMBLK
  1

  9
$DIMASO
 70
     1
  9
$DIMSHO
 70
     1
  9
$DIMPOST
  1

  9
$DIMAPOST
  1

  9
$DIMALT
 70
     0
  9
$DIMALTD
 70
     2
  9
$DIMALTF
 40
25.4
  9
$DIMLFAC
 40
1.0
  9
$DIMTOFL
 70
     0
  9
$DIMTVP
 40
0.0
  9
$DIMTIX
 70
     0
  9
$DIMSOXD
 70
     0
  9
$DIMSAH
 70
     0
  9
$DIMBLK1
  1

  9
$DIMBLK2
  1

  9
$DIMSTYLE
  2
STANDARD
  9
$DIMCLRD
 70
     0
  9
$DIMCLRE
 70
     0
  9
$DIMCLRT
 70
     0
  9
$DIMTFAC
 40
1.0
  9
$DIMGAP
 40
0.09
  9
$DIMJUST
 70
     0
  9
$DIMSD1
 70
     0
  9
$DIMSD2
 70
     0
  9
$DIMTOLJ
 70
     1
  9
$DIMTZIN
 70
     0
  9
$DIMALTZ
 70
     0
  9
$DIMALTTZ
 70
     0
  9
$DIMFIT
 70
     3
  9
$DIMUPT
 70
     0
  9
$DIMUNIT
 70
     2
  9
$DIMDEC
 70
     4
  9
$DIMTDEC
 70
     4
  9
$DIMALTU
 70
     2
  9
$DIMALTTD
 70
     2
  9
$DIMTXSTY
  7
STANDARD
  9
$DIMAUNIT
 70
     0
  9
$LUNITS
 70
     2
  9
$LUPREC
 70
     4
  9
$SKETCHINC
 40
0.1
  9
$FILLETRAD
 40
0.5
  9
$AUNITS
 70
     0
  9
$AUPREC
 70
     0
  9
$MENU
  1
.
  9
$ELEVATION
 40
0.0
  9
$PELEVATION
 40
0.0
  9
$THICKNESS
 40
0.0
  9
$LIMCHECK
 70
     0
  9
$CHAMFERA
 40
0.5
  9
$CHAMFERB
 40
0.5
  9
$CHAMFERC
 40
1.0
  9
$CHAMFERD
 40
0.0
  9
$SKPOLY
 70
     0
  9
$TDCREATE
 40
2457070.407881944
  9
$TDUPDATE
 40
2457070.407881956
  9
$TDINDWG
 40
0.0000000116
  9
$TDUSRTIMER
 40
0.0000000116
  9
$USRTIMER
 70
     1
  9
$ANGBASE
 50
0.0
  9
$ANGDIR
 70
     0
  9
$PDMODE
 70
     0
  9
$PDSIZE
 40
0.0
  9
$PLINEWID
 40
0.0
  9
$COORDS
 70
     1
  9
$SPLFRAME
 70
     0
  9
$SPLINETYPE
 70
     6
  9
$SPLINESEGS
 70
     8
  9
$ATTDIA
 70
     0
  9
$ATTREQ
 70
     1
  9
$HANDLING
 70
     1
  9
$HANDSEED
  5
1C4
  9
$SURFTAB1
 70
     6
  9
$SURFTAB2
 70
     6
  9
$SURFTYPE
 70
     6
  9
$SURFU
 70
     6
  9
$SURFV
 70
     6
  9
$UCSNAME
  2

  9
$UCSORG
 10
0.0
 20
0.0
 30
0.0
  9
$UCSXDIR
 10
1.0
 20
0.0
 30
0.0
  9
$UCSYDIR
 10
0.0
 20
1.0
 30
0.0
  9
$PUCSNAME
  2

  9
$PUCSORG
 10
0.0
 20
0.0
 30
0.0
  9
$PUCSXDIR
 10
1.0
 20
0.0
 30
0.0
  9
$PUCSYDIR
 10
0.0
 20
1.0
 30
0.0
  9
$USERI1
 70
     0
  9
$USERI2
 70
     0
  9
$USERI3
 70
     0
  9
$USERI4
 70
     0
  9
$USERI5
 70
     0
  9
$USERR1
 40
0.0
  9
$USERR2
 40
0.0
  9
$USERR3
 40
0.0
  9
$USERR4
 40
0.0
  9
$USERR5
 40
0.0
  9
$WORLDVIEW
 70
     1
  9
$SHADEDGE
 70
     3
  9
$SHADEDIF
 70
    70
  9
$TILEMODE
 70
     1
  9
$MAXACTVP
 70
    64
  9
$PINSBASE
 10
0.0
 20
0.0
 30
0.0
  9
$PLIMCHECK
 70
     0
  9
$PEXTMIN
 10
1.000000000000000E+20
 20
1.000000000000000E+20
 30
1.000000000000000E+20
  9
$PEXTMAX
 10
-1.000000000000000E+20
 20
-1.000000000000000E+20
 30
-1.000000000000000E+20
  9
$PLIMMIN
 10
0.0
 20
0.0
  9
$PLIMMAX
 10
12.0
 20
9.0
  9
$UNITMODE
 70
     0
  9
$VISRETAIN
 70
     1
  9
$PLINEGEN
 70
     0
  9
$PSLTSCALE
 70
     1
  9
$TREEDEPTH
 70
  3020
  9
$PICKSTYLE
 70
     1
  9
$CMLSTYLE
  2
STANDARD
  9
$CMLJUST
 70
     0
  9
$CMLSCALE
 40
1.0
  9
$PROXYGRAPHICS
 70
     1
  9
$MEASUREMENT
 70
     0
  0
ENDSEC
  0
SECTION
  2
CLASSES
  0
CLASS
  1
ACDBDICTIONARYWDFLT
  2
AcDbDictionaryWithDefault
  3
ObjectDBX Classes
 90
        0
280
     0
281
     0
  0
CLASS
  1
VISUALSTYLE
  2
AcDbVisualStyle
  3
ObjectDBX Classes
 90
     4095
280
     0
281
     0
  0
CLASS
  1
XRECORD
  2
AcDbXrecord
  3
AutoCAD 2000
 90
        0
280
     0
281
     0
  0
CLASS
  1
LWPOLYLINE
  2
AcDbPolyline
  3
AutoCAD 2000
 90
        0
280
     0
281
     1
  0
CLASS
  1
HATCH
  2
AcDbHatch
  3
AutoCAD 2000
 90
        0
280
     0
281
     1
  0
CLASS
  1
ACDBPLACEHOLDER
  2
AcDbPlaceHolder
  3
ObjectDBX Classes
 90
        0
280
     0
281
     0
  0
CLASS
  1
LAYOUT
  2
AcDbLayout
  3
ObjectDBX Classes
 90
        0
280
     0
281
     0
  0
ENDSEC
  0
SECTION
  2
TABLES
  0
TABLE
  2
VPORT
  5
8
330
0
100
AcDbSymbolTable
 70
     1
  0
VPORT
  5
29
330
8
100
AcDbSymbolTableRecord
100
AcDbViewportTableRecord
  2
*ACTIVE
 70
     0
 10
0.0
 20
0.0
 11
1.0
 21
1.0
 12
0.0
 22
0.0
 13
0.0
 23
0.0
 14
0.5
 24
0.5
 15
0.5
 25
0.5
 16
0.0
 26
0.0
 36
1.0
 17
420.5000867004305
 27
594.4999740809757
 37
0.0
 40
1188.999948161951
 41
0.7073172498459269
 42
50.0
 43
0.0
 44
0.0
 50
0.0
 51
0.0
 71
     0
 72
   100
 73
     1
 74
     3
 75
     0
 76
     0
 77
     0
 78
     0
  0
ENDTAB
  0
TABLE
  2
LTYPE
  5
5
330
0
100
AcDbSymbolTable
 70
     1
  0
LTYPE
  5
14
330
5
100
AcDbSymbolTableRecord
100
AcDbLinetypeTableRecord
  2
BYBLOCK
 70
     0
  3

 72
    65
 73
     0
 40
0.0
  0
LTYPE
  5
15
330
5
100
AcDbSymbolTableRecord
100
AcDbLinetypeTableRecord
  2
BYLAYER
 70
     0
  3

 72
    65
 73
     0
 40
0.0
  0
LTYPE
  5
16
330
5
100
AcDbSymbolTableRecord
100
AcDbLinetypeTableRecord
  2
CONTINUOUS
 70
     0
  3
Solid line
 72
    65
 73
     0
 40
0.0
  0
ENDTAB
  0
TABLE
  2
LAYER
  5
2
330
0
100
AcDbSymbolTable
 70
     2
  0
LAYER
  5
10
330
2
100
AcDbSymbolTableRecord
100
AcDbLayerTableRecord
  2
0
 70
     0
 62
     7
  6
CONTINUOUS
  0
LAYER
  5
3B
330
2
100
AcDbSymbolTableRecord
100
AcDbLayerTableRecord
  2
LAYER_1
 70
     0
 62
     7
  6
CONTINUOUS
  0
ENDTAB
  0
TABLE
  2
STYLE
  5
3
330
0
100
AcDbSymbolTable
 70
     1
  0
STYLE
  5
11
330
3
100
AcDbSymbolTableRecord
100
AcDbTextStyleTableRecord
  2
STANDARD
 70
     0
 40
0.0
 41
1.0
 50
0.0
 71
     0
 42
0.2
  3
txt
  4

  0
ENDTAB
  0
TABLE
  2
VIEW
  5
6
330
0
100
AcDbSymbolTable
 70
     0
  0
ENDTAB
  0
TABLE
  2
UCS
  5
7
330
0
100
AcDbSymbolTable
 70
     0
  0
ENDTAB
  0
TABLE
  2
APPID
  5
9
330
0
100
AcDbSymbolTable
 70
     1
  0
APPID
  5
12
330
9
100
AcDbSymbolTableRecord
100
AcDbRegAppTableRecord
  2
ACAD
 70
     0
  0
ENDTAB
  0
TABLE
  2
DIMSTYLE
  5
A
330
0
100
AcDbSymbolTable
 70
     1
  0
DIMSTYLE
105
27
330
A
100
AcDbSymbolTableRecord
100
AcDbDimStyleTableRecord
  2
STANDARD
 70
     0
  3

  4

  5

  6

  7

 40
1.0
 41
0.18
 42
0.0625
 43
0.38
 44
0.18
 45
0.0
 46
0.0
 47
0.0
 48
0.0
140
0.18
141
0.09
142
0.0
143
25.4
144
1.0
145
0.0
146
1.0
147
0.09
 71
     0
 72
     0
 73
     1
 74
     1
 75
     0
 76
     0
 77
     0
 78
     0
170
     0
171
     2
172
     0
173
     0
174
     0
175
     0
176
     0
177
     0
178
     0
270
     2
271
     4
272
     4
273
     2
274
     2
340
11
275
     0
280
     0
281
     0
282
     0
283
     1
284
     0
285
     0
286
     0
287
     3
288
     0
  0
ENDTAB
  0
TABLE
  2
BLOCK_RECORD
  5
1
330
0
100
AcDbSymbolTable
 70
     1
  0
BLOCK_RECORD
  5
1F
330
1
100
AcDbSymbolTableRecord
100
AcDbBlockTableRecord
  2
*MODEL_SPACE
  0
BLOCK_RECORD
  5
1B
330
1
100
AcDbSymbolTableRecord
100
AcDbBlockTableRecord
  2
*PAPER_SPACE
  0
ENDTAB
  0
ENDSEC
  0
SECTION
  2
BLOCKS
  0
BLOCK
  5
20
330
1F
100
AcDbEntity
  8
0
100
AcDbBlockBegin
  2
*MODEL_SPACE
 70
     0
 71
     0
 10
0.0
 20
0.0
 30
0.0
  3
*MODEL_SPACE
  1

  0
ENDBLK
  5
21
330
1F
100
AcDbEntity
  8
0
100
AcDbBlockEnd
  0
BLOCK
  5
1C
330
1B
100
AcDbEntity
 67
     1
  8
0
100
AcDbBlockBegin
  2
*PAPER_SPACE
 70
     0
 71
     0
 10
0.0
 20
0.0
 30
0.0
  3
*PAPER_SPACE
  1

  0
ENDBLK
  5
1D
330
1B
100
AcDbEntity
 67
     1
  8
0
100
AcDbBlockEnd
  0
ENDSEC
  0
SECTION
  2
ENTITIES
  0
POLYLINE
  5
3C
330
1F
100
AcDbEntity
  8
LAYER_1
 62
   250
100
AcDb2dPolyline
 66
     1
 10
0.0
 20
0.0
 30
0.0
  0
VERTEX
  5
3D
330
3C
100
AcDbEntity
  8
LAYER_1
 62
   250
100
AcDbVertex
100
AcDb2dVertex
 10
594.50014633575
 20
438.5000215917639
 30
0.0
  0
VERTEX
  5
3E
330
3C
100
AcDbEntity
  8
LAYER_1
 62
   250
100
AcDbVertex
100
AcDb2dVertex
 10
624.5000378213056
 20
438.5000215917639
 30
0.0
  0
VERTEX
  5
3F
330
3C
100
AcDbEntity
  8
LAYER_1
 62
   250
100
AcDbVertex
100
AcDb2dVertex
 10
624.5000378213056
 20
433.000271159111
 30
0.0
  0
VERTEX
  5
40
330
3C
100
AcDbEntity
  8
LAYER_1
 62
   250
100
AcDbVertex
100
AcDb2dVertex
 10
627.5000269698611
 20
433.000271159111
 30
0.0
  0
VERTEX
  5
41
330
3C
100
AcDbEntity
  8
LAYER_1
 62
   250
100
AcDbVertex
100
AcDb2dVertex
 10
627.5000269698611
 20
426.9999483524514
 30
0.0
  0
VERTEX
  5
42
330
3C
100
AcDbEntity
  8
LAYER_1
 62
   250
100
AcDbVertex
100
AcDb2dVertex
 10
624.5000378213056
 20
426.9999483524514
 30
0.0
  0
VERTEX
  5
43
330
3C
100
AcDbEntity
  8
LAYER_1
 62
   250
100
AcDbVertex
100
AcDb2dVertex
 10
624.5000378213056
 20
413.0001138290417
 30
0.0
  0
VERTEX
  5
44
330
3C
100
AcDbEntity
  8
LAYER_1
 62
   250
100
AcDbVertex
100
AcDb2dVertex
 10
627.5000269698611
 20
413.0001138290417
 30
0.0
  0
VERTEX
  5
45
330
3C
100
AcDbEntity
  8
LAYER_1
 62
   250
100
AcDbVertex
100
AcDb2dVertex
 10
627.5000269698611
 20
407.0001355319305
 30
0.0
  0
VERTEX
  5
46
330
3C
100
AcDbEntity
  8
LAYER_1
 62
   250
100
AcDbVertex
100
AcDb2dVertex
 10
624.5000378213056
 20
407.0001355319305
 30
0.0
  0
VERTEX
  5
47
330
3C
100
AcDbEntity
  8
LAYER_1
 62
   250
100
AcDbVertex
100
AcDb2dVertex
 10
624.5000378213056
 20
393.0003010085208
 30
0.0
  0
VERTEX
  5
48
330
3C
100
AcDbEntity
  8
LAYER_1
 62
   250
100
AcDbVertex
100
AcDb2dVertex
 10
627.5000269698611
 20
393.0003010085208
 30
0.0
  0
VERTEX
  5
49
330
3C
100
AcDbEntity
  8
LAYER_1
 62
   250
100
AcDbVertex
100
AcDb2dVertex
 10
627.5000269698611
 20
387.0003227114096
 30
0.0
  0
VERTEX
  5
4A
330
3C
100
AcDbEntity
  8
LAYER_1
 62
   250
100
AcDbVertex
100
AcDb2dVertex
 10
624.5000378213056
 20
387.0003227114096
 30
0.0
  0
VERTEX
  5
4B
330
3C
100
AcDbEntity
  8
LAYER_1
 62
   250
100
AcDbVertex
100
AcDb2dVertex
 10
624.5000378213056
 20
381.4998832596598
 30
0.0
  0
VERTEX
  5
4C
330
3C
100
AcDbEntity
  8
LAYER_1
 62
   250
100
AcDbVertex
100
AcDb2dVertex
 10
594.50014633575
 20
381.4998832596598
 30
0.0
  0
VERTEX
  5
4D
330
3C
100
AcDbEntity
  8
LAYER_1
 62
   250
100
AcDbVertex
100
AcDb2dVertex
 10
594.50014633575
 20
386.9999782018612
 30
0.0
  0
VERTEX
  5
4E
330
3C
100
AcDbEntity
  8
LAYER_1
 62
   250
100
AcDbVertex
100
AcDb2dVertex
 10
591.5001571871944
 20
386.9999782018612
 30
0.0
  0
VERTEX
  5
4F
330
3C
100
AcDbEntity
  8
LAYER_1
 62
   250
100
AcDbVertex
100
AcDb2dVertex
 10
591.5001571871944
 20
392.9999564989723
 30
0.0
  0
VERTEX
  5
50
330
3C
100
AcDbEntity
  8
LAYER_1
 62
   250
100
AcDbVertex
100
AcDb2dVertex
 10
594.50014633575
 20
392.9999564989723
 30
0.0
  0
VERTEX
  5
51
330
3C
100
AcDbEntity
  8
LAYER_1
 62
   250
100
AcDbVertex
100
AcDb2dVertex
 10
594.50014633575
 20
406.999791022382
 30
0.0
  0
VERTEX
  5
52
330
3C
100
AcDbEntity
  8
LAYER_1
 62
   250
100
AcDbVertex
100
AcDb2dVertex
 10
591.5001571871944
 20
406.999791022382
 30
0.0
  0
VERTEX
  5
53
330
3C
100
AcDbEntity
  8
LAYER_1
 62
   250
100
AcDbVertex
100
AcDb2dVertex
 10
591.5001571871944
 20
413.0001138290417
 30
0.0
  0
VERTEX
  5
54
330
3C
100
AcDbEntity
  8
LAYER_1
 62
   250
100
AcDbVertex
100
AcDb2dVertex
 10
594.50014633575
 20
413.0001138290417
 30
0.0
  0
VERTEX
  5
55
330
3C
100
AcDbEntity
  8
LAYER_1
 62
   250
100
AcDbVertex
100
AcDb2dVertex
 10
594.50014633575
 20
426.9996038429029
 30
0.0
  0
VERTEX
  5
56
330
3C
100
AcDbEntity
  8
LAYER_1
 62
   250
100
AcDbVertex
100
AcDb2dVertex
 10
591.5001571871944
 20
426.9996038429029
 30
0.0
  0
VERTEX
  5
57
330
3C
100
AcDbEntity
  8
LAYER_1
 62
   250
100
AcDbVertex
100
AcDb2dVertex
 10
591.5001571871944
 20
432.999582140014
 30
0.0
  0
VERTEX
  5
58
330
3C
100
AcDbEntity
  8
LAYER_1
 62
   250
100
AcDbVertex
100
AcDb2dVertex
 10
594.50014633575
 20
432.999582140014
 30
0.0
  0
VERTEX
  5
59
330
3C
100
AcDbEntity
  8
LAYER_1
 62
   250
100
AcDbVertex
100
AcDb2dVertex
 10
594.50014633575
 20
438.5000215917639
 30
0.0
  0
SEQEND
  5
5A
330
3C
100
AcDbEntity
  8
LAYER_1
  0
SPLINE
  5
5B
330
1F
100
AcDbEntity
  8
LAYER_1
 62
   250
100
AcDbSpline
210
0.0
220
0.0
230
1.0
 70
    11
 71
     3
 72
    17
 73
    13
 74
     0
 42
0.0000000001
 43
0.0000000001
 40
0.0
 40
0.0
 40
0.0
 40
0.0
 40
1.0
 40
1.0
 40
1.0
 40
2.0
 40
2.0
 40
2.0
 40
3.0
 40
3.0
 40
3.0
 40
4.0
 40
4.0
 40
4.0
 40
4.0
 10
606.3750459638577
 20
410.0001246804861
 30
0.0
 10
606.3750459638577
 20
411.7257730090477
 30
0.0
 10
607.7740992404176
 20
413.1248262856077
 30
0.0
 10
609.5000920785278
 20
413.1248262856077
 30
0.0
 10
611.2257404070895
 20
413.1248262856077
 30
0.0
 10
612.6251381931979
 20
411.7257730090477
 30
0.0
 10
612.6251381931979
 20
410.0001246804861
 30
0.0
 10
612.6251381931979
 20
408.2741318423759
 30
0.0
 10
611.2257404070895
 20
406.875078565816
 30
0.0
 10
609.5000920785278
 20
406.875078565816
 30
0.0
 10
607.7740992404176
 20
406.875078565816
 30
0.0
 10
606.3750459638577
 20
408.2741318423759
 30
0.0
 10
606.3750459638577
 20
410.0001246804861
 30
0.0
  0
SPLINE
  5
5C
330
1F
100
AcDbEntity
  8
LAYER_1
 62
   250
100
AcDbSpline
210
0.0
220
0.0
230
1.0
 70
    11
 71
     3
 72
    17
 73
    13
 74
     0
 42
0.0000000001
 43
0.0000000001
 40
0.0
 40
0.0
 40
0.0
 40
0.0
 40
1.0
 40
1.0
 40
1.0
 40
2.0
 40
2.0
 40
2.0
 40
3.0
 40
3.0
 40
3.0
 40
4.0
 40
4.0
 40
4.0
 40
4.0
 10
606.3750459638577
 20
425.0000704232639
 30
0.0
 10
606.3750459638577
 20
426.7257187518255
 30
0.0
 10
607.7740992404176
 20
428.125116537934
 30
0.0
 10
609.5000920785278
 20
428.125116537934
 30
0.0
 10
611.2257404070895
 20
428.125116537934
 30
0.0
 10
612.6251381931979
 20
426.7257187518255
 30
0.0
 10
612.6251381931979
 20
425.0000704232639
 30
0.0
 10
612.6251381931979
 20
423.2740775851537
 30
0.0
 10
611.2257404070895
 20
421.8750243085938
 30
0.0
 10
609.5000920785278
 20
421.8750243085938
 30
0.0
 10
607.7740992404176
 20
421.8750243085938
 30
0.0
 10
606.3750459638577
 20
423.2740775851537
 30
0.0
 10
606.3750459638577
 20
425.0000704232639
 30
0.0
  0
SPLINE
  5
5D
330
1F
100
AcDbEntity
  8
LAYER_1
 62
   250
100
AcDbSpline
210
0.0
220
0.0
230
1.0
 70
    11
 71
     3
 72
    17
 73
    13
 74
     0
 42
0.0000000001
 43
0.0000000001
 40
0.0
 40
0.0
 40
0.0
 40
0.0
 40
1.0
 40
1.0
 40
1.0
 40
2.0
 40
2.0
 40
2.0
 40
3.0
 40
3.0
 40
3.0
 40
4.0
 40
4.0
 40
4.0
 40
4.0
 10
606.3750459638577
 20
395.0001789377083
 30
0.0
 10
606.3750459638577
 20
396.72582726627
 30
0.0
 10
607.7740992404176
 20
398.1248805428299
 30
0.0
 10
609.5000920785278
 20
398.1248805428299
 30
0.0
 10
611.2257404070895
 20
398.1248805428299
 30
0.0
 10
612.6251381931979
 20
396.72582726627
 30
0.0
 10
612.6251381931979
 20
395.0001789377083
 30
0.0
 10
612.6251381931979
 20
393.2741860995981
 30
0.0
 10
611.2257404070895
 20
391.8751328230382
 30
0.0
 10
609.5000920785278
 20
391.8751328230382
 30
0.0
 10
607.7740992404176
 20
391.8751328230382
 30
0.0
 10
606.3750459638577
 20
393.2741860995981
 30
0.0
 10
606.3750459638577
 20
395.0001789377083
 30
0.0
  0
SPLINE
  5
5E
330
1F
100
AcDbEntity
  8
LAYER_1
 62
     7
100
AcDbSpline
210
0.0
220
0.0
230
1.0
 70
    11
 71
     3
 72
    29
 73
    25
 74
     0
 42
0.0000000001
 43
0.0000000001
 40
0.0
 40
0.0
 40
0.0
 40
0.0
 40
1.0
 40
1.0
 40
1.0
 40
2.0
 40
2.0
 40
2.0
 40
3.0
 40
3.0
 40
3.0
 40
4.0
 40
4.0
 40
4.0
 40
5.0
 40
5.0
 40
5.0
 40
6.0
 40
6.0
 40
6.0
 40
7.0
 40
7.0
 40
7.0
 40
8.0
 40
8.0
 40
8.0
 40
8.0
 10
230.5003146125138
 20
511.0006780406526
 30
0.0
 10
230.5003146125138
 20
511.0006780406526
 30
0.0
 10
400.4995848608126
 20
511.0006780406526
 30
0.0
 10
400.4995848608126
 20
511.0006780406526
 30
0.0
 10
403.2696138857278
 20
511.0006780406526
 30
0.0
 10
405.5004854672013
 20
508.7696342044048
 30
0.0
 10
405.5004854672013
 20
505.999777434264
 30
0.0
 10
405.5004854672013
 20
505.999777434264
 30
0.0
 10
405.5004854672013
 20
386.0005560015902
 30
0.0
 10
405.5004854672013
 20
386.0005560015902
 30
0.0
 10
405.5004854672013
 20
383.2303547219008
 30
0.0
 10
403.2696138857278
 20
380.999310885653
 30
0.0
 10
400.4995848608126
 20
380.999310885653
 30
0.0
 10
400.4995848608126
 20
380.999310885653
 30
0.0
 10
230.5003146125138
 20
380.999310885653
 30
0.0
 10
230.5003146125138
 20
380.999310885653
 30
0.0
 10
227.7302855875987
 20
380.999310885653
 30
0.0
 10
225.4994140061252
 20
383.2303547219008
 30
0.0
 10
225.4994140061252
 20
386.0005560015902
 30
0.0
 10
225.4994140061252
 20
386.0005560015902
 30
0.0
 10
225.4994140061252
 20
505.999777434264
 30
0.0
 10
225.4994140061252
 20
505.999777434264
 30
0.0
 10
225.4994140061252
 20
508.7696342044048
 30
0.0
 10
227.7302855875987
 20
511.0006780406526
 30
0.0
 10
230.5003146125138
 20
511.0006780406526
 30
0.0
  0
POLYLINE
  5
5F
330
1F
100
AcDbEntity
  8
LAYER_1
 62
     7
100
AcDb2dPolyline
 66
     1
 10
0.0
 20
0.0
 30
0.0
  0
VERTEX
  5
60
330
5F
100
AcDbEntity
  8
LAYER_1
 62
     7
100
AcDbVertex
100
AcDb2dVertex
 10
367.4997042267015
 20
502.4999049307987
 30
0.0
  0
VERTEX
  5
61
330
5F
100
AcDbEntity
  8
LAYER_1
 62
     7
100
AcDbVertex
100
AcDb2dVertex
 10
373.4998547785868
 20
502.4999049307987
 30
0.0
  0
VERTEX
  5
62
330
5F
100
AcDbEntity
  8
LAYER_1
 62
     7
100
AcDbVertex
100
AcDb2dVertex
 10
373.4998547785868
 20
499.4999157822431
 30
0.0
  0
VERTEX
  5
63
330
5F
100
AcDbEntity
  8
LAYER_1
 62
     7
100
AcDbVertex
100
AcDb2dVertex
 10
367.4997042267015
 20
499.4999157822431
 30
0.0
  0
VERTEX
  5
64
330
5F
100
AcDbEntity
  8
LAYER_1
 62
     7
100
AcDbVertex
100
AcDb2dVertex
 10
367.4997042267015
 20
502.4999049307987
 30
0.0
  0
SEQEND
  5
65
330
5F
100
AcDbEntity
  8
LAYER_1
  0
POLYLINE
  5
66
330
1F
100
AcDbEntity
  8
LAYER_1
 62
     7
100
AcDb2dPolyline
 66
     1
 10
0.0
 20
0.0
 30
0.0
  0
VERTEX
  5
67
330
66
100
AcDbEntity
  8
LAYER_1
 62
     7
100
AcDbVertex
100
AcDb2dVertex
 10
347.5000636609549
 20
502.4999049307987
 30
0.0
  0
VERTEX
  5
68
330
66
100
AcDbEntity
  8
LAYER_1
 62
     7
100
AcDbVertex
100
AcDb2dVertex
 10
353.5002142128403
 20
502.4999049307987
 30
0.0
  0
VERTEX
  5
69
330
66
100
AcDbEntity
  8
LAYER_1
 62
     7
100
AcDbVertex
100
AcDb2dVertex
 10
353.5002142128403
 20
499.4999157822431
 30
0.0
  0
VERTEX
  5
6A
330
66
100
AcDbEntity
  8
LAYER_1
 62
     7
100
AcDbVertex
100
AcDb2dVertex
 10
347.5000636609549
 20
499.4999157822431
 30
0.0
  0
VERTEX
  5
6B
330
66
100
AcDbEntity
  8
LAYER_1
 62
     7
100
AcDbVertex
100
AcDb2dVertex
 10
347.5000636609549
 20
502.4999049307987
 30
0.0
  0
SEQEND
  5
6C
330
66
100
AcDbEntity
  8
LAYER_1
  0
POLYLINE
  5
6D
330
1F
100
AcDbEntity
  8
LAYER_1
 62
     7
100
AcDb2dPolyline
 66
     1
 10
0.0
 20
0.0
 30
0.0
  0
VERTEX
  5
6E
330
6D
100
AcDbEntity
  8
LAYER_1
 62
     7
100
AcDbVertex
100
AcDb2dVertex
 10
367.4997042267015
 20
392.5000731440625
 30
0.0
  0
VERTEX
  5
6F
330
6D
100
AcDbEntity
  8
LAYER_1
 62
     7
100
AcDbVertex
100
AcDb2dVertex
 10
373.4998547785868
 20
392.5000731440625
 30
0.0
  0
VERTEX
  5
70
330
6D
100
AcDbEntity
  8
LAYER_1
 62
     7
100
AcDbVertex
100
AcDb2dVertex
 10
373.4998547785868
 20
389.4997394859584
 30
0.0
  0
VERTEX
  5
71
330
6D
100
AcDbEntity
  8
LAYER_1
 62
     7
100
AcDbVertex
100
AcDb2dVertex
 10
367.4997042267015
 20
389.4997394859584
 30
0.0
  0
VERTEX
  5
72
330
6D
100
AcDbEntity
  8
LAYER_1
 62
     7
100
AcDbVertex
100
AcDb2dVertex
 10
367.4997042267015
 20
392.5000731440625
 30
0.0
  0
SEQEND
  5
73
330
6D
100
AcDbEntity
  8
LAYER_1
  0
POLYLINE
  5
74
330
1F
100
AcDbEntity
  8
LAYER_1
 62
     7
100
AcDb2dPolyline
 66
     1
 10
0.0
 20
0.0
 30
0.0
  0
VERTEX
  5
75
330
74
100
AcDbEntity
  8
LAYER_1
 62
     7
100
AcDbVertex
100
AcDb2dVertex
 10
347.5000636609549
 20
392.5000731440625
 30
0.0
  0
VERTEX
  5
76
330
74
100
AcDbEntity
  8
LAYER_1
 62
     7
100
AcDbVertex
100
AcDb2dVertex
 10
353.5002142128403
 20
392.5000731440625
 30
0.0
  0
VERTEX
  5
77
330
74
100
AcDbEntity
  8
LAYER_1
 62
     7
100
AcDbVertex
100
AcDb2dVertex
 10
353.5002142128403
 20
389.4997394859584
 30
0.0
  0
VERTEX
  5
78
330
74
100
AcDbEntity
  8
LAYER_1
 62
     7
100
AcDbVertex
100
AcDb2dVertex
 10
347.5000636609549
 20
389.4997394859584
 30
0.0
  0
VERTEX
  5
79
330
74
100
AcDbEntity
  8
LAYER_1
 62
     7
100
AcDbVertex
100
AcDb2dVertex
 10
347.5000636609549
 20
392.5000731440625
 30
0.0
  0
SEQEND
  5
7A
330
74
100
AcDbEntity
  8
LAYER_1
  0
POLYLINE
  5
7B
330
1F
100
AcDbEntity
  8
LAYER_1
 62
     7
100
AcDb2dPolyline
 66
     1
 10
0.0
 20
0.0
 30
0.0
  0
VERTEX
  5
7C
330
7B
100
AcDbEntity
  8
LAYER_1
 62
     7
100
AcDbVertex
100
AcDb2dVertex
 10
327.5000785856597
 20
502.4999049307987
 30
0.0
  0
VERTEX
  5
7D
330
7B
100
AcDbEntity
  8
LAYER_1
 62
     7
100
AcDbVertex
100
AcDb2dVertex
 10
333.5002291375451
 20
502.4999049307987
 30
0.0
  0
VERTEX
  5
7E
330
7B
100
AcDbEntity
  8
LAYER_1
 62
     7
100
AcDbVertex
100
AcDb2dVertex
 10
333.5002291375451
 20
499.4999157822431
 30
0.0
  0
VERTEX
  5
7F
330
7B
100
AcDbEntity
  8
LAYER_1
 62
     7
100
AcDbVertex
100
AcDb2dVertex
 10
327.5000785856597
 20
499.4999157822431
 30
0.0
  0
VERTEX
  5
80
330
7B
100
AcDbEntity
  8
LAYER_1
 62
     7
100
AcDbVertex
100
AcDb2dVertex
 10
327.5000785856597
 20
502.4999049307987
 30
0.0
  0
SEQEND
  5
81
330
7B
100
AcDbEntity
  8
LAYER_1
  0
POLYLINE
  5
82
330
1F
100
AcDbEntity
  8
LAYER_1
 62
     7
100
AcDb2dPolyline
 66
     1
 10
0.0
 20
0.0
 30
0.0
  0
VERTEX
  5
83
330
82
100
AcDbEntity
  8
LAYER_1
 62
     7
100
AcDbVertex
100
AcDb2dVertex
 10
327.5000785856597
 20
392.5000731440625
 30
0.0
  0
VERTEX
  5
84
330
82
100
AcDbEntity
  8
LAYER_1
 62
     7
100
AcDbVertex
100
AcDb2dVertex
 10
333.5002291375451
 20
392.5000731440625
 30
0.0
  0
VERTEX
  5
85
330
82
100
AcDbEntity
  8
LAYER_1
 62
     7
100
AcDbVertex
100
AcDb2dVertex
 10
333.5002291375451
 20
389.4997394859584
 30
0.0
  0
VERTEX
  5
86
330
82
100
AcDbEntity
  8
LAYER_1
 62
     7
100
AcDbVertex
100
AcDb2dVertex
 10
327.5000785856597
 20
389.4997394859584
 30
0.0
  0
VERTEX
  5
87
330
82
100
AcDbEntity
  8
LAYER_1
 62
     7
100
AcDbVertex
100
AcDb2dVertex
 10
327.5000785856597
 20
392.5000731440625
 30
0.0
  0
SEQEND
  5
88
330
82
100
AcDbEntity
  8
LAYER_1
  0
POLYLINE
  5
89
330
1F
100
AcDbEntity
  8
LAYER_1
 62
     7
100
AcDb2dPolyline
 66
     1
 10
0.0
 20
0.0
 30
0.0
  0
VERTEX
  5
8A
330
89
100
AcDbEntity
  8
LAYER_1
 62
     7
100
AcDbVertex
100
AcDb2dVertex
 10
287.4997639255209
 20
502.4999049307987
 30
0.0
  0
VERTEX
  5
8B
330
89
100
AcDbEntity
  8
LAYER_1
 62
     7
100
AcDbVertex
100
AcDb2dVertex
 10
293.499742222632
 20
502.4999049307987
 30
0.0
  0
VERTEX
  5
8C
330
89
100
AcDbEntity
  8
LAYER_1
 62
     7
100
AcDbVertex
100
AcDb2dVertex
 10
293.499742222632
 20
499.4999157822431
 30
0.0
  0
VERTEX
  5
8D
330
89
100
AcDbEntity
  8
LAYER_1
 62
     7
100
AcDbVertex
100
AcDb2dVertex
 10
287.4997639255209
 20
499.4999157822431
 30
0.0
  0
VERTEX
  5
8E
330
89
100
AcDbEntity
  8
LAYER_1
 62
     7
100
AcDbVertex
100
AcDb2dVertex
 10
287.4997639255209
 20
502.4999049307987
 30
0.0
  0
SEQEND
  5
8F
330
89
100
AcDbEntity
  8
LAYER_1
  0
POLYLINE
  5
90
330
1F
100
AcDbEntity
  8
LAYER_1
 62
     7
100
AcDb2dPolyline
 66
     1
 10
0.0
 20
0.0
 30
0.0
  0
VERTEX
  5
91
330
90
100
AcDbEntity
  8
LAYER_1
 62
     7
100
AcDbVertex
100
AcDb2dVertex
 10
267.5001233597743
 20
502.4999049307987
 30
0.0
  0
VERTEX
  5
92
330
90
100
AcDbEntity
  8
LAYER_1
 62
     7
100
AcDbVertex
100
AcDb2dVertex
 10
273.5002739116597
 20
502.4999049307987
 30
0.0
  0
VERTEX
  5
93
330
90
100
AcDbEntity
  8
LAYER_1
 62
     7
100
AcDbVertex
100
AcDb2dVertex
 10
273.5002739116597
 20
499.4999157822431
 30
0.0
  0
VERTEX
  5
94
330
90
100
AcDbEntity
  8
LAYER_1
 62
     7
100
AcDbVertex
100
AcDb2dVertex
 10
267.5001233597743
 20
499.4999157822431
 30
0.0
  0
VERTEX
  5
95
330
90
100
AcDbEntity
  8
LAYER_1
 62
     7
100
AcDbVertex
100
AcDb2dVertex
 10
267.5001233597743
 20
502.4999049307987
 30
0.0
  0
SEQEND
  5
96
330
90
100
AcDbEntity
  8
LAYER_1
  0
POLYLINE
  5
97
330
1F
100
AcDbEntity
  8
LAYER_1
 62
     7
100
AcDb2dPolyline
 66
     1
 10
0.0
 20
0.0
 30
0.0
  0
VERTEX
  5
98
330
97
100
AcDbEntity
  8
LAYER_1
 62
     7
100
AcDbVertex
100
AcDb2dVertex
 10
247.5001382844791
 20
502.4999049307987
 30
0.0
  0
VERTEX
  5
99
330
97
100
AcDbEntity
  8
LAYER_1
 62
     7
100
AcDbVertex
100
AcDb2dVertex
 10
253.5001165815902
 20
502.4999049307987
 30
0.0
  0
VERTEX
  5
9A
330
97
100
AcDbEntity
  8
LAYER_1
 62
     7
100
AcDbVertex
100
AcDb2dVertex
 10
253.5001165815902
 20
499.4999157822431
 30
0.0
  0
VERTEX
  5
9B
330
97
100
AcDbEntity
  8
LAYER_1
 62
     7
100
AcDbVertex
100
AcDb2dVertex
 10
247.5001382844791
 20
499.4999157822431
 30
0.0
  0
VERTEX
  5
9C
330
97
100
AcDbEntity
  8
LAYER_1
 62
     7
100
AcDbVertex
100
AcDb2dVertex
 10
247.5001382844791
 20
502.4999049307987
 30
0.0
  0
SEQEND
  5
9D
330
97
100
AcDbEntity
  8
LAYER_1
  0
POLYLINE
  5
9E
330
1F
100
AcDbEntity
  8
LAYER_1
 62
     7
100
AcDb2dPolyline
 66
     1
 10
0.0
 20
0.0
 30
0.0
  0
VERTEX
  5
9F
330
9E
100
AcDbEntity
  8
LAYER_1
 62
     7
100
AcDbVertex
100
AcDb2dVertex
 10
287.4997639255209
 20
392.5000731440625
 30
0.0
  0
VERTEX
  5
A0
330
9E
100
AcDbEntity
  8
LAYER_1
 62
     7
100
AcDbVertex
100
AcDb2dVertex
 10
293.499742222632
 20
392.5000731440625
 30
0.0
  0
VERTEX
  5
A1
330
9E
100
AcDbEntity
  8
LAYER_1
 62
     7
100
AcDbVertex
100
AcDb2dVertex
 10
293.499742222632
 20
389.4997394859584
 30
0.0
  0
VERTEX
  5
A2
330
9E
100
AcDbEntity
  8
LAYER_1
 62
     7
100
AcDbVertex
100
AcDb2dVertex
 10
287.4997639255209
 20
389.4997394859584
 30
0.0
  0
VERTEX
  5
A3
330
9E
100
AcDbEntity
  8
LAYER_1
 62
     7
100
AcDbVertex
100
AcDb2dVertex
 10
287.4997639255209
 20
392.5000731440625
 30
0.0
  0
SEQEND
  5
A4
330
9E
100
AcDbEntity
  8
LAYER_1
  0
POLYLINE
  5
A5
330
1F
100
AcDbEntity
  8
LAYER_1
 62
     7
100
AcDb2dPolyline
 66
     1
 10
0.0
 20
0.0
 30
0.0
  0
VERTEX
  5
A6
330
A5
100
AcDbEntity
  8
LAYER_1
 62
     7
100
AcDbVertex
100
AcDb2dVertex
 10
267.5001233597743
 20
392.5000731440625
 30
0.0
  0
VERTEX
  5
A7
330
A5
100
AcDbEntity
  8
LAYER_1
 62
     7
100
AcDbVertex
100
AcDb2dVertex
 10
273.5002739116597
 20
392.5000731440625
 30
0.0
  0
VERTEX
  5
A8
330
A5
100
AcDbEntity
  8
LAYER_1
 62
     7
100
AcDbVertex
100
AcDb2dVertex
 10
273.5002739116597
 20
389.4997394859584
 30
0.0
  0
VERTEX
  5
A9
330
A5
100
AcDbEntity
  8
LAYER_1
 62
     7
100
AcDbVertex
100
AcDb2dVertex
 10
267.5001233597743
 20
389.4997394859584
 30
0.0
  0
VERTEX
  5
AA
330
A5
100
AcDbEntity
  8
LAYER_1
 62
     7
100
AcDbVertex
100
AcDb2dVertex
 10
267.5001233597743
 20
392.5000731440625
 30
0.0
  0
SEQEND
  5
AB
330
A5
100
AcDbEntity
  8
LAYER_1
  0
POLYLINE
  5
AC
330
1F
100
AcDbEntity
  8
LAYER_1
 62
     7
100
AcDb2dPolyline
 66
     1
 10
0.0
 20
0.0
 30
0.0
  0
VERTEX
  5
AD
330
AC
100
AcDbEntity
  8
LAYER_1
 62
     7
100
AcDbVertex
100
AcDb2dVertex
 10
247.5001382844791
 20
392.5000731440625
 30
0.0
  0
VERTEX
  5
AE
330
AC
100
AcDbEntity
  8
LAYER_1
 62
     7
100
AcDbVertex
100
AcDb2dVertex
 10
253.5001165815902
 20
392.5000731440625
 30
0.0
  0
VERTEX
  5
AF
330
AC
100
AcDbEntity
  8
LAYER_1
 62
     7
100
AcDbVertex
100
AcDb2dVertex
 10
253.5001165815902
 20
389.4997394859584
 30
0.0
  0
VERTEX
  5
B0
330
AC
100
AcDbEntity
  8
LAYER_1
 62
     7
100
AcDbVertex
100
AcDb2dVertex
 10
247.5001382844791
 20
389.4997394859584
 30
0.0
  0
VERTEX
  5
B1
330
AC
100
AcDbEntity
  8
LAYER_1
 62
     7
100
AcDbVertex
100
AcDb2dVertex
 10
247.5001382844791
 20
392.5000731440625
 30
0.0
  0
SEQEND
  5
B2
330
AC
100
AcDbEntity
  8
LAYER_1
  0
SPLINE
  5
B3
330
1F
100
AcDbEntity
  8
LAYER_1
 62
   250
100
AcDbSpline
210
0.0
220
0.0
230
1.0
 70
    11
 71
     3
 72
    17
 73
    13
 74
     0
 42
0.0000000001
 43
0.0000000001
 40
0.0
 40
0.0
 40
0.0
 40
0.0
 40
1.0
 40
1.0
 40
1.0
 40
2.0
 40
2.0
 40
2.0
 40
3.0
 40
3.0
 40
3.0
 40
4.0
 40
4.0
 40
4.0
 40
4.0
 10
230.5003146125138
 20
507.5004610276388
 30
0.0
 10
231.3285155671679
 20
507.5004610276388
 30
0.0
 10
232.0003091867916
 20
506.8290119175636
 30
0.0
 10
232.0003091867916
 20
506.000466453361
 30
0.0
 10
232.0003091867916
 20
505.172265498707
 30
0.0
 10
231.3285155671679
 20
504.5004718790832
 30
0.0
 10
230.5003146125138
 20
504.5004718790832
 30
0.0
 10
229.6719414030855
 20
504.5004718790832
 30
0.0
 10
229.0003200382361
 20
505.172265498707
 30
0.0
 10
229.0003200382361
 20
506.000466453361
 30
0.0
 10
229.0003200382361
 20
506.8290119175636
 30
0.0
 10
229.6719414030855
 20
507.5004610276388
 30
0.0
 10
230.5003146125138
 20
507.5004610276388
 30
0.0
  0
SPLINE
  5
B4
330
1F
100
AcDbEntity
  8
LAYER_1
 62
   250
100
AcDbSpline
210
0.0
220
0.0
230
1.0
 70
    11
 71
     3
 72
    17
 73
    13
 74
     0
 42
0.0000000001
 43
0.0000000001
 40
0.0
 40
0.0
 40
0.0
 40
0.0
 40
1.0
 40
1.0
 40
1.0
 40
2.0
 40
2.0
 40
2.0
 40
3.0
 40
3.0
 40
3.0
 40
4.0
 40
4.0
 40
4.0
 40
4.0
 10
230.5003146125138
 20
387.4988280281253
 30
0.0
 10
231.3285155671679
 20
387.4988280281253
 30
0.0
 10
232.0003091867916
 20
386.8273789180501
 30
0.0
 10
232.0003091867916
 20
385.9988334538475
 30
0.0
 10
232.0003091867916
 20
385.1706324991935
 30
0.0
 10
231.3285155671679
 20
384.4988388795697
 30
0.0
 10
230.5003146125138
 20
384.4988388795697
 30
0.0
 10
229.6719414030855
 20
384.4988388795697
 30
0.0
 10
229.0003200382361
 20
385.1706324991935
 30
0.0
 10
229.0003200382361
 20
385.9988334538475
 30
0.0
 10
229.0003200382361
 20
386.8273789180501
 30
0.0
 10
229.6719414030855
 20
387.4988280281253
 30
0.0
 10
230.5003146125138
 20
387.4988280281253
 30
0.0
  0
SPLINE
  5
B5
330
1F
100
AcDbEntity
  8
LAYER_1
 62
   250
100
AcDbSpline
210
0.0
220
0.0
230
1.0
 70
    11
 71
     3
 72
    17
 73
    13
 74
     0
 42
0.0000000001
 43
0.0000000001
 40
0.0
 40
0.0
 40
0.0
 40
0.0
 40
1.0
 40
1.0
 40
1.0
 40
2.0
 40
2.0
 40
2.0
 40
3.0
 40
3.0
 40
3.0
 40
4.0
 40
4.0
 40
4.0
 40
4.0
 10
400.5002738799097
 20
507.5004610276388
 30
0.0
 10
401.328647089338
 20
507.5004610276388
 30
0.0
 10
402.0002684541874
 20
506.8290119175636
 30
0.0
 10
402.0002684541874
 20
506.000466453361
 30
0.0
 10
402.0002684541874
 20
505.172265498707
 30
0.0
 10
401.328647089338
 20
504.5004718790832
 30
0.0
 10
400.5002738799097
 20
504.5004718790832
 30
0.0
 10
399.6720729252556
 20
504.5004718790832
 30
0.0
 10
399.0002793056319
 20
505.172265498707
 30
0.0
 10
399.0002793056319
 20
506.000466453361
 30
0.0
 10
399.0002793056319
 20
506.8290119175636
 30
0.0
 10
399.6720729252556
 20
507.5004610276388
 30
0.0
 10
400.5002738799097
 20
507.5004610276388
 30
0.0
  0
SPLINE
  5
B6
330
1F
100
AcDbEntity
  8
LAYER_1
 62
   250
100
AcDbSpline
210
0.0
220
0.0
230
1.0
 70
    11
 71
     3
 72
    17
 73
    13
 74
     0
 42
0.0000000001
 43
0.0000000001
 40
0.0
 40
0.0
 40
0.0
 40
0.0
 40
1.0
 40
1.0
 40
1.0
 40
2.0
 40
2.0
 40
2.0
 40
3.0
 40
3.0
 40
3.0
 40
4.0
 40
4.0
 40
4.0
 40
4.0
 10
400.5002738799097
 20
387.4988280281253
 30
0.0
 10
401.328647089338
 20
387.4988280281253
 30
0.0
 10
402.0002684541874
 20
386.8273789180501
 30
0.0
 10
402.0002684541874
 20
385.9988334538475
 30
0.0
 10
402.0002684541874
 20
385.1706324991935
 30
0.0
 10
401.328647089338
 20
384.4988388795697
 30
0.0
 10
400.5002738799097
 20
384.4988388795697
 30
0.0
 10
399.6720729252556
 20
384.4988388795697
 30
0.0
 10
399.0002793056319
 20
385.1706324991935
 30
0.0
 10
399.0002793056319
 20
385.9988334538475
 30
0.0
 10
399.0002793056319
 20
386.8273789180501
 30
0.0
 10
399.6720729252556
 20
387.4988280281253
 30
0.0
 10
400.5002738799097
 20
387.4988280281253
 30
0.0
  0
POLYLINE
  5
B7
330
1F
100
AcDbEntity
  8
LAYER_1
 62
     7
100
AcDb2dPolyline
 66
     1
 10
0.0
 20
0.0
 30
0.0
  0
VERTEX
  5
B8
330
B7
100
AcDbEntity
  8
LAYER_1
 62
     7
100
AcDbVertex
100
AcDb2dVertex
 10
307.4997490008161
 20
392.5000731440625
 30
0.0
  0
VERTEX
  5
B9
330
B7
100
AcDbEntity
  8
LAYER_1
 62
     7
100
AcDbVertex
100
AcDb2dVertex
 10
313.4998995527014
 20
392.5000731440625
 30
0.0
  0
VERTEX
  5
BA
330
B7
100
AcDbEntity
  8
LAYER_1
 62
     7
100
AcDbVertex
100
AcDb2dVertex
 10
313.4998995527014
 20
389.4997394859584
 30
0.0
  0
VERTEX
  5
BB
330
B7
100
AcDbEntity
  8
LAYER_1
 62
     7
100
AcDbVertex
100
AcDb2dVertex
 10
307.4997490008161
 20
389.4997394859584
 30
0.0
  0
VERTEX
  5
BC
330
B7
100
AcDbEntity
  8
LAYER_1
 62
     7
100
AcDbVertex
100
AcDb2dVertex
 10
307.4997490008161
 20
392.5000731440625
 30
0.0
  0
SEQEND
  5
BD
330
B7
100
AcDbEntity
  8
LAYER_1
  0
POLYLINE
  5
BE
330
1F
100
AcDbEntity
  8
LAYER_1
 62
     7
100
AcDb2dPolyline
 66
     1
 10
0.0
 20
0.0
 30
0.0
  0
VERTEX
  5
BF
330
BE
100
AcDbEntity
  8
LAYER_1
 62
     7
100
AcDbVertex
100
AcDb2dVertex
 10
307.4997490008161
 20
502.4999049307987
 30
0.0
  0
VERTEX
  5
C0
330
BE
100
AcDbEntity
  8
LAYER_1
 62
     7
100
AcDbVertex
100
AcDb2dVertex
 10
313.4998995527014
 20
502.4999049307987
 30
0.0
  0
VERTEX
  5
C1
330
BE
100
AcDbEntity
  8
LAYER_1
 62
     7
100
AcDbVertex
100
AcDb2dVertex
 10
313.4998995527014
 20
499.4999157822431
 30
0.0
  0
VERTEX
  5
C2
330
BE
100
AcDbEntity
  8
LAYER_1
 62
     7
100
AcDbVertex
100
AcDb2dVertex
 10
307.4997490008161
 20
499.4999157822431
 30
0.0
  0
VERTEX
  5
C3
330
BE
100
AcDbEntity
  8
LAYER_1
 62
     7
100
AcDbVertex
100
AcDb2dVertex
 10
307.4997490008161
 20
502.4999049307987
 30
0.0
  0
SEQEND
  5
C4
330
BE
100
AcDbEntity
  8
LAYER_1
  0
SPLINE
  5
C5
330
1F
100
AcDbEntity
  8
LAYER_1
 62
   250
100
AcDbSpline
210
0.0
220
0.0
230
1.0
 70
    11
 71
     3
 72
    17
 73
    13
 74
     0
 42
0.0000000001
 43
0.0000000001
 40
0.0
 40
0.0
 40
0.0
 40
0.0
 40
1.0
 40
1.0
 40
1.0
 40
2.0
 40
2.0
 40
2.0
 40
3.0
 40
3.0
 40
3.0
 40
4.0
 40
4.0
 40
4.0
 40
4.0
 10
294.5000256967743
 20
431.4999320752847
 30
0.0
 10
295.3283989062026
 20
431.4999320752847
 30
0.0
 10
296.0000202710521
 20
430.8284829652096
 30
0.0
 10
296.0000202710521
 20
429.999937501007
 30
0.0
 10
296.0000202710521
 20
429.1717365463529
 30
0.0
 10
295.3283989062026
 20
428.4999429267292
 30
0.0
 10
294.5000256967743
 20
428.4999429267292
 30
0.0
 10
293.671652487346
 20
428.4999429267292
 30
0.0
 10
293.0000311224965
 20
429.1717365463529
 30
0.0
 10
293.0000311224965
 20
429.999937501007
 30
0.0
 10
293.0000311224965
 20
430.8284829652096
 30
0.0
 10
293.671652487346
 20
431.4999320752847
 30
0.0
 10
294.5000256967743
 20
431.4999320752847
 30
0.0
  0
SPLINE
  5
C6
330
1F
100
AcDbEntity
  8
LAYER_1
 62
   250
100
AcDbSpline
210
0.0
220
0.0
230
1.0
 70
    11
 71
     3
 72
    17
 73
    13
 74
     0
 42
0.0000000001
 43
0.0000000001
 40
0.0
 40
0.0
 40
0.0
 40
0.0
 40
1.0
 40
1.0
 40
1.0
 40
2.0
 40
2.0
 40
2.0
 40
3.0
 40
3.0
 40
3.0
 40
4.0
 40
4.0
 40
4.0
 40
4.0
 10
326.4999673662917
 20
431.4999320752847
 30
0.0
 10
327.32834057572
 20
431.4999320752847
 30
0.0
 10
327.9999619405694
 20
430.8284829652096
 30
0.0
 10
327.9999619405694
 20
429.999937501007
 30
0.0
 10
327.9999619405694
 20
429.1717365463529
 30
0.0
 10
327.32834057572
 20
428.4999429267292
 30
0.0
 10
326.4999673662917
 20
428.4999429267292
 30
0.0
 10
325.6717664116376
 20
428.4999429267292
 30
0.0
 10
324.9999727920139
 20
429.1717365463529
 30
0.0
 10
324.9999727920139
 20
429.999937501007
 30
0.0
 10
324.9999727920139
 20
430.8284829652096
 30
0.0
 10
325.6717664116376
 20
431.4999320752847
 30
0.0
 10
326.4999673662917
 20
431.4999320752847
 30
0.0
  0
SPLINE
  5
C7
330
1F
100
AcDbEntity
  8
LAYER_1
 62
   250
100
AcDbSpline
210
0.0
220
0.0
230
1.0
 70
    11
 71
     3
 72
    17
 73
    13
 74
     0
 42
0.0000000001
 43
0.0000000001
 40
0.0
 40
0.0
 40
0.0
 40
0.0
 40
1.0
 40
1.0
 40
1.0
 40
2.0
 40
2.0
 40
2.0
 40
3.0
 40
3.0
 40
3.0
 40
4.0
 40
4.0
 40
4.0
 40
4.0
 10
294.5000256967743
 20
463.5000459995764
 30
0.0
 10
295.3283989062026
 20
463.5000459995764
 30
0.0
 10
296.0000202710521
 20
462.8282523799527
 30
0.0
 10
296.0000202710521
 20
462.0000514252986
 30
0.0
 10
296.0000202710521
 20
461.1718504706446
 30
0.0
 10
295.3283989062026
 20
460.5000568510208
 30
0.0
 10
294.5000256967743
 20
460.5000568510208
 30
0.0
 10
293.671652487346
 20
460.5000568510208
 30
0.0
 10
293.0000311224965
 20
461.1718504706446
 30
0.0
 10
293.0000311224965
 20
462.0000514252986
 30
0.0
 10
293.0000311224965
 20
462.8282523799527
 30
0.0
 10
293.671652487346
 20
463.5000459995764
 30
0.0
 10
294.5000256967743
 20
463.5000459995764
 30
0.0
  0
SPLINE
  5
C8
330
1F
100
AcDbEntity
  8
LAYER_1
 62
   250
100
AcDbSpline
210
0.0
220
0.0
230
1.0
 70
    11
 71
     3
 72
    17
 73
    13
 74
     0
 42
0.0000000001
 43
0.0000000001
 40
0.0
 40
0.0
 40
0.0
 40
0.0
 40
1.0
 40
1.0
 40
1.0
 40
2.0
 40
2.0
 40
2.0
 40
3.0
 40
3.0
 40
3.0
 40
4.0
 40
4.0
 40
4.0
 40
4.0
 10
326.4999673662917
 20
463.5000459995764
 30
0.0
 10
327.32834057572
 20
463.5000459995764
 30
0.0
 10
327.9999619405694
 20
462.8282523799527
 30
0.0
 10
327.9999619405694
 20
462.0000514252986
 30
0.0
 10
327.9999619405694
 20
461.1718504706446
 30
0.0
 10
327.32834057572
 20
460.5000568510208
 30
0.0
 10
326.4999673662917
 20
460.5000568510208
 30
0.0
 10
325.6717664116376
 20
460.5000568510208
 30
0.0
 10
324.9999727920139
 20
461.1718504706446
 30
0.0
 10
324.9999727920139
 20
462.0000514252986
 30
0.0
 10
324.9999727920139
 20
462.8282523799527
 30
0.0
 10
325.6717664116376
 20
463.5000459995764
 30
0.0
 10
326.4999673662917
 20
463.5000459995764
 30
0.0
  0
POLYLINE
  5
C9
330
1F
100
AcDbEntity
  8
LAYER_1
 62
   250
100
AcDb2dPolyline
 66
     1
 10
0.0
 20
0.0
 30
0.0
  0
VERTEX
  5
CA
330
C9
100
AcDbEntity
  8
LAYER_1
 62
   250
100
AcDbVertex
100
AcDb2dVertex
 10
594.50014633575
 20
498.5001490724236
 30
0.0
  0
VERTEX
  5
CB
330
C9
100
AcDbEntity
  8
LAYER_1
 62
   250
100
AcDbVertex
100
AcDb2dVertex
 10
624.5000378213056
 20
498.5001490724236
 30
0.0
  0
VERTEX
  5
CC
330
C9
100
AcDbEntity
  8
LAYER_1
 62
   250
100
AcDbVertex
100
AcDb2dVertex
 10
624.5000378213056
 20
493.0000541302222
 30
0.0
  0
VERTEX
  5
CD
330
C9
100
AcDbEntity
  8
LAYER_1
 62
   250
100
AcDbVertex
100
AcDb2dVertex
 10
627.5000269698611
 20
493.0000541302222
 30
0.0
  0
VERTEX
  5
CE
330
C9
100
AcDbEntity
  8
LAYER_1
 62
   250
100
AcDbVertex
100
AcDb2dVertex
 10
627.5000269698611
 20
487.0000758331111
 30
0.0
  0
VERTEX
  5
CF
330
C9
100
AcDbEntity
  8
LAYER_1
 62
   250
100
AcDbVertex
100
AcDb2dVertex
 10
624.5000378213056
 20
487.0000758331111
 30
0.0
  0
VERTEX
  5
D0
330
C9
100
AcDbEntity
  8
LAYER_1
 62
   250
100
AcDbVertex
100
AcDb2dVertex
 10
624.5000378213056
 20
473.0002413097013
 30
0.0
  0
VERTEX
  5
D1
330
C9
100
AcDbEntity
  8
LAYER_1
 62
   250
100
AcDbVertex
100
AcDb2dVertex
 10
627.5000269698611
 20
473.0002413097013
 30
0.0
  0
VERTEX
  5
D2
330
C9
100
AcDbEntity
  8
LAYER_1
 62
   250
100
AcDbVertex
100
AcDb2dVertex
 10
627.5000269698611
 20
466.9999185030417
 30
0.0
  0
VERTEX
  5
D3
330
C9
100
AcDbEntity
  8
LAYER_1
 62
   250
100
AcDbVertex
100
AcDb2dVertex
 10
624.5000378213056
 20
466.9999185030417
 30
0.0
  0
VERTEX
  5
D4
330
C9
100
AcDbEntity
  8
LAYER_1
 62
   250
100
AcDbVertex
100
AcDb2dVertex
 10
624.5000378213056
 20
453.0004284891805
 30
0.0
  0
VERTEX
  5
D5
330
C9
100
AcDbEntity
  8
LAYER_1
 62
   250
100
AcDbVertex
100
AcDb2dVertex
 10
627.5000269698611
 20
453.0004284891805
 30
0.0
  0
VERTEX
  5
D6
330
C9
100
AcDbEntity
  8
LAYER_1
 62
   250
100
AcDbVertex
100
AcDb2dVertex
 10
627.5000269698611
 20
447.0004501920694
 30
0.0
  0
VERTEX
  5
D7
330
C9
100
AcDbEntity
  8
LAYER_1
 62
   250
100
AcDbVertex
100
AcDb2dVertex
 10
624.5000378213056
 20
447.0004501920694
 30
0.0
  0
VERTEX
  5
D8
330
C9
100
AcDbEntity
  8
LAYER_1
 62
   250
100
AcDbVertex
100
AcDb2dVertex
 10
624.5000378213056
 20
441.5000107403195
 30
0.0
  0
VERTEX
  5
D9
330
C9
100
AcDbEntity
  8
LAYER_1
 62
   250
100
AcDbVertex
100
AcDb2dVertex
 10
594.50014633575
 20
441.5000107403195
 30
0.0
  0
VERTEX
  5
DA
330
C9
100
AcDbEntity
  8
LAYER_1
 62
   250
100
AcDbVertex
100
AcDb2dVertex
 10
594.50014633575
 20
446.9997611729723
 30
0.0
  0
VERTEX
  5
DB
330
C9
100
AcDbEntity
  8
LAYER_1
 62
   250
100
AcDbVertex
100
AcDb2dVertex
 10
591.5001571871944
 20
446.9997611729723
 30
0.0
  0
VERTEX
  5
DC
330
C9
100
AcDbEntity
  8
LAYER_1
 62
   250
100
AcDbVertex
100
AcDb2dVertex
 10
591.5001571871944
 20
453.0000839796319
 30
0.0
  0
VERTEX
  5
DD
330
C9
100
AcDbEntity
  8
LAYER_1
 62
   250
100
AcDbVertex
100
AcDb2dVertex
 10
594.50014633575
 20
453.0000839796319
 30
0.0
  0
VERTEX
  5
DE
330
C9
100
AcDbEntity
  8
LAYER_1
 62
   250
100
AcDbVertex
100
AcDb2dVertex
 10
594.50014633575
 20
466.9999185030417
 30
0.0
  0
VERTEX
  5
DF
330
C9
100
AcDbEntity
  8
LAYER_1
 62
   250
100
AcDbVertex
100
AcDb2dVertex
 10
591.5001571871944
 20
466.9999185030417
 30
0.0
  0
VERTEX
  5
E0
330
C9
100
AcDbEntity
  8
LAYER_1
 62
   250
100
AcDbVertex
100
AcDb2dVertex
 10
591.5001571871944
 20
472.9998968001528
 30
0.0
  0
VERTEX
  5
E1
330
C9
100
AcDbEntity
  8
LAYER_1
 62
   250
100
AcDbVertex
100
AcDb2dVertex
 10
594.50014633575
 20
472.9998968001528
 30
0.0
  0
VERTEX
  5
E2
330
C9
100
AcDbEntity
  8
LAYER_1
 62
   250
100
AcDbVertex
100
AcDb2dVertex
 10
594.50014633575
 20
486.9997313235626
 30
0.0
  0
VERTEX
  5
E3
330
C9
100
AcDbEntity
  8
LAYER_1
 62
   250
100
AcDbVertex
100
AcDb2dVertex
 10
591.5001571871944
 20
486.9997313235626
 30
0.0
  0
VERTEX
  5
E4
330
C9
100
AcDbEntity
  8
LAYER_1
 62
   250
100
AcDbVertex
100
AcDb2dVertex
 10
591.5001571871944
 20
492.9997096206737
 30
0.0
  0
VERTEX
  5
E5
330
C9
100
AcDbEntity
  8
LAYER_1
 62
   250
100
AcDbVertex
100
AcDb2dVertex
 10
594.50014633575
 20
492.9997096206737
 30
0.0
  0
VERTEX
  5
E6
330
C9
100
AcDbEntity
  8
LAYER_1
 62
   250
100
AcDbVertex
100
AcDb2dVertex
 10
594.50014633575
 20
498.5001490724236
 30
0.0
  0
SEQEND
  5
E7
330
C9
100
AcDbEntity
  8
LAYER_1
  0
SPLINE
  5
E8
330
1F
100
AcDbEntity
  8
LAYER_1
 62
   250
100
AcDbSpline
210
0.0
220
0.0
230
1.0
 70
    11
 71
     3
 72
    17
 73
    13
 74
     0
 42
0.0000000001
 43
0.0000000001
 40
0.0
 40
0.0
 40
0.0
 40
0.0
 40
1.0
 40
1.0
 40
1.0
 40
2.0
 40
2.0
 40
2.0
 40
3.0
 40
3.0
 40
3.0
 40
4.0
 40
4.0
 40
4.0
 40
4.0
 10
606.3750459638577
 20
469.9999076515973
 30
0.0
 10
606.3750459638577
 20
471.7259004897074
 30
0.0
 10
607.7740992404176
 20
473.1249537662674
 30
0.0
 10
609.5000920785278
 20
473.1249537662674
 30
0.0
 10
611.2257404070895
 20
473.1249537662674
 30
0.0
 10
612.6251381931979
 20
471.7259004897074
 30
0.0
 10
612.6251381931979
 20
469.9999076515973
 30
0.0
 10
612.6251381931979
 20
468.2742593230356
 30
0.0
 10
611.2257404070895
 20
466.8748615369271
 30
0.0
 10
609.5000920785278
 20
466.8748615369271
 30
0.0
 10
607.7740992404176
 20
466.8748615369271
 30
0.0
 10
606.3750459638577
 20
468.2742593230356
 30
0.0
 10
606.3750459638577
 20
469.9999076515973
 30
0.0
  0
SPLINE
  5
E9
330
1F
100
AcDbEntity
  8
LAYER_1
 62
   250
100
AcDbSpline
210
0.0
220
0.0
230
1.0
 70
    11
 71
     3
 72
    17
 73
    13
 74
     0
 42
0.0000000001
 43
0.0000000001
 40
0.0
 40
0.0
 40
0.0
 40
0.0
 40
1.0
 40
1.0
 40
1.0
 40
2.0
 40
2.0
 40
2.0
 40
3.0
 40
3.0
 40
3.0
 40
4.0
 40
4.0
 40
4.0
 40
4.0
 10
606.3750459638577
 20
484.9998533943751
 30
0.0
 10
606.3750459638577
 20
486.7258462324853
 30
0.0
 10
607.7740992404176
 20
488.1248995090452
 30
0.0
 10
609.5000920785278
 20
488.1248995090452
 30
0.0
 10
611.2257404070895
 20
488.1248995090452
 30
0.0
 10
612.6251381931979
 20
486.7258462324853
 30
0.0
 10
612.6251381931979
 20
484.9998533943751
 30
0.0
 10
612.6251381931979
 20
483.2742050658134
 30
0.0
 10
611.2257404070895
 20
481.8751517892534
 30
0.0
 10
609.5000920785278
 20
481.8751517892534
 30
0.0
 10
607.7740992404176
 20
481.8751517892534
 30
0.0
 10
606.3750459638577
 20
483.2742050658134
 30
0.0
 10
606.3750459638577
 20
484.9998533943751
 30
0.0
  0
SPLINE
  5
EA
330
1F
100
AcDbEntity
  8
LAYER_1
 62
   250
100
AcDbSpline
210
0.0
220
0.0
230
1.0
 70
    11
 71
     3
 72
    17
 73
    13
 74
     0
 42
0.0000000001
 43
0.0000000001
 40
0.0
 40
0.0
 40
0.0
 40
0.0
 40
1.0
 40
1.0
 40
1.0
 40
2.0
 40
2.0
 40
2.0
 40
3.0
 40
3.0
 40
3.0
 40
4.0
 40
4.0
 40
4.0
 40
4.0
 10
606.3750459638577
 20
454.9999619088195
 30
0.0
 10
606.3750459638577
 20
456.7259547469296
 30
0.0
 10
607.7740992404176
 20
458.1250080234896
 30
0.0
 10
609.5000920785278
 20
458.1250080234896
 30
0.0
 10
611.2257404070895
 20
458.1250080234896
 30
0.0
 10
612.6251381931979
 20
456.7259547469296
 30
0.0
 10
612.6251381931979
 20
454.9999619088195
 30
0.0
 10
612.6251381931979
 20
453.2743135802579
 30
0.0
 10
611.2257404070895
 20
451.8749157941493
 30
0.0
 10
609.5000920785278
 20
451.8749157941493
 30
0.0
 10
607.7740992404176
 20
451.8749157941493
 30
0.0
 10
606.3750459638577
 20
453.2743135802579
 30
0.0
 10
606.3750459638577
 20
454.9999619088195
 30
0.0
  0
POLYLINE
  5
EB
330
1F
100
AcDbEntity
  8
LAYER_1
 62
     7
100
AcDb2dPolyline
 66
     1
 10
0.0
 20
0.0
 30
0.0
  0
VERTEX
  5
EC
330
EB
100
AcDbEntity
  8
LAYER_1
 62
     7
100
AcDbVertex
100
AcDb2dVertex
 10
1153.668426903423
 20
806.7490340865072
 30
0.0
  0
VERTEX
  5
ED
330
EB
100
AcDbEntity
  8
LAYER_1
 62
     7
100
AcDbVertex
100
AcDb2dVertex
 10
1151.046020220051
 20
815.5119789627887
 30
0.0
  0
VERTEX
  5
EE
330
EB
100
AcDbEntity
  8
LAYER_1
 62
     7
100
AcDbVertex
100
AcDb2dVertex
 10
1148.424991574873
 20
806.7490340865072
 30
0.0
  0
SEQEND
  5
EF
330
EB
100
AcDbEntity
  8
LAYER_1
  0
POLYLINE
  5
F0
330
1F
100
AcDbEntity
  8
LAYER_1
 62
     7
100
AcDb2dPolyline
 66
     1
 10
0.0
 20
0.0
 30
0.0
  0
VERTEX
  5
F1
330
F0
100
AcDbEntity
  8
LAYER_1
 62
     7
100
AcDbVertex
100
AcDb2dVertex
 10
1176.309594432485
 20
964.3277015818347
 30
0.0
  0
VERTEX
  5
F2
330
F0
100
AcDbEntity
  8
LAYER_1
 62
     7
100
AcDbVertex
100
AcDb2dVertex
 10
1176.309594432485
 20
815.6707978646588
 30
0.0
  0
SEQEND
  5
F3
330
F0
100
AcDbEntity
  8
LAYER_1
  0
POLYLINE
  5
F4
330
1F
100
AcDbEntity
  8
LAYER_1
 62
     7
100
AcDb2dPolyline
 66
     1
 10
0.0
 20
0.0
 30
0.0
  0
VERTEX
  5
F5
330
F4
100
AcDbEntity
  8
LAYER_1
 62
     7
100
AcDbVertex
100
AcDb2dVertex
 10
1176.309594432485
 20
815.6707978646588
 30
0.0
  0
VERTEX
  5
F6
330
F4
100
AcDbEntity
  8
LAYER_1
 62
     7
100
AcDbVertex
100
AcDb2dVertex
 10
1281.35813498782
 20
815.6707978646588
 30
0.0
  0
SEQEND
  5
F7
330
F4
100
AcDbEntity
  8
LAYER_1
  0
SPLINE
  5
F8
330
1F
100
AcDbEntity
  8
LAYER_1
 62
   223
100
AcDbSpline
210
0.0
220
0.0
230
1.0
 70
    11
 71
     3
 72
   194
 73
   190
 74
     0
 42
0.0000000001
 43
0.0000000001
 40
0.0
 40
0.0
 40
0.0
 40
0.0
 40
1.0
 40
1.0
 40
1.0
 40
2.0
 40
2.0
 40
2.0
 40
3.0
 40
3.0
 40
3.0
 40
4.0
 40
4.0
 40
4.0
 40
5.0
 40
5.0
 40
5.0
 40
6.0
 40
6.0
 40
6.0
 40
7.0
 40
7.0
 40
7.0
 40
8.0
 40
8.0
 40
8.0
 40
9.0
 40
9.0
 40
9.0
 40
10.0
 40
10.0
 40
10.0
 40
11.0
 40
11.0
 40
11.0
 40
12.0
 40
12.0
 40
12.0
 40
13.0
 40
13.0
 40
13.0
 40
14.0
 40
14.0
 40
14.0
 40
15.0
 40
15.0
 40
15.0
 40
16.0
 40
16.0
 40
16.0
 40
17.0
 40
17.0
 40
17.0
 40
18.0
 40
18.0
 40
18.0
 40
19.0
 40
19.0
 40
19.0
 40
20.0
 40
20.0
 40
20.0
 40
21.0
 40
21.0
 40
21.0
 40
22.0
 40
22.0
 40
22.0
 40
23.0
 40
23.0
 40
23.0
 40
24.0
 40
24.0
 40
24.0
 40
25.0
 40
25.0
 40
25.0
 40
26.0
 40
26.0
 40
26.0
 40
27.0
 40
27.0
 40
27.0
 40
28.0
 40
28.0
 40
28.0
 40
29.0
 40
29.0
 40
29.0
 40
30.0
 40
30.0
 40
30.0
 40
31.0
 40
31.0
 40
31.0
 40
32.0
 40
32.0
 40
32.0
 40
33.0
 40
33.0
 40
33.0
 40
34.0
 40
34.0
 40
34.0
 40
35.0
 40
35.0
 40
35.0
 40
36.0
 40
36.0
 40
36.0
 40
37.0
 40
37.0
 40
37.0
 40
38.0
 40
38.0
 40
38.0
 40
39.0
 40
39.0
 40
39.0
 40
40.0
 40
40.0
 40
40.0
 40
41.0
 40
41.0
 40
41.0
 40
42.0
 40
42.0
 40
42.0
 40
43.0
 40
43.0
 40
43.0
 40
44.0
 40
44.0
 40
44.0
 40
45.0
 40
45.0
 40
45.0
 40
46.0
 40
46.0
 40
46.0
 40
47.0
 40
47.0
 40
47.0
 40
48.0
 40
48.0
 40
48.0
 40
49.0
 40
49.0
 40
49.0
 40
50.0
 40
50.0
 40
50.0
 40
51.0
 40
51.0
 40
51.0
 40
52.0
 40
52.0
 40
52.0
 40
53.0
 40
53.0
 40
53.0
 40
54.0
 40
54.0
 40
54.0
 40
55.0
 40
55.0
 40
55.0
 40
56.0
 40
56.0
 40
56.0
 40
57.0
 40
57.0
 40
57.0
 40
58.0
 40
58.0
 40
58.0
 40
59.0
 40
59.0
 40
59.0
 40
60.0
 40
60.0
 40
60.0
 40
61.0
 40
61.0
 40
61.0
 40
62.0
 40
62.0
 40
62.0
 40
63.0
 40
63.0
 40
63.0
 40
63.0
 10
399.2357515820487
 20
444.1437770157002
 30
0.0
 10
399.2357515820487
 20
444.1437770157002
 30
0.0
 10
396.5196383014778
 20
444.1437770157002
 30
0.0
 10
396.5196383014778
 20
444.1437770157002
 30
0.0
 10
396.3082816934577
 20
444.1437770157002
 30
0.0
 10
396.0988198879545
 20
444.1262070287254
 30
0.0
 10
395.8907361206454
 20
444.0910670547759
 30
0.0
 10
395.6829968628848
 20
444.0555825712778
 30
0.0
 10
395.4945501398416
 20
443.9818575278935
 30
0.0
 10
395.3253959515159
 20
443.8692029055258
 30
0.0
 10
395.1562417631901
 20
443.7562037736096
 30
0.0
 10
395.0208495106198
 20
443.5942842858028
 30
0.0
 10
394.9185301747079
 20
443.3827554230085
 30
0.0
 10
394.8165553483445
 20
443.1715710697627
 30
0.0
 10
394.7652234256143
 20
442.8897622590692
 30
0.0
 10
394.7652234256143
 20
442.5373289909282
 30
0.0
 10
394.7652234256143
 20
442.389534394611
 30
0.0
 10
394.7827934125891
 20
442.2345050977747
 30
0.0
 10
394.8179333865386
 20
442.072585609968
 30
0.0
 10
394.8532456152624
 20
441.9103216126127
 30
0.0
 10
394.8990653852162
 20
441.748402124806
 30
0.0
 10
394.9553926964001
 20
441.5861381274507
 30
0.0
 10
395.0118922623582
 20
441.4238741300954
 30
0.0
 10
395.0806219172889
 20
441.265399737774
 30
0.0
 10
395.161409406418
 20
441.1107149504862
 30
0.0
 10
395.2425414050956
 20
440.95568565365
 30
0.0
 10
395.3288410470012
 20
440.8147812483033
 30
0.0
 10
395.4204805869088
 20
440.6880017344461
 30
0.0
 10
394.9908771798981
 20
440.4409883881536
 30
0.0
 10
394.7759032216185
 20
440.0220647771473
 30
0.0
 10
394.7759032216185
 20
439.4301973727814
 30
0.0
 10
394.7759032216185
 20
439.169403644548
 30
0.0
 10
394.8251680870576
 20
438.8858722861119
 30
0.0
 10
394.9236978179358
 20
438.5792587879246
 30
0.0
 10
395.0225720583624
 20
438.2729897992859
 30
0.0
 10
395.1669215591944
 20
437.9753335493604
 30
0.0
 10
395.3570908299802
 20
437.6862900381479
 30
0.0
 10
395.3570908299802
 20
437.6862900381479
 30
0.0
 10
395.3253959515159
 20
437.6439153636793
 30
0.0
 10
395.3253959515159
 20
437.6439153636793
 30
0.0
 10
395.3253959515159
 20
437.6439153636793
 30
0.0
 10
394.8709878570114
 20
437.6439153636793
 30
0.0
 10
394.8709878570114
 20
437.6439153636793
 30
0.0
 10
394.8709878570114
 20
437.6439153636793
 30
0.0
 10
394.8709878570114
 20
433.4295300565732
 30
0.0
 10
394.8709878570114
 20
433.4295300565732
 30
0.0
 10
394.8709878570114
 20
433.4295300565732
 30
0.0
 10
395.6847194106275
 20
433.4295300565732
 30
0.0
 10
395.6847194106275
 20
433.4295300565732
 30
0.0
 10
395.6847194106275
 20
433.4295300565732
 30
0.0
 10
395.6847194106275
 20
434.137497178792
 30
0.0
 10
395.6847194106275
 20
434.137497178792
 30
0.0
 10
395.6847194106275
 20
434.137497178792
 30
0.0
 10
399.4753579730478
 20
434.137497178792
 30
0.0
 10
399.4753579730478
 20
434.137497178792
 30
0.0
 10
400.1109780900765
 20
434.137497178792
 30
0.0
 10
400.5767549996822
 20
433.985912977441
 30
0.0
 10
400.873205466188
 20
433.6830890842876
 30
0.0
 10
401.1700004422422
 20
433.3799206815856
 30
0.0
 10
401.3179672933337
 20
432.9537623700602
 30
0.0
 10
401.3179672933337
 20
432.4042696401629
 30
0.0
 10
401.3179672933337
 20
431.840652018776
 30
0.0
 10
401.1662108372084
 20
431.4089815544742
 30
0.0
 10
400.862697924958
 20
431.1096027568059
 30
0.0
 10
400.5591850127074
 20
430.8098794495892
 30
0.0
 10
400.0966809438127
 20
430.6603623055294
 30
0.0
 10
399.4757024825964
 20
430.6603623055294
 30
0.0
 10
399.4757024825964
 20
430.6603623055294
 30
0.0
 10
395.6847194106275
 20
430.6603623055294
 30
0.0
 10
395.6847194106275
 20
430.6603623055294
 30
0.0
 10
395.6847194106275
 20
430.6603623055294
 30
0.0
 10
395.6847194106275
 20
431.3790092237525
 30
0.0
 10
395.6847194106275
 20
431.3790092237525
 30
0.0
 10
395.6847194106275
 20
431.3790092237525
 30
0.0
 10
394.8709878570114
 20
431.3790092237525
 30
0.0
 10
394.8709878570114
 20
431.3790092237525
 30
0.0
 10
394.8709878570114
 20
431.3790092237525
 30
0.0
 10
394.8709878570114
 20
428.8957843979844
 30
0.0
 10
394.8709878570114
 20
428.8957843979844
 30
0.0
 10
394.8709878570114
 20
428.8957843979844
 30
0.0
 10
395.6847194106275
 20
428.8957843979844
 30
0.0
 10
395.6847194106275
 20
428.8957843979844
 30
0.0
 10
395.6847194106275
 20
428.8957843979844
 30
0.0
 10
395.6847194106275
 20
429.5190021712661
 30
0.0
 10
395.6847194106275
 20
429.5190021712661
 30
0.0
 10
395.6847194106275
 20
429.5190021712661
 30
0.0
 10
399.4848319856323
 20
429.5190021712661
 30
0.0
 10
399.4848319856323
 20
429.5190021712661
 30
0.0
 10
399.9084064755438
 20
429.5190021712661
 30
0.0
 10
400.2897785457609
 20
429.573434679933
 30
0.0
 10
400.628431431961
 20
429.6826442068155
 30
0.0
 10
400.9672565729353
 20
429.7915092241494
 30
0.0
 10
401.2528549886625
 20
429.9620414506692
 30
0.0
 10
401.4857434434654
 20
430.1938963768266
 30
0.0
 10
401.7186318982683
 20
430.4264403220809
 30
0.0
 10
401.8967433348557
 20
430.7234075529095
 30
0.0
 10
402.0204222627762
 20
431.0854870884092
 30
0.0
 10
402.1439289359224
 20
431.447566623909
 30
0.0
 10
402.2057683998826
 20
431.881993164599
 30
0.0
 10
402.2057683998826
 20
432.3884222009307
 30
0.0
 10
402.2057683998826
 20
433.3661402996446
 30
0.0
 10
401.9606498561071
 20
434.0885768229015
 30
0.0
 10
401.4700682590075
 20
434.5564207897984
 30
0.0
 10
400.9796589166822
 20
435.0239202471468
 30
0.0
 10
400.31802832874
 20
435.2578422305953
 30
0.0
 10
399.4850042404066
 20
435.2578422305953
 30
0.0
 10
399.4850042404066
 20
435.2578422305953
 30
0.0
 10
395.6847194106275
 20
435.2578422305953
 30
0.0
 10
395.6847194106275
 20
435.2578422305953
 30
0.0
 10
395.6847194106275
 20
435.2578422305953
 30
0.0
 10
395.6847194106275
 20
436.5552651903404
 30
0.0
 10
395.6847194106275
 20
436.5552651903404
 30
0.0
 10
395.6847194106275
 20
436.5552651903404
 30
0.0
 10
400.039147849209
 20
436.5552651903404
 30
0.0
 10
400.039147849209
 20
436.5552651903404
 30
0.0
 10
400.039147849209
 20
436.5552651903404
 30
0.0
 10
400.039147849209
 20
437.6756102421436
 30
0.0
 10
400.039147849209
 20
437.6756102421436
 30
0.0
 10
400.039147849209
 20
437.6756102421436
 30
0.0
 10
396.1603148423662
 20
437.6756102421436
 30
0.0
 10
396.1603148423662
 20
437.6756102421436
 30
0.0
 10
396.0405977742537
 20
437.8585448124104
 30
0.0
 10
395.9367281453735
 20
438.0700736752047
 30
0.0
 10
395.8485337009511
 20
438.3098523209781
 30
0.0
 10
395.7605115113029
 20
438.549286457203
 30
0.0
 10
395.716586543866
 20
438.7711506064531
 30
0.0
 10
395.716586543866
 20
438.9754447687284
 30
0.0
 10
395.716586543866
 20
439.2148789049533
 30
0.0
 10
395.778253753052
 20
439.4088377807728
 30
0.0
 10
395.901588171424
 20
439.5569768866386
 30
0.0
 10
396.0249225897959
 20
439.7047714829558
 30
0.0
 10
396.2555717325333
 20
439.7788410358887
 30
0.0
 10
396.5938801091849
 20
439.7788410358887
 30
0.0
 10
396.5938801091849
 20
439.7788410358887
 30
0.0
 10
400.039147849209
 20
439.7788410358887
 30
0.0
 10
400.039147849209
 20
439.7788410358887
 30
0.0
 10
400.039147849209
 20
439.7788410358887
 30
0.0
 10
400.039147849209
 20
440.8991860876919
 30
0.0
 10
400.039147849209
 20
440.8991860876919
 30
0.0
 10
400.039147849209
 20
440.8991860876919
 30
0.0
 10
396.7628620427364
 20
440.8991860876919
 30
0.0
 10
396.7628620427364
 20
440.8991860876919
 30
0.0
 10
396.6782849485735
 20
440.8991860876919
 30
0.0
 10
396.5776881604042
 20
440.8971190304007
 30
0.0
 10
396.4615884425513
 20
440.894018444464
 30
0.0
 10
396.3454887246984
 20
440.8902288394302
 30
0.0
 10
396.2309392998138
 20
440.8743814001981
 30
0.0
 10
396.1181124226719
 20
440.8464761267676
 30
0.0
 10
396.0617851114881
 20
440.9308809661562
 30
0.0
 10
396.0089028957894
 20
441.0294106970343
 30
0.0
 10
395.9596380303504
 20
441.1424098289505
 30
0.0
 10
395.9103731649113
 20
441.2550644513182
 30
0.0
 10
395.8679984904427
 20
441.3711641691711
 30
0.0
 10
395.8326862617189
 20
441.4910534920578
 30
0.0
 10
395.7977185425436
 20
441.6109428149445
 30
0.0
 10
395.7692965047903
 20
441.72876508054
 30
0.0
 10
395.748109167556
 20
441.8452093079415
 30
0.0
 10
395.727094085096
 20
441.9613090257944
 30
0.0
 10
395.7164142890917
 20
442.0687960049342
 30
0.0
 10
395.7164142890917
 20
442.1676702453609
 30
0.0
 10
395.7164142890917
 20
442.5197590039534
 30
0.0
 10
395.7994410902863
 20
442.7505804014651
 30
0.0
 10
395.9648056735783
 20
442.8597899283476
 30
0.0
 10
396.1303425116445
 20
442.96899945523
 30
0.0
 10
396.3857963418758
 20
443.0234319638969
 30
0.0
 10
396.7309949094978
 20
443.0234319638969
 30
0.0
 10
396.7309949094978
 20
443.0234319638969
 30
0.0
 10
399.3627033506802
 20
443.0234319638969
 30
0.0
 10
399.3627033506802
 20
443.0234319638969
 30
0.0
 10
399.6164346331688
 20
443.0375568553865
 30
0.0
 10
399.8029865536951
 20
443.1026691600577
 30
0.0
 10
399.9228758765818
 20
443.2191133874591
 30
0.0
 10
400.0425929446942
 20
443.3352131053121
 30
0.0
 10
400.1025376061376
 20
443.5519096113343
 30
0.0
 10
400.1025376061376
 20
443.8688583959773
 30
0.0
 10
400.1025376061376
 20
444.009762801324
 30
0.0
 10
400.0866901669054
 20
444.1716822891307
 30
0.0
 10
400.0549952884411
 20
444.3553058784945
 30
0.0
 10
400.0233004099769
 20
444.5382404487613
 30
0.0
 10
399.9723129967952
 20
444.7073946370871
 30
0.0
 10
399.9016885393475
 20
444.8624239339233
 30
0.0
 10
399.9016885393475
 20
444.8624239339233
 30
0.0
 10
399.235923836823
 20
444.8624239339233
 30
0.0
 10
399.235923836823
 20
444.8624239339233
 30
0.0
 10
399.235923836823
 20
444.8624239339233
 30
0.0
 10
399.235923836823
 20
444.1437770157002
 30
0.0
 10
399.235923836823
 20
444.1437770157002
 30
0.0
 10
399.235923836823
 20
444.1437770157002
 30
0.0
 10
399.2357515820487
 20
444.1437770157002
 30
0.0
 10
399.2357515820487
 20
444.1437770157002
 30
0.0
  0
POLYLINE
  5
F9
330
1F
100
AcDbEntity
  8
LAYER_1
 62
   223
100
AcDb2dPolyline
 66
     1
 10
0.0
 20
0.0
 30
0.0
  0
VERTEX
  5
FA
330
F9
100
AcDbEntity
  8
LAYER_1
 62
   223
100
AcDbVertex
100
AcDb2dVertex
 10
400.0444877472111
 20
445.9042208086628
 30
0.0
  0
VERTEX
  5
FB
330
F9
100
AcDbEntity
  8
LAYER_1
 62
   223
100
AcDbVertex
100
AcDb2dVertex
 10
399.2305839388209
 20
445.9042208086628
 30
0.0
  0
VERTEX
  5
FC
330
F9
100
AcDbEntity
  8
LAYER_1
 62
   223
100
AcDbVertex
100
AcDb2dVertex
 10
399.2305839388209
 20
446.7706623232032
 30
0.0
  0
VERTEX
  5
FD
330
F9
100
AcDbEntity
  8
LAYER_1
 62
   223
100
AcDbVertex
100
AcDb2dVertex
 10
393.6080158521189
 20
446.7706623232032
 30
0.0
  0
VERTEX
  5
FE
330
F9
100
AcDbEntity
  8
LAYER_1
 62
   223
100
AcDbVertex
100
AcDb2dVertex
 10
393.6080158521189
 20
445.2382838513641
 30
0.0
  0
VERTEX
  5
FF
330
F9
100
AcDbEntity
  8
LAYER_1
 62
   223
100
AcDbVertex
100
AcDb2dVertex
 10
394.7705633236164
 20
445.2382838513641
 30
0.0
  0
VERTEX
  5
100
330
F9
100
AcDbEntity
  8
LAYER_1
 62
   223
100
AcDbVertex
100
AcDb2dVertex
 10
394.7705633236164
 20
444.3928574192838
 30
0.0
  0
VERTEX
  5
101
330
F9
100
AcDbEntity
  8
LAYER_1
 62
   223
100
AcDbVertex
100
AcDb2dVertex
 10
392.7942842985028
 20
444.3928574192838
 30
0.0
  0
VERTEX
  5
102
330
F9
100
AcDbEntity
  8
LAYER_1
 62
   223
100
AcDbVertex
100
AcDb2dVertex
 10
392.7942842985028
 20
450.2794920749301
 30
0.0
  0
VERTEX
  5
103
330
F9
100
AcDbEntity
  8
LAYER_1
 62
   223
100
AcDbVertex
100
AcDb2dVertex
 10
394.7705633236164
 20
450.2794920749301
 30
0.0
  0
VERTEX
  5
104
330
F9
100
AcDbEntity
  8
LAYER_1
 62
   223
100
AcDbVertex
100
AcDb2dVertex
 10
394.7705633236164
 20
449.4340656428498
 30
0.0
  0
VERTEX
  5
105
330
F9
100
AcDbEntity
  8
LAYER_1
 62
   223
100
AcDbVertex
100
AcDb2dVertex
 10
393.6080158521189
 20
449.4340656428498
 30
0.0
  0
VERTEX
  5
106
330
F9
100
AcDbEntity
  8
LAYER_1
 62
   223
100
AcDbVertex
100
AcDb2dVertex
 10
393.6080158521189
 20
447.9227022534707
 30
0.0
  0
VERTEX
  5
107
330
F9
100
AcDbEntity
  8
LAYER_1
 62
   223
100
AcDbVertex
100
AcDb2dVertex
 10
399.2305839388209
 20
447.9227022534707
 30
0.0
  0
VERTEX
  5
108
330
F9
100
AcDbEntity
  8
LAYER_1
 62
   223
100
AcDbVertex
100
AcDb2dVertex
 10
399.2305839388209
 20
448.7894882775596
 30
0.0
  0
VERTEX
  5
109
330
F9
100
AcDbEntity
  8
LAYER_1
 62
   223
100
AcDbVertex
100
AcDb2dVertex
 10
400.0444877472111
 20
448.7894882775596
 30
0.0
  0
VERTEX
  5
10A
330
F9
100
AcDbEntity
  8
LAYER_1
 62
   223
100
AcDbVertex
100
AcDb2dVertex
 10
400.0444877472111
 20
445.9042208086628
 30
0.0
  0
SEQEND
  5
10B
330
F9
100
AcDbEntity
  8
LAYER_1
  0
SPLINE
  5
10C
330
1F
100
AcDbEntity
  8
LAYER_1
 62
   223
100
AcDbSpline
210
0.0
220
0.0
230
1.0
 70
    11
 71
     3
 72
    38
 73
    34
 74
     0
 42
0.0000000001
 43
0.0000000001
 40
0.0
 40
0.0
 40
0.0
 40
0.0
 40
1.0
 40
1.0
 40
1.0
 40
2.0
 40
2.0
 40
2.0
 40
3.0
 40
3.0
 40
3.0
 40
4.0
 40
4.0
 40
4.0
 40
5.0
 40
5.0
 40
5.0
 40
6.0
 40
6.0
 40
6.0
 40
7.0
 40
7.0
 40
7.0
 40
8.0
 40
8.0
 40
8.0
 40
9.0
 40
9.0
 40
9.0
 40
10.0
 40
10.0
 40
10.0
 40
11.0
 40
11.0
 40
11.0
 40
11.0
 10
394.8498005197771
 20
454.7980793133838
 30
0.0
 10
394.6236300011705
 20
454.7980793133838
 30
0.0
 10
394.4307046539965
 20
454.7629393394343
 30
0.0
 10
394.2715412425779
 20
454.6923148819866
 30
0.0
 10
394.1123778311594
 20
454.6220349340876
 30
0.0
 10
393.9831867504626
 20
454.5286728464373
 30
0.0
 10
393.8841402552616
 20
454.4122286190358
 30
0.0
 10
393.7850937600607
 20
454.296128901183
 30
0.0
 10
393.7142970478388
 20
454.1586695913215
 30
0.0
 10
393.6719223733703
 20
454.000195199
 30
0.0
 10
393.6295476989017
 20
453.8417208066785
 30
0.0
 10
393.6080158521189
 20
453.6777342615806
 30
0.0
 10
393.6080158521189
 20
453.5085800732548
 30
0.0
 10
393.6080158521189
 20
453.5085800732548
 30
0.0
 10
393.6080158521189
 20
452.2297606291301
 30
0.0
 10
393.6080158521189
 20
452.2297606291301
 30
0.0
 10
393.6080158521189
 20
452.2297606291301
 30
0.0
 10
396.1446396579083
 20
452.2297606291301
 30
0.0
 10
396.1446396579083
 20
452.2297606291301
 30
0.0
 10
396.1446396579083
 20
452.2297606291301
 30
0.0
 10
396.1446396579083
 20
453.5085800732548
 30
0.0
 10
396.1446396579083
 20
453.5085800732548
 30
0.0
 10
396.1446396579083
 20
453.6494844786016
 30
0.0
 10
396.1270696709335
 20
453.7959010367247
 30
0.0
 10
396.0915851874354
 20
453.9471407285271
 30
0.0
 10
396.0562729587116
 20
454.0987249298781
 30
0.0
 10
395.9906438897177
 20
454.2379067874822
 30
0.0
 10
395.8952147447762
 20
454.3646863013394
 30
0.0
 10
395.799957854609
 20
454.4918103247451
 30
0.0
 10
395.6688719713953
 20
454.5955076988511
 30
0.0
 10
395.502646114232
 20
454.6764674427545
 30
0.0
 10
395.3364202570687
 20
454.7574271866579
 30
0.0
 10
395.1186902224009
 20
454.7980793133838
 30
0.0
 10
394.8498005197771
 20
454.7980793133838
 30
0.0
  0
SPLINE
  5
10D
330
1F
100
AcDbEntity
  8
LAYER_1
 62
   223
100
AcDbSpline
210
0.0
220
0.0
230
1.0
 70
    11
 71
     3
 72
    80
 73
    76
 74
     0
 42
0.0000000001
 43
0.0000000001
 40
0.0
 40
0.0
 40
0.0
 40
0.0
 40
1.0
 40
1.0
 40
1.0
 40
2.0
 40
2.0
 40
2.0
 40
3.0
 40
3.0
 40
3.0
 40
4.0
 40
4.0
 40
4.0
 40
5.0
 40
5.0
 40
5.0
 40
6.0
 40
6.0
 40
6.0
 40
7.0
 40
7.0
 40
7.0
 40
8.0
 40
8.0
 40
8.0
 40
9.0
 40
9.0
 40
9.0
 40
10.0
 40
10.0
 40
10.0
 40
11.0
 40
11.0
 40
11.0
 40
12.0
 40
12.0
 40
12.0
 40
13.0
 40
13.0
 40
13.0
 40
14.0
 40
14.0
 40
14.0
 40
15.0
 40
15.0
 40
15.0
 40
16.0
 40
16.0
 40
16.0
 40
17.0
 40
17.0
 40
17.0
 40
18.0
 40
18.0
 40
18.0
 40
19.0
 40
19.0
 40
19.0
 40
20.0
 40
20.0
 40
20.0
 40
21.0
 40
21.0
 40
21.0
 40
22.0
 40
22.0
 40
22.0
 40
23.0
 40
23.0
 40
23.0
 40
24.0
 40
24.0
 40
24.0
 40
25.0
 40
25.0
 40
25.0
 40
25.0
 10
396.9373561290643
 20
452.2297606291301
 30
0.0
 10
396.9373561290643
 20
452.2297606291301
 30
0.0
 10
399.2307561935951
 20
452.2297606291301
 30
0.0
 10
399.2307561935951
 20
452.2297606291301
 30
0.0
 10
399.2307561935951
 20
452.2297606291301
 30
0.0
 10
399.2307561935951
 20
453.0438366922946
 30
0.0
 10
399.2307561935951
 20
453.0438366922946
 30
0.0
 10
399.2307561935951
 20
453.0438366922946
 30
0.0
 10
400.0446600019854
 20
453.0438366922946
 30
0.0
 10
400.0446600019854
 20
453.0438366922946
 30
0.0
 10
400.0446600019854
 20
453.0438366922946
 30
0.0
 10
400.0446600019854
 20
450.3907686591037
 30
0.0
 10
400.0446600019854
 20
450.3907686591037
 30
0.0
 10
400.0446600019854
 20
450.3907686591037
 30
0.0
 10
399.2307561935951
 20
450.3907686591037
 30
0.0
 10
399.2307561935951
 20
450.3907686591037
 30
0.0
 10
399.2307561935951
 20
450.3907686591037
 30
0.0
 10
399.2307561935951
 20
451.0673854124068
 30
0.0
 10
399.2307561935951
 20
451.0673854124068
 30
0.0
 10
399.2307561935951
 20
451.0673854124068
 30
0.0
 10
393.6080158521189
 20
451.0673854124068
 30
0.0
 10
393.6080158521189
 20
451.0673854124068
 30
0.0
 10
393.6080158521189
 20
451.0673854124068
 30
0.0
 10
393.6080158521189
 20
450.3907686591037
 30
0.0
 10
393.6080158521189
 20
450.3907686591037
 30
0.0
 10
393.6080158521189
 20
450.3907686591037
 30
0.0
 10
392.7942842985028
 20
450.3907686591037
 30
0.0
 10
392.7942842985028
 20
450.3907686591037
 30
0.0
 10
392.7942842985028
 20
450.3907686591037
 30
0.0
 10
392.7942842985028
 20
453.6990938535891
 30
0.0
 10
392.7942842985028
 20
453.6990938535891
 30
0.0
 10
392.7942842985028
 20
454.4387558542723
 30
0.0
 10
392.9708454421219
 20
455.0096081761782
 30
0.0
 10
393.3234509650372
 20
455.4109618002098
 30
0.0
 10
393.6765732522753
 20
455.8126599337899
 30
0.0
 10
394.1845525815754
 20
456.01350900058
 30
0.0
 10
394.8479057172603
 20
456.01350900058
 30
0.0
 10
395.0174044151345
 20
456.01350900058
 30
0.0
 10
395.1972383994646
 20
455.99249391812
 30
0.0
 10
395.3879244345732
 20
455.9501192436514
 30
0.0
 10
395.5786104696817
 20
455.9077445691828
 30
0.0
 10
395.7636120972397
 20
455.8353975639926
 30
0.0
 10
395.9437905911182
 20
455.7334227376292
 30
0.0
 10
396.1236245754483
 20
455.6311034017173
 30
0.0
 10
396.2860608275778
 20
455.4957111491469
 30
0.0
 10
396.4307548379583
 20
455.3265569608212
 30
0.0
 10
396.5752765935645
 20
455.1574027724954
 30
0.0
 10
396.6865531777381
 20
454.9496635147348
 30
0.0
 10
396.7642400809305
 20
454.7029946779909
 30
0.0
 10
396.7642400809305
 20
454.7029946779909
 30
0.0
 10
399.3179171093719
 20
455.8767387098156
 30
0.0
 10
399.3179171093719
 20
455.8767387098156
 30
0.0
 10
399.3179171093719
 20
455.8767387098156
 30
0.0
 10
399.2493597092155
 20
456.3666312878181
 30
0.0
 10
399.2493597092155
 20
456.3666312878181
 30
0.0
 10
399.2493597092155
 20
456.3666312878181
 30
0.0
 10
400.0630912628314
 20
456.3666312878181
 30
0.0
 10
400.0630912628314
 20
456.3666312878181
 30
0.0
 10
400.087034676454
 20
456.3132323077967
 30
0.0
 10
400.0951306508443
 20
456.289805658497
 30
0.0
 10
400.1233804338233
 20
456.103425992745
 30
0.0
 10
400.1512857072539
 20
455.9167018174444
 30
0.0
 10
400.1609319746125
 20
455.7950899468152
 30
0.0
 10
400.1609319746125
 20
455.675545133477
 30
0.0
 10
400.1609319746125
 20
455.421641596214
 30
0.0
 10
400.1044324086545
 20
455.2349174209135
 30
0.0
 10
399.9917777862868
 20
455.1153726075754
 30
0.0
 10
399.8791231639191
 20
454.9954832846886
 30
0.0
 10
399.7170314213381
 20
454.8862737578062
 30
0.0
 10
399.505674813318
 20
454.7877440269281
 30
0.0
 10
399.505674813318
 20
454.7877440269281
 30
0.0
 10
396.9373561290643
 20
453.6567191791206
 30
0.0
 10
396.9373561290643
 20
453.6567191791206
 30
0.0
 10
396.9373561290643
 20
453.6567191791206
 30
0.0
 10
396.9373561290643
 20
452.2297606291301
 30
0.0
 10
396.9373561290643
 20
452.2297606291301
 30
0.0
  0
POLYLINE
  5
10E
330
1F
100
AcDbEntity
  8
LAYER_1
 62
   223
100
AcDb2dPolyline
 66
     1
 10
0.0
 20
0.0
 30
0.0
  0
VERTEX
  5
10F
330
10E
100
AcDbEntity
  8
LAYER_1
 62
   223
100
AcDbVertex
100
AcDb2dVertex
 10
392.7942842985028
 20
460.5996201105445
 30
0.0
  0
VERTEX
  5
110
330
10E
100
AcDbEntity
  8
LAYER_1
 62
   223
100
AcDbVertex
100
AcDb2dVertex
 10
392.7942842985028
 20
463.0094644024768
 30
0.0
  0
VERTEX
  5
111
330
10E
100
AcDbEntity
  8
LAYER_1
 62
   223
100
AcDbVertex
100
AcDb2dVertex
 10
393.6290309345789
 20
463.0094644024768
 30
0.0
  0
VERTEX
  5
112
330
10E
100
AcDbEntity
  8
LAYER_1
 62
   223
100
AcDbVertex
100
AcDb2dVertex
 10
393.6290309345789
 20
462.343527445178
 30
0.0
  0
VERTEX
  5
113
330
10E
100
AcDbEntity
  8
LAYER_1
 62
   223
100
AcDbVertex
100
AcDb2dVertex
 10
396.3292967759177
 20
460.5258950671602
 30
0.0
  0
VERTEX
  5
114
330
10E
100
AcDbEntity
  8
LAYER_1
 62
   223
100
AcDbVertex
100
AcDb2dVertex
 10
399.2307561935951
 20
462.3965819156509
 30
0.0
  0
VERTEX
  5
115
330
10E
100
AcDbEntity
  8
LAYER_1
 62
   223
100
AcDbVertex
100
AcDb2dVertex
 10
399.2307561935951
 20
463.0938692418654
 30
0.0
  0
VERTEX
  5
116
330
10E
100
AcDbEntity
  8
LAYER_1
 62
   223
100
AcDbVertex
100
AcDb2dVertex
 10
400.0444877472111
 20
463.1045490378697
 30
0.0
  0
VERTEX
  5
117
330
10E
100
AcDbEntity
  8
LAYER_1
 62
   223
100
AcDbVertex
100
AcDb2dVertex
 10
400.0444877472111
 20
460.3670761652902
 30
0.0
  0
VERTEX
  5
118
330
10E
100
AcDbEntity
  8
LAYER_1
 62
   223
100
AcDbVertex
100
AcDb2dVertex
 10
399.2307561935951
 20
460.3670761652902
 30
0.0
  0
VERTEX
  5
119
330
10E
100
AcDbEntity
  8
LAYER_1
 62
   223
100
AcDbVertex
100
AcDb2dVertex
 10
399.2307561935951
 20
461.033013122589
 30
0.0
  0
VERTEX
  5
11A
330
10E
100
AcDbEntity
  8
LAYER_1
 62
   223
100
AcDbVertex
100
AcDb2dVertex
 10
397.0007458859929
 20
459.6484292470671
 30
0.0
  0
VERTEX
  5
11B
330
10E
100
AcDbEntity
  8
LAYER_1
 62
   223
100
AcDbVertex
100
AcDb2dVertex
 10
399.2307561935951
 20
458.2321504930809
 30
0.0
  0
VERTEX
  5
11C
330
10E
100
AcDbEntity
  8
LAYER_1
 62
   223
100
AcDbVertex
100
AcDb2dVertex
 10
399.2307561935951
 20
458.9297823288439
 30
0.0
  0
VERTEX
  5
11D
330
10E
100
AcDbEntity
  8
LAYER_1
 62
   223
100
AcDbVertex
100
AcDb2dVertex
 10
400.0444877472111
 20
458.9297823288439
 30
0.0
  0
VERTEX
  5
11E
330
10E
100
AcDbEntity
  8
LAYER_1
 62
   223
100
AcDbVertex
100
AcDb2dVertex
 10
400.0444877472111
 20
456.4779078719916
 30
0.0
  0
VERTEX
  5
11F
330
10E
100
AcDbEntity
  8
LAYER_1
 62
   223
100
AcDbVertex
100
AcDb2dVertex
 10
399.2307561935951
 20
456.4779078719916
 30
0.0
  0
VERTEX
  5
120
330
10E
100
AcDbEntity
  8
LAYER_1
 62
   223
100
AcDbVertex
100
AcDb2dVertex
 10
399.2307561935951
 20
457.1224852372819
 30
0.0
  0
VERTEX
  5
121
330
10E
100
AcDbEntity
  8
LAYER_1
 62
   223
100
AcDbVertex
100
AcDb2dVertex
 10
396.2869221014491
 20
459.0565618427012
 30
0.0
  0
VERTEX
  5
122
330
10E
100
AcDbEntity
  8
LAYER_1
 62
   223
100
AcDbVertex
100
AcDb2dVertex
 10
393.6290309345789
 20
457.3974038570049
 30
0.0
  0
VERTEX
  5
123
330
10E
100
AcDbEntity
  8
LAYER_1
 62
   223
100
AcDbVertex
100
AcDb2dVertex
 10
393.6290309345789
 20
456.6363822643132
 30
0.0
  0
VERTEX
  5
124
330
10E
100
AcDbEntity
  8
LAYER_1
 62
   223
100
AcDbVertex
100
AcDb2dVertex
 10
392.7942842985028
 20
456.6470620603174
 30
0.0
  0
VERTEX
  5
125
330
10E
100
AcDbEntity
  8
LAYER_1
 62
   223
100
AcDbVertex
100
AcDb2dVertex
 10
392.7942842985028
 20
459.3314804624241
 30
0.0
  0
VERTEX
  5
126
330
10E
100
AcDbEntity
  8
LAYER_1
 62
   223
100
AcDbVertex
100
AcDb2dVertex
 10
393.6290309345789
 20
459.3314804624241
 30
0.0
  0
VERTEX
  5
127
330
10E
100
AcDbEntity
  8
LAYER_1
 62
   223
100
AcDbVertex
100
AcDb2dVertex
 10
393.6290309345789
 20
458.7182534660496
 30
0.0
  0
VERTEX
  5
128
330
10E
100
AcDbEntity
  8
LAYER_1
 62
   223
100
AcDbVertex
100
AcDb2dVertex
 10
395.637177092931
 20
459.9550427452543
 30
0.0
  0
VERTEX
  5
129
330
10E
100
AcDbEntity
  8
LAYER_1
 62
   223
100
AcDbVertex
100
AcDb2dVertex
 10
393.6290309345789
 20
461.2338621893791
 30
0.0
  0
VERTEX
  5
12A
330
10E
100
AcDbEntity
  8
LAYER_1
 62
   223
100
AcDbVertex
100
AcDb2dVertex
 10
393.6290309345789
 20
460.5996201105445
 30
0.0
  0
VERTEX
  5
12B
330
10E
100
AcDbEntity
  8
LAYER_1
 62
   223
100
AcDbVertex
100
AcDb2dVertex
 10
392.7942842985028
 20
460.5996201105445
 30
0.0
  0
SEQEND
  5
12C
330
10E
100
AcDbEntity
  8
LAYER_1
  0
SPLINE
  5
12D
330
1F
100
AcDbEntity
  8
LAYER_1
 62
     7
100
AcDbSpline
210
0.0
220
0.0
230
1.0
 70
    11
 71
     3
 72
    29
 73
    25
 74
     0
 42
0.0000000001
 43
0.0000000001
 40
0.0
 40
0.0
 40
0.0
 40
0.0
 40
1.0
 40
1.0
 40
1.0
 40
2.0
 40
2.0
 40
2.0
 40
3.0
 40
3.0
 40
3.0
 40
4.0
 40
4.0
 40
4.0
 40
5.0
 40
5.0
 40
5.0
 40
6.0
 40
6.0
 40
6.0
 40
7.0
 40
7.0
 40
7.0
 40
8.0
 40
8.0
 40
8.0
 40
8.0
 10
413.5003416934999
 20
511.0006780406526
 30
0.0
 10
413.5003416934999
 20
511.0006780406526
 30
0.0
 10
583.4996119417988
 20
511.0006780406526
 30
0.0
 10
583.4996119417988
 20
511.0006780406526
 30
0.0
 10
586.2694687119396
 20
511.0006780406526
 30
0.0
 10
588.5005125481874
 20
508.7696342044048
 30
0.0
 10
588.5005125481874
 20
505.999777434264
 30
0.0
 10
588.5005125481874
 20
505.999777434264
 30
0.0
 10
588.5005125481874
 20
386.0005560015902
 30
0.0
 10
588.5005125481874
 20
386.0005560015902
 30
0.0
 10
588.5005125481874
 20
383.2303547219008
 30
0.0
 10
586.2694687119396
 20
380.999310885653
 30
0.0
 10
583.4996119417988
 20
380.999310885653
 30
0.0
 10
583.4996119417988
 20
380.999310885653
 30
0.0
 10
413.5003416934999
 20
380.999310885653
 30
0.0
 10
413.5003416934999
 20
380.999310885653
 30
0.0
 10
410.7303126685848
 20
380.999310885653
 30
0.0
 10
408.4994410871113
 20
383.2303547219008
 30
0.0
 10
408.4994410871113
 20
386.0005560015902
 30
0.0
 10
408.4994410871113
 20
386.0005560015902
 30
0.0
 10
408.4994410871113
 20
505.999777434264
 30
0.0
 10
408.4994410871113
 20
505.999777434264
 30
0.0
 10
408.4994410871113
 20
508.7696342044048
 30
0.0
 10
410.7303126685848
 20
511.0006780406526
 30
0.0
 10
413.5003416934999
 20
511.0006780406526
 30
0.0
  0
SPLINE
  5
12E
330
1F
100
AcDbEntity
  8
LAYER_1
 62
   250
100
AcDbSpline
210
0.0
220
0.0
230
1.0
 70
    11
 71
     3
 72
    17
 73
    13
 74
     0
 42
0.0000000001
 43
0.0000000001
 40
0.0
 40
0.0
 40
0.0
 40
0.0
 40
1.0
 40
1.0
 40
1.0
 40
2.0
 40
2.0
 40
2.0
 40
3.0
 40
3.0
 40
3.0
 40
4.0
 40
4.0
 40
4.0
 40
4.0
 10
569.7498913506181
 20
403.0534341440283
 30
0.0
 10
570.5784368148207
 20
403.0534341440283
 30
0.0
 10
571.2498859248959
 20
402.3819850339531
 30
0.0
 10
571.2498859248959
 20
401.5534395697505
 30
0.0
 10
571.2498859248959
 20
400.7252386150965
 30
0.0
 10
570.5784368148207
 20
400.0534449954728
 30
0.0
 10
569.7498913506181
 20
400.0534449954728
 30
0.0
 10
568.921690395964
 20
400.0534449954728
 30
0.0
 10
568.2498967763403
 20
400.7252386150965
 30
0.0
 10
568.2498967763403
 20
401.5534395697505
 30
0.0
 10
568.2498967763403
 20
402.3819850339531
 30
0.0
 10
568.921690395964
 20
403.0534341440283
 30
0.0
 10
569.7498913506181
 20
403.0534341440283
 30
0.0
  0
SPLINE
  5
12F
330
1F
100
AcDbEntity
  8
LAYER_1
 62
   250
100
AcDbSpline
210
0.0
220
0.0
230
1.0
 70
    11
 71
     3
 72
    17
 73
    13
 74
     0
 42
0.0000000001
 43
0.0000000001
 40
0.0
 40
0.0
 40
0.0
 40
0.0
 40
1.0
 40
1.0
 40
1.0
 40
2.0
 40
2.0
 40
2.0
 40
3.0
 40
3.0
 40
3.0
 40
4.0
 40
4.0
 40
4.0
 40
4.0
 10
569.7498913506181
 20
492.0061440827276
 30
0.0
 10
570.5784368148207
 20
492.0061440827276
 30
0.0
 10
571.2498859248959
 20
491.3346949726525
 30
0.0
 10
571.2498859248959
 20
490.5064940179984
 30
0.0
 10
571.2498859248959
 20
489.6779485537958
 30
0.0
 10
570.5784368148207
 20
489.0061549341721
 30
0.0
 10
569.7498913506181
 20
489.0061549341721
 30
0.0
 10
568.921690395964
 20
489.0061549341721
 30
0.0
 10
568.2498967763403
 20
489.6779485537958
 30
0.0
 10
568.2498967763403
 20
490.5064940179984
 30
0.0
 10
568.2498967763403
 20
491.3346949726525
 30
0.0
 10
568.921690395964
 20
492.0061440827276
 30
0.0
 10
569.7498913506181
 20
492.0061440827276
 30
0.0
  0
POLYLINE
  5
130
330
1F
100
AcDbEntity
  8
LAYER_1
 62
    30
100
AcDb2dPolyline
 66
     1
 10
0.0
 20
0.0
 30
0.0
  0
VERTEX
  5
131
330
130
100
AcDbEntity
  8
LAYER_1
 62
    30
100
AcDbVertex
100
AcDb2dVertex
 10
413.4999971839514
 20
496.0000432787778
 30
0.0
  0
VERTEX
  5
132
330
130
100
AcDbEntity
  8
LAYER_1
 62
    30
100
AcDbVertex
100
AcDb2dVertex
 10
573.4998777863126
 20
496.0000432787778
 30
0.0
  0
VERTEX
  5
133
330
130
100
AcDbEntity
  8
LAYER_1
 62
    30
100
AcDbVertex
100
AcDb2dVertex
 10
573.4998777863126
 20
395.9999456475278
 30
0.0
  0
VERTEX
  5
134
330
130
100
AcDbEntity
  8
LAYER_1
 62
    30
100
AcDbVertex
100
AcDb2dVertex
 10
413.4999971839514
 20
395.9999456475278
 30
0.0
  0
VERTEX
  5
135
330
130
100
AcDbEntity
  8
LAYER_1
 62
    30
100
AcDbVertex
100
AcDb2dVertex
 10
413.4999971839514
 20
496.0000432787778
 30
0.0
  0
SEQEND
  5
136
330
130
100
AcDbEntity
  8
LAYER_1
  0
POLYLINE
  5
137
330
1F
100
AcDbEntity
  8
LAYER_1
 62
     7
100
AcDb2dPolyline
 66
     1
 10
0.0
 20
0.0
 30
0.0
  0
VERTEX
  5
138
330
137
100
AcDbEntity
  8
LAYER_1
 62
     7
100
AcDbVertex
100
AcDb2dVertex
 10
550.4997313076876
 20
502.4999049307987
 30
0.0
  0
VERTEX
  5
139
330
137
100
AcDbEntity
  8
LAYER_1
 62
     7
100
AcDbVertex
100
AcDb2dVertex
 10
556.4997096047987
 20
502.4999049307987
 30
0.0
  0
VERTEX
  5
13A
330
137
100
AcDbEntity
  8
LAYER_1
 62
     7
100
AcDbVertex
100
AcDb2dVertex
 10
556.4997096047987
 20
499.4999157822431
 30
0.0
  0
VERTEX
  5
13B
330
137
100
AcDbEntity
  8
LAYER_1
 62
     7
100
AcDbVertex
100
AcDb2dVertex
 10
550.4997313076876
 20
499.4999157822431
 30
0.0
  0
VERTEX
  5
13C
330
137
100
AcDbEntity
  8
LAYER_1
 62
     7
100
AcDbVertex
100
AcDb2dVertex
 10
550.4997313076876
 20
502.4999049307987
 30
0.0
  0
SEQEND
  5
13D
330
137
100
AcDbEntity
  8
LAYER_1
  0
POLYLINE
  5
13E
330
1F
100
AcDbEntity
  8
LAYER_1
 62
     7
100
AcDb2dPolyline
 66
     1
 10
0.0
 20
0.0
 30
0.0
  0
VERTEX
  5
13F
330
13E
100
AcDbEntity
  8
LAYER_1
 62
     7
100
AcDbVertex
100
AcDb2dVertex
 10
530.4999184871667
 20
502.4999049307987
 30
0.0
  0
VERTEX
  5
140
330
13E
100
AcDbEntity
  8
LAYER_1
 62
     7
100
AcDbVertex
100
AcDb2dVertex
 10
536.5002412938263
 20
502.4999049307987
 30
0.0
  0
VERTEX
  5
141
330
13E
100
AcDbEntity
  8
LAYER_1
 62
     7
100
AcDbVertex
100
AcDb2dVertex
 10
536.5002412938263
 20
499.4999157822431
 30
0.0
  0
VERTEX
  5
142
330
13E
100
AcDbEntity
  8
LAYER_1
 62
     7
100
AcDbVertex
100
AcDb2dVertex
 10
530.4999184871667
 20
499.4999157822431
 30
0.0
  0
VERTEX
  5
143
330
13E
100
AcDbEntity
  8
LAYER_1
 62
     7
100
AcDbVertex
100
AcDb2dVertex
 10
530.4999184871667
 20
502.4999049307987
 30
0.0
  0
SEQEND
  5
144
330
13E
100
AcDbEntity
  8
LAYER_1
  0
POLYLINE
  5
145
330
1F
100
AcDbEntity
  8
LAYER_1
 62
     7
100
AcDb2dPolyline
 66
     1
 10
0.0
 20
0.0
 30
0.0
  0
VERTEX
  5
146
330
145
100
AcDbEntity
  8
LAYER_1
 62
     7
100
AcDbVertex
100
AcDb2dVertex
 10
550.4997313076876
 20
392.5000731440625
 30
0.0
  0
VERTEX
  5
147
330
145
100
AcDbEntity
  8
LAYER_1
 62
     7
100
AcDbVertex
100
AcDb2dVertex
 10
556.4997096047987
 20
392.5000731440625
 30
0.0
  0
VERTEX
  5
148
330
145
100
AcDbEntity
  8
LAYER_1
 62
     7
100
AcDbVertex
100
AcDb2dVertex
 10
556.4997096047987
 20
389.4997394859584
 30
0.0
  0
VERTEX
  5
149
330
145
100
AcDbEntity
  8
LAYER_1
 62
     7
100
AcDbVertex
100
AcDb2dVertex
 10
550.4997313076876
 20
389.4997394859584
 30
0.0
  0
VERTEX
  5
14A
330
145
100
AcDbEntity
  8
LAYER_1
 62
     7
100
AcDbVertex
100
AcDb2dVertex
 10
550.4997313076876
 20
392.5000731440625
 30
0.0
  0
SEQEND
  5
14B
330
145
100
AcDbEntity
  8
LAYER_1
  0
POLYLINE
  5
14C
330
1F
100
AcDbEntity
  8
LAYER_1
 62
     7
100
AcDb2dPolyline
 66
     1
 10
0.0
 20
0.0
 30
0.0
  0
VERTEX
  5
14D
330
14C
100
AcDbEntity
  8
LAYER_1
 62
     7
100
AcDbVertex
100
AcDb2dVertex
 10
530.4999184871667
 20
392.5000731440625
 30
0.0
  0
VERTEX
  5
14E
330
14C
100
AcDbEntity
  8
LAYER_1
 62
     7
100
AcDbVertex
100
AcDb2dVertex
 10
536.5002412938263
 20
392.5000731440625
 30
0.0
  0
VERTEX
  5
14F
330
14C
100
AcDbEntity
  8
LAYER_1
 62
     7
100
AcDbVertex
100
AcDb2dVertex
 10
536.5002412938263
 20
389.4997394859584
 30
0.0
  0
VERTEX
  5
150
330
14C
100
AcDbEntity
  8
LAYER_1
 62
     7
100
AcDbVertex
100
AcDb2dVertex
 10
530.4999184871667
 20
389.4997394859584
 30
0.0
  0
VERTEX
  5
151
330
14C
100
AcDbEntity
  8
LAYER_1
 62
     7
100
AcDbVertex
100
AcDb2dVertex
 10
530.4999184871667
 20
392.5000731440625
 30
0.0
  0
SEQEND
  5
152
330
14C
100
AcDbEntity
  8
LAYER_1
  0
POLYLINE
  5
153
330
1F
100
AcDbEntity
  8
LAYER_1
 62
     7
100
AcDb2dPolyline
 66
     1
 10
0.0
 20
0.0
 30
0.0
  0
VERTEX
  5
154
330
153
100
AcDbEntity
  8
LAYER_1
 62
     7
100
AcDbVertex
100
AcDb2dVertex
 10
510.5001056666458
 20
502.4999049307987
 30
0.0
  0
VERTEX
  5
155
330
153
100
AcDbEntity
  8
LAYER_1
 62
     7
100
AcDbVertex
100
AcDb2dVertex
 10
516.500083963757
 20
502.4999049307987
 30
0.0
  0
VERTEX
  5
156
330
153
100
AcDbEntity
  8
LAYER_1
 62
     7
100
AcDbVertex
100
AcDb2dVertex
 10
516.500083963757
 20
499.4999157822431
 30
0.0
  0
VERTEX
  5
157
330
153
100
AcDbEntity
  8
LAYER_1
 62
     7
100
AcDbVertex
100
AcDb2dVertex
 10
510.5001056666458
 20
499.4999157822431
 30
0.0
  0
VERTEX
  5
158
330
153
100
AcDbEntity
  8
LAYER_1
 62
     7
100
AcDbVertex
100
AcDb2dVertex
 10
510.5001056666458
 20
502.4999049307987
 30
0.0
  0
SEQEND
  5
159
330
153
100
AcDbEntity
  8
LAYER_1
  0
POLYLINE
  5
15A
330
1F
100
AcDbEntity
  8
LAYER_1
 62
     7
100
AcDb2dPolyline
 66
     1
 10
0.0
 20
0.0
 30
0.0
  0
VERTEX
  5
15B
330
15A
100
AcDbEntity
  8
LAYER_1
 62
     7
100
AcDbVertex
100
AcDb2dVertex
 10
510.5001056666458
 20
392.5000731440625
 30
0.0
  0
VERTEX
  5
15C
330
15A
100
AcDbEntity
  8
LAYER_1
 62
     7
100
AcDbVertex
100
AcDb2dVertex
 10
516.500083963757
 20
392.5000731440625
 30
0.0
  0
VERTEX
  5
15D
330
15A
100
AcDbEntity
  8
LAYER_1
 62
     7
100
AcDbVertex
100
AcDb2dVertex
 10
516.500083963757
 20
389.4997394859584
 30
0.0
  0
VERTEX
  5
15E
330
15A
100
AcDbEntity
  8
LAYER_1
 62
     7
100
AcDbVertex
100
AcDb2dVertex
 10
510.5001056666458
 20
389.4997394859584
 30
0.0
  0
VERTEX
  5
15F
330
15A
100
AcDbEntity
  8
LAYER_1
 62
     7
100
AcDbVertex
100
AcDb2dVertex
 10
510.5001056666458
 20
392.5000731440625
 30
0.0
  0
SEQEND
  5
160
330
15A
100
AcDbEntity
  8
LAYER_1
  0
POLYLINE
  5
161
330
1F
100
AcDbEntity
  8
LAYER_1
 62
     7
100
AcDb2dPolyline
 66
     1
 10
0.0
 20
0.0
 30
0.0
  0
VERTEX
  5
162
330
161
100
AcDbEntity
  8
LAYER_1
 62
     7
100
AcDbVertex
100
AcDb2dVertex
 10
470.499791006507
 20
502.4999049307987
 30
0.0
  0
VERTEX
  5
163
330
161
100
AcDbEntity
  8
LAYER_1
 62
     7
100
AcDbVertex
100
AcDb2dVertex
 10
476.4997693036181
 20
502.4999049307987
 30
0.0
  0
VERTEX
  5
164
330
161
100
AcDbEntity
  8
LAYER_1
 62
     7
100
AcDbVertex
100
AcDb2dVertex
 10
476.4997693036181
 20
499.4999157822431
 30
0.0
  0
VERTEX
  5
165
330
161
100
AcDbEntity
  8
LAYER_1
 62
     7
100
AcDbVertex
100
AcDb2dVertex
 10
470.499791006507
 20
499.4999157822431
 30
0.0
  0
VERTEX
  5
166
330
161
100
AcDbEntity
  8
LAYER_1
 62
     7
100
AcDbVertex
100
AcDb2dVertex
 10
470.499791006507
 20
502.4999049307987
 30
0.0
  0
SEQEND
  5
167
330
161
100
AcDbEntity
  8
LAYER_1
  0
POLYLINE
  5
168
330
1F
100
AcDbEntity
  8
LAYER_1
 62
     7
100
AcDb2dPolyline
 66
     1
 10
0.0
 20
0.0
 30
0.0
  0
VERTEX
  5
169
330
168
100
AcDbEntity
  8
LAYER_1
 62
     7
100
AcDbVertex
100
AcDb2dVertex
 10
450.4999781859862
 20
502.4999049307987
 30
0.0
  0
VERTEX
  5
16A
330
168
100
AcDbEntity
  8
LAYER_1
 62
     7
100
AcDbVertex
100
AcDb2dVertex
 10
456.5003009926458
 20
502.4999049307987
 30
0.0
  0
VERTEX
  5
16B
330
168
100
AcDbEntity
  8
LAYER_1
 62
     7
100
AcDbVertex
100
AcDb2dVertex
 10
456.5003009926458
 20
499.4999157822431
 30
0.0
  0
VERTEX
  5
16C
330
168
100
AcDbEntity
  8
LAYER_1
 62
     7
100
AcDbVertex
100
AcDb2dVertex
 10
450.4999781859862
 20
499.4999157822431
 30
0.0
  0
VERTEX
  5
16D
330
168
100
AcDbEntity
  8
LAYER_1
 62
     7
100
AcDbVertex
100
AcDb2dVertex
 10
450.4999781859862
 20
502.4999049307987
 30
0.0
  0
SEQEND
  5
16E
330
168
100
AcDbEntity
  8
LAYER_1
  0
POLYLINE
  5
16F
330
1F
100
AcDbEntity
  8
LAYER_1
 62
     7
100
AcDb2dPolyline
 66
     1
 10
0.0
 20
0.0
 30
0.0
  0
VERTEX
  5
170
330
16F
100
AcDbEntity
  8
LAYER_1
 62
     7
100
AcDbVertex
100
AcDb2dVertex
 10
430.5001653654653
 20
502.4999049307987
 30
0.0
  0
VERTEX
  5
171
330
16F
100
AcDbEntity
  8
LAYER_1
 62
     7
100
AcDbVertex
100
AcDb2dVertex
 10
436.5001436625764
 20
502.4999049307987
 30
0.0
  0
VERTEX
  5
172
330
16F
100
AcDbEntity
  8
LAYER_1
 62
     7
100
AcDbVertex
100
AcDb2dVertex
 10
436.5001436625764
 20
499.4999157822431
 30
0.0
  0
VERTEX
  5
173
330
16F
100
AcDbEntity
  8
LAYER_1
 62
     7
100
AcDbVertex
100
AcDb2dVertex
 10
430.5001653654653
 20
499.4999157822431
 30
0.0
  0
VERTEX
  5
174
330
16F
100
AcDbEntity
  8
LAYER_1
 62
     7
100
AcDbVertex
100
AcDb2dVertex
 10
430.5001653654653
 20
502.4999049307987
 30
0.0
  0
SEQEND
  5
175
330
16F
100
AcDbEntity
  8
LAYER_1
  0
POLYLINE
  5
176
330
1F
100
AcDbEntity
  8
LAYER_1
 62
     7
100
AcDb2dPolyline
 66
     1
 10
0.0
 20
0.0
 30
0.0
  0
VERTEX
  5
177
330
176
100
AcDbEntity
  8
LAYER_1
 62
     7
100
AcDbVertex
100
AcDb2dVertex
 10
470.499791006507
 20
392.5000731440625
 30
0.0
  0
VERTEX
  5
178
330
176
100
AcDbEntity
  8
LAYER_1
 62
     7
100
AcDbVertex
100
AcDb2dVertex
 10
476.4997693036181
 20
392.5000731440625
 30
0.0
  0
VERTEX
  5
179
330
176
100
AcDbEntity
  8
LAYER_1
 62
     7
100
AcDbVertex
100
AcDb2dVertex
 10
476.4997693036181
 20
389.4997394859584
 30
0.0
  0
VERTEX
  5
17A
330
176
100
AcDbEntity
  8
LAYER_1
 62
     7
100
AcDbVertex
100
AcDb2dVertex
 10
470.499791006507
 20
389.4997394859584
 30
0.0
  0
VERTEX
  5
17B
330
176
100
AcDbEntity
  8
LAYER_1
 62
     7
100
AcDbVertex
100
AcDb2dVertex
 10
470.499791006507
 20
392.5000731440625
 30
0.0
  0
SEQEND
  5
17C
330
176
100
AcDbEntity
  8
LAYER_1
  0
POLYLINE
  5
17D
330
1F
100
AcDbEntity
  8
LAYER_1
 62
     7
100
AcDb2dPolyline
 66
     1
 10
0.0
 20
0.0
 30
0.0
  0
VERTEX
  5
17E
330
17D
100
AcDbEntity
  8
LAYER_1
 62
     7
100
AcDbVertex
100
AcDb2dVertex
 10
450.4999781859862
 20
392.5000731440625
 30
0.0
  0
VERTEX
  5
17F
330
17D
100
AcDbEntity
  8
LAYER_1
 62
     7
100
AcDbVertex
100
AcDb2dVertex
 10
456.5003009926458
 20
392.5000731440625
 30
0.0
  0
VERTEX
  5
180
330
17D
100
AcDbEntity
  8
LAYER_1
 62
     7
100
AcDbVertex
100
AcDb2dVertex
 10
456.5003009926458
 20
389.4997394859584
 30
0.0
  0
VERTEX
  5
181
330
17D
100
AcDbEntity
  8
LAYER_1
 62
     7
100
AcDbVertex
100
AcDb2dVertex
 10
450.4999781859862
 20
389.4997394859584
 30
0.0
  0
VERTEX
  5
182
330
17D
100
AcDbEntity
  8
LAYER_1
 62
     7
100
AcDbVertex
100
AcDb2dVertex
 10
450.4999781859862
 20
392.5000731440625
 30
0.0
  0
SEQEND
  5
183
330
17D
100
AcDbEntity
  8
LAYER_1
  0
POLYLINE
  5
184
330
1F
100
AcDbEntity
  8
LAYER_1
 62
     7
100
AcDb2dPolyline
 66
     1
 10
0.0
 20
0.0
 30
0.0
  0
VERTEX
  5
185
330
184
100
AcDbEntity
  8
LAYER_1
 62
     7
100
AcDbVertex
100
AcDb2dVertex
 10
430.5001653654653
 20
392.5000731440625
 30
0.0
  0
VERTEX
  5
186
330
184
100
AcDbEntity
  8
LAYER_1
 62
     7
100
AcDbVertex
100
AcDb2dVertex
 10
436.5001436625764
 20
392.5000731440625
 30
0.0
  0
VERTEX
  5
187
330
184
100
AcDbEntity
  8
LAYER_1
 62
     7
100
AcDbVertex
100
AcDb2dVertex
 10
436.5001436625764
 20
389.4997394859584
 30
0.0
  0
VERTEX
  5
188
330
184
100
AcDbEntity
  8
LAYER_1
 62
     7
100
AcDbVertex
100
AcDb2dVertex
 10
430.5001653654653
 20
389.4997394859584
 30
0.0
  0
VERTEX
  5
189
330
184
100
AcDbEntity
  8
LAYER_1
 62
     7
100
AcDbVertex
100
AcDb2dVertex
 10
430.5001653654653
 20
392.5000731440625
 30
0.0
  0
SEQEND
  5
18A
330
184
100
AcDbEntity
  8
LAYER_1
  0
SPLINE
  5
18B
330
1F
100
AcDbEntity
  8
LAYER_1
 62
   250
100
AcDbSpline
210
0.0
220
0.0
230
1.0
 70
    11
 71
     3
 72
    17
 73
    13
 74
     0
 42
0.0000000001
 43
0.0000000001
 40
0.0
 40
0.0
 40
0.0
 40
0.0
 40
1.0
 40
1.0
 40
1.0
 40
2.0
 40
2.0
 40
2.0
 40
3.0
 40
3.0
 40
3.0
 40
4.0
 40
4.0
 40
4.0
 40
4.0
 10
413.5003416934999
 20
507.5004610276388
 30
0.0
 10
414.328542648154
 20
507.5004610276388
 30
0.0
 10
415.0003362677777
 20
506.8290119175636
 30
0.0
 10
415.0003362677777
 20
506.000466453361
 30
0.0
 10
415.0003362677777
 20
505.172265498707
 30
0.0
 10
414.328542648154
 20
504.5004718790832
 30
0.0
 10
413.5003416934999
 20
504.5004718790832
 30
0.0
 10
412.6719684840716
 20
504.5004718790832
 30
0.0
 10
412.0003471192222
 20
505.172265498707
 30
0.0
 10
412.0003471192222
 20
506.000466453361
 30
0.0
 10
412.0003471192222
 20
506.8290119175636
 30
0.0
 10
412.6719684840716
 20
507.5004610276388
 30
0.0
 10
413.5003416934999
 20
507.5004610276388
 30
0.0
  0
SPLINE
  5
18C
330
1F
100
AcDbEntity
  8
LAYER_1
 62
   250
100
AcDbSpline
210
0.0
220
0.0
230
1.0
 70
    11
 71
     3
 72
    17
 73
    13
 74
     0
 42
0.0000000001
 43
0.0000000001
 40
0.0
 40
0.0
 40
0.0
 40
0.0
 40
1.0
 40
1.0
 40
1.0
 40
2.0
 40
2.0
 40
2.0
 40
3.0
 40
3.0
 40
3.0
 40
4.0
 40
4.0
 40
4.0
 40
4.0
 10
413.5003416934999
 20
387.4988280281253
 30
0.0
 10
414.328542648154
 20
387.4988280281253
 30
0.0
 10
415.0003362677777
 20
386.8273789180501
 30
0.0
 10
415.0003362677777
 20
385.9988334538475
 30
0.0
 10
415.0003362677777
 20
385.1706324991935
 30
0.0
 10
414.328542648154
 20
384.4988388795697
 30
0.0
 10
413.5003416934999
 20
384.4988388795697
 30
0.0
 10
412.6719684840716
 20
384.4988388795697
 30
0.0
 10
412.0003471192222
 20
385.1706324991935
 30
0.0
 10
412.0003471192222
 20
385.9988334538475
 30
0.0
 10
412.0003471192222
 20
386.8273789180501
 30
0.0
 10
412.6719684840716
 20
387.4988280281253
 30
0.0
 10
413.5003416934999
 20
387.4988280281253
 30
0.0
  0
SPLINE
  5
18D
330
1F
100
AcDbEntity
  8
LAYER_1
 62
   250
100
AcDbSpline
210
0.0
220
0.0
230
1.0
 70
    11
 71
     3
 72
    17
 73
    13
 74
     0
 42
0.0000000001
 43
0.0000000001
 40
0.0
 40
0.0
 40
0.0
 40
0.0
 40
1.0
 40
1.0
 40
1.0
 40
2.0
 40
2.0
 40
2.0
 40
3.0
 40
3.0
 40
3.0
 40
4.0
 40
4.0
 40
4.0
 40
4.0
 10
583.5003009608957
 20
507.5004610276388
 30
0.0
 10
584.3285019155499
 20
507.5004610276388
 30
0.0
 10
585.0002955351736
 20
506.8290119175636
 30
0.0
 10
585.0002955351736
 20
506.000466453361
 30
0.0
 10
585.0002955351736
 20
505.172265498707
 30
0.0
 10
584.3285019155499
 20
504.5004718790832
 30
0.0
 10
583.5003009608957
 20
504.5004718790832
 30
0.0
 10
582.6721000062417
 20
504.5004718790832
 30
0.0
 10
582.000306386618
 20
505.172265498707
 30
0.0
 10
582.000306386618
 20
506.000466453361
 30
0.0
 10
582.000306386618
 20
506.8290119175636
 30
0.0
 10
582.6721000062417
 20
507.5004610276388
 30
0.0
 10
583.5003009608957
 20
507.5004610276388
 30
0.0
  0
SPLINE
  5
18E
330
1F
100
AcDbEntity
  8
LAYER_1
 62
   250
100
AcDbSpline
210
0.0
220
0.0
230
1.0
 70
    11
 71
     3
 72
    17
 73
    13
 74
     0
 42
0.0000000001
 43
0.0000000001
 40
0.0
 40
0.0
 40
0.0
 40
0.0
 40
1.0
 40
1.0
 40
1.0
 40
2.0
 40
2.0
 40
2.0
 40
3.0
 40
3.0
 40
3.0
 40
4.0
 40
4.0
 40
4.0
 40
4.0
 10
583.5003009608957
 20
387.4988280281253
 30
0.0
 10
584.3285019155499
 20
387.4988280281253
 30
0.0
 10
585.0002955351736
 20
386.8273789180501
 30
0.0
 10
585.0002955351736
 20
385.9988334538475
 30
0.0
 10
585.0002955351736
 20
385.1706324991935
 30
0.0
 10
584.3285019155499
 20
384.4988388795697
 30
0.0
 10
583.5003009608957
 20
384.4988388795697
 30
0.0
 10
582.6721000062417
 20
384.4988388795697
 30
0.0
 10
582.000306386618
 20
385.1706324991935
 30
0.0
 10
582.000306386618
 20
385.9988334538475
 30
0.0
 10
582.000306386618
 20
386.8273789180501
 30
0.0
 10
582.6721000062417
 20
387.4988280281253
 30
0.0
 10
583.5003009608957
 20
387.4988280281253
 30
0.0
  0
POLYLINE
  5
18F
330
1F
100
AcDbEntity
  8
LAYER_1
 62
     7
100
AcDb2dPolyline
 66
     1
 10
0.0
 20
0.0
 30
0.0
  0
VERTEX
  5
190
330
18F
100
AcDbEntity
  8
LAYER_1
 62
     7
100
AcDbVertex
100
AcDb2dVertex
 10
490.4996038270279
 20
392.5000731440625
 30
0.0
  0
VERTEX
  5
191
330
18F
100
AcDbEntity
  8
LAYER_1
 62
     7
100
AcDbVertex
100
AcDb2dVertex
 10
496.4999266336876
 20
392.5000731440625
 30
0.0
  0
VERTEX
  5
192
330
18F
100
AcDbEntity
  8
LAYER_1
 62
     7
100
AcDbVertex
100
AcDb2dVertex
 10
496.4999266336876
 20
389.4997394859584
 30
0.0
  0
VERTEX
  5
193
330
18F
100
AcDbEntity
  8
LAYER_1
 62
     7
100
AcDbVertex
100
AcDb2dVertex
 10
490.4996038270279
 20
389.4997394859584
 30
0.0
  0
VERTEX
  5
194
330
18F
100
AcDbEntity
  8
LAYER_1
 62
     7
100
AcDbVertex
100
AcDb2dVertex
 10
490.4996038270279
 20
392.5000731440625
 30
0.0
  0
SEQEND
  5
195
330
18F
100
AcDbEntity
  8
LAYER_1
  0
POLYLINE
  5
196
330
1F
100
AcDbEntity
  8
LAYER_1
 62
     7
100
AcDb2dPolyline
 66
     1
 10
0.0
 20
0.0
 30
0.0
  0
VERTEX
  5
197
330
196
100
AcDbEntity
  8
LAYER_1
 62
     7
100
AcDbVertex
100
AcDb2dVertex
 10
490.4996038270279
 20
502.4999049307987
 30
0.0
  0
VERTEX
  5
198
330
196
100
AcDbEntity
  8
LAYER_1
 62
     7
100
AcDbVertex
100
AcDb2dVertex
 10
496.4999266336876
 20
502.4999049307987
 30
0.0
  0
VERTEX
  5
199
330
196
100
AcDbEntity
  8
LAYER_1
 62
     7
100
AcDbVertex
100
AcDb2dVertex
 10
496.4999266336876
 20
499.4999157822431
 30
0.0
  0
VERTEX
  5
19A
330
196
100
AcDbEntity
  8
LAYER_1
 62
     7
100
AcDbVertex
100
AcDb2dVertex
 10
490.4996038270279
 20
499.4999157822431
 30
0.0
  0
VERTEX
  5
19B
330
196
100
AcDbEntity
  8
LAYER_1
 62
     7
100
AcDbVertex
100
AcDb2dVertex
 10
490.4996038270279
 20
502.4999049307987
 30
0.0
  0
SEQEND
  5
19C
330
196
100
AcDbEntity
  8
LAYER_1
  0
SPLINE
  5
19D
330
1F
100
AcDbEntity
  8
LAYER_1
 62
   250
100
AcDbSpline
210
0.0
220
0.0
230
1.0
 70
    11
 71
     3
 72
    17
 73
    13
 74
     0
 42
0.0000000001
 43
0.0000000001
 40
0.0
 40
0.0
 40
0.0
 40
0.0
 40
1.0
 40
1.0
 40
1.0
 40
2.0
 40
2.0
 40
2.0
 40
3.0
 40
3.0
 40
3.0
 40
4.0
 40
4.0
 40
4.0
 40
4.0
 10
538.7498886456945
 20
492.0061440827276
 30
0.0
 10
539.5784341098971
 20
492.0061440827276
 30
0.0
 10
540.2498832199723
 20
491.3346949726525
 30
0.0
 10
540.2498832199723
 20
490.5064940179984
 30
0.0
 10
540.2498832199723
 20
489.6779485537958
 30
0.0
 10
539.5784341098971
 20
489.0061549341721
 30
0.0
 10
538.7498886456945
 20
489.0061549341721
 30
0.0
 10
537.9216876910405
 20
489.0061549341721
 30
0.0
 10
537.2498940714167
 20
489.6779485537958
 30
0.0
 10
537.2498940714167
 20
490.5064940179984
 30
0.0
 10
537.2498940714167
 20
491.3346949726525
 30
0.0
 10
537.9216876910405
 20
492.0061440827276
 30
0.0
 10
538.7498886456945
 20
492.0061440827276
 30
0.0
  0
SPLINE
  5
19E
330
1F
100
AcDbEntity
  8
LAYER_1
 62
   250
100
AcDbSpline
210
0.0
220
0.0
230
1.0
 70
    11
 71
     3
 72
    17
 73
    13
 74
     0
 42
0.0000000001
 43
0.0000000001
 40
0.0
 40
0.0
 40
0.0
 40
0.0
 40
1.0
 40
1.0
 40
1.0
 40
2.0
 40
2.0
 40
2.0
 40
3.0
 40
3.0
 40
3.0
 40
4.0
 40
4.0
 40
4.0
 40
4.0
 10
493.7500514173611
 20
492.0061440827276
 30
0.0
 10
494.5782523720152
 20
492.0061440827276
 30
0.0
 10
495.2500459916389
 20
491.3346949726525
 30
0.0
 10
495.2500459916389
 20
490.5064940179984
 30
0.0
 10
495.2500459916389
 20
489.6779485537958
 30
0.0
 10
494.5782523720152
 20
489.0061549341721
 30
0.0
 10
493.7500514173611
 20
489.0061549341721
 30
0.0
 10
492.9218504627071
 20
489.0061549341721
 30
0.0
 10
492.2500568430833
 20
489.6779485537958
 30
0.0
 10
492.2500568430833
 20
490.5064940179984
 30
0.0
 10
492.2500568430833
 20
491.3346949726525
 30
0.0
 10
492.9218504627071
 20
492.0061440827276
 30
0.0
 10
493.7500514173611
 20
492.0061440827276
 30
0.0
  0
SPLINE
  5
19F
330
1F
100
AcDbEntity
  8
LAYER_1
 62
   250
100
AcDbSpline
210
0.0
220
0.0
230
1.0
 70
    11
 71
     3
 72
    17
 73
    13
 74
     0
 42
0.0000000001
 43
0.0000000001
 40
0.0
 40
0.0
 40
0.0
 40
0.0
 40
1.0
 40
1.0
 40
1.0
 40
2.0
 40
2.0
 40
2.0
 40
3.0
 40
3.0
 40
3.0
 40
4.0
 40
4.0
 40
4.0
 40
4.0
 10
493.7500514173611
 20
403.0534341440283
 30
0.0
 10
494.5782523720152
 20
403.0534341440283
 30
0.0
 10
495.2500459916389
 20
402.3819850339531
 30
0.0
 10
495.2500459916389
 20
401.5534395697505
 30
0.0
 10
495.2500459916389
 20
400.7252386150965
 30
0.0
 10
494.5782523720152
 20
400.0534449954728
 30
0.0
 10
493.7500514173611
 20
400.0534449954728
 30
0.0
 10
492.9218504627071
 20
400.0534449954728
 30
0.0
 10
492.2500568430833
 20
400.7252386150965
 30
0.0
 10
492.2500568430833
 20
401.5534395697505
 30
0.0
 10
492.2500568430833
 20
402.3819850339531
 30
0.0
 10
492.9218504627071
 20
403.0534341440283
 30
0.0
 10
493.7500514173611
 20
403.0534341440283
 30
0.0
  0
SPLINE
  5
1A0
330
1F
100
AcDbEntity
  8
LAYER_1
 62
   250
100
AcDbSpline
210
0.0
220
0.0
230
1.0
 70
    11
 71
     3
 72
    17
 73
    13
 74
     0
 42
0.0000000001
 43
0.0000000001
 40
0.0
 40
0.0
 40
0.0
 40
0.0
 40
1.0
 40
1.0
 40
1.0
 40
2.0
 40
2.0
 40
2.0
 40
3.0
 40
3.0
 40
3.0
 40
4.0
 40
4.0
 40
4.0
 40
4.0
 10
417.7500392293298
 20
403.0534341440283
 30
0.0
 10
418.5784124387582
 20
403.0534341440283
 30
0.0
 10
419.2500338036077
 20
402.3819850339531
 30
0.0
 10
419.2500338036077
 20
401.5534395697505
 30
0.0
 10
419.2500338036077
 20
400.7252386150965
 30
0.0
 10
418.5784124387582
 20
400.0534449954728
 30
0.0
 10
417.7500392293298
 20
400.0534449954728
 30
0.0
 10
416.9216660199015
 20
400.0534449954728
 30
0.0
 10
416.2500446550521
 20
400.7252386150965
 30
0.0
 10
416.2500446550521
 20
401.5534395697505
 30
0.0
 10
416.2500446550521
 20
402.3819850339531
 30
0.0
 10
416.9216660199015
 20
403.0534341440283
 30
0.0
 10
417.7500392293298
 20
403.0534341440283
 30
0.0
  0
SPLINE
  5
1A1
330
1F
100
AcDbEntity
  8
LAYER_1
 62
   250
100
AcDbSpline
210
0.0
220
0.0
230
1.0
 70
    11
 71
     3
 72
    17
 73
    13
 74
     0
 42
0.0000000001
 43
0.0000000001
 40
0.0
 40
0.0
 40
0.0
 40
0.0
 40
1.0
 40
1.0
 40
1.0
 40
2.0
 40
2.0
 40
2.0
 40
3.0
 40
3.0
 40
3.0
 40
4.0
 40
4.0
 40
4.0
 40
4.0
 10
417.7500392293298
 20
492.0061440827276
 30
0.0
 10
418.5784124387582
 20
492.0061440827276
 30
0.0
 10
419.2500338036077
 20
491.3346949726525
 30
0.0
 10
419.2500338036077
 20
490.5064940179984
 30
0.0
 10
419.2500338036077
 20
489.6779485537958
 30
0.0
 10
418.5784124387582
 20
489.0061549341721
 30
0.0
 10
417.7500392293298
 20
489.0061549341721
 30
0.0
 10
416.9216660199015
 20
489.0061549341721
 30
0.0
 10
416.2500446550521
 20
489.6779485537958
 30
0.0
 10
416.2500446550521
 20
490.5064940179984
 30
0.0
 10
416.2500446550521
 20
491.3346949726525
 30
0.0
 10
416.9216660199015
 20
492.0061440827276
 30
0.0
 10
417.7500392293298
 20
492.0061440827276
 30
0.0
  0
SPLINE
  5
1A2
330
1F
100
AcDbEntity
  8
LAYER_1
 62
   250
100
AcDbSpline
210
0.0
220
0.0
230
1.0
 70
    11
 71
     3
 72
    17
 73
    13
 74
     0
 42
0.0000000001
 43
0.0000000001
 40
0.0
 40
0.0
 40
0.0
 40
0.0
 40
1.0
 40
1.0
 40
1.0
 40
2.0
 40
2.0
 40
2.0
 40
3.0
 40
3.0
 40
3.0
 40
4.0
 40
4.0
 40
4.0
 40
4.0
 10
330.0000121245313
 20
445.9999944631528
 30
0.0
 10
330.0000121245313
 20
435.2302814667133
 30
0.0
 10
321.2696234005854
 20
426.5000649975416
 30
0.0
 10
310.4999104041459
 20
426.5000649975416
 30
0.0
 10
299.7305419172549
 20
426.5000649975416
 30
0.0
 10
290.9999809385347
 20
435.2302814667133
 30
0.0
 10
290.9999809385347
 20
445.9999944631528
 30
0.0
 10
290.9999809385347
 20
456.7693629500438
 30
0.0
 10
299.7305419172549
 20
465.4999239287639
 30
0.0
 10
310.4999104041459
 20
465.4999239287639
 30
0.0
 10
321.2696234005854
 20
465.4999239287639
 30
0.0
 10
330.0000121245313
 20
456.7693629500438
 30
0.0
 10
330.0000121245313
 20
445.9999944631528
 30
0.0
  0
ENDSEC
  0
SECTION
  2
OBJECTS
  0
DICTIONARY
  5
C
330
0
100
AcDbDictionary
  3
ACAD_GROUP
350
D
  3
ACAD_LAYOUT
350
1A
  3
ACAD_MLINESTYLE
350
17
  3
ACAD_PLOTSETTINGS
350
19
  3
ACAD_TABLESTYLE
350
1C3
  3
ACAD_VISUALSTYLE
350
2A
  3
ACDBHEADERROUNDTRIPXREC
350
1A3
  0
DICTIONARY
  5
D
102
{ACAD_REACTORS
330
C
102
}
330
C
100
AcDbDictionary
  0
DICTIONARY
  5
1A
102
{ACAD_REACTORS
330
C
102
}
330
C
100
AcDbDictionary
  0
DICTIONARY
  5
17
102
{ACAD_REACTORS
330
C
102
}
330
C
100
AcDbDictionary
  3
STANDARD
350
18
  0
DICTIONARY
  5
19
102
{ACAD_REACTORS
330
C
102
}
330
C
100
AcDbDictionary
  0
DICTIONARY
  5
1C3
102
{ACAD_REACTORS
330
C
102
}
330
C
100
AcDbDictionary
  0
DICTIONARY
  5
2A
102
{ACAD_REACTORS
330
C
102
}
330
C
100
AcDbDictionary
  3
2DWIREFRAME
350
2F
  3
3DWIREFRAME
350
30
  3
3D_HIDDEN
350
31
  3
BASIC
350
32
  3
BRIGHTEN
350
36
  3
COLORCHANGE
350
3A
  3
CONCEPTUAL
350
34
  3
DIM
350
35
  3
FACEPATTERN
350
39
  3
FLAT
350
2B
  3
FLATWITHEDGES
350
2C
  3
GOURAUD
350
2D
  3
GOURAUDWITHEDGES
350
2E
  3
LINEPATTERN
350
38
  3
REALISTIC
350
33
  3
THICKEN
350
37
  0
DICTIONARY
  5
1A3
102
{ACAD_REACTORS
330
C
102
}
330
C
100
AcDbDictionary
  3
CEPSNTYPE
350
1AC
  3
DIMSTYLEDATA
350
1C2
  3
FINGERPRINTGUID
350
1AD
  3
HYPERLINKBASE
350
1A6
  3
INSUNITS
350
1AB
  3
LAYOUTDICT
350
1A8
  3
LWETCUNION
350
1AA
  3
PLOTSETDICT
350
1A9
  3
PSVPSCALE
350
1AF
  3
PUCSBASE
350
1B2
  3
PUCSORGBACK
350
1B8
  3
PUCSORGBOTTOM
350
1B4
  3
PUCSORGFRONT
350
1B7
  3
PUCSORGLEFT
350
1B5
  3
PUCSORGRIGHT
350
1B6
  3
PUCSORGTOP
350
1B3
  3
PUCSORTHOREF
350
1B0
  3
PUCSORTHOVIEW
350
1B1
  3
STYLESHEET
350
1A7
  3
TSTACKALIGN
350
1A4
  3
TSTACKSIZE
350
1A5
  3
UCSBASE
350
1BB
  3
UCSORGBACK
350
1C1
  3
UCSORGBOTTOM
350
1BD
  3
UCSORGFRONT
350
1C0
  3
UCSORGLEFT
350
1BE
  3
UCSORGRIGHT
350
1BF
  3
UCSORGTOP
350
1BC
  3
UCSORTHOREF
350
1B9
  3
UCSORTHOVIEW
350
1BA
  3
VERSIONGUID
350
1AE
  0
MLINESTYLE
  5
18
102
{ACAD_REACTORS
330
17
102
}
330
17
100
AcDbMlineStyle
  2
Standard
 70
     0
  3

 62
   256
 51
90.0
 52
90.0
 71
     2
 49
0.5
 62
   256
  6
BYLAYER
 49
-0.5
 62
   256
  6
BYLAYER
  0
VISUALSTYLE
  5
2F
102
{ACAD_REACTORS
330
2A
102
}
330
2A
100
AcDbVisualStyle
  2
2dWireframe
 70
     4
 71
     0
 72
     2
 73
     0
 90
        0
 40
-0.6
 41
-30.0
 62
     5
 63
     7
 74
     1
 91
        4
 64
     7
 65
   257
 75
     1
175
     1
 42
1.0
 92
        0
 66
   257
 43
1.0
 76
     1
 77
     6
 78
     2
 67
     7
 79
     5
170
     0
171
     0
290
     0
174
     0
 93
        1
 44
0.0
173
     0
291
     0
 45
0.0
1001
ACAD
1000
AcDbSavedByObjectVersion
1070
     0
  0
VISUALSTYLE
  5
30
102
{ACAD_REACTORS
330
2A
102
}
330
2A
100
AcDbVisualStyle
  2
3dWireframe
 70
     5
 71
     0
 72
     2
 73
     0
 90
        0
 40
-0.6
 41
-30.0
 62
     5
 63
     7
 74
     1
 91
        4
 64
     7
 65
   257
 75
     1
175
     1
 42
1.0
 92
        0
 66
   257
 43
1.0
 76
     1
 77
     6
 78
     2
 67
     7
 79
     5
170
     0
171
     0
290
     0
174
     0
 93
        1
 44
0.0
173
     0
291
     0
 45
0.0
1001
ACAD
1000
AcDbSavedByObjectVersion
1070
     0
  0
VISUALSTYLE
  5
31
102
{ACAD_REACTORS
330
2A
102
}
330
2A
100
AcDbVisualStyle
  2
3D Hidden
 70
     6
 71
     1
 72
     2
 73
     2
 90
        0
 40
-0.6
 41
-30.0
 62
     5
 63
     7
 74
     2
 91
        2
 64
     7
 65
   257
 75
     2
175
     1
 42
40.0
 92
        0
 66
   257
 43
1.0
 76
     1
 77
     6
 78
     2
 67
     7
 79
     3
170
     0
171
     0
290
     0
174
     0
 93
        1
 44
0.0
173
     0
291
     0
 45
0.0
1001
ACAD
1000
AcDbSavedByObjectVersion
1070
     0
  0
VISUALSTYLE
  5
32
102
{ACAD_REACTORS
330
2A
102
}
330
2A
100
AcDbVisualStyle
  2
Basic
 70
     7
 71
     1
 72
     0
 73
     1
 90
        0
 40
-0.6
 41
-30.0
 62
     5
 63
     7
 74
     0
 91
        4
 64
     7
 65
   257
 75
     1
175
     1
 42
1.0
 92
        8
 66
     7
 43
1.0
 76
     1
 77
     6
 78
     2
 67
     7
 79
     5
170
     0
171
     0
290
     0
174
     0
 93
        1
 44
0.0
173
     0
291
     1
 45
0.0
1001
ACAD
1000
AcDbSavedByObjectVersion
1070
     0
  0
VISUALSTYLE
  5
36
102
{ACAD_REACTORS
330
2A
102
}
330
2A
100
AcDbVisualStyle
  2
Brighten
 70
    12
 71
     2
 72
     2
 73
     0
 90
        0
 40
-0.6
 41
-30.0
 62
     5
 63
     7
 74
     1
 91
        4
 64
     7
 65
   257
 75
     1
175
     1
 42
1.0
 92
        8
 66
     7
 43
1.0
 76
     1
 77
     6
 78
     2
 67
     7
 79
     5
170
     0
171
     0
290
     0
174
     0
 93
        1
 44
50.0
173
     0
291
     1
 45
0.0
1001
ACAD
1000
AcDbSavedByObjectVersion
1070
     0
  0
VISUALSTYLE
  5
3A
102
{ACAD_REACTORS
330
2A
102
}
330
2A
100
AcDbVisualStyle
  2
ColorChange
 70
    16
 71
     2
 72
     2
 73
     3
 90
        0
 40
-0.6
 41
-30.0
 62
     5
 63
     8
 74
     1
 91
        4
 64
     7
 65
   257
 75
     1
175
     1
 42
1.0
 92
        8
 66
     8
 43
1.0
 76
     1
 77
     6
 78
     2
 67
     7
 79
     5
170
     0
171
     0
290
     0
174
     0
 93
        1
 44
0.0
173
     0
291
     1
 45
0.0
1001
ACAD
1000
AcDbSavedByObjectVersion
1070
     0
  0
VISUALSTYLE
  5
34
102
{ACAD_REACTORS
330
2A
102
}
330
2A
100
AcDbVisualStyle
  2
Conceptual
 70
     9
 71
     3
 72
     2
 73
     0
 90
        0
 40
-0.6
 41
-30.0
 62
     5
 63
     7
 74
     2
 91
        2
 64
     7
 65
   257
 75
     1
175
     1
 42
40.0
 92
        8
 66
     7
 43
1.0
 76
     1
 77
     6
 78
     2
 67
     7
 79
     3
170
     0
171
     0
290
     0
174
     0
 93
        1
 44
0.0
173
     0
291
     0
 45
0.0
1001
ACAD
1000
AcDbSavedByObjectVersion
1070
     0
  0
VISUALSTYLE
  5
35
102
{ACAD_REACTORS
330
2A
102
}
330
2A
100
AcDbVisualStyle
  2
Dim
 70
    11
 71
     2
 72
     2
 73
     0
 90
        0
 40
-0.6
 41
-30.0
 62
     5
 63
     7
 74
     1
 91
        4
 64
     7
 65
   257
 75
     1
175
     1
 42
1.0
 92
        8
 66
     7
 43
1.0
 76
     1
 77
     6
 78
     2
 67
     7
 79
     5
170
     0
171
     0
290
     0
174
     0
 93
        1
 44
-50.0
173
     0
291
     1
 45
0.0
1001
ACAD
1000
AcDbSavedByObjectVersion
1070
     0
  0
VISUALSTYLE
  5
39
102
{ACAD_REACTORS
330
2A
102
}
330
2A
100
AcDbVisualStyle
  2
Facepattern
 70
    15
 71
     2
 72
     2
 73
     0
 90
        0
 40
-0.6
 41
-30.0
 62
     5
 63
     7
 74
     1
 91
        4
 64
     7
 65
   257
 75
     1
175
     1
 42
1.0
 92
        8
 66
     7
 43
1.0
 76
     1
 77
     6
 78
     2
 67
     7
 79
     5
170
     0
171
     0
290
     0
174
     0
 93
        1
 44
0.0
173
     0
291
     1
 45
0.0
1001
ACAD
1000
AcDbSavedByObjectVersion
1070
     0
  0
VISUALSTYLE
  5
2B
102
{ACAD_REACTORS
330
2A
102
}
330
2A
100
AcDbVisualStyle
  2
Flat
 70
     0
 71
     2
 72
     1
 73
     1
 90
        2
 40
-0.6
 41
30.0
 62
     5
 63
     7
 74
     0
 91
        4
 64
     7
 65
   257
 75
     1
175
     1
 42
1.0
 92
        8
 66
     7
 43
1.0
 76
     1
 77
     6
 78
     2
 67
     7
 79
     5
170
     0
171
     0
290
     0
174
     0
 93
       13
 44
0.0
173
     0
291
     1
 45
0.0
1001
ACAD
1000
AcDbSavedByObjectVersion
1070
     0
  0
VISUALSTYLE
  5
2C
102
{ACAD_REACTORS
330
2A
102
}
330
2A
100
AcDbVisualStyle
  2
FlatWithEdges
 70
     1
 71
     2
 72
     1
 73
     1
 90
        2
 40
-0.6
 41
30.0
 62
     5
 63
     7
 74
     1
 91
        4
 64
     7
 65
   257
 75
     1
175
     1
 42
1.0
 92
        0
 66
   257
 43
1.0
 76
     1
 77
     6
 78
     2
 67
     7
 79
     5
170
     0
171
     0
290
     0
174
     0
 93
       13
 44
0.0
173
     0
291
     1
 45
0.0
1001
ACAD
1000
AcDbSavedByObjectVersion
1070
     0
  0
VISUALSTYLE
  5
2D
102
{ACAD_REACTORS
330
2A
102
}
330
2A
100
AcDbVisualStyle
  2
Gouraud
 70
     2
 71
     2
 72
     2
 73
     1
 90
        2
 40
-0.6
 41
30.0
 62
     5
 63
     7
 74
     0
 91
        4
 64
     7
 65
   257
 75
     1
175
     1
 42
1.0
 92
        0
 66
     7
 43
1.0
 76
     1
 77
     6
 78
     2
 67
     7
 79
     5
170
     0
171
     0
290
     0
174
     0
 93
       13
 44
0.0
173
     0
291
     1
 45
0.0
1001
ACAD
1000
AcDbSavedByObjectVersion
1070
     0
  0
VISUALSTYLE
  5
2E
102
{ACAD_REACTORS
330
2A
102
}
330
2A
100
AcDbVisualStyle
  2
GouraudWithEdges
 70
     3
 71
     2
 72
     2
 73
     1
 90
        2
 40
-0.6
 41
30.0
 62
     5
 63
     7
 74
     1
 91
        4
 64
     7
 65
   257
 75
     1
175
     1
 42
1.0
 92
        0
 66
   257
 43
1.0
 76
     1
 77
     6
 78
     2
 67
     7
 79
     5
170
     0
171
     0
290
     0
174
     0
 93
       13
 44
0.0
173
     0
291
     1
 45
0.0
1001
ACAD
1000
AcDbSavedByObjectVersion
1070
     0
  0
VISUALSTYLE
  5
38
102
{ACAD_REACTORS
330
2A
102
}
330
2A
100
AcDbVisualStyle
  2
Linepattern
 70
    14
 71
     2
 72
     2
 73
     0
 90
        0
 40
-0.6
 41
-30.0
 62
     5
 63
     7
 74
     1
 91
        4
 64
     7
 65
   257
 75
     7
175
     7
 42
1.0
 92
        8
 66
     7
 43
1.0
 76
     1
 77
     6
 78
     2
 67
     7
 79
     5
170
     0
171
     0
290
     0
174
     0
 93
        1
 44
0.0
173
     0
291
     1
 45
0.0
1001
ACAD
1000
AcDbSavedByObjectVersion
1070
     0
  0
VISUALSTYLE
  5
33
102
{ACAD_REACTORS
330
2A
102
}
330
2A
100
AcDbVisualStyle
  2
Realistic
 70
     8
 71
     2
 72
     2
 73
     0
 90
        0
 40
-0.6
 41
-30.0
 62
     5
 63
     7
 74
     1
 91
        0
 64
     7
 65
   257
 75
     1
175
     1
 42
1.0
 92
        8
 66
     8
 43
1.0
 76
     1
 77
     6
 78
     2
 67
     7
 79
     5
170
     0
171
     0
290
     0
174
     0
 93
       13
 44
0.0
173
     0
291
     0
 45
0.0
1001
ACAD
1000
AcDbSavedByObjectVersion
1070
     0
  0
VISUALSTYLE
  5
37
102
{ACAD_REACTORS
330
2A
102
}
330
2A
100
AcDbVisualStyle
  2
Thicken
 70
    13
 71
     2
 72
     2
 73
     0
 90
        0
 40
-0.6
 41
-30.0
 62
     5
 63
     7
 74
     1
 91
        4
 64
     7
 65
   257
 75
     1
175
     1
 42
1.0
 92
       12
 66
     7
 43
1.0
 76
     1
 77
     6
 78
     2
 67
     7
 79
     5
170
     0
171
     0
290
     0
174
     0
 93
        1
 44
0.0
173
     0
291
     1
 45
0.0
1001
ACAD
1000
AcDbSavedByObjectVersion
1070
     0
  0
XRECORD
  5
1AC
102
{ACAD_REACTORS
330
1A3
102
}
330
1A3
100
AcDbXrecord
 90
        0
  0
XRECORD
  5
1C2
102
{ACAD_REACTORS
330
1A3
102
}
330
1A3
100
AcDbXrecord
1000
DSTYLE
1002
{
1070
   340
340
11
1002
}
  0
XRECORD
  5
1AD
102
{ACAD_REACTORS
330
1A3
102
}
330
1A3
100
AcDbXrecord
  1
{E2440980-745A-1864-C289-80E279472295}
  0
XRECORD
  5
1A6
102
{ACAD_REACTORS
330
1A3
102
}
330
1A3
100
AcDbXrecord
  1

  0
XRECORD
  5
1AB
102
{ACAD_REACTORS
330
1A3
102
}
330
1A3
100
AcDbXrecord
 90
        1
  0
XRECORD
  5
1A8
102
{ACAD_REACTORS
330
1A3
102
}
330
1A3
100
AcDbXrecord
340
1A
  0
XRECORD
  5
1AA
102
{ACAD_REACTORS
330
1A3
102
}
330
1A3
100
AcDbXrecord
 90
    10269
  0
XRECORD
  5
1A9
102
{ACAD_REACTORS
330
1A3
102
}
330
1A3
100
AcDbXrecord
340
19
  0
XRECORD
  5
1AF
102
{ACAD_REACTORS
330
1A3
102
}
330
1A3
100
AcDbXrecord
 40
0.0
  0
XRECORD
  5
1B2
102
{ACAD_REACTORS
330
1A3
102
}
330
1A3
100
AcDbXrecord
340
0
  0
XRECORD
  5
1B8
102
{ACAD_REACTORS
330
1A3
102
}
330
1A3
100
AcDbXrecord
 10
0.0
 20
0.0
 30
0.0
  0
XRECORD
  5
1B4
102
{ACAD_REACTORS
330
1A3
102
}
330
1A3
100
AcDbXrecord
 10
0.0
 20
0.0
 30
0.0
  0
XRECORD
  5
1B7
102
{ACAD_REACTORS
330
1A3
102
}
330
1A3
100
AcDbXrecord
 10
0.0
 20
0.0
 30
0.0
  0
XRECORD
  5
1B5
102
{ACAD_REACTORS
330
1A3
102
}
330
1A3
100
AcDbXrecord
 10
0.0
 20
0.0
 30
0.0
  0
XRECORD
  5
1B6
102
{ACAD_REACTORS
330
1A3
102
}
330
1A3
100
AcDbXrecord
 10
0.0
 20
0.0
 30
0.0
  0
XRECORD
  5
1B3
102
{ACAD_REACTORS
330
1A3
102
}
330
1A3
100
AcDbXrecord
 10
0.0
 20
0.0
 30
0.0
  0
XRECORD
  5
1B0
102
{ACAD_REACTORS
330
1A3
102
}
330
1A3
100
AcDbXrecord
340
0
  0
XRECORD
  5
1B1
102
{ACAD_REACTORS
330
1A3
102
}
330
1A3
100
AcDbXrecord
 70
     0
  0
XRECORD
  5
1A7
102
{ACAD_REACTORS
330
1A3
102
}
330
1A3
100
AcDbXrecord
  1

  0
XRECORD
  5
1A4
102
{ACAD_REACTORS
330
1A3
102
}
330
1A3
100
AcDbXrecord
 90
        1
  0
XRECORD
  5
1A5
102
{ACAD_REACTORS
330
1A3
102
}
330
1A3
100
AcDbXrecord
 90
       70
  0
XRECORD
  5
1BB
102
{ACAD_REACTORS
330
1A3
102
}
330
1A3
100
AcDbXrecord
340
0
  0
XRECORD
  5
1C1
102
{ACAD_REACTORS
330
1A3
102
}
330
1A3
100
AcDbXrecord
 10
0.0
 20
0.0
 30
0.0
  0
XRECORD
  5
1BD
102
{ACAD_REACTORS
330
1A3
102
}
330
1A3
100
AcDbXrecord
 10
0.0
 20
0.0
 30
0.0
  0
XRECORD
  5
1C0
102
{ACAD_REACTORS
330
1A3
102
}
330
1A3
100
AcDbXrecord
 10
0.0
 20
0.0
 30
0.0
  0
XRECORD
  5
1BE
102
{ACAD_REACTORS
330
1A3
102
}
330
1A3
100
AcDbXrecord
 10
0.0
 20
0.0
 30
0.0
  0
XRECORD
  5
1BF
102
{ACAD_REACTORS
330
1A3
102
}
330
1A3
100
AcDbXrecord
 10
0.0
 20
0.0
 30
0.0
  0
XRECORD
  5
1BC
102
{ACAD_REACTORS
330
1A3
102
}
330
1A3
100
AcDbXrecord
 10
0.0
 20
0.0
 30
0.0
  0
XRECORD
  5
1B9
102
{ACAD_REACTORS
330
1A3
102
}
330
1A3
100
AcDbXrecord
340
0
  0
XRECORD
  5
1BA
102
{ACAD_REACTORS
330
1A3
102
}
330
1A3
100
AcDbXrecord
 70
     0
  0
XRECORD
  5
1AE
102
{ACAD_REACTORS
330
1A3
102
}
330
1A3
100
AcDbXrecord
  1
{FAEB1C32-E019-11D5-929B-00C0DF256EC4}
  0
ENDSEC
  0
EOF
