<?xml version="1.0" encoding="UTF-8"?>
<!DOCTYPE svg PUBLIC "-//W3C//DTD SVG 1.1//EN" "http://www.w3.org/Graphics/SVG/1.1/DTD/svg11.dtd">
<!-- Creator: CorelDRAW -->
<svg xmlns="http://www.w3.org/2000/svg" xml:space="preserve" width="4800px" height="2400px" style="shape-rendering:geometricPrecision; text-rendering:geometricPrecision; image-rendering:optimizeQuality; fill-rule:evenodd; clip-rule:evenodd"
viewBox="0 0 4946.17 2627.37"
 xmlns:xlink="http://www.w3.org/1999/xlink"
 version="1.1"
 enable-background="new 0 0 288.074 79.255">
 <defs>
  <style type="text/css">
   <![CDATA[
    .str1 {stroke:#1F1A17;stroke-width:4.33587;stroke-linecap:round;stroke-linejoin:round}
    .str3 {stroke:#974578;stroke-width:4.33587;stroke-linecap:round;stroke-linejoin:round}
    .str4 {stroke:#E77817;stroke-width:4.33587;stroke-linecap:round;stroke-linejoin:round}
    .str0 {stroke:black;stroke-width:5.06957;stroke-linecap:round;stroke-linejoin:round}
    .str2 {stroke:black;stroke-width:6.9364}
    .fil4 {fill:none}
    .fil0 {fill:none;fill-rule:nonzero}
    .fil1 {fill:white;fill-rule:nonzero}
    .fil2 {fill:url(#id2);fill-rule:nonzero}
    .fil3 {fill:url(#id3);fill-rule:nonzero}
   ]]>
  </style>
  <pattern id="id0" patternUnits="userSpaceOnUse" patternTransform="matrix(1 0 0 1 2400 -3652.26)" x="0" y="0" width="2586.18" height="3652.74" viewBox="2400 -3650.57 2584.01 3650.57">
    <clipPath id="id1" style="clip-rule:nonzero">
     <path d="M2400 0.00245797l2584.01 0 0 -3650.57 -2584.01 0 0 3650.57z"/>
    </clipPath>
   <polygon id="1" class="fil1" points="2087.84,-3962.73 5296.18,-3962.73 5296.18,312.165 2087.84,312.165 "/>
   <g style="clip-path:url(#id1)">
   </g>
  </pattern>
  <radialGradient id="id2" gradientUnits="userSpaceOnUse" cx="3379.35" cy="-1803.12" r="1.46987" fx="3379.35" fy="-1803.12">
   <stop offset="0" style="stop-color:#729FCF"/>
   <stop offset="1" style="stop-color:#729FCF"/>
  </radialGradient>
  <radialGradient id="id3" gradientUnits="userSpaceOnUse" xlink:href="#id2" cx="3379.36" cy="-1819.16" r="0.963526" fx="3379.36" fy="-1819.16">
  </radialGradient>
 </defs>
<symbol id="x14-14-0" viewBox="3328.67 -1879.48 101.383 101.383">
 <path class="fil0 str0" d="M3427.52 -1828.78c0,26.5904 -21.5601,48.1505 -48.164,48.1505 -26.5904,0 -48.1505,-21.5601 -48.1505,-48.1505 0,-26.6076 21.5601,-48.164 48.1505,-48.164 26.6039,0 48.164,21.5564 48.164,48.164zm0 0z"/>
</symbol>
<symbol id="x6-6-0" viewBox="2400 -3650.09 2580.87 3650.09">
 <polygon id="1" style="fill:url(#id0);fill-rule:nonzero" points="2400,0.00245797 4980.87,0.00245797 4980.87,-3650.09 2400,-3650.09 "/>
</symbol>
<symbol id="x48-48-0" viewBox="3305.85 -1901.92 147.003 145.293">
 <path class="fil2" d="M3452.86 -1829.26c0,40.1215 -32.9074,72.638 -73.502,72.638 -40.5984,0 -73.5008,-32.5165 -73.5008,-72.638 0,-40.1215 32.9024,-72.6552 73.5008,-72.6552 40.5947,0 73.502,32.5337 73.502,72.6552zm0 0z"/>
</symbol>
<symbol id="x11-11-0" viewBox="3331.2 -1876.95 96.3145 96.3157">
 <path class="fil3" d="M3427.52 -1828.79c0,26.5904 -21.5601,48.1517 -48.164,48.1517 -26.5904,0 -48.1505,-21.5613 -48.1505,-48.1517 0,-26.6027 21.5601,-48.164 48.1505,-48.164 26.6039,0 48.164,21.5613 48.164,48.164zm0 0z"/>
</symbol>
<symbol id="x18-18-0" viewBox="3359.09 -1849.17 40.5455 40.3943">
 <path class="fil0 str0" d="M3397.1 -1828.97c0,9.7557 -7.94294,17.663 -17.7453,17.663 -9.79011,0 -17.7318,-7.9073 -17.7318,-17.663 0,-9.75447 7.94171,-17.663 17.7318,-17.663 9.8024,0 17.7453,7.90853 17.7453,17.663zm0 0z"/>
</symbol>
<symbol id="x51-51-0" viewBox="3303.32 -1904.45 152.071 150.362">
 <path class="fil0 str0" d="M3452.86 -1829.26c0,40.1215 -32.9074,72.638 -73.502,72.638 -40.5984,0 -73.5008,-32.5165 -73.5008,-72.638 0,-40.1215 32.9024,-72.6552 73.5008,-72.6552 40.5947,0 73.502,32.5337 73.502,72.6552zm0 0z"/>
</symbol>
<symbol id="x42-42-0" viewBox="3303.32 -1904.45 152.071 150.362">
 <use x="3305.85" y="-1901.92" width="147.003" height="145.293" xlink:href="#x48-48-0"/>
 <use x="3303.32" y="-1904.45" width="152.071" height="150.362" xlink:href="#x51-51-0"/>
</symbol>
 <g id="Layer_x0020_1">
  <metadata id="CorelCorpID_0Corel-Layer"/>
  <g id="_156319568">
   <polygon id="_156319736" class="fil4 str1" points="4538.44,1917.22 4907.13,1917.22 4907.13,1984.82 4944,1984.82 4944,2058.56 4907.13,2058.56 4907.13,2230.61 4944,2230.61 4944,2304.35 4907.13,2304.35 4907.13,2476.41 4944,2476.41 4944,2550.15 4907.13,2550.15 4907.13,2617.75 4538.44,2617.75 4538.44,2550.15 4501.57,2550.15 4501.57,2476.41 4538.44,2476.41 4538.44,2304.35 4501.57,2304.35 4501.57,2230.61 4538.44,2230.61 4538.44,2058.56 4501.57,2058.56 4501.57,1984.82 4538.44,1984.82 "/>
   <circle id="_156319688" class="fil4 str1" transform="matrix(9.06508E-014 -3.42278 3.42278 9.06508E-014 4722.79 2267.48)" r="11.2207"/>
   <circle id="_156319640" class="fil4 str1" transform="matrix(9.06508E-014 -3.42278 3.42278 9.06508E-014 4722.79 2083.14)" r="11.2207"/>
   <circle id="_156319592" class="fil4 str1" transform="matrix(9.06508E-014 -3.42278 3.42278 9.06508E-014 4722.79 2451.83)" r="11.2207"/>
  </g>
  <g id="_155087408">
   <path id="_156319496" class="fil0 str2" d="M64.9286 1026.2l2089.27 0c34.0429,0 61.4616,27.4175 61.4616,61.4616l0 1474.77c0,34.0429 -27.4187,61.4616 -61.4616,61.4616l-2089.27 0c-34.0429,0 -61.4604,-27.4187 -61.4604,-61.4616l0 -1474.77c0,-34.0442 27.4175,-61.4616 61.4604,-61.4616zm0 0z"/>
   <polygon id="_156319424" class="fil0 str2" points="1748.63,1130.67 1822.37,1130.67 1822.37,1167.54 1748.63,1167.54 "/>
   <polygon id="_156319352" class="fil0 str2" points="1502.84,1130.67 1576.58,1130.67 1576.58,1167.54 1502.84,1167.54 "/>
   <polygon id="_155309672" class="fil0 str2" points="1748.63,2482.56 1822.37,2482.56 1822.37,2519.43 1748.63,2519.43 "/>
   <polygon id="_155309600" class="fil0 str2" points="1502.84,2482.56 1576.58,2482.56 1576.58,2519.43 1502.84,2519.43 "/>
   <polygon id="_155309528" class="fil0 str2" points="1257.04,1130.67 1330.78,1130.67 1330.78,1167.54 1257.04,1167.54 "/>
   <polygon id="_155309456" class="fil0 str2" points="1257.04,2482.56 1330.78,2482.56 1330.78,2519.43 1257.04,2519.43 "/>
   <polygon id="_155309384" class="fil0 str2" points="765.445,1130.67 839.184,1130.67 839.184,1167.54 765.445,1167.54 "/>
   <polygon id="_155309312" class="fil0 str2" points="519.651,1130.67 593.392,1130.67 593.392,1167.54 519.651,1167.54 "/>
   <polygon id="_155309240" class="fil0 str2" points="273.854,1130.67 347.594,1130.67 347.594,1167.54 273.854,1167.54 "/>
   <polygon id="_155309168" class="fil0 str2" points="765.445,2482.56 839.184,2482.56 839.184,2519.43 765.445,2519.43 "/>
   <polygon id="_155309096" class="fil0 str2" points="519.651,2482.56 593.392,2482.56 593.392,2519.43 519.651,2519.43 "/>
   <polygon id="_155309024" class="fil0 str2" points="273.854,2482.56 347.594,2482.56 347.594,2519.43 273.854,2519.43 "/>
   <circle id="_155308976" class="fil4 str1" cx="64.9281" cy="1087.65" r="18.4345"/>
   <circle id="_155308928" class="fil4 str1" cx="64.9281" cy="2562.45" r="18.4345"/>
   <circle id="_155308880" class="fil4 str1" cx="2154.21" cy="1087.65" r="18.4345"/>
   <circle id="_155308832" class="fil4 str1" cx="2154.21" cy="2562.45" r="18.4345"/>
   <polygon id="_155308760" class="fil0 str2" points="1011.24,2482.56 1084.98,2482.56 1084.98,2519.43 1011.24,2519.43 "/>
   <polygon id="_155308688" class="fil0 str2" points="1011.24,1130.67 1084.98,1130.67 1084.98,1167.54 1011.24,1167.54 "/>
   <g>
    <circle id="_155308640" class="fil4 str1" cx="851.477" cy="2021.69" r="18.4348"/>
    <circle id="_155308592" class="fil4 str1" cx="1244.75" cy="2021.69" r="18.4348"/>
    <circle id="_155308544" class="fil4 str1" cx="851.477" cy="1628.41" r="18.4348"/>
    <circle id="_155308496" class="fil4 str1" cx="1244.75" cy="1628.41" r="18.4348"/>
    <g>
     <path id="_155308448" class="fil4 str1" d="M1205.21 1678.2c14.9469,15.9842 27.49,34.2433 37.038,54.2118l-33.3682 -33.3682c-5.63613,-5.63613 -6.85898,-14.0166 -3.66975,-20.8436z"/>
     <path id="_155308400" class="fil4 str1" d="M1140.75 1630.91c18.06,8.63855 34.7263,19.724 49.5749,32.825 -6.77295,3.02085 -14.9949,1.75499 -20.5511,-3.80126l-29.0238 -29.0238z"/>
     <path id="_155308352" class="fil4 str1" d="M1256.93 1773.4c4.08024,16.5459 6.25923,33.8414 6.25923,51.6457 0,2.14335 -0.0405566,4.27687 -0.102006,6.40425l-30.3031 -30.3019c-7.19818,-7.19818 -7.19818,-18.8736 0,-26.0717 6.58737,-6.58737 16.9219,-7.14533 24.1459,-1.67634z"/>
     <path id="_155308304" class="fil4 str1" d="M1219.75 1735.97c7.19818,7.19818 7.19818,18.8723 0,26.0705 -7.19818,7.19818 -18.8736,7.19818 -26.0717,0l-86.9017 -86.9029c-7.19818,-7.19818 -7.19818,-18.8723 0,-26.0705 7.19818,-7.19818 18.8723,-7.19818 26.0705,0l86.9029 86.9029z"/>
     <path id="_155308256" class="fil4 str1" d="M1048.11 1609.98c17.046,0 33.6251,1.99342 49.5282,5.74306 2.88812,6.72625 1.58785,14.824 -3.90449,20.3164 -7.19818,7.19818 -18.8723,7.19818 -26.0705,0l-25.9574 -25.9574c2.12861,-0.0614493 4.2609,-0.102006 6.40425,-0.102006z"/>
     <path id="_155308208" class="fil4 str1" d="M1256.85 1877.03c-1.46249,5.88316 -3.15481,11.6754 -5.08923,17.357 -1.38015,-5.98762 0.260545,-12.532 4.92455,-17.196l0.164684 -0.160997z"/>
     <path id="_155308160" class="fil4 str1" d="M1243.65 1838.08c7.19818,7.19818 7.19818,18.8723 0,26.0705 -7.19818,7.19818 -18.8723,7.19818 -26.0705,0l-86.9029 -86.9029c-7.19818,-7.19818 -7.19818,-18.8723 0,-26.0705 7.19818,-7.19818 18.8723,-7.19818 26.0705,0l86.9029 86.9029z"/>
     <path id="_155308112" class="fil4 str1" d="M1117.64 1712.07c7.19818,7.19818 7.19818,18.8723 0,26.0705 -7.19818,7.19818 -18.8736,7.19818 -26.0717,0l-86.9017 -86.9017c-7.19818,-7.19818 -7.19818,-18.8736 0,-26.0717 7.19818,-7.19818 18.8723,-7.19818 26.0705,0l86.9029 86.9029z"/>
     <path id="_155308064" class="fil4 str1" d="M1243.14 1915.79c-5.41,11.6041 -11.8167,22.649 -19.1255,33.0155l-69.4427 -69.4439c-7.19818,-7.19818 -7.19818,-18.8723 0,-26.0705 7.19818,-7.19818 18.8723,-7.19818 26.0705,0l62.4977 62.4989z"/>
     <path id="_155308016" class="fil4 str1" d="M1141.53 1814.18c7.19818,7.19818 7.19818,18.8723 0,26.0705 -7.19818,7.19818 -18.8723,7.19818 -26.0705,0l-86.9029 -86.9017c-7.19818,-7.19818 -7.19818,-18.8736 0,-26.0717 7.19818,-7.19695 18.8723,-7.19695 26.0705,0l86.9029 86.9029z"/>
     <path id="_155307968" class="fil4 str1" d="M924.358 1649.15c10.3665,-7.30879 21.4102,-13.7155 33.0143,-19.1255l58.1532 58.1532c7.19818,7.19818 7.19818,18.8723 0,26.0705 -7.19695,7.19818 -18.8723,7.19818 -26.0705,0l-65.097 -65.0982z"/>
     <path id="_155307920" class="fil4 str1" d="M1212.65 1963.52c-7.93311,9.41404 -16.6552,18.1386 -26.0705,26.0705l-8.11623 -8.11623c-7.19818,-7.19818 -7.19818,-18.8723 0,-26.0705 7.19818,-7.19818 18.8723,-7.19818 26.0705,0l8.11623 8.11623z"/>
     <path id="_155307872" class="fil4 str1" d="M1165.43 1916.3c7.19818,7.19818 7.19818,18.8723 0,26.0705 -7.19818,7.19818 -18.8723,7.19818 -26.0705,0l-86.9017 -86.9017c-7.19818,-7.19818 -7.19818,-18.8736 0,-26.0705 7.19695,-7.19818 18.8723,-7.19818 26.0705,0l86.9017 86.9017z"/>
     <path id="_155307824" class="fil4 str1" d="M1039.42 1790.29c7.19818,7.19818 7.19818,18.8723 0,26.0705 -7.19818,7.19818 -18.8723,7.19818 -26.0705,0l-86.9029 -86.9029c-7.19818,-7.19818 -7.19818,-18.8723 0,-26.0705 7.19818,-7.19818 18.8723,-7.19818 26.0705,0l86.9029 86.9029z"/>
     <path id="_155307776" class="fil4 str1" d="M883.574 1686.58c7.93188,-9.41527 16.6565,-18.1374 26.0705,-26.0705l3.77053 3.77053c7.19818,7.19818 7.19818,18.8723 0,26.0705 -7.19818,7.19818 -18.8723,7.19818 -26.0705,0l-3.77053 -3.77053z"/>
     <path id="_155307728" class="fil4 str1" d="M1171.87 2000.95c-10.3665,7.30879 -21.4114,13.7155 -33.0155,19.1255l-62.4989 -62.4977c-7.19818,-7.19818 -7.19818,-18.8723 0,-26.0705 7.19818,-7.19818 18.8723,-7.19818 26.0705,0l69.4439 69.4427z"/>
     <path id="_155307680" class="fil4 str1" d="M1063.32 1892.4c7.19818,7.19818 7.19818,18.8723 0,26.0705 -7.19818,7.19818 -18.8723,7.19818 -26.0705,0l-86.9029 -86.9029c-7.19695,-7.19818 -7.19695,-18.8723 0,-26.0705 7.19818,-7.19818 18.8736,-7.19818 26.0717,0l86.9017 86.9029z"/>
     <path id="_155087864" class="fil4 str1" d="M853.09 1734.31c5.41,-11.6041 11.8179,-22.6478 19.1255,-33.0143l65.0982 65.097c7.19818,7.19818 7.19818,18.8736 0,26.0705 -7.19818,7.19818 -18.8723,7.19818 -26.0705,0l-58.1532 -58.1532z"/>
     <path id="_155087816" class="fil4 str1" d="M1117.45 2028.69c-5.68161,1.93443 -11.4726,3.62797 -17.357,5.08923l0.160997 -0.164684c4.66401,-4.66401 11.2084,-6.3047 17.196,-4.92455z"/>
     <path id="_155087768" class="fil4 str1" d="M1087.22 1994.51c7.19818,7.19818 7.19818,18.8723 0,26.0705 -7.19818,7.19818 -18.8723,7.19818 -26.0705,0l-86.9029 -86.9029c-7.19818,-7.19818 -7.19818,-18.8723 0,-26.0705 7.19818,-7.19818 18.8723,-7.19818 26.0705,0l86.9029 86.9029z"/>
     <path id="_155087720" class="fil4 str1" d="M961.212 1868.5c7.19818,7.19818 7.19818,18.8736 0,26.0717 -7.19818,7.19818 -18.8723,7.19818 -26.0705,0l-86.9029 -86.9029c-7.19818,-7.19818 -7.19818,-18.8723 0,-26.0705 7.19818,-7.19818 18.8736,-7.19818 26.0717,0l86.9017 86.9017z"/>
     <path id="_155087672" class="fil4 str1" d="M1054.52 2040.02c-2.12738,0.0614493 -4.2609,0.102006 -6.40425,0.102006 -17.8043,0 -35.0999,-2.17899 -51.6457,-6.25923 -5.46899,-7.22398 -4.91103,-17.5585 1.67634,-24.1459 7.19818,-7.19818 18.8736,-7.19818 26.0717,0l30.3019 30.3031z"/>
     <path id="_155087624" class="fil4 str1" d="M985.11 1970.61c7.19818,7.19818 7.19818,18.8736 0,26.0717 -7.19818,7.19818 -18.8723,7.19818 -26.0705,0l-86.9029 -86.9029c-7.19818,-7.19818 -7.19818,-18.8723 0,-26.0705 7.19818,-7.19818 18.8723,-7.19818 26.0705,0l86.9029 86.9017z"/>
     <path id="_155087576" class="fil4 str1" d="M838.785 1874.58c-3.74964,-15.9031 -5.74306,-32.4821 -5.74306,-49.5282 0,-2.14335 0.0405566,-4.27565 0.102006,-6.40425l25.9574 25.9574c7.19818,7.19818 7.19818,18.8723 0,26.0705 -5.49234,5.49234 -13.5901,6.79261 -20.3164,3.90449z"/>
     <path id="_155087528" class="fil4 str1" d="M955.475 2019.19c-19.9661,-9.55046 -38.2276,-22.0898 -54.2118,-37.038 6.82702,-3.18922 15.2075,-1.96638 20.8436,3.66975l33.3682 33.3682z"/>
     <path id="_155087480" class="fil4 str1" d="M886.801 1967.26c-13.101,-14.8486 -24.1865,-31.5149 -32.825,-49.5749l29.0238 29.0238c5.55625,5.55625 6.82211,13.7782 3.80126,20.5511z"/>
    </g>
   </g>
  </g>
  <g id="_155087192">
   <polygon id="_155087360" class="fil4 str1" points="4538.44,1179.83 4907.13,1179.83 4907.13,1247.42 4944,1247.42 4944,1321.16 4907.13,1321.16 4907.13,1493.22 4944,1493.22 4944,1566.96 4907.13,1566.96 4907.13,1739.01 4944,1739.01 4944,1812.75 4907.13,1812.75 4907.13,1880.35 4538.44,1880.35 4538.44,1812.76 4501.57,1812.76 4501.57,1739.02 4538.44,1739.02 4538.44,1566.96 4501.57,1566.96 4501.57,1493.22 4538.44,1493.22 4538.44,1321.17 4501.57,1321.17 4501.57,1247.43 4538.44,1247.43 "/>
   <circle id="_155087312" class="fil4 str1" transform="matrix(9.06508E-014 -3.42278 3.42278 9.06508E-014 4722.79 1530.09)" r="11.2207"/>
   <circle id="_155087264" class="fil4 str1" transform="matrix(9.06508E-014 -3.42278 3.42278 9.06508E-014 4722.79 1345.74)" r="11.2207"/>
   <circle id="_155087216" class="fil4 str1" transform="matrix(9.06508E-014 -3.42278 3.42278 9.06508E-014 4722.79 1714.44)" r="11.2207"/>
  </g>
  <g id="_155086472">
   <g id="Layer_1">
   </g>
   <g id="Layer_2">
    <path id="_155086928" class="fil4 str3" d="M2138.67 1847.86l-33.3817 0c-2.59808,0 -5.17158,0.216302 -7.72787,0.648905 -2.55383,0.433832 -4.86925,1.34205 -6.94746,2.72712 -2.07945,1.38753 -3.74472,3.37726 -5.00198,5.97533 -1.25357,2.59808 -1.88404,6.06259 -1.88404,10.3911 0,1.8189 0.217531,3.72383 0.648905,5.71479 0.433832,1.99219 0.996708,3.98315 1.68863,5.97533 0.694378,1.99342 1.53869,3.94136 2.53294,5.84506 0.996708,1.90616 2.05732,3.63657 3.18308,5.19493 -5.28096,3.03314 -7.92328,8.18382 -7.92328,15.457 0,3.2052 0.60712,6.68938 1.8189,10.4562 1.21301,3.76684 2.98644,7.42554 5.3252,10.9773l-0.389589 0.518632 -5.58575 0 0 51.7957 10.0015 0 0 -8.70246 46.5872 0c7.81021,0 13.5348,1.86437 17.1788,5.58575 3.6464,3.72506 5.46653,8.963 5.46653,15.7163 0,6.92903 -1.86437,12.2321 -5.59558,15.9117 -3.72998,3.68204 -9.41404,5.52061 -17.0473,5.52061l-46.5897 0 0 -8.83273 -10.0015 0 0 30.5219 10.0015 0 0 -7.66273 46.704 0c5.20599,0 9.89089,-0.669798 14.0535,-2.00816 4.16504,-1.3396 7.67502,-3.43502 10.5373,-6.2875 2.86108,-2.85494 5.05114,-6.5038 6.57016,-10.9552 1.5178,-4.45139 2.27854,-9.78888 2.27854,-16.0137 0,-12.0133 -3.01348,-20.8952 -9.04166,-26.6432 -6.02695,-5.74674 -14.1579,-8.62011 -24.3954,-8.62011l-46.7064 -0.00122899 0 -15.9449 53.5162 0 0 -13.7683 -47.6712 0c-1.4711,-2.25027 -2.74801,-4.84835 -3.83075,-7.79423 -1.08151,-2.94342 -1.62226,-5.67055 -1.62226,-8.18259 0,-2.94219 0.758285,-5.3252 2.27363,-7.14287 1.51534,-1.8189 4.34938,-2.72835 8.50705,-2.72835l42.3435 0 0 -13.7683 -40.2653 0c-1.03972,0 -2.27485,0.0221218 -3.70294,0.0639073 -1.42808,0.0454725 -2.83527,0.239652 -4.22157,0.583769 -0.69192,-1.03972 -1.34205,-2.25027 -1.94794,-3.63657 -0.605891,-1.38507 -1.12575,-2.81315 -1.55958,-4.28671 -0.431374,-1.4711 -0.779178,-2.9213 -1.03849,-4.35061 -0.260545,-1.42808 -0.389589,-2.74801 -0.389589,-3.96225 0,-4.32849 1.01883,-7.16376 3.05157,-8.50828 2.0352,-1.34082 5.17403,-2.01185 9.41773,-2.01185l32.342 0c3.11794,-0.172058 5.41123,-0.974587 6.88356,-2.40267 1.47233,-1.42808 2.20849,-4.09007 2.20849,-7.98841 0,-1.73164 -0.19418,-3.72137 -0.583769,-5.97533 -0.389589,-2.25027 -1.01637,-4.32849 -1.88404,-6.23465l-8.18259 0 0 8.83273 -0.00122899 0z"/>
    <g>
     <polygon id="_155086856" class="fil4 str3" points="2148.6,1826.23 2138.6,1826.23 2138.6,1815.58 2069.5,1815.58 2069.5,1834.41 2083.79,1834.41 2083.79,1844.8 2059.5,1844.8 2059.5,1772.45 2083.79,1772.45 2083.79,1782.84 2069.5,1782.84 2069.5,1801.42 2138.6,1801.42 2138.6,1790.77 2148.6,1790.77 "/>
    </g>
    <g>
     <g>
      <path id="_155086760" class="fil4 str3" d="M2110.42 1748.48l28.1856 0 0 -10.0015 10.004 0 -0.00122899 32.6026 -10.0027 0 0 -8.31287 -69.101 0 0 8.31287 -10.0027 0 0 -40.6561c0,-9.09204 2.17039,-16.1059 6.5038,-21.0415 4.33955,-4.93561 10.584,-7.40342 18.7371,-7.40342 2.08067,0 4.29285,0.259316 6.6353,0.779178 2.34245,0.519861 4.6173,1.40842 6.83071,2.66321 2.21218,1.25725 4.20682,2.92253 5.98517,5.00075 1.77712,2.07822 3.14375,4.63328 4.09867,7.66273l31.3846 -14.4246 -0.841856 -6.01958 10.0015 0c0.292499,0.652592 0.392047,0.941404 0.73985,3.23346 0.344116,2.29575 0.46087,3.7902 0.46087,5.26006 0,3.11794 -0.693149,5.41246 -2.07822,6.88356 -1.38507,1.47356 -3.37726,2.81561 -5.97533,4.02739l-31.5628 13.8974 0 17.5364 -0.00122899 0zm-25.6551 -31.5628c-2.77997,0 -5.15068,0.433832 -7.10723,1.29904 -1.95532,0.866436 -3.54317,2.01308 -4.7611,3.44116 -1.2167,1.42808 -2.08682,3.11794 -2.60791,5.06588 -0.52109,1.94794 -0.784094,3.96225 -0.784094,6.04047l0 15.7163 31.1733 0 0 -15.7163c0,-1.73164 -0.216302,-3.52842 -0.650134,-5.39034 -0.435061,-1.86069 -1.24128,-3.57266 -2.41373,-5.13102 -1.17245,-1.55958 -2.78243,-2.8365 -4.82623,-3.83075 -2.04258,-0.995479 -4.71808,-1.49445 -8.02283,-1.49445z"/>
     </g>
     <g>
      <polygon id="_155086664" class="fil4 str3" points="2059.5,1645.62 2059.5,1616 2069.76,1616 2069.76,1624.19 2102.95,1646.53 2138.6,1623.54 2138.6,1614.97 2148.6,1614.84 2148.6,1648.48 2138.6,1648.48 2138.6,1640.29 2111.2,1657.31 2138.6,1674.71 2138.6,1666.14 2148.6,1666.14 2148.6,1696.28 2138.6,1696.28 2138.6,1688.35 2102.43,1664.58 2069.76,1684.97 2069.76,1694.33 2059.5,1694.2 2059.5,1661.21 2069.76,1661.21 2069.76,1668.74 2094.44,1653.54 2069.76,1637.83 2069.76,1645.62 "/>
     </g>
    </g>
   </g>
  </g>
  <g id="_219396376">
   <path id="_219398392" class="fil0 str2" d="M2313.97 1026.2l2089.27 0c34.0429,0 61.4616,27.4175 61.4616,61.4616l0 1474.77c0,34.0429 -27.4187,61.4616 -61.4616,61.4616l-2089.27 0c-34.0429,0 -61.4604,-27.4187 -61.4604,-61.4616l0 -1474.77c0,-34.0442 27.4175,-61.4616 61.4604,-61.4616zm0 0z"/>
   <circle id="_219398296" class="fil4 str1" cx="4234.26" cy="2371.29" r="18.4345"/>
   <circle id="_219398104" class="fil4 str1" cx="4234.26" cy="1278.07" r="18.4345"/>
   <rect id="_219397984" class="fil4 str4" x="2313.97" y="1210.55" width="1966.38" height="1228.99"/>
   <polygon id="_219397888" class="fil0 str2" points="3997.68,1130.67 4071.42,1130.67 4071.42,1167.54 3997.68,1167.54 "/>
   <polygon id="_219397816" class="fil0 str2" points="3751.89,1130.67 3825.63,1130.67 3825.63,1167.54 3751.89,1167.54 "/>
   <polygon id="_219397744" class="fil0 str2" points="3997.68,2482.56 4071.42,2482.56 4071.42,2519.43 3997.68,2519.43 "/>
   <polygon id="_219397672" class="fil0 str2" points="3751.89,2482.56 3825.63,2482.56 3825.63,2519.43 3751.89,2519.43 "/>
   <polygon id="_219397600" class="fil0 str2" points="3506.09,1130.67 3579.83,1130.67 3579.83,1167.54 3506.09,1167.54 "/>
   <polygon id="_219397528" class="fil0 str2" points="3506.09,2482.56 3579.83,2482.56 3579.83,2519.43 3506.09,2519.43 "/>
   <polygon id="_219397456" class="fil0 str2" points="3014.49,1130.67 3088.23,1130.67 3088.23,1167.54 3014.49,1167.54 "/>
   <polygon id="_219397384" class="fil0 str2" points="2768.7,1130.67 2842.44,1130.67 2842.44,1167.54 2768.7,1167.54 "/>
   <polygon id="_219397312" class="fil0 str2" points="2522.9,1130.67 2596.64,1130.67 2596.64,1167.54 2522.9,1167.54 "/>
   <polygon id="_219397240" class="fil0 str2" points="3014.49,2482.56 3088.23,2482.56 3088.23,2519.43 3014.49,2519.43 "/>
   <polygon id="_219397168" class="fil0 str2" points="2768.7,2482.56 2842.44,2482.56 2842.44,2519.43 2768.7,2519.43 "/>
   <polygon id="_219397096" class="fil0 str2" points="2522.9,2482.56 2596.64,2482.56 2596.64,2519.43 2522.9,2519.43 "/>
   <circle id="_219397048" class="fil4 str1" cx="2313.97" cy="1087.65" r="18.4345"/>
   <circle id="_219397000" class="fil4 str1" cx="2313.97" cy="2562.45" r="18.4345"/>
   <circle id="_219396952" class="fil4 str1" cx="4403.25" cy="1087.65" r="18.4345"/>
   <circle id="_219396904" class="fil4 str1" cx="4403.25" cy="2562.45" r="18.4345"/>
   <polygon id="_219396832" class="fil0 str2" points="3260.29,2482.56 3334.03,2482.56 3334.03,2519.43 3260.29,2519.43 "/>
   <polygon id="_219396640" class="fil0 str2" points="3260.29,1130.67 3334.03,1130.67 3334.03,1167.54 3260.29,1167.54 "/>
   <circle id="_219399568" class="fil4 str1" cx="3853.28" cy="1278.07" r="18.4345"/>
   <circle id="_219399544" class="fil4 str1" cx="3300.23" cy="1278.07" r="18.4345"/>
   <circle id="_219396568" class="fil4 str1" cx="3300.23" cy="2371.29" r="18.4345"/>
   <circle id="_219399328" class="fil4 str1" cx="2366.2" cy="2371.29" r="18.4345"/>
   <circle id="_219397960" class="fil4 str1" cx="2366.2" cy="1278.07" r="18.4345"/>
  </g>
 </g>
</svg>
