<?xml version="1.0" encoding="utf-8"?>
<!-- Generator: Adobe Illustrator 15.1.0, SVG Export Plug-In . SVG Version: 6.00 Build 0)  -->
<!DOCTYPE svg PUBLIC "-//W3C//DTD SVG 1.1//EN" "http://www.w3.org/Graphics/SVG/1.1/DTD/svg11.dtd">
<svg version="1.1" id="Layer_1" xmlns="http://www.w3.org/2000/svg" xmlns:xlink="http://www.w3.org/1999/xlink" x="0px" y="0px"
	 width="2383.938px" height="3370.394px" viewBox="0 0 2383.938 3370.394" enable-background="new 0 0 2383.938 3370.394"
	 xml:space="preserve">
<polygon fill="none" stroke="#000000" stroke-width="1.0001" stroke-linecap="round" stroke-linejoin="round" stroke-miterlimit="22.9256" points="
	1685.197,2127.401 1770.236,2127.401 1770.236,2142.991 1778.74,2142.991 1778.74,2160 1770.236,2160 1770.236,2199.685 
	1778.74,2199.685 1778.74,2216.692 1770.236,2216.692 1770.236,2256.377 1778.74,2256.377 1778.74,2273.385 1770.236,2273.385 
	1770.236,2288.977 1685.197,2288.977 1685.197,2273.386 1676.693,2273.386 1676.693,2256.378 1685.197,2256.378 1685.197,2216.693 
	1676.693,2216.693 1676.693,2199.685 1685.197,2199.685 1685.197,2160.001 1676.693,2160.001 1676.693,2142.993 1685.197,2142.993 
	"/>
<circle fill="none" stroke="#000000" stroke-width="1.0001" stroke-linecap="round" stroke-linejoin="round" stroke-miterlimit="22.9256" cx="1727.717" cy="2208.188" r="8.858"/>
<circle fill="none" stroke="#000000" stroke-width="1.0001" stroke-linecap="round" stroke-linejoin="round" stroke-miterlimit="22.9256" cx="1727.717" cy="2165.669" r="8.858"/>
<circle fill="none" stroke="#000000" stroke-width="1.0001" stroke-linecap="round" stroke-linejoin="round" stroke-miterlimit="22.9256" cx="1727.717" cy="2250.708" r="8.858"/>
<path fill="none" stroke="#000000" stroke-width="1.5999" d="M653.387,1921.888h481.888c7.852,0,14.176,6.324,14.176,14.176v340.155
	c0,7.853-6.324,14.177-14.176,14.177H653.387c-7.852,0-14.176-6.324-14.176-14.177v-340.155
	C639.211,1928.212,645.535,1921.888,653.387,1921.888z"/>
<rect x="1041.731" y="1945.984" fill="none" stroke="#000000" stroke-width="1.5999" width="17.008" height="8.504"/>
<rect x="985.04" y="1945.984" fill="none" stroke="#000000" stroke-width="1.5999" width="17.008" height="8.504"/>
<rect x="1041.731" y="2257.795" fill="none" stroke="#000000" stroke-width="1.5999" width="17.008" height="8.505"/>
<rect x="985.04" y="2257.795" fill="none" stroke="#000000" stroke-width="1.5999" width="17.008" height="8.505"/>
<rect x="928.347" y="1945.984" fill="none" stroke="#000000" stroke-width="1.5999" width="17.008" height="8.504"/>
<rect x="928.347" y="2257.795" fill="none" stroke="#000000" stroke-width="1.5999" width="17.008" height="8.505"/>
<rect x="814.96" y="1945.984" fill="none" stroke="#000000" stroke-width="1.5999" width="17.008" height="8.504"/>
<rect x="758.268" y="1945.984" fill="none" stroke="#000000" stroke-width="1.5999" width="17.008" height="8.504"/>
<rect x="701.575" y="1945.984" fill="none" stroke="#000000" stroke-width="1.5999" width="17.008" height="8.504"/>
<rect x="814.96" y="2257.795" fill="none" stroke="#000000" stroke-width="1.5999" width="17.008" height="8.505"/>
<rect x="758.268" y="2257.795" fill="none" stroke="#000000" stroke-width="1.5999" width="17.008" height="8.505"/>
<rect x="701.575" y="2257.795" fill="none" stroke="#000000" stroke-width="1.5999" width="17.008" height="8.505"/>
<circle fill="none" stroke="#000000" stroke-width="1.0001" stroke-linecap="round" stroke-linejoin="round" stroke-miterlimit="22.9256" cx="653.387" cy="1936.062" r="4.252"/>
<circle fill="none" stroke="#000000" stroke-width="1.0001" stroke-linecap="round" stroke-linejoin="round" stroke-miterlimit="22.9256" cx="653.387" cy="2276.224" r="4.252"/>
<circle fill="none" stroke="#000000" stroke-width="1.0001" stroke-linecap="round" stroke-linejoin="round" stroke-miterlimit="22.9256" cx="1135.276" cy="1936.062" r="4.252"/>
<circle fill="none" stroke="#000000" stroke-width="1.0001" stroke-linecap="round" stroke-linejoin="round" stroke-miterlimit="22.9256" cx="1135.276" cy="2276.224" r="4.252"/>
<rect x="871.653" y="2257.795" fill="none" stroke="#000000" stroke-width="1.5999" width="17.008" height="8.505"/>
<rect x="871.653" y="1945.984" fill="none" stroke="#000000" stroke-width="1.5999" width="17.008" height="8.504"/>
<circle fill="none" stroke="#000000" stroke-width="1.0001" stroke-linecap="round" stroke-linejoin="round" stroke-miterlimit="22.9256" cx="834.803" cy="2151.496" r="4.252"/>
<circle fill="none" stroke="#000000" stroke-width="1.0001" stroke-linecap="round" stroke-linejoin="round" stroke-miterlimit="22.9256" cx="925.512" cy="2151.496" r="4.252"/>
<circle fill="none" stroke="#000000" stroke-width="1.0001" stroke-linecap="round" stroke-linejoin="round" stroke-miterlimit="22.9256" cx="834.803" cy="2060.787" r="4.252"/>
<circle fill="none" stroke="#000000" stroke-width="1.0001" stroke-linecap="round" stroke-linejoin="round" stroke-miterlimit="22.9256" cx="925.512" cy="2060.787" r="4.252"/>
<polygon fill="none" stroke="#000000" stroke-width="1.0001" stroke-linecap="round" stroke-linejoin="round" stroke-miterlimit="22.9256" points="
	1685.197,1957.322 1770.236,1957.322 1770.236,1972.913 1778.74,1972.913 1778.74,1989.921 1770.236,1989.921 1770.236,2029.605 
	1778.74,2029.605 1778.74,2046.614 1770.236,2046.614 1770.236,2086.298 1778.74,2086.298 1778.74,2103.306 1770.236,2103.306 
	1770.236,2118.897 1685.197,2118.897 1685.197,2103.308 1676.693,2103.308 1676.693,2086.299 1685.197,2086.299 1685.197,2046.614 
	1676.693,2046.614 1676.693,2029.606 1685.197,2029.606 1685.197,1989.922 1676.693,1989.922 1676.693,1972.914 1685.197,1972.914 
	"/>
<circle fill="none" stroke="#000000" stroke-width="1.0001" stroke-linecap="round" stroke-linejoin="round" stroke-miterlimit="22.9256" cx="1727.717" cy="2038.11" r="8.858"/>
<circle fill="none" stroke="#000000" stroke-width="1.0001" stroke-linecap="round" stroke-linejoin="round" stroke-miterlimit="22.9256" cx="1727.717" cy="1995.591" r="8.858"/>
<circle fill="none" stroke="#000000" stroke-width="1.0001" stroke-linecap="round" stroke-linejoin="round" stroke-miterlimit="22.9256" cx="1727.717" cy="2080.63" r="8.858"/>
<path fill="none" stroke="#FFFFFF" stroke-width="1.5358" stroke-linecap="round" d="M3270.241,1083.546l-7.434-24.84l-7.43,24.84
	 M3334.421,636.866v421.39 M3334.421,1058.256h297.775"/>
<path fill="none" stroke="#A54686" stroke-width="1.0001" stroke-linecap="round" stroke-linejoin="round" stroke-miterlimit="22.9256" d="
	M1131.692,2111.403h-7.699c-0.599,0-1.193,0.05-1.783,0.149c-0.589,0.101-1.123,0.31-1.603,0.629
	c-0.479,0.32-0.863,0.779-1.153,1.379c-0.289,0.599-0.435,1.397-0.435,2.396c0,0.419,0.05,0.858,0.149,1.317
	c0.1,0.46,0.23,0.919,0.39,1.379c0.16,0.46,0.355,0.909,0.584,1.348c0.23,0.439,0.475,0.839,0.734,1.198
	c-1.218,0.7-1.827,1.888-1.827,3.565c0,0.739,0.14,1.543,0.419,2.412c0.28,0.868,0.689,1.712,1.229,2.531l-0.09,0.12h-1.288v11.946
	h2.307v-2.007h10.745c1.802,0,3.122,0.43,3.962,1.288c0.841,0.859,1.261,2.067,1.261,3.625c0,1.598-0.43,2.821-1.291,3.67
	c-0.86,0.85-2.171,1.273-3.932,1.273h-10.746v-2.037h-2.307v7.039h2.307v-1.767h10.772c1.201,0,2.282-0.154,3.242-0.464
	c0.96-0.309,1.77-0.792,2.43-1.449c0.66-0.659,1.165-1.501,1.516-2.527c0.35-1.026,0.525-2.258,0.525-3.693
	c0-2.771-0.695-4.819-2.085-6.146c-1.39-1.325-3.266-1.988-5.627-1.988h-10.772v-3.678h12.343v-3.176h-10.995
	c-0.339-0.519-0.634-1.118-0.884-1.798c-0.25-0.679-0.374-1.308-0.374-1.887c0-0.679,0.175-1.229,0.524-1.648
	c0.35-0.419,1.003-0.629,1.962-0.629h9.766v-3.176h-9.287c-0.24,0-0.525,0.006-0.854,0.015c-0.329,0.011-0.654,0.056-0.974,0.135
	c-0.16-0.239-0.31-0.519-0.449-0.839c-0.14-0.319-0.26-0.648-0.36-0.988c-0.099-0.34-0.18-0.674-0.24-1.004
	c-0.06-0.329-0.09-0.634-0.09-0.914c0-0.998,0.235-1.652,0.704-1.962c0.469-0.31,1.193-0.464,2.172-0.464h7.46
	c0.719-0.04,1.248-0.225,1.588-0.555c0.339-0.329,0.509-0.943,0.509-1.842c0-0.399-0.045-0.858-0.135-1.379
	c-0.09-0.519-0.234-0.998-0.435-1.438h-1.887L1131.692,2111.403L1131.692,2111.403z"/>
<polygon fill="none" stroke="#A54686" stroke-width="1.0001" stroke-linecap="round" stroke-linejoin="round" stroke-miterlimit="22.9256" points="
	1133.984,2106.413 1131.677,2106.413 1131.677,2103.957 1115.739,2103.957 1115.739,2108.301 1119.035,2108.301 1119.035,2110.697 
	1113.433,2110.697 1113.433,2094.011 1119.035,2094.011 1119.035,2096.407 1115.739,2096.407 1115.739,2100.691 1131.677,2100.691 
	1131.677,2098.234 1133.984,2098.234 "/>
<path fill="none" stroke="#A54686" stroke-width="1.0001" stroke-linecap="round" stroke-linejoin="round" stroke-miterlimit="22.9256" d="
	M1119.259,2081.202c-0.641,0-1.188,0.1-1.639,0.3c-0.451,0.199-0.817,0.464-1.098,0.794c-0.281,0.329-0.481,0.719-0.602,1.168
	s-0.181,0.914-0.181,1.394v3.625h7.19v-3.625c0-0.399-0.05-0.814-0.15-1.243c-0.1-0.43-0.286-0.824-0.557-1.184
	c-0.27-0.36-0.642-0.654-1.113-0.884S1120.021,2081.202,1119.259,2081.202z M1125.177,2088.482h6.501v-2.308h2.307v7.521h-2.307
	v-1.918h-15.938v1.918h-2.307v-9.378c0-2.097,0.5-3.715,1.5-4.853c1.001-1.139,2.441-1.708,4.321-1.708c0.48,0,0.99,0.06,1.531,0.18
	s1.065,0.325,1.576,0.614c0.51,0.29,0.97,0.674,1.38,1.153c0.41,0.479,0.725,1.068,0.945,1.768l7.239-3.327l-0.194-1.389h2.307
	c0.068,0.151,0.091,0.218,0.171,0.746c0.079,0.529,0.106,0.874,0.106,1.213c0,0.72-0.16,1.249-0.479,1.588
	c-0.319,0.34-0.779,0.649-1.378,0.929l-7.28,3.206V2088.482z"/>
<polygon fill="none" stroke="#A54686" stroke-width="1.0001" stroke-linecap="round" stroke-linejoin="round" stroke-miterlimit="22.9256" points="
	1113.433,2064.757 1113.433,2057.926 1115.799,2057.926 1115.799,2059.813 1123.453,2064.966 1131.678,2059.663 1131.678,2057.687 
	1133.984,2057.656 1133.984,2065.416 1131.678,2065.416 1131.678,2063.528 1125.356,2067.453 1131.678,2071.468 1131.678,2069.49 
	1133.984,2069.49 1133.984,2076.44 1131.678,2076.44 1131.678,2074.613 1123.333,2069.131 1115.799,2073.834 1115.799,2075.991 
	1113.433,2075.961 1113.433,2068.352 1115.799,2068.352 1115.799,2070.09 1121.491,2066.584 1115.799,2062.959 1115.799,2064.757 
	"/>
<path fill="none" stroke="#000000" stroke-width="1.5999" d="M1172.127,1921.888h481.888c7.852,0,14.176,6.324,14.176,14.176
	v340.155c0,7.853-6.324,14.177-14.176,14.177h-481.888c-7.852,0-14.176-6.324-14.176-14.177v-340.155
	C1157.951,1928.212,1164.275,1921.888,1172.127,1921.888z"/>
<circle fill="none" stroke="#000000" stroke-width="1.0001" stroke-linecap="round" stroke-linejoin="round" stroke-miterlimit="22.9256" cx="1615.039" cy="2232.132" r="4.252"/>
<circle fill="none" stroke="#000000" stroke-width="1.0001" stroke-linecap="round" stroke-linejoin="round" stroke-miterlimit="22.9256" cx="1615.039" cy="1979.982" r="4.252"/>
<rect x="1172.126" y="1964.409" fill="none" stroke="#F58220" stroke-width="1.0001" stroke-linecap="round" stroke-linejoin="round" stroke-miterlimit="22.9256" width="453.543" height="283.465"/>
<rect x="1560.472" y="1945.984" fill="none" stroke="#000000" stroke-width="1.5999" width="17.008" height="8.504"/>
<rect x="1503.779" y="1945.984" fill="none" stroke="#000000" stroke-width="1.5999" width="17.009" height="8.504"/>
<rect x="1560.472" y="2257.795" fill="none" stroke="#000000" stroke-width="1.5999" width="17.008" height="8.505"/>
<rect x="1503.779" y="2257.795" fill="none" stroke="#000000" stroke-width="1.5999" width="17.009" height="8.505"/>
<rect x="1447.087" y="1945.984" fill="none" stroke="#000000" stroke-width="1.5999" width="17.008" height="8.504"/>
<rect x="1447.087" y="2257.795" fill="none" stroke="#000000" stroke-width="1.5999" width="17.008" height="8.505"/>
<rect x="1333.7" y="1945.984" fill="none" stroke="#000000" stroke-width="1.5999" width="17.008" height="8.504"/>
<rect x="1277.008" y="1945.984" fill="none" stroke="#000000" stroke-width="1.5999" width="17.009" height="8.504"/>
<rect x="1220.315" y="1945.984" fill="none" stroke="#000000" stroke-width="1.5999" width="17.008" height="8.504"/>
<rect x="1333.7" y="2257.795" fill="none" stroke="#000000" stroke-width="1.5999" width="17.008" height="8.505"/>
<rect x="1277.008" y="2257.795" fill="none" stroke="#000000" stroke-width="1.5999" width="17.009" height="8.505"/>
<rect x="1220.315" y="2257.795" fill="none" stroke="#000000" stroke-width="1.5999" width="17.008" height="8.505"/>
<circle fill="none" stroke="#000000" stroke-width="1.0001" stroke-linecap="round" stroke-linejoin="round" stroke-miterlimit="22.9256" cx="1172.127" cy="1936.062" r="4.252"/>
<circle fill="none" stroke="#000000" stroke-width="1.0001" stroke-linecap="round" stroke-linejoin="round" stroke-miterlimit="22.9256" cx="1172.127" cy="2276.224" r="4.252"/>
<circle fill="none" stroke="#000000" stroke-width="1.0001" stroke-linecap="round" stroke-linejoin="round" stroke-miterlimit="22.9256" cx="1654.017" cy="1936.062" r="4.252"/>
<circle fill="none" stroke="#000000" stroke-width="1.0001" stroke-linecap="round" stroke-linejoin="round" stroke-miterlimit="22.9256" cx="1654.017" cy="2276.224" r="4.252"/>
<rect x="1390.393" y="2257.795" fill="none" stroke="#000000" stroke-width="1.5999" width="17.009" height="8.505"/>
<rect x="1390.393" y="1945.984" fill="none" stroke="#000000" stroke-width="1.5999" width="17.009" height="8.504"/>
<circle fill="none" stroke="#000000" stroke-width="1.0001" stroke-linecap="round" stroke-linejoin="round" stroke-miterlimit="22.9256" cx="1527.165" cy="1979.982" r="4.252"/>
<circle fill="none" stroke="#000000" stroke-width="1.0001" stroke-linecap="round" stroke-linejoin="round" stroke-miterlimit="22.9256" cx="1399.606" cy="1979.982" r="4.252"/>
<circle fill="none" stroke="#000000" stroke-width="1.0001" stroke-linecap="round" stroke-linejoin="round" stroke-miterlimit="22.9256" cx="1399.606" cy="2232.132" r="4.252"/>
<circle fill="none" stroke="#000000" stroke-width="1.0001" stroke-linecap="round" stroke-linejoin="round" stroke-miterlimit="22.9256" cx="1184.173" cy="2232.132" r="4.252"/>
<circle fill="none" stroke="#000000" stroke-width="1.0001" stroke-linecap="round" stroke-linejoin="round" stroke-miterlimit="22.9256" cx="1184.173" cy="1979.982" r="4.252"/>
<circle fill="none" stroke="#000000" stroke-miterlimit="10" cx="880.157" cy="2106.142" r="55.276"/>
</svg>
