  0
SECTION
  2
HEADER
  9
$ACADVER
  1
AC1021
  9
$ACADMAINTVER
 70
    25
  9
$DWGCODEPAGE
  3
ANSI_1252
  9
$INSBASE
 10
0.0
 20
0.0
 30
0.0
  9
$EXTMIN
 10
-19.52828
 20
-21.37828
 30
0.0
  9
$EXTMAX
 10
20.71764
 20
0.00002
 30
0.0
  9
$LIMMIN
 10
0.0
 20
0.0
  9
$LIMMAX
 10
12.0
 20
9.0
  9
$ORTHOMODE
 70
     0
  9
$REGENMODE
 70
     1
  9
$FILLMODE
 70
     1
  9
$QTEXTMODE
 70
     0
  9
$MIRRTEXT
 70
     1
  9
$LTSCALE
 40
1.0
  9
$ATTMODE
 70
     1
  9
$TEXTSIZE
 40
0.2
  9
$TRACEWID
 40
0.05
  9
$TEXTSTYLE
  7
Standard
  9
$CLAYER
  8
0
  9
$CELTYPE
  6
ByLayer
  9
$CECOLOR
 62
   256
  9
$CELTSCALE
 40
1.0
  9
$DISPSILH
 70
     0
  9
$DIMSCALE
 40
1.0
  9
$DIMASZ
 40
0.18
  9
$DIMEXO
 40
0.0625
  9
$DIMDLI
 40
0.38
  9
$DIMRND
 40
0.0
  9
$DIMDLE
 40
0.0
  9
$DIMEXE
 40
0.18
  9
$DIMTP
 40
0.0
  9
$DIMTM
 40
0.0
  9
$DIMTXT
 40
0.18
  9
$DIMCEN
 40
0.09
  9
$DIMTSZ
 40
0.0
  9
$DIMTOL
 70
     0
  9
$DIMLIM
 70
     0
  9
$DIMTIH
 70
     1
  9
$DIMTOH
 70
     1
  9
$DIMSE1
 70
     0
  9
$DIMSE2
 70
     0
  9
$DIMTAD
 70
     0
  9
$DIMZIN
 70
     0
  9
$DIMBLK
  1

  9
$DIMASO
 70
     1
  9
$DIMSHO
 70
     1
  9
$DIMPOST
  1

  9
$DIMAPOST
  1

  9
$DIMALT
 70
     0
  9
$DIMALTD
 70
     2
  9
$DIMALTF
 40
25.4
  9
$DIMLFAC
 40
1.0
  9
$DIMTOFL
 70
     0
  9
$DIMTVP
 40
0.0
  9
$DIMTIX
 70
     0
  9
$DIMSOXD
 70
     0
  9
$DIMSAH
 70
     0
  9
$DIMBLK1
  1

  9
$DIMBLK2
  1

  9
$DIMSTYLE
  2
Standard
  9
$DIMCLRD
 70
     0
  9
$DIMCLRE
 70
     0
  9
$DIMCLRT
 70
     0
  9
$DIMTFAC
 40
1.0
  9
$DIMGAP
 40
0.09
  9
$DIMJUST
 70
     0
  9
$DIMSD1
 70
     0
  9
$DIMSD2
 70
     0
  9
$DIMTOLJ
 70
     1
  9
$DIMTZIN
 70
     0
  9
$DIMALTZ
 70
     0
  9
$DIMALTTZ
 70
     0
  9
$DIMUPT
 70
     0
  9
$DIMDEC
 70
     4
  9
$DIMTDEC
 70
     4
  9
$DIMALTU
 70
     2
  9
$DIMALTTD
 70
     2
  9
$DIMTXSTY
  7
Standard
  9
$DIMAUNIT
 70
     0
  9
$DIMADEC
 70
     0
  9
$DIMALTRND
 40
0.0
  9
$DIMAZIN
 70
     0
  9
$DIMDSEP
 70
    46
  9
$DIMATFIT
 70
     3
  9
$DIMFRAC
 70
     0
  9
$DIMLDRBLK
  1

  9
$DIMLUNIT
 70
     2
  9
$DIMLWD
 70
    -2
  9
$DIMLWE
 70
    -2
  9
$DIMTMOVE
 70
     0
  9
$DIMFXL
 40
1.0
  9
$DIMFXLON
 70
     0
  9
$DIMJOGANG
 40
0.7853981633974483
  9
$DIMTFILL
 70
     0
  9
$DIMTFILLCLR
 70
     0
  9
$DIMARCSYM
 70
     0
  9
$DIMLTYPE
  6

  9
$DIMLTEX1
  6

  9
$DIMLTEX2
  6

  9
$LUNITS
 70
     2
  9
$LUPREC
 70
     4
  9
$SKETCHINC
 40
0.1
  9
$FILLETRAD
 40
0.5
  9
$AUNITS
 70
     0
  9
$AUPREC
 70
     0
  9
$MENU
  1
.
  9
$ELEVATION
 40
0.0
  9
$PELEVATION
 40
0.0
  9
$THICKNESS
 40
0.0
  9
$LIMCHECK
 70
     0
  9
$CHAMFERA
 40
0.5
  9
$CHAMFERB
 40
0.5
  9
$CHAMFERC
 40
1.0
  9
$CHAMFERD
 40
0.0
  9
$SKPOLY
 70
     0
  9
$TDCREATE
 40
2456686.53973191
  9
$TDUCREATE
 40
2456686.53973191
  9
$TDUPDATE
 40
2456686.539731921
  9
$TDUUPDATE
 40
2456686.539731921
  9
$TDINDWG
 40
0.0000000116
  9
$TDUSRTIMER
 40
0.0000000116
  9
$USRTIMER
 70
     1
  9
$ANGBASE
 50
0.0
  9
$ANGDIR
 70
     0
  9
$PDMODE
 70
     0
  9
$PDSIZE
 40
0.0
  9
$PLINEWID
 40
0.0
  9
$SPLFRAME
 70
     0
  9
$SPLINETYPE
 70
     6
  9
$SPLINESEGS
 70
     8
  9
$HANDSEED
  5
BA
  9
$SURFTAB1
 70
     6
  9
$SURFTAB2
 70
     6
  9
$SURFTYPE
 70
     6
  9
$SURFU
 70
     6
  9
$SURFV
 70
     6
  9
$UCSBASE
  2

  9
$UCSNAME
  2

  9
$UCSORG
 10
0.0
 20
0.0
 30
0.0
  9
$UCSXDIR
 10
1.0
 20
0.0
 30
0.0
  9
$UCSYDIR
 10
0.0
 20
1.0
 30
0.0
  9
$UCSORTHOREF
  2

  9
$UCSORTHOVIEW
 70
     0
  9
$UCSORGTOP
 10
0.0
 20
0.0
 30
0.0
  9
$UCSORGBOTTOM
 10
0.0
 20
0.0
 30
0.0
  9
$UCSORGLEFT
 10
0.0
 20
0.0
 30
0.0
  9
$UCSORGRIGHT
 10
0.0
 20
0.0
 30
0.0
  9
$UCSORGFRONT
 10
0.0
 20
0.0
 30
0.0
  9
$UCSORGBACK
 10
0.0
 20
0.0
 30
0.0
  9
$PUCSBASE
  2

  9
$PUCSNAME
  2

  9
$PUCSORG
 10
0.0
 20
0.0
 30
0.0
  9
$PUCSXDIR
 10
1.0
 20
0.0
 30
0.0
  9
$PUCSYDIR
 10
0.0
 20
1.0
 30
0.0
  9
$PUCSORTHOREF
  2

  9
$PUCSORTHOVIEW
 70
     0
  9
$PUCSORGTOP
 10
0.0
 20
0.0
 30
0.0
  9
$PUCSORGBOTTOM
 10
0.0
 20
0.0
 30
0.0
  9
$PUCSORGLEFT
 10
0.0
 20
0.0
 30
0.0
  9
$PUCSORGRIGHT
 10
0.0
 20
0.0
 30
0.0
  9
$PUCSORGFRONT
 10
0.0
 20
0.0
 30
0.0
  9
$PUCSORGBACK
 10
0.0
 20
0.0
 30
0.0
  9
$USERI1
 70
     0
  9
$USERI2
 70
     0
  9
$USERI3
 70
     0
  9
$USERI4
 70
     0
  9
$USERI5
 70
     0
  9
$USERR1
 40
0.0
  9
$USERR2
 40
0.0
  9
$USERR3
 40
0.0
  9
$USERR4
 40
0.0
  9
$USERR5
 40
0.0
  9
$WORLDVIEW
 70
     1
  9
$SHADEDGE
 70
     3
  9
$SHADEDIF
 70
    70
  9
$TILEMODE
 70
     1
  9
$MAXACTVP
 70
    64
  9
$PINSBASE
 10
0.0
 20
0.0
 30
0.0
  9
$PLIMCHECK
 70
     0
  9
$PEXTMIN
 10
1.000000000000000E+20
 20
1.000000000000000E+20
 30
1.000000000000000E+20
  9
$PEXTMAX
 10
-1.000000000000000E+20
 20
-1.000000000000000E+20
 30
-1.000000000000000E+20
  9
$PLIMMIN
 10
0.0
 20
0.0
  9
$PLIMMAX
 10
12.0
 20
9.0
  9
$UNITMODE
 70
     0
  9
$VISRETAIN
 70
     1
  9
$PLINEGEN
 70
     0
  9
$PSLTSCALE
 70
     1
  9
$TREEDEPTH
 70
  3020
  9
$CMLSTYLE
  2
Standard
  9
$CMLJUST
 70
     0
  9
$CMLSCALE
 40
1.0
  9
$PROXYGRAPHICS
 70
     1
  9
$MEASUREMENT
 70
     0
  9
$CELWEIGHT
370
    -1
  9
$ENDCAPS
280
     0
  9
$JOINSTYLE
280
     0
  9
$LWDISPLAY
290
     0
  9
$INSUNITS
 70
     5
  9
$HYPERLINKBASE
  1

  9
$STYLESHEET
  1

  9
$XEDIT
290
     1
  9
$CEPSNTYPE
380
     0
  9
$PSTYLEMODE
290
     1
  9
$FINGERPRINTGUID
  2
{AC5CDA6E-0A4F-43AA-BC1D-D20FB87F0446}
  9
$VERSIONGUID
  2
{FAEB1C32-E019-11D5-929B-00C0DF256EC4}
  9
$EXTNAMES
290
     1
  9
$PSVPSCALE
 40
0.0
  9
$OLESTARTUP
290
     0
  9
$SORTENTS
280
   127
  9
$INDEXCTL
280
     0
  9
$HIDETEXT
280
     1
  9
$XCLIPFRAME
290
     0
  9
$HALOGAP
280
     0
  9
$OBSCOLOR
 70
   257
  9
$OBSLTYPE
280
     0
  9
$INTERSECTIONDISPLAY
280
     0
  9
$INTERSECTIONCOLOR
 70
   257
  9
$DIMASSOC
280
     2
  9
$PROJECTNAME
  1

  9
$CAMERADISPLAY
290
     0
  9
$LENSLENGTH
 40
50.0
  9
$CAMERAHEIGHT
 40
0.0
  9
$STEPSPERSEC
 40
2.0
  9
$STEPSIZE
 40
6.0
  9
$3DDWFPREC
 40
2.0
  9
$PSOLWIDTH
 40
0.25
  9
$PSOLHEIGHT
 40
4.0
  9
$LOFTANG1
 40
1.570796326794897
  9
$LOFTANG2
 40
1.570796326794897
  9
$LOFTMAG1
 40
0.0
  9
$LOFTMAG2
 40
0.0
  9
$LOFTPARAM
 70
     7
  9
$LOFTNORMALS
280
     1
  9
$LATITUDE
 40
37.795
  9
$LONGITUDE
 40
-122.394
  9
$NORTHDIRECTION
 40
0.0
  9
$TIMEZONE
 70
 -8000
  9
$LIGHTGLYPHDISPLAY
280
     1
  9
$TILEMODELIGHTSYNCH
280
     1
  9
$SOLIDHIST
280
     1
  9
$SHOWHIST
280
     1
  9
$DWFFRAME
280
     2
  9
$DGNFRAME
280
     2
  9
$REALWORLDSCALE
290
     1
  9
$INTERFERECOLOR
 62
   256
  9
$CSHADOW
280
     0
  9
$SHADOWPLANELOCATION
 40
0.0
  0
ENDSEC
  0
SECTION
  2
CLASSES
  0
CLASS
  1
ACDBDICTIONARYWDFLT
  2
AcDbDictionaryWithDefault
  3
ObjectDBX Classes
 90
        0
 91
        3
280
     0
281
     0
  0
CLASS
  1
VISUALSTYLE
  2
AcDbVisualStyle
  3
ObjectDBX Classes
 90
     4095
 91
        3
280
     0
281
     0
  0
CLASS
  1
SCALE
  2
AcDbScale
  3
ObjectDBX Classes
 90
     1153
 91
        3
280
     0
281
     0
  0
ENDSEC
  0
SECTION
  2
TABLES
  0
TABLE
  2
VPORT
  5
8
330
0
100
AcDbSymbolTable
 70
     1
  0
VPORT
  5
29
330
8
100
AcDbSymbolTableRecord
100
AcDbViewportTableRecord
  2
*Active
 70
     0
 10
0.0
 20
0.0
 11
1.0
 21
1.0
 12
10.42990654205607
 22
4.5
 13
0.0
 23
0.0
 14
0.5
 24
0.5
 15
0.5
 25
0.5
 16
0.0
 26
0.0
 36
1.0
 17
0.0
 27
0.0
 37
0.0
 40
9.0
 41
1.972972972850329
 42
50.0
 43
0.0
 44
0.0
 50
0.0
 51
0.0
 71
     0
 72
   100
 73
     1
 74
     3
 75
     0
 76
     0
 77
     0
 78
     0
281
     0
 65
     1
110
0.0
120
0.0
130
0.0
111
1.0
121
0.0
131
0.0
112
0.0
122
1.0
132
0.0
 79
     0
146
0.0
 60
     3
 61
     5
292
     1
282
     1
141
0.0
142
0.0
 63
   256
  0
ENDTAB
  0
TABLE
  2
LTYPE
  5
5
330
0
100
AcDbSymbolTable
 70
     1
  0
LTYPE
  5
14
330
5
100
AcDbSymbolTableRecord
100
AcDbLinetypeTableRecord
  2
ByBlock
 70
     0
  3

 72
    65
 73
     0
 40
0.0
  0
LTYPE
  5
15
330
5
100
AcDbSymbolTableRecord
100
AcDbLinetypeTableRecord
  2
ByLayer
 70
     0
  3

 72
    65
 73
     0
 40
0.0
  0
LTYPE
  5
16
330
5
100
AcDbSymbolTableRecord
100
AcDbLinetypeTableRecord
  2
Continuous
 70
     0
  3
Solid line
 72
    65
 73
     0
 40
0.0
  0
ENDTAB
  0
TABLE
  2
LAYER
  5
2
330
0
100
AcDbSymbolTable
 70
     2
  0
LAYER
  5
10
330
2
100
AcDbSymbolTableRecord
100
AcDbLayerTableRecord
  2
0
 70
     0
 62
     7
  6
Continuous
370
    -3
390
F
347
0
  0
LAYER
  5
5E
330
2
100
AcDbSymbolTableRecord
100
AcDbLayerTableRecord
  2
Layer 1
 70
     0
 62
     7
  6
Continuous
370
    -3
390
F
347
0
  0
ENDTAB
  0
TABLE
  2
STYLE
  5
3
330
0
100
AcDbSymbolTable
 70
     1
  0
STYLE
  5
11
330
3
100
AcDbSymbolTableRecord
100
AcDbTextStyleTableRecord
  2
Standard
 70
     0
 40
0.0
 41
1.0
 50
0.0
 71
     0
 42
0.2
  3
txt
  4

  0
ENDTAB
  0
TABLE
  2
VIEW
  5
6
330
0
100
AcDbSymbolTable
 70
     0
  0
ENDTAB
  0
TABLE
  2
UCS
  5
7
330
0
100
AcDbSymbolTable
 70
     0
  0
ENDTAB
  0
TABLE
  2
APPID
  5
9
330
0
100
AcDbSymbolTable
 70
     2
  0
APPID
  5
12
330
9
100
AcDbSymbolTableRecord
100
AcDbRegAppTableRecord
  2
ACAD
 70
     0
  0
APPID
  5
5D
330
9
100
AcDbSymbolTableRecord
100
AcDbRegAppTableRecord
  2
ODA
 70
     0
  0
ENDTAB
  0
TABLE
  2
DIMSTYLE
  5
A
330
0
100
AcDbSymbolTable
 70
     1
100
AcDbDimStyleTable
  0
DIMSTYLE
105
27
330
A
100
AcDbSymbolTableRecord
100
AcDbDimStyleTableRecord
  2
Standard
 70
     0
340
11
  0
ENDTAB
  0
TABLE
  2
BLOCK_RECORD
  5
1
330
0
100
AcDbSymbolTable
 70
     1
  0
BLOCK_RECORD
  5
1F
330
1
100
AcDbSymbolTableRecord
100
AcDbBlockTableRecord
  2
*Model_Space
340
22
 70
     0
280
     1
281
     0
  0
BLOCK_RECORD
  5
1B
330
1
100
AcDbSymbolTableRecord
100
AcDbBlockTableRecord
  2
*Paper_Space
340
1E
 70
     0
280
     1
281
     0
  0
BLOCK_RECORD
  5
23
330
1
100
AcDbSymbolTableRecord
100
AcDbBlockTableRecord
  2
*Paper_Space0
340
26
 70
     0
280
     1
281
     0
  0
ENDTAB
  0
ENDSEC
  0
SECTION
  2
BLOCKS
  0
BLOCK
  5
20
330
1F
100
AcDbEntity
  8
0
100
AcDbBlockBegin
  2
*Model_Space
 70
     0
 10
0.0
 20
0.0
 30
0.0
  3
*Model_Space
  1

  0
ENDBLK
  5
21
330
1F
100
AcDbEntity
  8
0
100
AcDbBlockEnd
  0
BLOCK
  5
1C
330
1B
100
AcDbEntity
 67
     1
  8
0
100
AcDbBlockBegin
  2
*Paper_Space
 70
     0
 10
0.0
 20
0.0
 30
0.0
  3
*Paper_Space
  1

  0
ENDBLK
  5
1D
330
1B
100
AcDbEntity
 67
     1
  8
0
100
AcDbBlockEnd
  0
BLOCK
  5
24
330
23
100
AcDbEntity
  8
0
100
AcDbBlockBegin
  2
*Paper_Space0
 70
     0
 10
0.0
 20
0.0
 30
0.0
  3
*Paper_Space0
  1

  0
ENDBLK
  5
25
330
23
100
AcDbEntity
  8
0
100
AcDbBlockEnd
  0
ENDSEC
  0
SECTION
  2
ENTITIES
  0
SPLINE
  5
5F
330
1F
100
AcDbEntity
  8
Layer 1
 62
   250
370
    35
100
AcDbSpline
210
0.0
220
0.0
230
1.0
 70
    11
 71
     3
 72
   116
 73
   112
 74
     0
 42
0.0000000001
 43
0.0000000001
 40
0.0
 40
0.0
 40
0.0
 40
0.0
 40
0.0357142857142857
 40
0.0357142857142857
 40
0.0357142857142857
 40
0.0357142857142857
 40
0.0714285714285714
 40
0.0714285714285714
 40
0.0714285714285714
 40
0.0714285714285714
 40
0.1071428571428571
 40
0.1071428571428571
 40
0.1071428571428571
 40
0.1071428571428571
 40
0.1428571428571428
 40
0.1428571428571428
 40
0.1428571428571428
 40
0.1428571428571428
 40
0.1785714285714285
 40
0.1785714285714285
 40
0.1785714285714285
 40
0.1785714285714285
 40
0.2142857142857142
 40
0.2142857142857142
 40
0.2142857142857142
 40
0.2142857142857142
 40
0.2499999999999999
 40
0.2499999999999999
 40
0.2499999999999999
 40
0.2499999999999999
 40
0.2857142857142856
 40
0.2857142857142856
 40
0.2857142857142856
 40
0.2857142857142856
 40
0.3214285714285713
 40
0.3214285714285713
 40
0.3214285714285713
 40
0.3214285714285713
 40
0.357142857142857
 40
0.357142857142857
 40
0.357142857142857
 40
0.357142857142857
 40
0.3928571428571427
 40
0.3928571428571427
 40
0.3928571428571427
 40
0.3928571428571427
 40
0.4285714285714284
 40
0.4285714285714284
 40
0.4285714285714284
 40
0.4285714285714284
 40
0.4642857142857141
 40
0.4642857142857141
 40
0.4642857142857141
 40
0.4642857142857141
 40
0.4999999999999998
 40
0.4999999999999998
 40
0.4999999999999998
 40
0.4999999999999998
 40
0.5357142857142856
 40
0.5357142857142856
 40
0.5357142857142856
 40
0.5357142857142856
 40
0.5714285714285713
 40
0.5714285714285713
 40
0.5714285714285713
 40
0.5714285714285713
 40
0.607142857142857
 40
0.607142857142857
 40
0.607142857142857
 40
0.607142857142857
 40
0.6428571428571427
 40
0.6428571428571427
 40
0.6428571428571427
 40
0.6428571428571427
 40
0.6785714285714284
 40
0.6785714285714284
 40
0.6785714285714284
 40
0.6785714285714284
 40
0.7142857142857141
 40
0.7142857142857141
 40
0.7142857142857141
 40
0.7142857142857141
 40
0.7499999999999998
 40
0.7499999999999998
 40
0.7499999999999998
 40
0.7499999999999998
 40
0.7857142857142855
 40
0.7857142857142855
 40
0.7857142857142855
 40
0.7857142857142855
 40
0.8214285714285712
 40
0.8214285714285712
 40
0.8214285714285712
 40
0.8214285714285712
 40
0.8571428571428569
 40
0.8571428571428569
 40
0.8571428571428569
 40
0.8571428571428569
 40
0.8928571428571426
 40
0.8928571428571426
 40
0.8928571428571426
 40
0.8928571428571426
 40
0.9285714285714283
 40
0.9285714285714283
 40
0.9285714285714283
 40
0.9285714285714283
 40
0.964285714285714
 40
0.964285714285714
 40
0.964285714285714
 40
0.964285714285714
 40
1.0
 40
1.0
 40
1.0
 40
1.0
 10
17.40001
 20
-15.59999
 30
0.0
 10
17.40001
 20
-15.59999
 30
0.0
 10
20.39999
 20
-15.59999
 30
0.0
 10
20.39999
 20
-15.59999
 30
0.0
 10
20.39999
 20
-15.59999
 30
0.0
 10
20.39999
 20
-15.59999
 30
0.0
 10
20.39999
 20
-16.14999
 30
0.0
 10
20.39999
 20
-16.14999
 30
0.0
 10
20.39999
 20
-16.14999
 30
0.0
 10
20.39999
 20
-16.14999
 30
0.0
 10
20.7
 20
-16.14999
 30
0.0
 10
20.7
 20
-16.14999
 30
0.0
 10
20.7
 20
-16.14999
 30
0.0
 10
20.7
 20
-16.14999
 30
0.0
 10
20.7
 20
-16.75
 30
0.0
 10
20.7
 20
-16.75
 30
0.0
 10
20.7
 20
-16.75
 30
0.0
 10
20.7
 20
-16.75
 30
0.0
 10
20.39999
 20
-16.75
 30
0.0
 10
20.39999
 20
-16.75
 30
0.0
 10
20.39999
 20
-16.75
 30
0.0
 10
20.39999
 20
-16.75
 30
0.0
 10
20.39999
 20
-18.14999
 30
0.0
 10
20.39999
 20
-18.14999
 30
0.0
 10
20.39999
 20
-18.14999
 30
0.0
 10
20.39999
 20
-18.14999
 30
0.0
 10
20.7
 20
-18.14999
 30
0.0
 10
20.7
 20
-18.14999
 30
0.0
 10
20.7
 20
-18.14999
 30
0.0
 10
20.7
 20
-18.14999
 30
0.0
 10
20.7
 20
-18.75
 30
0.0
 10
20.7
 20
-18.75
 30
0.0
 10
20.7
 20
-18.75
 30
0.0
 10
20.7
 20
-18.75
 30
0.0
 10
20.39999
 20
-18.75
 30
0.0
 10
20.39999
 20
-18.75
 30
0.0
 10
20.39999
 20
-18.75
 30
0.0
 10
20.39999
 20
-18.75
 30
0.0
 10
20.39999
 20
-20.14996
 30
0.0
 10
20.39999
 20
-20.14996
 30
0.0
 10
20.39999
 20
-20.14996
 30
0.0
 10
20.39999
 20
-20.14996
 30
0.0
 10
20.7
 20
-20.14996
 30
0.0
 10
20.7
 20
-20.14996
 30
0.0
 10
20.7
 20
-20.14996
 30
0.0
 10
20.7
 20
-20.14996
 30
0.0
 10
20.7
 20
-20.74996
 30
0.0
 10
20.7
 20
-20.74996
 30
0.0
 10
20.7
 20
-20.74996
 30
0.0
 10
20.7
 20
-20.74996
 30
0.0
 10
20.39999
 20
-20.74996
 30
0.0
 10
20.39999
 20
-20.74996
 30
0.0
 10
20.39999
 20
-20.74996
 30
0.0
 10
20.39999
 20
-20.74996
 30
0.0
 10
20.39999
 20
-21.30001
 30
0.0
 10
20.39999
 20
-21.30001
 30
0.0
 10
20.39999
 20
-21.30001
 30
0.0
 10
20.39999
 20
-21.30001
 30
0.0
 10
17.40001
 20
-21.30001
 30
0.0
 10
17.40001
 20
-21.30001
 30
0.0
 10
17.40001
 20
-21.30001
 30
0.0
 10
17.40001
 20
-21.30001
 30
0.0
 10
17.40001
 20
-20.75001
 30
0.0
 10
17.40001
 20
-20.75001
 30
0.0
 10
17.40001
 20
-20.75001
 30
0.0
 10
17.40001
 20
-20.75001
 30
0.0
 10
17.1
 20
-20.75001
 30
0.0
 10
17.1
 20
-20.75001
 30
0.0
 10
17.1
 20
-20.75001
 30
0.0
 10
17.1
 20
-20.75001
 30
0.0
 10
17.1
 20
-20.15
 30
0.0
 10
17.1
 20
-20.15
 30
0.0
 10
17.1
 20
-20.15
 30
0.0
 10
17.1
 20
-20.15
 30
0.0
 10
17.40001
 20
-20.15
 30
0.0
 10
17.40001
 20
-20.15
 30
0.0
 10
17.40001
 20
-20.15
 30
0.0
 10
17.40001
 20
-20.15
 30
0.0
 10
17.40001
 20
-18.75001
 30
0.0
 10
17.40001
 20
-18.75001
 30
0.0
 10
17.40001
 20
-18.75001
 30
0.0
 10
17.40001
 20
-18.75001
 30
0.0
 10
17.1
 20
-18.75001
 30
0.0
 10
17.1
 20
-18.75001
 30
0.0
 10
17.1
 20
-18.75001
 30
0.0
 10
17.1
 20
-18.75001
 30
0.0
 10
17.1
 20
-18.15
 30
0.0
 10
17.1
 20
-18.15
 30
0.0
 10
17.1
 20
-18.15
 30
0.0
 10
17.1
 20
-18.15
 30
0.0
 10
17.40001
 20
-18.15
 30
0.0
 10
17.40001
 20
-18.15
 30
0.0
 10
17.40001
 20
-18.15
 30
0.0
 10
17.40001
 20
-18.15
 30
0.0
 10
17.40001
 20
-16.75004
 30
0.0
 10
17.40001
 20
-16.75004
 30
0.0
 10
17.40001
 20
-16.75004
 30
0.0
 10
17.40001
 20
-16.75004
 30
0.0
 10
17.1
 20
-16.75004
 30
0.0
 10
17.1
 20
-16.75004
 30
0.0
 10
17.1
 20
-16.75004
 30
0.0
 10
17.1
 20
-16.75004
 30
0.0
 10
17.1
 20
-16.15004
 30
0.0
 10
17.1
 20
-16.15004
 30
0.0
 10
17.1
 20
-16.15004
 30
0.0
 10
17.1
 20
-16.15004
 30
0.0
 10
17.40001
 20
-16.15004
 30
0.0
 10
17.40001
 20
-16.15004
 30
0.0
 10
17.40001
 20
-16.15004
 30
0.0
 10
17.40001
 20
-16.15004
 30
0.0
 10
17.40001
 20
-15.59999
 30
0.0
 10
17.40001
 20
-15.59999
 30
0.0
  0
SPLINE
  5
60
330
1F
100
AcDbEntity
  8
Layer 1
 62
   250
370
    35
100
AcDbSpline
210
0.0
220
0.0
230
1.0
 70
    11
 71
     3
 72
    20
 73
    16
 74
     0
 42
0.0000000001
 43
0.0000000001
 40
0.0
 40
0.0
 40
0.0
 40
0.0
 40
0.25
 40
0.25
 40
0.25
 40
0.25
 40
0.5
 40
0.5
 40
0.5
 40
0.5
 40
0.75
 40
0.75
 40
0.75
 40
0.75
 40
1.0
 40
1.0
 40
1.0
 40
1.0
 10
18.5875
 20
-18.45
 30
0.0
 10
18.5875
 20
-18.27742
 30
0.0
 10
18.72742
 20
-18.1375
 30
0.0
 10
18.9
 20
-18.1375
 30
0.0
 10
18.9
 20
-18.1375
 30
0.0
 10
19.07258
 20
-18.1375
 30
0.0
 10
19.2125
 20
-18.27742
 30
0.0
 10
19.2125
 20
-18.45
 30
0.0
 10
19.2125
 20
-18.45
 30
0.0
 10
19.2125
 20
-18.62258
 30
0.0
 10
19.07258
 20
-18.7625
 30
0.0
 10
18.9
 20
-18.7625
 30
0.0
 10
18.9
 20
-18.7625
 30
0.0
 10
18.72742
 20
-18.7625
 30
0.0
 10
18.5875
 20
-18.62258
 30
0.0
 10
18.5875
 20
-18.45
 30
0.0
  0
SPLINE
  5
61
330
1F
100
AcDbEntity
  8
Layer 1
 62
   250
370
    35
100
AcDbSpline
210
0.0
220
0.0
230
1.0
 70
    11
 71
     3
 72
    20
 73
    16
 74
     0
 42
0.0000000001
 43
0.0000000001
 40
0.0
 40
0.0
 40
0.0
 40
0.0
 40
0.25
 40
0.25
 40
0.25
 40
0.25
 40
0.5
 40
0.5
 40
0.5
 40
0.5
 40
0.75
 40
0.75
 40
0.75
 40
0.75
 40
1.0
 40
1.0
 40
1.0
 40
1.0
 10
18.5875
 20
-16.95
 30
0.0
 10
18.5875
 20
-16.77742
 30
0.0
 10
18.72742
 20
-16.6375
 30
0.0
 10
18.9
 20
-16.6375
 30
0.0
 10
18.9
 20
-16.6375
 30
0.0
 10
19.07258
 20
-16.6375
 30
0.0
 10
19.2125
 20
-16.77742
 30
0.0
 10
19.2125
 20
-16.95
 30
0.0
 10
19.2125
 20
-16.95
 30
0.0
 10
19.2125
 20
-17.12258
 30
0.0
 10
19.07258
 20
-17.2625
 30
0.0
 10
18.9
 20
-17.2625
 30
0.0
 10
18.9
 20
-17.2625
 30
0.0
 10
18.72742
 20
-17.2625
 30
0.0
 10
18.5875
 20
-17.12258
 30
0.0
 10
18.5875
 20
-16.95
 30
0.0
  0
SPLINE
  5
62
330
1F
100
AcDbEntity
  8
Layer 1
 62
   250
370
    35
100
AcDbSpline
210
0.0
220
0.0
230
1.0
 70
    11
 71
     3
 72
    20
 73
    16
 74
     0
 42
0.0000000001
 43
0.0000000001
 40
0.0
 40
0.0
 40
0.0
 40
0.0
 40
0.25
 40
0.25
 40
0.25
 40
0.25
 40
0.5
 40
0.5
 40
0.5
 40
0.5
 40
0.75
 40
0.75
 40
0.75
 40
0.75
 40
1.0
 40
1.0
 40
1.0
 40
1.0
 10
18.5875
 20
-19.95
 30
0.0
 10
18.5875
 20
-19.77742
 30
0.0
 10
18.72742
 20
-19.6375
 30
0.0
 10
18.9
 20
-19.6375
 30
0.0
 10
18.9
 20
-19.6375
 30
0.0
 10
19.07258
 20
-19.6375
 30
0.0
 10
19.2125
 20
-19.77742
 30
0.0
 10
19.2125
 20
-19.95
 30
0.0
 10
19.2125
 20
-19.95
 30
0.0
 10
19.2125
 20
-20.12258
 30
0.0
 10
19.07258
 20
-20.2625
 30
0.0
 10
18.9
 20
-20.2625
 30
0.0
 10
18.9
 20
-20.2625
 30
0.0
 10
18.72742
 20
-20.2625
 30
0.0
 10
18.5875
 20
-20.12258
 30
0.0
 10
18.5875
 20
-19.95
 30
0.0
  0
SPLINE
  5
63
330
1F
100
AcDbEntity
  8
Layer 1
370
    53
100
AcDbSpline
210
0.0
220
0.0
230
1.0
 70
    11
 71
     3
 72
    36
 73
    32
 74
     0
 42
0.0000000001
 43
0.0000000001
 40
0.0
 40
0.0
 40
0.0
 40
0.0
 40
0.125
 40
0.125
 40
0.125
 40
0.125
 40
0.25
 40
0.25
 40
0.25
 40
0.25
 40
0.375
 40
0.375
 40
0.375
 40
0.375
 40
0.5
 40
0.5
 40
0.5
 40
0.5
 40
0.625
 40
0.625
 40
0.625
 40
0.625
 40
0.75
 40
0.75
 40
0.75
 40
0.75
 40
0.875
 40
0.875
 40
0.875
 40
0.875
 40
1.0
 40
1.0
 40
1.0
 40
1.0
 10
-18.99997
 20
-8.34994
 30
0.0
 10
-18.99997
 20
-8.34994
 30
0.0
 10
-2.00004
 20
-8.34994
 30
0.0
 10
-2.00004
 20
-8.34994
 30
0.0
 10
-2.00004
 20
-8.34994
 30
0.0
 10
-1.72304
 20
-8.34994
 30
0.0
 10
-1.49994
 20
-8.57303
 30
0.0
 10
-1.49994
 20
-8.85004
 30
0.0
 10
-1.49994
 20
-8.85004
 30
0.0
 10
-1.49994
 20
-8.85004
 30
0.0
 10
-1.49994
 20
-20.84996
 30
0.0
 10
-1.49994
 20
-20.84996
 30
0.0
 10
-1.49994
 20
-20.84996
 30
0.0
 10
-1.49994
 20
-21.12696
 30
0.0
 10
-1.72304
 20
-21.35006
 30
0.0
 10
-2.00004
 20
-21.35006
 30
0.0
 10
-2.00004
 20
-21.35006
 30
0.0
 10
-2.00004
 20
-21.35006
 30
0.0
 10
-18.99997
 20
-21.35006
 30
0.0
 10
-18.99997
 20
-21.35006
 30
0.0
 10
-18.99997
 20
-21.35006
 30
0.0
 10
-19.27697
 20
-21.35006
 30
0.0
 10
-19.50006
 20
-21.12696
 30
0.0
 10
-19.50006
 20
-20.84996
 30
0.0
 10
-19.50006
 20
-20.84996
 30
0.0
 10
-19.50006
 20
-20.84996
 30
0.0
 10
-19.50006
 20
-8.85004
 30
0.0
 10
-19.50006
 20
-8.85004
 30
0.0
 10
-19.50006
 20
-8.85004
 30
0.0
 10
-19.50006
 20
-8.57303
 30
0.0
 10
-19.27697
 20
-8.34994
 30
0.0
 10
-18.99997
 20
-8.34994
 30
0.0
  0
SPLINE
  5
64
330
1F
100
AcDbEntity
  8
Layer 1
370
    53
100
AcDbSpline
210
0.0
220
0.0
230
1.0
 70
    11
 71
     3
 72
    20
 73
    16
 74
     0
 42
0.0000000001
 43
0.0000000001
 40
0.0
 40
0.0
 40
0.0
 40
0.0
 40
0.25
 40
0.25
 40
0.25
 40
0.25
 40
0.5
 40
0.5
 40
0.5
 40
0.5
 40
0.75
 40
0.75
 40
0.75
 40
0.75
 40
1.0
 40
1.0
 40
1.0
 40
1.0
 10
-5.30002
 20
-9.2
 30
0.0
 10
-5.30002
 20
-9.2
 30
0.0
 10
-4.70002
 20
-9.2
 30
0.0
 10
-4.70002
 20
-9.2
 30
0.0
 10
-4.70002
 20
-9.2
 30
0.0
 10
-4.70002
 20
-9.2
 30
0.0
 10
-4.70002
 20
-9.50001
 30
0.0
 10
-4.70002
 20
-9.50001
 30
0.0
 10
-4.70002
 20
-9.50001
 30
0.0
 10
-4.70002
 20
-9.50001
 30
0.0
 10
-5.30002
 20
-9.50001
 30
0.0
 10
-5.30002
 20
-9.50001
 30
0.0
 10
-5.30002
 20
-9.50001
 30
0.0
 10
-5.30002
 20
-9.50001
 30
0.0
 10
-5.30002
 20
-9.2
 30
0.0
 10
-5.30002
 20
-9.2
 30
0.0
  0
SPLINE
  5
65
330
1F
100
AcDbEntity
  8
Layer 1
370
    53
100
AcDbSpline
210
0.0
220
0.0
230
1.0
 70
    11
 71
     3
 72
    20
 73
    16
 74
     0
 42
0.0000000001
 43
0.0000000001
 40
0.0
 40
0.0
 40
0.0
 40
0.0
 40
0.25
 40
0.25
 40
0.25
 40
0.25
 40
0.5
 40
0.5
 40
0.5
 40
0.5
 40
0.75
 40
0.75
 40
0.75
 40
0.75
 40
1.0
 40
1.0
 40
1.0
 40
1.0
 10
-7.29999
 20
-9.2
 30
0.0
 10
-7.29999
 20
-9.2
 30
0.0
 10
-6.69998
 20
-9.2
 30
0.0
 10
-6.69998
 20
-9.2
 30
0.0
 10
-6.69998
 20
-9.2
 30
0.0
 10
-6.69998
 20
-9.2
 30
0.0
 10
-6.69998
 20
-9.50001
 30
0.0
 10
-6.69998
 20
-9.50001
 30
0.0
 10
-6.69998
 20
-9.50001
 30
0.0
 10
-6.69998
 20
-9.50001
 30
0.0
 10
-7.29999
 20
-9.50001
 30
0.0
 10
-7.29999
 20
-9.50001
 30
0.0
 10
-7.29999
 20
-9.50001
 30
0.0
 10
-7.29999
 20
-9.50001
 30
0.0
 10
-7.29999
 20
-9.2
 30
0.0
 10
-7.29999
 20
-9.2
 30
0.0
  0
SPLINE
  5
66
330
1F
100
AcDbEntity
  8
Layer 1
370
    53
100
AcDbSpline
210
0.0
220
0.0
230
1.0
 70
    11
 71
     3
 72
    20
 73
    16
 74
     0
 42
0.0000000001
 43
0.0000000001
 40
0.0
 40
0.0
 40
0.0
 40
0.0
 40
0.25
 40
0.25
 40
0.25
 40
0.25
 40
0.5
 40
0.5
 40
0.5
 40
0.5
 40
0.75
 40
0.75
 40
0.75
 40
0.75
 40
1.0
 40
1.0
 40
1.0
 40
1.0
 10
-5.30002
 20
-20.2
 30
0.0
 10
-5.30002
 20
-20.2
 30
0.0
 10
-4.70002
 20
-20.2
 30
0.0
 10
-4.70002
 20
-20.2
 30
0.0
 10
-4.70002
 20
-20.2
 30
0.0
 10
-4.70002
 20
-20.2
 30
0.0
 10
-4.70002
 20
-20.50001
 30
0.0
 10
-4.70002
 20
-20.50001
 30
0.0
 10
-4.70002
 20
-20.50001
 30
0.0
 10
-4.70002
 20
-20.50001
 30
0.0
 10
-5.30002
 20
-20.50001
 30
0.0
 10
-5.30002
 20
-20.50001
 30
0.0
 10
-5.30002
 20
-20.50001
 30
0.0
 10
-5.30002
 20
-20.50001
 30
0.0
 10
-5.30002
 20
-20.2
 30
0.0
 10
-5.30002
 20
-20.2
 30
0.0
  0
SPLINE
  5
67
330
1F
100
AcDbEntity
  8
Layer 1
370
    53
100
AcDbSpline
210
0.0
220
0.0
230
1.0
 70
    11
 71
     3
 72
    20
 73
    16
 74
     0
 42
0.0000000001
 43
0.0000000001
 40
0.0
 40
0.0
 40
0.0
 40
0.0
 40
0.25
 40
0.25
 40
0.25
 40
0.25
 40
0.5
 40
0.5
 40
0.5
 40
0.5
 40
0.75
 40
0.75
 40
0.75
 40
0.75
 40
1.0
 40
1.0
 40
1.0
 40
1.0
 10
-7.29999
 20
-20.2
 30
0.0
 10
-7.29999
 20
-20.2
 30
0.0
 10
-6.69998
 20
-20.2
 30
0.0
 10
-6.69998
 20
-20.2
 30
0.0
 10
-6.69998
 20
-20.2
 30
0.0
 10
-6.69998
 20
-20.2
 30
0.0
 10
-6.69998
 20
-20.50001
 30
0.0
 10
-6.69998
 20
-20.50001
 30
0.0
 10
-6.69998
 20
-20.50001
 30
0.0
 10
-6.69998
 20
-20.50001
 30
0.0
 10
-7.29999
 20
-20.50001
 30
0.0
 10
-7.29999
 20
-20.50001
 30
0.0
 10
-7.29999
 20
-20.50001
 30
0.0
 10
-7.29999
 20
-20.50001
 30
0.0
 10
-7.29999
 20
-20.2
 30
0.0
 10
-7.29999
 20
-20.2
 30
0.0
  0
SPLINE
  5
68
330
1F
100
AcDbEntity
  8
Layer 1
370
    53
100
AcDbSpline
210
0.0
220
0.0
230
1.0
 70
    11
 71
     3
 72
    20
 73
    16
 74
     0
 42
0.0000000001
 43
0.0000000001
 40
0.0
 40
0.0
 40
0.0
 40
0.0
 40
0.25
 40
0.25
 40
0.25
 40
0.25
 40
0.5
 40
0.5
 40
0.5
 40
0.5
 40
0.75
 40
0.75
 40
0.75
 40
0.75
 40
1.0
 40
1.0
 40
1.0
 40
1.0
 10
-9.29999
 20
-9.2
 30
0.0
 10
-9.29999
 20
-9.2
 30
0.0
 10
-8.69998
 20
-9.2
 30
0.0
 10
-8.69998
 20
-9.2
 30
0.0
 10
-8.69998
 20
-9.2
 30
0.0
 10
-8.69998
 20
-9.2
 30
0.0
 10
-8.69998
 20
-9.50001
 30
0.0
 10
-8.69998
 20
-9.50001
 30
0.0
 10
-8.69998
 20
-9.50001
 30
0.0
 10
-8.69998
 20
-9.50001
 30
0.0
 10
-9.29999
 20
-9.50001
 30
0.0
 10
-9.29999
 20
-9.50001
 30
0.0
 10
-9.29999
 20
-9.50001
 30
0.0
 10
-9.29999
 20
-9.50001
 30
0.0
 10
-9.29999
 20
-9.2
 30
0.0
 10
-9.29999
 20
-9.2
 30
0.0
  0
SPLINE
  5
69
330
1F
100
AcDbEntity
  8
Layer 1
370
    53
100
AcDbSpline
210
0.0
220
0.0
230
1.0
 70
    11
 71
     3
 72
    20
 73
    16
 74
     0
 42
0.0000000001
 43
0.0000000001
 40
0.0
 40
0.0
 40
0.0
 40
0.0
 40
0.25
 40
0.25
 40
0.25
 40
0.25
 40
0.5
 40
0.5
 40
0.5
 40
0.5
 40
0.75
 40
0.75
 40
0.75
 40
0.75
 40
1.0
 40
1.0
 40
1.0
 40
1.0
 10
-9.29999
 20
-20.2
 30
0.0
 10
-9.29999
 20
-20.2
 30
0.0
 10
-8.69998
 20
-20.2
 30
0.0
 10
-8.69998
 20
-20.2
 30
0.0
 10
-8.69998
 20
-20.2
 30
0.0
 10
-8.69998
 20
-20.2
 30
0.0
 10
-8.69998
 20
-20.50001
 30
0.0
 10
-8.69998
 20
-20.50001
 30
0.0
 10
-8.69998
 20
-20.50001
 30
0.0
 10
-8.69998
 20
-20.50001
 30
0.0
 10
-9.29999
 20
-20.50001
 30
0.0
 10
-9.29999
 20
-20.50001
 30
0.0
 10
-9.29999
 20
-20.50001
 30
0.0
 10
-9.29999
 20
-20.50001
 30
0.0
 10
-9.29999
 20
-20.2
 30
0.0
 10
-9.29999
 20
-20.2
 30
0.0
  0
SPLINE
  5
6A
330
1F
100
AcDbEntity
  8
Layer 1
370
    53
100
AcDbSpline
210
0.0
220
0.0
230
1.0
 70
    11
 71
     3
 72
    20
 73
    16
 74
     0
 42
0.0000000001
 43
0.0000000001
 40
0.0
 40
0.0
 40
0.0
 40
0.0
 40
0.25
 40
0.25
 40
0.25
 40
0.25
 40
0.5
 40
0.5
 40
0.5
 40
0.5
 40
0.75
 40
0.75
 40
0.75
 40
0.75
 40
1.0
 40
1.0
 40
1.0
 40
1.0
 10
-13.30002
 20
-9.2
 30
0.0
 10
-13.30002
 20
-9.2
 30
0.0
 10
-12.70002
 20
-9.2
 30
0.0
 10
-12.70002
 20
-9.2
 30
0.0
 10
-12.70002
 20
-9.2
 30
0.0
 10
-12.70002
 20
-9.2
 30
0.0
 10
-12.70002
 20
-9.50001
 30
0.0
 10
-12.70002
 20
-9.50001
 30
0.0
 10
-12.70002
 20
-9.50001
 30
0.0
 10
-12.70002
 20
-9.50001
 30
0.0
 10
-13.30002
 20
-9.50001
 30
0.0
 10
-13.30002
 20
-9.50001
 30
0.0
 10
-13.30002
 20
-9.50001
 30
0.0
 10
-13.30002
 20
-9.50001
 30
0.0
 10
-13.30002
 20
-9.2
 30
0.0
 10
-13.30002
 20
-9.2
 30
0.0
  0
SPLINE
  5
6B
330
1F
100
AcDbEntity
  8
Layer 1
370
    53
100
AcDbSpline
210
0.0
220
0.0
230
1.0
 70
    11
 71
     3
 72
    20
 73
    16
 74
     0
 42
0.0000000001
 43
0.0000000001
 40
0.0
 40
0.0
 40
0.0
 40
0.0
 40
0.25
 40
0.25
 40
0.25
 40
0.25
 40
0.5
 40
0.5
 40
0.5
 40
0.5
 40
0.75
 40
0.75
 40
0.75
 40
0.75
 40
1.0
 40
1.0
 40
1.0
 40
1.0
 10
-15.29999
 20
-9.2
 30
0.0
 10
-15.29999
 20
-9.2
 30
0.0
 10
-14.69998
 20
-9.2
 30
0.0
 10
-14.69998
 20
-9.2
 30
0.0
 10
-14.69998
 20
-9.2
 30
0.0
 10
-14.69998
 20
-9.2
 30
0.0
 10
-14.69998
 20
-9.50001
 30
0.0
 10
-14.69998
 20
-9.50001
 30
0.0
 10
-14.69998
 20
-9.50001
 30
0.0
 10
-14.69998
 20
-9.50001
 30
0.0
 10
-15.29999
 20
-9.50001
 30
0.0
 10
-15.29999
 20
-9.50001
 30
0.0
 10
-15.29999
 20
-9.50001
 30
0.0
 10
-15.29999
 20
-9.50001
 30
0.0
 10
-15.29999
 20
-9.2
 30
0.0
 10
-15.29999
 20
-9.2
 30
0.0
  0
SPLINE
  5
6C
330
1F
100
AcDbEntity
  8
Layer 1
370
    53
100
AcDbSpline
210
0.0
220
0.0
230
1.0
 70
    11
 71
     3
 72
    20
 73
    16
 74
     0
 42
0.0000000001
 43
0.0000000001
 40
0.0
 40
0.0
 40
0.0
 40
0.0
 40
0.25
 40
0.25
 40
0.25
 40
0.25
 40
0.5
 40
0.5
 40
0.5
 40
0.5
 40
0.75
 40
0.75
 40
0.75
 40
0.75
 40
1.0
 40
1.0
 40
1.0
 40
1.0
 10
-17.29999
 20
-9.2
 30
0.0
 10
-17.29999
 20
-9.2
 30
0.0
 10
-16.69998
 20
-9.2
 30
0.0
 10
-16.69998
 20
-9.2
 30
0.0
 10
-16.69998
 20
-9.2
 30
0.0
 10
-16.69998
 20
-9.2
 30
0.0
 10
-16.69998
 20
-9.50001
 30
0.0
 10
-16.69998
 20
-9.50001
 30
0.0
 10
-16.69998
 20
-9.50001
 30
0.0
 10
-16.69998
 20
-9.50001
 30
0.0
 10
-17.29999
 20
-9.50001
 30
0.0
 10
-17.29999
 20
-9.50001
 30
0.0
 10
-17.29999
 20
-9.50001
 30
0.0
 10
-17.29999
 20
-9.50001
 30
0.0
 10
-17.29999
 20
-9.2
 30
0.0
 10
-17.29999
 20
-9.2
 30
0.0
  0
SPLINE
  5
6D
330
1F
100
AcDbEntity
  8
Layer 1
370
    53
100
AcDbSpline
210
0.0
220
0.0
230
1.0
 70
    11
 71
     3
 72
    20
 73
    16
 74
     0
 42
0.0000000001
 43
0.0000000001
 40
0.0
 40
0.0
 40
0.0
 40
0.0
 40
0.25
 40
0.25
 40
0.25
 40
0.25
 40
0.5
 40
0.5
 40
0.5
 40
0.5
 40
0.75
 40
0.75
 40
0.75
 40
0.75
 40
1.0
 40
1.0
 40
1.0
 40
1.0
 10
-13.30002
 20
-20.2
 30
0.0
 10
-13.30002
 20
-20.2
 30
0.0
 10
-12.70002
 20
-20.2
 30
0.0
 10
-12.70002
 20
-20.2
 30
0.0
 10
-12.70002
 20
-20.2
 30
0.0
 10
-12.70002
 20
-20.2
 30
0.0
 10
-12.70002
 20
-20.50001
 30
0.0
 10
-12.70002
 20
-20.50001
 30
0.0
 10
-12.70002
 20
-20.50001
 30
0.0
 10
-12.70002
 20
-20.50001
 30
0.0
 10
-13.30002
 20
-20.50001
 30
0.0
 10
-13.30002
 20
-20.50001
 30
0.0
 10
-13.30002
 20
-20.50001
 30
0.0
 10
-13.30002
 20
-20.50001
 30
0.0
 10
-13.30002
 20
-20.2
 30
0.0
 10
-13.30002
 20
-20.2
 30
0.0
  0
SPLINE
  5
6E
330
1F
100
AcDbEntity
  8
Layer 1
370
    53
100
AcDbSpline
210
0.0
220
0.0
230
1.0
 70
    11
 71
     3
 72
    20
 73
    16
 74
     0
 42
0.0000000001
 43
0.0000000001
 40
0.0
 40
0.0
 40
0.0
 40
0.0
 40
0.25
 40
0.25
 40
0.25
 40
0.25
 40
0.5
 40
0.5
 40
0.5
 40
0.5
 40
0.75
 40
0.75
 40
0.75
 40
0.75
 40
1.0
 40
1.0
 40
1.0
 40
1.0
 10
-15.29999
 20
-20.2
 30
0.0
 10
-15.29999
 20
-20.2
 30
0.0
 10
-14.69998
 20
-20.2
 30
0.0
 10
-14.69998
 20
-20.2
 30
0.0
 10
-14.69998
 20
-20.2
 30
0.0
 10
-14.69998
 20
-20.2
 30
0.0
 10
-14.69998
 20
-20.50001
 30
0.0
 10
-14.69998
 20
-20.50001
 30
0.0
 10
-14.69998
 20
-20.50001
 30
0.0
 10
-14.69998
 20
-20.50001
 30
0.0
 10
-15.29999
 20
-20.50001
 30
0.0
 10
-15.29999
 20
-20.50001
 30
0.0
 10
-15.29999
 20
-20.50001
 30
0.0
 10
-15.29999
 20
-20.50001
 30
0.0
 10
-15.29999
 20
-20.2
 30
0.0
 10
-15.29999
 20
-20.2
 30
0.0
  0
SPLINE
  5
6F
330
1F
100
AcDbEntity
  8
Layer 1
370
    53
100
AcDbSpline
210
0.0
220
0.0
230
1.0
 70
    11
 71
     3
 72
    20
 73
    16
 74
     0
 42
0.0000000001
 43
0.0000000001
 40
0.0
 40
0.0
 40
0.0
 40
0.0
 40
0.25
 40
0.25
 40
0.25
 40
0.25
 40
0.5
 40
0.5
 40
0.5
 40
0.5
 40
0.75
 40
0.75
 40
0.75
 40
0.75
 40
1.0
 40
1.0
 40
1.0
 40
1.0
 10
-17.29999
 20
-20.2
 30
0.0
 10
-17.29999
 20
-20.2
 30
0.0
 10
-16.69998
 20
-20.2
 30
0.0
 10
-16.69998
 20
-20.2
 30
0.0
 10
-16.69998
 20
-20.2
 30
0.0
 10
-16.69998
 20
-20.2
 30
0.0
 10
-16.69998
 20
-20.50001
 30
0.0
 10
-16.69998
 20
-20.50001
 30
0.0
 10
-16.69998
 20
-20.50001
 30
0.0
 10
-16.69998
 20
-20.50001
 30
0.0
 10
-17.29999
 20
-20.50001
 30
0.0
 10
-17.29999
 20
-20.50001
 30
0.0
 10
-17.29999
 20
-20.50001
 30
0.0
 10
-17.29999
 20
-20.50001
 30
0.0
 10
-17.29999
 20
-20.2
 30
0.0
 10
-17.29999
 20
-20.2
 30
0.0
  0
ELLIPSE
  5
70
330
1F
100
AcDbEntity
  8
Layer 1
 62
   250
370
    35
100
AcDbEllipse
 10
-18.99997
 20
-8.84994
 30
0.0
 11
0.0
 21
0.15
 31
0.0
210
0.0
220
0.0
230
1.0
 40
1.0
 41
0.0
 42
6.283185307179586
  0
ELLIPSE
  5
71
330
1F
100
AcDbEntity
  8
Layer 1
 62
   250
370
    35
100
AcDbEllipse
 10
-18.99997
 20
-20.8501
 30
0.0
 11
0.0
 21
0.15
 31
0.0
210
0.0
220
0.0
230
1.0
 40
1.0
 41
0.0
 42
6.283185307179586
  0
ELLIPSE
  5
72
330
1F
100
AcDbEntity
  8
Layer 1
 62
   250
370
    35
100
AcDbEllipse
 10
-1.99997
 20
-8.84994
 30
0.0
 11
0.0
 21
0.15
 31
0.0
210
0.0
220
0.0
230
1.0
 40
1.0
 41
0.0
 42
6.283185307179586
  0
ELLIPSE
  5
73
330
1F
100
AcDbEntity
  8
Layer 1
 62
   250
370
    35
100
AcDbEllipse
 10
-1.99997
 20
-20.8501
 30
0.0
 11
0.0
 21
0.15
 31
0.0
210
0.0
220
0.0
230
1.0
 40
1.0
 41
0.0
 42
6.283185307179586
  0
SPLINE
  5
74
330
1F
100
AcDbEntity
  8
Layer 1
370
    53
100
AcDbSpline
210
0.0
220
0.0
230
1.0
 70
    11
 71
     3
 72
    20
 73
    16
 74
     0
 42
0.0000000001
 43
0.0000000001
 40
0.0
 40
0.0
 40
0.0
 40
0.0
 40
0.25
 40
0.25
 40
0.25
 40
0.25
 40
0.5
 40
0.5
 40
0.5
 40
0.5
 40
0.75
 40
0.75
 40
0.75
 40
0.75
 40
1.0
 40
1.0
 40
1.0
 40
1.0
 10
-11.30002
 20
-20.2
 30
0.0
 10
-11.30002
 20
-20.2
 30
0.0
 10
-10.70002
 20
-20.2
 30
0.0
 10
-10.70002
 20
-20.2
 30
0.0
 10
-10.70002
 20
-20.2
 30
0.0
 10
-10.70002
 20
-20.2
 30
0.0
 10
-10.70002
 20
-20.50001
 30
0.0
 10
-10.70002
 20
-20.50001
 30
0.0
 10
-10.70002
 20
-20.50001
 30
0.0
 10
-10.70002
 20
-20.50001
 30
0.0
 10
-11.30002
 20
-20.50001
 30
0.0
 10
-11.30002
 20
-20.50001
 30
0.0
 10
-11.30002
 20
-20.50001
 30
0.0
 10
-11.30002
 20
-20.50001
 30
0.0
 10
-11.30002
 20
-20.2
 30
0.0
 10
-11.30002
 20
-20.2
 30
0.0
  0
SPLINE
  5
75
330
1F
100
AcDbEntity
  8
Layer 1
370
    53
100
AcDbSpline
210
0.0
220
0.0
230
1.0
 70
    11
 71
     3
 72
    20
 73
    16
 74
     0
 42
0.0000000001
 43
0.0000000001
 40
0.0
 40
0.0
 40
0.0
 40
0.0
 40
0.25
 40
0.25
 40
0.25
 40
0.25
 40
0.5
 40
0.5
 40
0.5
 40
0.5
 40
0.75
 40
0.75
 40
0.75
 40
0.75
 40
1.0
 40
1.0
 40
1.0
 40
1.0
 10
-11.30002
 20
-9.2
 30
0.0
 10
-11.30002
 20
-9.2
 30
0.0
 10
-10.70002
 20
-9.2
 30
0.0
 10
-10.70002
 20
-9.2
 30
0.0
 10
-10.70002
 20
-9.2
 30
0.0
 10
-10.70002
 20
-9.2
 30
0.0
 10
-10.70002
 20
-9.50001
 30
0.0
 10
-10.70002
 20
-9.50001
 30
0.0
 10
-10.70002
 20
-9.50001
 30
0.0
 10
-10.70002
 20
-9.50001
 30
0.0
 10
-11.30002
 20
-9.50001
 30
0.0
 10
-11.30002
 20
-9.50001
 30
0.0
 10
-11.30002
 20
-9.50001
 30
0.0
 10
-11.30002
 20
-9.50001
 30
0.0
 10
-11.30002
 20
-9.2
 30
0.0
 10
-11.30002
 20
-9.2
 30
0.0
  0
ELLIPSE
  5
76
330
1F
100
AcDbEntity
  8
Layer 1
 62
   250
370
    35
100
AcDbEllipse
 10
-12.6
 20
-16.45
 30
0.0
 11
0.0
 21
0.15
 31
0.0
210
0.0
220
0.0
230
1.0
 40
1.0
 41
0.0
 42
6.283185307179586
  0
ELLIPSE
  5
77
330
1F
100
AcDbEntity
  8
Layer 1
 62
   250
370
    35
100
AcDbEllipse
 10
-9.4
 20
-16.45
 30
0.0
 11
0.0
 21
0.15
 31
0.0
210
0.0
220
0.0
230
1.0
 40
1.0
 41
0.0
 42
6.283185307179586
  0
ELLIPSE
  5
78
330
1F
100
AcDbEntity
  8
Layer 1
 62
   250
370
    35
100
AcDbEllipse
 10
-12.6
 20
-13.25
 30
0.0
 11
0.0
 21
0.15
 31
0.0
210
0.0
220
0.0
230
1.0
 40
1.0
 41
0.0
 42
6.283185307179586
  0
ELLIPSE
  5
79
330
1F
100
AcDbEntity
  8
Layer 1
 62
   250
370
    35
100
AcDbEllipse
 10
-9.4
 20
-13.25
 30
0.0
 11
0.0
 21
0.15
 31
0.0
210
0.0
220
0.0
230
1.0
 40
1.0
 41
0.0
 42
6.283185307179586
  0
SPLINE
  5
7A
330
1F
100
AcDbEntity
  8
Layer 1
 62
   250
370
    35
100
AcDbSpline
210
0.0
220
0.0
230
1.0
 70
    11
 71
     3
 72
    16
 73
    12
 74
     0
 42
0.0000000001
 43
0.0000000001
 40
0.0
 40
0.0
 40
0.0
 40
0.0
 40
0.3333333333333333
 40
0.3333333333333333
 40
0.3333333333333333
 40
0.3333333333333333
 40
0.6666666666666666
 40
0.6666666666666666
 40
0.6666666666666666
 40
0.6666666666666666
 40
1.0
 40
1.0
 40
1.0
 40
1.0
 10
-9.72171
 20
-13.6551
 30
0.0
 10
-9.60009
 20
-13.78516
 30
0.0
 10
-9.49803
 20
-13.93373
 30
0.0
 10
-9.42034
 20
-14.09621
 30
0.0
 10
-9.42034
 20
-14.09621
 30
0.0
 10
-9.42034
 20
-14.09621
 30
0.0
 10
-9.69185
 20
-13.8247
 30
0.0
 10
-9.69185
 20
-13.8247
 30
0.0
 10
-9.69185
 20
-13.8247
 30
0.0
 10
-9.73771
 20
-13.77884
 30
0.0
 10
-9.74766
 20
-13.71065
 30
0.0
 10
-9.72171
 20
-13.6551
 30
0.0
  0
SPLINE
  5
7B
330
1F
100
AcDbEntity
  8
Layer 1
 62
   250
370
    35
100
AcDbSpline
210
0.0
220
0.0
230
1.0
 70
    11
 71
     3
 72
    16
 73
    12
 74
     0
 42
0.0000000001
 43
0.0000000001
 40
0.0
 40
0.0
 40
0.0
 40
0.0
 40
0.3333333333333333
 40
0.3333333333333333
 40
0.3333333333333333
 40
0.3333333333333333
 40
0.6666666666666666
 40
0.6666666666666666
 40
0.6666666666666666
 40
0.6666666666666666
 40
1.0
 40
1.0
 40
1.0
 40
1.0
 10
-10.24621
 20
-13.27034
 30
0.0
 10
-10.09926
 20
-13.34063
 30
0.0
 10
-9.96365
 20
-13.43083
 30
0.0
 10
-9.84283
 20
-13.53743
 30
0.0
 10
-9.84283
 20
-13.53743
 30
0.0
 10
-9.89794
 20
-13.56201
 30
0.0
 10
-9.96484
 20
-13.55171
 30
0.0
 10
-10.01005
 20
-13.5065
 30
0.0
 10
-10.01005
 20
-13.5065
 30
0.0
 10
-10.01005
 20
-13.5065
 30
0.0
 10
-10.24621
 20
-13.27034
 30
0.0
 10
-10.24621
 20
-13.27034
 30
0.0
  0
SPLINE
  5
7C
330
1F
100
AcDbEntity
  8
Layer 1
 62
   250
370
    35
100
AcDbSpline
210
0.0
220
0.0
230
1.0
 70
    11
 71
     3
 72
    24
 73
    20
 74
     0
 42
0.0000000001
 43
0.0000000001
 40
0.0
 40
0.0
 40
0.0
 40
0.0
 40
0.2
 40
0.2
 40
0.2
 40
0.2
 40
0.4
 40
0.4
 40
0.4
 40
0.4
 40
0.6000000000000001
 40
0.6000000000000001
 40
0.6000000000000001
 40
0.6000000000000001
 40
0.8
 40
0.8
 40
0.8
 40
0.8
 40
1.0
 40
1.0
 40
1.0
 40
1.0
 10
-9.30093
 20
-14.42977
 30
0.0
 10
-9.26773
 20
-14.5644
 30
0.0
 10
-9.25
 20
-14.70513
 30
0.0
 10
-9.25
 20
-14.85
 30
0.0
 10
-9.25
 20
-14.85
 30
0.0
 10
-9.25
 20
-14.86744
 30
0.0
 10
-9.25033
 20
-14.8848
 30
0.0
 10
-9.25083
 20
-14.90211
 30
0.0
 10
-9.25083
 20
-14.90211
 30
0.0
 10
-9.25083
 20
-14.90211
 30
0.0
 10
-9.4974
 20
-14.65555
 30
0.0
 10
-9.4974
 20
-14.65555
 30
0.0
 10
-9.4974
 20
-14.65555
 30
0.0
 10
-9.55597
 20
-14.59698
 30
0.0
 10
-9.55597
 20
-14.50198
 30
0.0
 10
-9.4974
 20
-14.44341
 30
0.0
 10
-9.4974
 20
-14.44341
 30
0.0
 10
-9.4438
 20
-14.38981
 30
0.0
 10
-9.35971
 20
-14.38527
 30
0.0
 10
-9.30093
 20
-14.42977
 30
0.0
  0
SPLINE
  5
7D
330
1F
100
AcDbEntity
  8
Layer 1
 62
   250
370
    35
100
AcDbSpline
210
0.0
220
0.0
230
1.0
 70
    11
 71
     3
 72
    28
 73
    24
 74
     0
 42
0.0000000001
 43
0.0000000001
 40
0.0
 40
0.0
 40
0.0
 40
0.0
 40
0.1666666666666667
 40
0.1666666666666667
 40
0.1666666666666667
 40
0.1666666666666667
 40
0.3333333333333333
 40
0.3333333333333333
 40
0.3333333333333333
 40
0.3333333333333333
 40
0.5
 40
0.5
 40
0.5
 40
0.5
 40
0.6666666666666666
 40
0.6666666666666666
 40
0.6666666666666666
 40
0.6666666666666666
 40
0.8333333333333333
 40
0.8333333333333333
 40
0.8333333333333333
 40
0.8333333333333333
 40
1.0
 40
1.0
 40
1.0
 40
1.0
 10
-9.60346
 20
-14.12522
 30
0.0
 10
-9.54489
 20
-14.18379
 30
0.0
 10
-9.54489
 20
-14.27878
 30
0.0
 10
-9.60346
 20
-14.33735
 30
0.0
 10
-9.60346
 20
-14.33735
 30
0.0
 10
-9.66203
 20
-14.39592
 30
0.0
 10
-9.75703
 20
-14.39592
 30
0.0
 10
-9.8156
 20
-14.33735
 30
0.0
 10
-9.8156
 20
-14.33735
 30
0.0
 10
-9.8156
 20
-14.33735
 30
0.0
 10
-10.5227
 20
-13.63024
 30
0.0
 10
-10.5227
 20
-13.63024
 30
0.0
 10
-10.5227
 20
-13.63024
 30
0.0
 10
-10.58127
 20
-13.57167
 30
0.0
 10
-10.58127
 20
-13.47668
 30
0.0
 10
-10.5227
 20
-13.41811
 30
0.0
 10
-10.5227
 20
-13.41811
 30
0.0
 10
-10.46413
 20
-13.35954
 30
0.0
 10
-10.36914
 20
-13.35954
 30
0.0
 10
-10.31057
 20
-13.41811
 30
0.0
 10
-10.31057
 20
-13.41811
 30
0.0
 10
-10.31057
 20
-13.41811
 30
0.0
 10
-9.60346
 20
-14.12522
 30
0.0
 10
-9.60346
 20
-14.12522
 30
0.0
  0
SPLINE
  5
7E
330
1F
100
AcDbEntity
  8
Layer 1
 62
   250
370
    35
100
AcDbSpline
210
0.0
220
0.0
230
1.0
 70
    11
 71
     3
 72
    24
 73
    20
 74
     0
 42
0.0000000001
 43
0.0000000001
 40
0.0
 40
0.0
 40
0.0
 40
0.0
 40
0.2
 40
0.2
 40
0.2
 40
0.2
 40
0.4
 40
0.4
 40
0.4
 40
0.4
 40
0.6000000000000001
 40
0.6000000000000001
 40
0.6000000000000001
 40
0.6000000000000001
 40
0.8
 40
0.8
 40
0.8
 40
0.8
 40
1.0
 40
1.0
 40
1.0
 40
1.0
 10
-11.0
 20
-13.1
 30
0.0
 10
-10.8613
 20
-13.1
 30
0.0
 10
-10.7264
 20
-13.11622
 30
0.0
 10
-10.597
 20
-13.14673
 30
0.0
 10
-10.597
 20
-13.14673
 30
0.0
 10
-10.5735
 20
-13.20146
 30
0.0
 10
-10.58408
 20
-13.26735
 30
0.0
 10
-10.62877
 20
-13.31204
 30
0.0
 10
-10.62877
 20
-13.31204
 30
0.0
 10
-10.68734
 20
-13.37061
 30
0.0
 10
-10.78233
 20
-13.37061
 30
0.0
 10
-10.8409
 20
-13.31204
 30
0.0
 10
-10.8409
 20
-13.31204
 30
0.0
 10
-10.8409
 20
-13.31204
 30
0.0
 10
-11.05211
 20
-13.10083
 30
0.0
 10
-11.05211
 20
-13.10083
 30
0.0
 10
-11.05211
 20
-13.10083
 30
0.0
 10
-11.03479
 20
-13.10033
 30
0.0
 10
-11.01744
 20
-13.1
 30
0.0
 10
-11.0
 20
-13.1
 30
0.0
  0
SPLINE
  5
7F
330
1F
100
AcDbEntity
  8
Layer 1
 62
   250
370
    35
100
AcDbSpline
210
0.0
220
0.0
230
1.0
 70
    11
 71
     3
 72
    16
 73
    12
 74
     0
 42
0.0000000001
 43
0.0000000001
 40
0.0
 40
0.0
 40
0.0
 40
0.0
 40
0.3333333333333333
 40
0.3333333333333333
 40
0.3333333333333333
 40
0.3333333333333333
 40
0.6666666666666666
 40
0.6666666666666666
 40
0.6666666666666666
 40
0.6666666666666666
 40
1.0
 40
1.0
 40
1.0
 40
1.0
 10
-9.3016
 20
-15.27295
 30
0.0
 10
-9.3135
 20
-15.32082
 30
0.0
 10
-9.32727
 20
-15.36795
 30
0.0
 10
-9.34301
 20
-15.41418
 30
0.0
 10
-9.34301
 20
-15.41418
 30
0.0
 10
-9.35424
 20
-15.36546
 30
0.0
 10
-9.34089
 20
-15.31221
 30
0.0
 10
-9.30294
 20
-15.27426
 30
0.0
 10
-9.30294
 20
-15.27426
 30
0.0
 10
-9.30294
 20
-15.27426
 30
0.0
 10
-9.3016
 20
-15.27295
 30
0.0
 10
-9.3016
 20
-15.27295
 30
0.0
  0
SPLINE
  5
80
330
1F
100
AcDbEntity
  8
Layer 1
 62
   250
370
    35
100
AcDbSpline
210
0.0
220
0.0
230
1.0
 70
    11
 71
     3
 72
    28
 73
    24
 74
     0
 42
0.0000000001
 43
0.0000000001
 40
0.0
 40
0.0
 40
0.0
 40
0.0
 40
0.1666666666666667
 40
0.1666666666666667
 40
0.1666666666666667
 40
0.1666666666666667
 40
0.3333333333333333
 40
0.3333333333333333
 40
0.3333333333333333
 40
0.3333333333333333
 40
0.5
 40
0.5
 40
0.5
 40
0.5
 40
0.6666666666666666
 40
0.6666666666666666
 40
0.6666666666666666
 40
0.6666666666666666
 40
0.8333333333333333
 40
0.8333333333333333
 40
0.8333333333333333
 40
0.8333333333333333
 40
1.0
 40
1.0
 40
1.0
 40
1.0
 10
-9.40901
 20
-14.95607
 30
0.0
 10
-9.35044
 20
-15.01464
 30
0.0
 10
-9.35044
 20
-15.10963
 30
0.0
 10
-9.40901
 20
-15.1682
 30
0.0
 10
-9.40901
 20
-15.1682
 30
0.0
 10
-9.46758
 20
-15.22677
 30
0.0
 10
-9.56257
 20
-15.22677
 30
0.0
 10
-9.62114
 20
-15.1682
 30
0.0
 10
-9.62114
 20
-15.1682
 30
0.0
 10
-9.62114
 20
-15.1682
 30
0.0
 10
-10.32825
 20
-14.46109
 30
0.0
 10
-10.32825
 20
-14.46109
 30
0.0
 10
-10.32825
 20
-14.46109
 30
0.0
 10
-10.38682
 20
-14.40252
 30
0.0
 10
-10.38682
 20
-14.30753
 30
0.0
 10
-10.32825
 20
-14.24896
 30
0.0
 10
-10.32825
 20
-14.24896
 30
0.0
 10
-10.26968
 20
-14.19039
 30
0.0
 10
-10.17469
 20
-14.19039
 30
0.0
 10
-10.11612
 20
-14.24896
 30
0.0
 10
-10.11612
 20
-14.24896
 30
0.0
 10
-10.11612
 20
-14.24896
 30
0.0
 10
-9.40901
 20
-14.95607
 30
0.0
 10
-9.40901
 20
-14.95607
 30
0.0
  0
SPLINE
  5
81
330
1F
100
AcDbEntity
  8
Layer 1
 62
   250
370
    35
100
AcDbSpline
210
0.0
220
0.0
230
1.0
 70
    11
 71
     3
 72
    28
 73
    24
 74
     0
 42
0.0000000001
 43
0.0000000001
 40
0.0
 40
0.0
 40
0.0
 40
0.0
 40
0.1666666666666667
 40
0.1666666666666667
 40
0.1666666666666667
 40
0.1666666666666667
 40
0.3333333333333333
 40
0.3333333333333333
 40
0.3333333333333333
 40
0.3333333333333333
 40
0.5
 40
0.5
 40
0.5
 40
0.5
 40
0.6666666666666666
 40
0.6666666666666666
 40
0.6666666666666666
 40
0.6666666666666666
 40
0.8333333333333333
 40
0.8333333333333333
 40
0.8333333333333333
 40
0.8333333333333333
 40
1.0
 40
1.0
 40
1.0
 40
1.0
 10
-10.43431
 20
-13.93076
 30
0.0
 10
-10.37574
 20
-13.98933
 30
0.0
 10
-10.37574
 20
-14.08432
 30
0.0
 10
-10.43431
 20
-14.14289
 30
0.0
 10
-10.43431
 20
-14.14289
 30
0.0
 10
-10.49288
 20
-14.20146
 30
0.0
 10
-10.58788
 20
-14.20146
 30
0.0
 10
-10.64645
 20
-14.14289
 30
0.0
 10
-10.64645
 20
-14.14289
 30
0.0
 10
-10.64645
 20
-14.14289
 30
0.0
 10
-11.35355
 20
-13.43579
 30
0.0
 10
-11.35355
 20
-13.43579
 30
0.0
 10
-11.35355
 20
-13.43579
 30
0.0
 10
-11.41212
 20
-13.37722
 30
0.0
 10
-11.41212
 20
-13.28222
 30
0.0
 10
-11.35355
 20
-13.22365
 30
0.0
 10
-11.35355
 20
-13.22365
 30
0.0
 10
-11.29498
 20
-13.16508
 30
0.0
 10
-11.19999
 20
-13.16508
 30
0.0
 10
-11.14142
 20
-13.22365
 30
0.0
 10
-11.14142
 20
-13.22365
 30
0.0
 10
-11.14142
 20
-13.22365
 30
0.0
 10
-10.43431
 20
-13.93076
 30
0.0
 10
-10.43431
 20
-13.93076
 30
0.0
  0
SPLINE
  5
82
330
1F
100
AcDbEntity
  8
Layer 1
 62
   250
370
    35
100
AcDbSpline
210
0.0
220
0.0
230
1.0
 70
    11
 71
     3
 72
    24
 73
    20
 74
     0
 42
0.0000000001
 43
0.0000000001
 40
0.0
 40
0.0
 40
0.0
 40
0.0
 40
0.2
 40
0.2
 40
0.2
 40
0.2
 40
0.4
 40
0.4
 40
0.4
 40
0.4
 40
0.6000000000000001
 40
0.6000000000000001
 40
0.6000000000000001
 40
0.6000000000000001
 40
0.8
 40
0.8
 40
0.8
 40
0.8
 40
1.0
 40
1.0
 40
1.0
 40
1.0
 10
-9.41313
 20
-15.58835
 30
0.0
 10
-9.45715
 20
-15.68277
 30
0.0
 10
-9.50928
 20
-15.77264
 30
0.0
 10
-9.56875
 20
-15.85699
 30
0.0
 10
-9.56875
 20
-15.85699
 30
0.0
 10
-9.56875
 20
-15.85699
 30
0.0
 10
-10.13379
 20
-15.29194
 30
0.0
 10
-10.13379
 20
-15.29194
 30
0.0
 10
-10.13379
 20
-15.29194
 30
0.0
 10
-10.19236
 20
-15.23337
 30
0.0
 10
-10.19236
 20
-15.13838
 30
0.0
 10
-10.13379
 20
-15.07981
 30
0.0
 10
-10.13379
 20
-15.07981
 30
0.0
 10
-10.07522
 20
-15.02124
 30
0.0
 10
-9.98023
 20
-15.02124
 30
0.0
 10
-9.92166
 20
-15.07981
 30
0.0
 10
-9.92166
 20
-15.07981
 30
0.0
 10
-9.92166
 20
-15.07981
 30
0.0
 10
-9.41313
 20
-15.58835
 30
0.0
 10
-9.41313
 20
-15.58835
 30
0.0
  0
SPLINE
  5
83
330
1F
100
AcDbEntity
  8
Layer 1
 62
   250
370
    35
100
AcDbSpline
210
0.0
220
0.0
230
1.0
 70
    11
 71
     3
 72
    28
 73
    24
 74
     0
 42
0.0000000001
 43
0.0000000001
 40
0.0
 40
0.0
 40
0.0
 40
0.0
 40
0.1666666666666667
 40
0.1666666666666667
 40
0.1666666666666667
 40
0.1666666666666667
 40
0.3333333333333333
 40
0.3333333333333333
 40
0.3333333333333333
 40
0.3333333333333333
 40
0.5
 40
0.5
 40
0.5
 40
0.5
 40
0.6666666666666666
 40
0.6666666666666666
 40
0.6666666666666666
 40
0.6666666666666666
 40
0.8333333333333333
 40
0.8333333333333333
 40
0.8333333333333333
 40
0.8333333333333333
 40
1.0
 40
1.0
 40
1.0
 40
1.0
 10
-10.23986
 20
-14.76161
 30
0.0
 10
-10.18129
 20
-14.82018
 30
0.0
 10
-10.18129
 20
-14.91517
 30
0.0
 10
-10.23986
 20
-14.97374
 30
0.0
 10
-10.23986
 20
-14.97374
 30
0.0
 10
-10.29843
 20
-15.03231
 30
0.0
 10
-10.39342
 20
-15.03231
 30
0.0
 10
-10.45199
 20
-14.97374
 30
0.0
 10
-10.45199
 20
-14.97374
 30
0.0
 10
-10.45199
 20
-14.97374
 30
0.0
 10
-11.1591
 20
-14.26664
 30
0.0
 10
-11.1591
 20
-14.26664
 30
0.0
 10
-11.1591
 20
-14.26664
 30
0.0
 10
-11.21767
 20
-14.20807
 30
0.0
 10
-11.21767
 20
-14.11307
 30
0.0
 10
-11.1591
 20
-14.0545
 30
0.0
 10
-11.1591
 20
-14.0545
 30
0.0
 10
-11.10053
 20
-13.99594
 30
0.0
 10
-11.00554
 20
-13.99594
 30
0.0
 10
-10.94697
 20
-14.0545
 30
0.0
 10
-10.94697
 20
-14.0545
 30
0.0
 10
-10.94697
 20
-14.0545
 30
0.0
 10
-10.23986
 20
-14.76161
 30
0.0
 10
-10.23986
 20
-14.76161
 30
0.0
  0
SPLINE
  5
84
330
1F
100
AcDbEntity
  8
Layer 1
 62
   250
370
    35
100
AcDbSpline
210
0.0
220
0.0
230
1.0
 70
    11
 71
     3
 72
    24
 73
    20
 74
     0
 42
0.0000000001
 43
0.0000000001
 40
0.0
 40
0.0
 40
0.0
 40
0.0
 40
0.2
 40
0.2
 40
0.2
 40
0.2
 40
0.4
 40
0.4
 40
0.4
 40
0.4
 40
0.6000000000000001
 40
0.6000000000000001
 40
0.6000000000000001
 40
0.6000000000000001
 40
0.8
 40
0.8
 40
0.8
 40
0.8
 40
1.0
 40
1.0
 40
1.0
 40
1.0
 10
-12.00698
 20
-13.41875
 30
0.0
 10
-11.92263
 20
-13.35928
 30
0.0
 10
-11.83277
 20
-13.30715
 30
0.0
 10
-11.73835
 20
-13.26313
 30
0.0
 10
-11.73835
 20
-13.26313
 30
0.0
 10
-11.73835
 20
-13.26313
 30
0.0
 10
-11.26517
 20
-13.73631
 30
0.0
 10
-11.26517
 20
-13.73631
 30
0.0
 10
-11.26517
 20
-13.73631
 30
0.0
 10
-11.2066
 20
-13.79488
 30
0.0
 10
-11.2066
 20
-13.88987
 30
0.0
 10
-11.26517
 20
-13.94844
 30
0.0
 10
-11.26517
 20
-13.94844
 30
0.0
 10
-11.32373
 20
-14.00701
 30
0.0
 10
-11.41873
 20
-14.00701
 30
0.0
 10
-11.4773
 20
-13.94844
 30
0.0
 10
-11.4773
 20
-13.94844
 30
0.0
 10
-11.4773
 20
-13.94844
 30
0.0
 10
-12.00698
 20
-13.41875
 30
0.0
 10
-12.00698
 20
-13.41875
 30
0.0
  0
SPLINE
  5
85
330
1F
100
AcDbEntity
  8
Layer 1
 62
   250
370
    35
100
AcDbSpline
210
0.0
220
0.0
230
1.0
 70
    11
 71
     3
 72
    24
 73
    20
 74
     0
 42
0.0000000001
 43
0.0000000001
 40
0.0
 40
0.0
 40
0.0
 40
0.0
 40
0.2
 40
0.2
 40
0.2
 40
0.2
 40
0.4
 40
0.4
 40
0.4
 40
0.4
 40
0.6000000000000001
 40
0.6000000000000001
 40
0.6000000000000001
 40
0.6000000000000001
 40
0.8
 40
0.8
 40
0.8
 40
0.8
 40
1.0
 40
1.0
 40
1.0
 40
1.0
 10
-9.66117
 20
-15.9767
 30
0.0
 10
-9.72572
 20
-16.0533
 30
0.0
 10
-9.79669
 20
-16.12429
 30
0.0
 10
-9.8733
 20
-16.18883
 30
0.0
 10
-9.8733
 20
-16.18883
 30
0.0
 10
-9.8733
 20
-16.18883
 30
0.0
 10
-9.93934
 20
-16.12279
 30
0.0
 10
-9.93934
 20
-16.12279
 30
0.0
 10
-9.93934
 20
-16.12279
 30
0.0
 10
-9.99791
 20
-16.06422
 30
0.0
 10
-9.99791
 20
-15.96923
 30
0.0
 10
-9.93934
 20
-15.91066
 30
0.0
 10
-9.93934
 20
-15.91066
 30
0.0
 10
-9.88077
 20
-15.85209
 30
0.0
 10
-9.78578
 20
-15.85209
 30
0.0
 10
-9.72721
 20
-15.91066
 30
0.0
 10
-9.72721
 20
-15.91066
 30
0.0
 10
-9.72721
 20
-15.91066
 30
0.0
 10
-9.66117
 20
-15.9767
 30
0.0
 10
-9.66117
 20
-15.9767
 30
0.0
  0
SPLINE
  5
86
330
1F
100
AcDbEntity
  8
Layer 1
 62
   250
370
    35
100
AcDbSpline
210
0.0
220
0.0
230
1.0
 70
    11
 71
     3
 72
    28
 73
    24
 74
     0
 42
0.0000000001
 43
0.0000000001
 40
0.0
 40
0.0
 40
0.0
 40
0.0
 40
0.1666666666666667
 40
0.1666666666666667
 40
0.1666666666666667
 40
0.1666666666666667
 40
0.3333333333333333
 40
0.3333333333333333
 40
0.3333333333333333
 40
0.3333333333333333
 40
0.5
 40
0.5
 40
0.5
 40
0.5
 40
0.6666666666666666
 40
0.6666666666666666
 40
0.6666666666666666
 40
0.6666666666666666
 40
0.8333333333333333
 40
0.8333333333333333
 40
0.8333333333333333
 40
0.8333333333333333
 40
1.0
 40
1.0
 40
1.0
 40
1.0
 10
-10.04541
 20
-15.59246
 30
0.0
 10
-9.98684
 20
-15.65103
 30
0.0
 10
-9.98684
 20
-15.74602
 30
0.0
 10
-10.04541
 20
-15.80459
 30
0.0
 10
-10.04541
 20
-15.80459
 30
0.0
 10
-10.10398
 20
-15.86316
 30
0.0
 10
-10.19897
 20
-15.86316
 30
0.0
 10
-10.25754
 20
-15.80459
 30
0.0
 10
-10.25754
 20
-15.80459
 30
0.0
 10
-10.25754
 20
-15.80459
 30
0.0
 10
-10.96464
 20
-15.09749
 30
0.0
 10
-10.96464
 20
-15.09749
 30
0.0
 10
-10.96464
 20
-15.09749
 30
0.0
 10
-11.02321
 20
-15.03892
 30
0.0
 10
-11.02321
 20
-14.94392
 30
0.0
 10
-10.96464
 20
-14.88536
 30
0.0
 10
-10.96464
 20
-14.88536
 30
0.0
 10
-10.90608
 20
-14.82679
 30
0.0
 10
-10.81108
 20
-14.82679
 30
0.0
 10
-10.75251
 20
-14.88536
 30
0.0
 10
-10.75251
 20
-14.88536
 30
0.0
 10
-10.75251
 20
-14.88536
 30
0.0
 10
-10.04541
 20
-15.59246
 30
0.0
 10
-10.04541
 20
-15.59246
 30
0.0
  0
SPLINE
  5
87
330
1F
100
AcDbEntity
  8
Layer 1
 62
   250
370
    35
100
AcDbSpline
210
0.0
220
0.0
230
1.0
 70
    11
 71
     3
 72
    28
 73
    24
 74
     0
 42
0.0000000001
 43
0.0000000001
 40
0.0
 40
0.0
 40
0.0
 40
0.0
 40
0.1666666666666667
 40
0.1666666666666667
 40
0.1666666666666667
 40
0.1666666666666667
 40
0.3333333333333333
 40
0.3333333333333333
 40
0.3333333333333333
 40
0.3333333333333333
 40
0.5
 40
0.5
 40
0.5
 40
0.5
 40
0.6666666666666666
 40
0.6666666666666666
 40
0.6666666666666666
 40
0.6666666666666666
 40
0.8333333333333333
 40
0.8333333333333333
 40
0.8333333333333333
 40
0.8333333333333333
 40
1.0
 40
1.0
 40
1.0
 40
1.0
 10
-11.07071
 20
-14.56716
 30
0.0
 10
-11.01214
 20
-14.62573
 30
0.0
 10
-11.01214
 20
-14.72072
 30
0.0
 10
-11.07071
 20
-14.77929
 30
0.0
 10
-11.07071
 20
-14.77929
 30
0.0
 10
-11.12928
 20
-14.83786
 30
0.0
 10
-11.22427
 20
-14.83786
 30
0.0
 10
-11.28284
 20
-14.77929
 30
0.0
 10
-11.28284
 20
-14.77929
 30
0.0
 10
-11.28284
 20
-14.77929
 30
0.0
 10
-11.98995
 20
-14.07218
 30
0.0
 10
-11.98995
 20
-14.07218
 30
0.0
 10
-11.98995
 20
-14.07218
 30
0.0
 10
-12.04852
 20
-14.01361
 30
0.0
 10
-12.04852
 20
-13.91862
 30
0.0
 10
-11.98995
 20
-13.86005
 30
0.0
 10
-11.98995
 20
-13.86005
 30
0.0
 10
-11.93138
 20
-13.80148
 30
0.0
 10
-11.83639
 20
-13.80148
 30
0.0
 10
-11.77782
 20
-13.86005
 30
0.0
 10
-11.77782
 20
-13.86005
 30
0.0
 10
-11.77782
 20
-13.86005
 30
0.0
 10
-11.07071
 20
-14.56716
 30
0.0
 10
-11.07071
 20
-14.56716
 30
0.0
  0
SPLINE
  5
88
330
1F
100
AcDbEntity
  8
Layer 1
 62
   250
370
    35
100
AcDbSpline
210
0.0
220
0.0
230
1.0
 70
    11
 71
     3
 72
    24
 73
    20
 74
     0
 42
0.0000000001
 43
0.0000000001
 40
0.0
 40
0.0
 40
0.0
 40
0.0
 40
0.2
 40
0.2
 40
0.2
 40
0.2
 40
0.4
 40
0.4
 40
0.4
 40
0.4
 40
0.6000000000000001
 40
0.6000000000000001
 40
0.6000000000000001
 40
0.6000000000000001
 40
0.8
 40
0.8
 40
0.8
 40
0.8
 40
1.0
 40
1.0
 40
1.0
 40
1.0
 10
-12.33883
 20
-13.7233
 30
0.0
 10
-12.27429
 20
-13.64669
 30
0.0
 10
-12.2033
 20
-13.57572
 30
0.0
 10
-12.1267
 20
-13.51117
 30
0.0
 10
-12.1267
 20
-13.51117
 30
0.0
 10
-12.1267
 20
-13.51117
 30
0.0
 10
-12.09602
 20
-13.54185
 30
0.0
 10
-12.09602
 20
-13.54185
 30
0.0
 10
-12.09602
 20
-13.54185
 30
0.0
 10
-12.03745
 20
-13.60042
 30
0.0
 10
-12.03745
 20
-13.69541
 30
0.0
 10
-12.09602
 20
-13.75398
 30
0.0
 10
-12.09602
 20
-13.75398
 30
0.0
 10
-12.15459
 20
-13.81255
 30
0.0
 10
-12.24958
 20
-13.81255
 30
0.0
 10
-12.30815
 20
-13.75398
 30
0.0
 10
-12.30815
 20
-13.75398
 30
0.0
 10
-12.30815
 20
-13.75398
 30
0.0
 10
-12.33883
 20
-13.7233
 30
0.0
 10
-12.33883
 20
-13.7233
 30
0.0
  0
SPLINE
  5
89
330
1F
100
AcDbEntity
  8
Layer 1
 62
   250
370
    35
100
AcDbSpline
210
0.0
220
0.0
230
1.0
 70
    11
 71
     3
 72
    24
 73
    20
 74
     0
 42
0.0000000001
 43
0.0000000001
 40
0.0
 40
0.0
 40
0.0
 40
0.0
 40
0.2
 40
0.2
 40
0.2
 40
0.2
 40
0.4
 40
0.4
 40
0.4
 40
0.4
 40
0.6000000000000001
 40
0.6000000000000001
 40
0.6000000000000001
 40
0.6000000000000001
 40
0.8
 40
0.8
 40
0.8
 40
0.8
 40
1.0
 40
1.0
 40
1.0
 40
1.0
 10
-9.99301
 20
-16.28125
 30
0.0
 10
-10.07736
 20
-16.34072
 30
0.0
 10
-10.16723
 20
-16.39285
 30
0.0
 10
-10.26165
 20
-16.43687
 30
0.0
 10
-10.26165
 20
-16.43687
 30
0.0
 10
-10.26165
 20
-16.43687
 30
0.0
 10
-10.77019
 20
-15.92834
 30
0.0
 10
-10.77019
 20
-15.92834
 30
0.0
 10
-10.77019
 20
-15.92834
 30
0.0
 10
-10.82876
 20
-15.86977
 30
0.0
 10
-10.82876
 20
-15.77478
 30
0.0
 10
-10.77019
 20
-15.71621
 30
0.0
 10
-10.77019
 20
-15.71621
 30
0.0
 10
-10.71162
 20
-15.65764
 30
0.0
 10
-10.61663
 20
-15.65764
 30
0.0
 10
-10.55806
 20
-15.71621
 30
0.0
 10
-10.55806
 20
-15.71621
 30
0.0
 10
-10.55806
 20
-15.71621
 30
0.0
 10
-9.99301
 20
-16.28125
 30
0.0
 10
-9.99301
 20
-16.28125
 30
0.0
  0
SPLINE
  5
8A
330
1F
100
AcDbEntity
  8
Layer 1
 62
   250
370
    35
100
AcDbSpline
210
0.0
220
0.0
230
1.0
 70
    11
 71
     3
 72
    28
 73
    24
 74
     0
 42
0.0000000001
 43
0.0000000001
 40
0.0
 40
0.0
 40
0.0
 40
0.0
 40
0.1666666666666667
 40
0.1666666666666667
 40
0.1666666666666667
 40
0.1666666666666667
 40
0.3333333333333333
 40
0.3333333333333333
 40
0.3333333333333333
 40
0.3333333333333333
 40
0.5
 40
0.5
 40
0.5
 40
0.5
 40
0.6666666666666666
 40
0.6666666666666666
 40
0.6666666666666666
 40
0.6666666666666666
 40
0.8333333333333333
 40
0.8333333333333333
 40
0.8333333333333333
 40
0.8333333333333333
 40
1.0
 40
1.0
 40
1.0
 40
1.0
 10
-10.87626
 20
-15.39801
 30
0.0
 10
-10.81769
 20
-15.45658
 30
0.0
 10
-10.81769
 20
-15.55157
 30
0.0
 10
-10.87626
 20
-15.61014
 30
0.0
 10
-10.87626
 20
-15.61014
 30
0.0
 10
-10.93483
 20
-15.66871
 30
0.0
 10
-11.02982
 20
-15.66871
 30
0.0
 10
-11.08839
 20
-15.61014
 30
0.0
 10
-11.08839
 20
-15.61014
 30
0.0
 10
-11.08839
 20
-15.61014
 30
0.0
 10
-11.7955
 20
-14.90303
 30
0.0
 10
-11.7955
 20
-14.90303
 30
0.0
 10
-11.7955
 20
-14.90303
 30
0.0
 10
-11.85406
 20
-14.84446
 30
0.0
 10
-11.85406
 20
-14.74947
 30
0.0
 10
-11.7955
 20
-14.6909
 30
0.0
 10
-11.7955
 20
-14.6909
 30
0.0
 10
-11.73693
 20
-14.63233
 30
0.0
 10
-11.64193
 20
-14.63233
 30
0.0
 10
-11.58336
 20
-14.6909
 30
0.0
 10
-11.58336
 20
-14.6909
 30
0.0
 10
-11.58336
 20
-14.6909
 30
0.0
 10
-10.87626
 20
-15.39801
 30
0.0
 10
-10.87626
 20
-15.39801
 30
0.0
  0
SPLINE
  5
8B
330
1F
100
AcDbEntity
  8
Layer 1
 62
   250
370
    35
100
AcDbSpline
210
0.0
220
0.0
230
1.0
 70
    11
 71
     3
 72
    24
 73
    20
 74
     0
 42
0.0000000001
 43
0.0000000001
 40
0.0
 40
0.0
 40
0.0
 40
0.0
 40
0.2
 40
0.2
 40
0.2
 40
0.2
 40
0.4
 40
0.4
 40
0.4
 40
0.4
 40
0.6000000000000001
 40
0.6000000000000001
 40
0.6000000000000001
 40
0.6000000000000001
 40
0.8
 40
0.8
 40
0.8
 40
0.8
 40
1.0
 40
1.0
 40
1.0
 40
1.0
 10
-12.58687
 20
-14.11165
 30
0.0
 10
-12.54285
 20
-14.01723
 30
0.0
 10
-12.49071
 20
-13.92737
 30
0.0
 10
-12.43125
 20
-13.84302
 30
0.0
 10
-12.43125
 20
-13.84302
 30
0.0
 10
-12.43125
 20
-13.84302
 30
0.0
 10
-11.90156
 20
-14.3727
 30
0.0
 10
-11.90156
 20
-14.3727
 30
0.0
 10
-11.90156
 20
-14.3727
 30
0.0
 10
-11.84299
 20
-14.43127
 30
0.0
 10
-11.84299
 20
-14.52627
 30
0.0
 10
-11.90156
 20
-14.58483
 30
0.0
 10
-11.90156
 20
-14.58483
 30
0.0
 10
-11.96013
 20
-14.6434
 30
0.0
 10
-12.05512
 20
-14.6434
 30
0.0
 10
-12.11369
 20
-14.58483
 30
0.0
 10
-12.11369
 20
-14.58483
 30
0.0
 10
-12.11369
 20
-14.58483
 30
0.0
 10
-12.58687
 20
-14.11165
 30
0.0
 10
-12.58687
 20
-14.11165
 30
0.0
  0
SPLINE
  5
8C
330
1F
100
AcDbEntity
  8
Layer 1
 62
   250
370
    35
100
AcDbSpline
210
0.0
220
0.0
230
1.0
 70
    11
 71
     3
 72
    16
 73
    12
 74
     0
 42
0.0000000001
 43
0.0000000001
 40
0.0
 40
0.0
 40
0.0
 40
0.0
 40
0.3333333333333333
 40
0.3333333333333333
 40
0.3333333333333333
 40
0.3333333333333333
 40
0.6666666666666666
 40
0.6666666666666666
 40
0.6666666666666666
 40
0.6666666666666666
 40
1.0
 40
1.0
 40
1.0
 40
1.0
 10
-10.43582
 20
-16.50699
 30
0.0
 10
-10.48205
 20
-16.52273
 30
0.0
 10
-10.52917
 20
-16.53651
 30
0.0
 10
-10.57705
 20
-16.5484
 30
0.0
 10
-10.57705
 20
-16.5484
 30
0.0
 10
-10.57705
 20
-16.5484
 30
0.0
 10
-10.57574
 20
-16.54706
 30
0.0
 10
-10.57574
 20
-16.54706
 30
0.0
 10
-10.57574
 20
-16.54706
 30
0.0
 10
-10.53779
 20
-16.50911
 30
0.0
 10
-10.48454
 20
-16.49576
 30
0.0
 10
-10.43582
 20
-16.50699
 30
0.0
  0
SPLINE
  5
8D
330
1F
100
AcDbEntity
  8
Layer 1
 62
   250
370
    35
100
AcDbSpline
210
0.0
220
0.0
230
1.0
 70
    11
 71
     3
 72
    28
 73
    24
 74
     0
 42
0.0000000001
 43
0.0000000001
 40
0.0
 40
0.0
 40
0.0
 40
0.0
 40
0.1666666666666667
 40
0.1666666666666667
 40
0.1666666666666667
 40
0.1666666666666667
 40
0.3333333333333333
 40
0.3333333333333333
 40
0.3333333333333333
 40
0.3333333333333333
 40
0.5
 40
0.5
 40
0.5
 40
0.5
 40
0.6666666666666666
 40
0.6666666666666666
 40
0.6666666666666666
 40
0.6666666666666666
 40
0.8333333333333333
 40
0.8333333333333333
 40
0.8333333333333333
 40
0.8333333333333333
 40
1.0
 40
1.0
 40
1.0
 40
1.0
 10
-10.6818
 20
-16.22886
 30
0.0
 10
-10.62323
 20
-16.28743
 30
0.0
 10
-10.62323
 20
-16.38242
 30
0.0
 10
-10.6818
 20
-16.44099
 30
0.0
 10
-10.6818
 20
-16.44099
 30
0.0
 10
-10.74037
 20
-16.49956
 30
0.0
 10
-10.83536
 20
-16.49956
 30
0.0
 10
-10.89393
 20
-16.44099
 30
0.0
 10
-10.89393
 20
-16.44099
 30
0.0
 10
-10.89393
 20
-16.44099
 30
0.0
 10
-11.60104
 20
-15.73388
 30
0.0
 10
-11.60104
 20
-15.73388
 30
0.0
 10
-11.60104
 20
-15.73388
 30
0.0
 10
-11.65961
 20
-15.67531
 30
0.0
 10
-11.65961
 20
-15.58032
 30
0.0
 10
-11.60104
 20
-15.52175
 30
0.0
 10
-11.60104
 20
-15.52175
 30
0.0
 10
-11.54247
 20
-15.46318
 30
0.0
 10
-11.44748
 20
-15.46318
 30
0.0
 10
-11.38891
 20
-15.52175
 30
0.0
 10
-11.38891
 20
-15.52175
 30
0.0
 10
-11.38891
 20
-15.52175
 30
0.0
 10
-10.6818
 20
-16.22886
 30
0.0
 10
-10.6818
 20
-16.22886
 30
0.0
  0
SPLINE
  5
8E
330
1F
100
AcDbEntity
  8
Layer 1
 62
   250
370
    35
100
AcDbSpline
210
0.0
220
0.0
230
1.0
 70
    11
 71
     3
 72
    28
 73
    24
 74
     0
 42
0.0000000001
 43
0.0000000001
 40
0.0
 40
0.0
 40
0.0
 40
0.0
 40
0.1666666666666667
 40
0.1666666666666667
 40
0.1666666666666667
 40
0.1666666666666667
 40
0.3333333333333333
 40
0.3333333333333333
 40
0.3333333333333333
 40
0.3333333333333333
 40
0.5
 40
0.5
 40
0.5
 40
0.5
 40
0.6666666666666666
 40
0.6666666666666666
 40
0.6666666666666666
 40
0.6666666666666666
 40
0.8333333333333333
 40
0.8333333333333333
 40
0.8333333333333333
 40
0.8333333333333333
 40
1.0
 40
1.0
 40
1.0
 40
1.0
 10
-11.70711
 20
-15.20355
 30
0.0
 10
-11.64854
 20
-15.26212
 30
0.0
 10
-11.64854
 20
-15.35712
 30
0.0
 10
-11.70711
 20
-15.41569
 30
0.0
 10
-11.70711
 20
-15.41569
 30
0.0
 10
-11.76568
 20
-15.47426
 30
0.0
 10
-11.86067
 20
-15.47426
 30
0.0
 10
-11.91924
 20
-15.41569
 30
0.0
 10
-11.91924
 20
-15.41569
 30
0.0
 10
-11.91924
 20
-15.41569
 30
0.0
 10
-12.62635
 20
-14.70858
 30
0.0
 10
-12.62635
 20
-14.70858
 30
0.0
 10
-12.62635
 20
-14.70858
 30
0.0
 10
-12.68492
 20
-14.65001
 30
0.0
 10
-12.68492
 20
-14.55502
 30
0.0
 10
-12.62635
 20
-14.49645
 30
0.0
 10
-12.62635
 20
-14.49645
 30
0.0
 10
-12.56778
 20
-14.43788
 30
0.0
 10
-12.47278
 20
-14.43788
 30
0.0
 10
-12.41421
 20
-14.49645
 30
0.0
 10
-12.41421
 20
-14.49645
 30
0.0
 10
-12.41421
 20
-14.49645
 30
0.0
 10
-11.70711
 20
-15.20355
 30
0.0
 10
-11.70711
 20
-15.20355
 30
0.0
  0
SPLINE
  5
8F
330
1F
100
AcDbEntity
  8
Layer 1
 62
   250
370
    35
100
AcDbSpline
210
0.0
220
0.0
230
1.0
 70
    11
 71
     3
 72
    24
 73
    20
 74
     0
 42
0.0000000001
 43
0.0000000001
 40
0.0
 40
0.0
 40
0.0
 40
0.0
 40
0.2
 40
0.2
 40
0.2
 40
0.2
 40
0.4
 40
0.4
 40
0.4
 40
0.4
 40
0.6000000000000001
 40
0.6000000000000001
 40
0.6000000000000001
 40
0.6000000000000001
 40
0.8
 40
0.8
 40
0.8
 40
0.8
 40
1.0
 40
1.0
 40
1.0
 40
1.0
 10
-10.94789
 20
-16.59917
 30
0.0
 10
-10.9652
 20
-16.59967
 30
0.0
 10
-10.98256
 20
-16.6
 30
0.0
 10
-11.0
 20
-16.6
 30
0.0
 10
-11.0
 20
-16.6
 30
0.0
 10
-11.14487
 20
-16.6
 30
0.0
 10
-11.2856
 20
-16.58227
 30
0.0
 10
-11.42023
 20
-16.54907
 30
0.0
 10
-11.42023
 20
-16.54907
 30
0.0
 10
-11.46473
 20
-16.49029
 30
0.0
 10
-11.46019
 20
-16.4062
 30
0.0
 10
-11.40659
 20
-16.3526
 30
0.0
 10
-11.40659
 20
-16.3526
 30
0.0
 10
-11.34802
 20
-16.29403
 30
0.0
 10
-11.25302
 20
-16.29403
 30
0.0
 10
-11.19445
 20
-16.3526
 30
0.0
 10
-11.19445
 20
-16.3526
 30
0.0
 10
-11.19445
 20
-16.3526
 30
0.0
 10
-10.94789
 20
-16.59917
 30
0.0
 10
-10.94789
 20
-16.59917
 30
0.0
  0
SPLINE
  5
90
330
1F
100
AcDbEntity
  8
Layer 1
 62
   250
370
    35
100
AcDbSpline
210
0.0
220
0.0
230
1.0
 70
    11
 71
     3
 72
    28
 73
    24
 74
     0
 42
0.0000000001
 43
0.0000000001
 40
0.0
 40
0.0
 40
0.0
 40
0.0
 40
0.1666666666666667
 40
0.1666666666666667
 40
0.1666666666666667
 40
0.1666666666666667
 40
0.3333333333333333
 40
0.3333333333333333
 40
0.3333333333333333
 40
0.3333333333333333
 40
0.5
 40
0.5
 40
0.5
 40
0.5
 40
0.6666666666666666
 40
0.6666666666666666
 40
0.6666666666666666
 40
0.6666666666666666
 40
0.8333333333333333
 40
0.8333333333333333
 40
0.8333333333333333
 40
0.8333333333333333
 40
1.0
 40
1.0
 40
1.0
 40
1.0
 10
-11.51265
 20
-16.0344
 30
0.0
 10
-11.45408
 20
-16.09297
 30
0.0
 10
-11.45408
 20
-16.18797
 30
0.0
 10
-11.51265
 20
-16.24654
 30
0.0
 10
-11.51265
 20
-16.24654
 30
0.0
 10
-11.57122
 20
-16.30511
 30
0.0
 10
-11.66621
 20
-16.30511
 30
0.0
 10
-11.72478
 20
-16.24654
 30
0.0
 10
-11.72478
 20
-16.24654
 30
0.0
 10
-11.72478
 20
-16.24654
 30
0.0
 10
-12.43189
 20
-15.53943
 30
0.0
 10
-12.43189
 20
-15.53943
 30
0.0
 10
-12.43189
 20
-15.53943
 30
0.0
 10
-12.49046
 20
-15.48086
 30
0.0
 10
-12.49046
 20
-15.38587
 30
0.0
 10
-12.43189
 20
-15.3273
 30
0.0
 10
-12.43189
 20
-15.3273
 30
0.0
 10
-12.37332
 20
-15.26873
 30
0.0
 10
-12.27833
 20
-15.26873
 30
0.0
 10
-12.21976
 20
-15.3273
 30
0.0
 10
-12.21976
 20
-15.3273
 30
0.0
 10
-12.21976
 20
-15.3273
 30
0.0
 10
-11.51265
 20
-16.0344
 30
0.0
 10
-11.51265
 20
-16.0344
 30
0.0
  0
SPLINE
  5
91
330
1F
100
AcDbEntity
  8
Layer 1
 62
   250
370
    35
100
AcDbSpline
210
0.0
220
0.0
230
1.0
 70
    11
 71
     3
 72
    24
 73
    20
 74
     0
 42
0.0000000001
 43
0.0000000001
 40
0.0
 40
0.0
 40
0.0
 40
0.0
 40
0.2
 40
0.2
 40
0.2
 40
0.2
 40
0.4
 40
0.4
 40
0.4
 40
0.4
 40
0.6000000000000001
 40
0.6000000000000001
 40
0.6000000000000001
 40
0.6000000000000001
 40
0.8
 40
0.8
 40
0.8
 40
0.8
 40
1.0
 40
1.0
 40
1.0
 40
1.0
 10
-12.70327
 20
-15.253
 30
0.0
 10
-12.73378
 20
-15.1236
 30
0.0
 10
-12.75
 20
-14.9887
 30
0.0
 10
-12.75
 20
-14.85
 30
0.0
 10
-12.75
 20
-14.85
 30
0.0
 10
-12.75
 20
-14.83256
 30
0.0
 10
-12.74967
 20
-14.81521
 30
0.0
 10
-12.74917
 20
-14.79789
 30
0.0
 10
-12.74917
 20
-14.79789
 30
0.0
 10
-12.74917
 20
-14.79789
 30
0.0
 10
-12.53796
 20
-15.0091
 30
0.0
 10
-12.53796
 20
-15.0091
 30
0.0
 10
-12.53796
 20
-15.0091
 30
0.0
 10
-12.47939
 20
-15.06767
 30
0.0
 10
-12.47939
 20
-15.16266
 30
0.0
 10
-12.53796
 20
-15.22123
 30
0.0
 10
-12.53796
 20
-15.22123
 30
0.0
 10
-12.58265
 20
-15.26592
 30
0.0
 10
-12.64854
 20
-15.2765
 30
0.0
 10
-12.70327
 20
-15.253
 30
0.0
  0
SPLINE
  5
92
330
1F
100
AcDbEntity
  8
Layer 1
 62
   250
370
    35
100
AcDbSpline
210
0.0
220
0.0
230
1.0
 70
    11
 71
     3
 72
    16
 73
    12
 74
     0
 42
0.0000000001
 43
0.0000000001
 40
0.0
 40
0.0
 40
0.0
 40
0.0
 40
0.3333333333333333
 40
0.3333333333333333
 40
0.3333333333333333
 40
0.3333333333333333
 40
0.6666666666666666
 40
0.6666666666666666
 40
0.6666666666666666
 40
0.6666666666666666
 40
1.0
 40
1.0
 40
1.0
 40
1.0
 10
-11.75379
 20
-16.42966
 30
0.0
 10
-11.91625
 20
-16.35195
 30
0.0
 10
-12.06484
 20
-16.24992
 30
0.0
 10
-12.1949
 20
-16.12829
 30
0.0
 10
-12.1949
 20
-16.12829
 30
0.0
 10
-12.13935
 20
-16.10234
 30
0.0
 10
-12.07116
 20
-16.11229
 30
0.0
 10
-12.0253
 20
-16.15815
 30
0.0
 10
-12.0253
 20
-16.15815
 30
0.0
 10
-12.0253
 20
-16.15815
 30
0.0
 10
-11.75379
 20
-16.42966
 30
0.0
 10
-11.75379
 20
-16.42966
 30
0.0
  0
SPLINE
  5
93
330
1F
100
AcDbEntity
  8
Layer 1
 62
   250
370
    35
100
AcDbSpline
210
0.0
220
0.0
230
1.0
 70
    11
 71
     3
 72
    16
 73
    12
 74
     0
 42
0.0000000001
 43
0.0000000001
 40
0.0
 40
0.0
 40
0.0
 40
0.0
 40
0.3333333333333333
 40
0.3333333333333333
 40
0.3333333333333333
 40
0.3333333333333333
 40
0.6666666666666666
 40
0.6666666666666666
 40
0.6666666666666666
 40
0.6666666666666666
 40
1.0
 40
1.0
 40
1.0
 40
1.0
 10
-12.31257
 20
-16.00717
 30
0.0
 10
-12.41917
 20
-15.88635
 30
0.0
 10
-12.50937
 20
-15.75074
 30
0.0
 10
-12.57966
 20
-15.60379
 30
0.0
 10
-12.57966
 20
-15.60379
 30
0.0
 10
-12.57966
 20
-15.60379
 30
0.0
 10
-12.3435
 20
-15.83995
 30
0.0
 10
-12.3435
 20
-15.83995
 30
0.0
 10
-12.3435
 20
-15.83995
 30
0.0
 10
-12.29829
 20
-15.88516
 30
0.0
 10
-12.28799
 20
-15.95206
 30
0.0
 10
-12.31257
 20
-16.00717
 30
0.0
  0
SPLINE
  5
94
330
1F
100
AcDbEntity
  8
Layer 1
 62
   250
370
    35
100
AcDbSpline
210
0.0
220
0.0
230
1.0
 70
    11
 71
     3
 72
   116
 73
   112
 74
     0
 42
0.0000000001
 43
0.0000000001
 40
0.0
 40
0.0
 40
0.0
 40
0.0
 40
0.0357142857142857
 40
0.0357142857142857
 40
0.0357142857142857
 40
0.0357142857142857
 40
0.0714285714285714
 40
0.0714285714285714
 40
0.0714285714285714
 40
0.0714285714285714
 40
0.1071428571428571
 40
0.1071428571428571
 40
0.1071428571428571
 40
0.1071428571428571
 40
0.1428571428571428
 40
0.1428571428571428
 40
0.1428571428571428
 40
0.1428571428571428
 40
0.1785714285714285
 40
0.1785714285714285
 40
0.1785714285714285
 40
0.1785714285714285
 40
0.2142857142857142
 40
0.2142857142857142
 40
0.2142857142857142
 40
0.2142857142857142
 40
0.2499999999999999
 40
0.2499999999999999
 40
0.2499999999999999
 40
0.2499999999999999
 40
0.2857142857142856
 40
0.2857142857142856
 40
0.2857142857142856
 40
0.2857142857142856
 40
0.3214285714285713
 40
0.3214285714285713
 40
0.3214285714285713
 40
0.3214285714285713
 40
0.357142857142857
 40
0.357142857142857
 40
0.357142857142857
 40
0.357142857142857
 40
0.3928571428571427
 40
0.3928571428571427
 40
0.3928571428571427
 40
0.3928571428571427
 40
0.4285714285714284
 40
0.4285714285714284
 40
0.4285714285714284
 40
0.4285714285714284
 40
0.4642857142857141
 40
0.4642857142857141
 40
0.4642857142857141
 40
0.4642857142857141
 40
0.4999999999999998
 40
0.4999999999999998
 40
0.4999999999999998
 40
0.4999999999999998
 40
0.5357142857142856
 40
0.5357142857142856
 40
0.5357142857142856
 40
0.5357142857142856
 40
0.5714285714285713
 40
0.5714285714285713
 40
0.5714285714285713
 40
0.5714285714285713
 40
0.607142857142857
 40
0.607142857142857
 40
0.607142857142857
 40
0.607142857142857
 40
0.6428571428571427
 40
0.6428571428571427
 40
0.6428571428571427
 40
0.6428571428571427
 40
0.6785714285714284
 40
0.6785714285714284
 40
0.6785714285714284
 40
0.6785714285714284
 40
0.7142857142857141
 40
0.7142857142857141
 40
0.7142857142857141
 40
0.7142857142857141
 40
0.7499999999999998
 40
0.7499999999999998
 40
0.7499999999999998
 40
0.7499999999999998
 40
0.7857142857142855
 40
0.7857142857142855
 40
0.7857142857142855
 40
0.7857142857142855
 40
0.8214285714285712
 40
0.8214285714285712
 40
0.8214285714285712
 40
0.8214285714285712
 40
0.8571428571428569
 40
0.8571428571428569
 40
0.8571428571428569
 40
0.8571428571428569
 40
0.8928571428571426
 40
0.8928571428571426
 40
0.8928571428571426
 40
0.8928571428571426
 40
0.9285714285714283
 40
0.9285714285714283
 40
0.9285714285714283
 40
0.9285714285714283
 40
0.964285714285714
 40
0.964285714285714
 40
0.964285714285714
 40
0.964285714285714
 40
1.0
 40
1.0
 40
1.0
 40
1.0
 10
17.40001
 20
-9.59999
 30
0.0
 10
17.40001
 20
-9.59999
 30
0.0
 10
20.39999
 20
-9.59999
 30
0.0
 10
20.39999
 20
-9.59999
 30
0.0
 10
20.39999
 20
-9.59999
 30
0.0
 10
20.39999
 20
-9.59999
 30
0.0
 10
20.39999
 20
-10.14999
 30
0.0
 10
20.39999
 20
-10.14999
 30
0.0
 10
20.39999
 20
-10.14999
 30
0.0
 10
20.39999
 20
-10.14999
 30
0.0
 10
20.7
 20
-10.14999
 30
0.0
 10
20.7
 20
-10.14999
 30
0.0
 10
20.7
 20
-10.14999
 30
0.0
 10
20.7
 20
-10.14999
 30
0.0
 10
20.7
 20
-10.75
 30
0.0
 10
20.7
 20
-10.75
 30
0.0
 10
20.7
 20
-10.75
 30
0.0
 10
20.7
 20
-10.75
 30
0.0
 10
20.39999
 20
-10.75
 30
0.0
 10
20.39999
 20
-10.75
 30
0.0
 10
20.39999
 20
-10.75
 30
0.0
 10
20.39999
 20
-10.75
 30
0.0
 10
20.39999
 20
-12.14999
 30
0.0
 10
20.39999
 20
-12.14999
 30
0.0
 10
20.39999
 20
-12.14999
 30
0.0
 10
20.39999
 20
-12.14999
 30
0.0
 10
20.7
 20
-12.14999
 30
0.0
 10
20.7
 20
-12.14999
 30
0.0
 10
20.7
 20
-12.14999
 30
0.0
 10
20.7
 20
-12.14999
 30
0.0
 10
20.7
 20
-12.75
 30
0.0
 10
20.7
 20
-12.75
 30
0.0
 10
20.7
 20
-12.75
 30
0.0
 10
20.7
 20
-12.75
 30
0.0
 10
20.39999
 20
-12.75
 30
0.0
 10
20.39999
 20
-12.75
 30
0.0
 10
20.39999
 20
-12.75
 30
0.0
 10
20.39999
 20
-12.75
 30
0.0
 10
20.39999
 20
-14.14996
 30
0.0
 10
20.39999
 20
-14.14996
 30
0.0
 10
20.39999
 20
-14.14996
 30
0.0
 10
20.39999
 20
-14.14996
 30
0.0
 10
20.7
 20
-14.14996
 30
0.0
 10
20.7
 20
-14.14996
 30
0.0
 10
20.7
 20
-14.14996
 30
0.0
 10
20.7
 20
-14.14996
 30
0.0
 10
20.7
 20
-14.74996
 30
0.0
 10
20.7
 20
-14.74996
 30
0.0
 10
20.7
 20
-14.74996
 30
0.0
 10
20.7
 20
-14.74996
 30
0.0
 10
20.39999
 20
-14.74996
 30
0.0
 10
20.39999
 20
-14.74996
 30
0.0
 10
20.39999
 20
-14.74996
 30
0.0
 10
20.39999
 20
-14.74996
 30
0.0
 10
20.39999
 20
-15.30001
 30
0.0
 10
20.39999
 20
-15.30001
 30
0.0
 10
20.39999
 20
-15.30001
 30
0.0
 10
20.39999
 20
-15.30001
 30
0.0
 10
17.40001
 20
-15.30001
 30
0.0
 10
17.40001
 20
-15.30001
 30
0.0
 10
17.40001
 20
-15.30001
 30
0.0
 10
17.40001
 20
-15.30001
 30
0.0
 10
17.40001
 20
-14.75001
 30
0.0
 10
17.40001
 20
-14.75001
 30
0.0
 10
17.40001
 20
-14.75001
 30
0.0
 10
17.40001
 20
-14.75001
 30
0.0
 10
17.1
 20
-14.75001
 30
0.0
 10
17.1
 20
-14.75001
 30
0.0
 10
17.1
 20
-14.75001
 30
0.0
 10
17.1
 20
-14.75001
 30
0.0
 10
17.1
 20
-14.15
 30
0.0
 10
17.1
 20
-14.15
 30
0.0
 10
17.1
 20
-14.15
 30
0.0
 10
17.1
 20
-14.15
 30
0.0
 10
17.40001
 20
-14.15
 30
0.0
 10
17.40001
 20
-14.15
 30
0.0
 10
17.40001
 20
-14.15
 30
0.0
 10
17.40001
 20
-14.15
 30
0.0
 10
17.40001
 20
-12.75001
 30
0.0
 10
17.40001
 20
-12.75001
 30
0.0
 10
17.40001
 20
-12.75001
 30
0.0
 10
17.40001
 20
-12.75001
 30
0.0
 10
17.1
 20
-12.75001
 30
0.0
 10
17.1
 20
-12.75001
 30
0.0
 10
17.1
 20
-12.75001
 30
0.0
 10
17.1
 20
-12.75001
 30
0.0
 10
17.1
 20
-12.15
 30
0.0
 10
17.1
 20
-12.15
 30
0.0
 10
17.1
 20
-12.15
 30
0.0
 10
17.1
 20
-12.15
 30
0.0
 10
17.40001
 20
-12.15
 30
0.0
 10
17.40001
 20
-12.15
 30
0.0
 10
17.40001
 20
-12.15
 30
0.0
 10
17.40001
 20
-12.15
 30
0.0
 10
17.40001
 20
-10.75004
 30
0.0
 10
17.40001
 20
-10.75004
 30
0.0
 10
17.40001
 20
-10.75004
 30
0.0
 10
17.40001
 20
-10.75004
 30
0.0
 10
17.1
 20
-10.75004
 30
0.0
 10
17.1
 20
-10.75004
 30
0.0
 10
17.1
 20
-10.75004
 30
0.0
 10
17.1
 20
-10.75004
 30
0.0
 10
17.1
 20
-10.15004
 30
0.0
 10
17.1
 20
-10.15004
 30
0.0
 10
17.1
 20
-10.15004
 30
0.0
 10
17.1
 20
-10.15004
 30
0.0
 10
17.40001
 20
-10.15004
 30
0.0
 10
17.40001
 20
-10.15004
 30
0.0
 10
17.40001
 20
-10.15004
 30
0.0
 10
17.40001
 20
-10.15004
 30
0.0
 10
17.40001
 20
-9.59999
 30
0.0
 10
17.40001
 20
-9.59999
 30
0.0
  0
SPLINE
  5
95
330
1F
100
AcDbEntity
  8
Layer 1
 62
   250
370
    35
100
AcDbSpline
210
0.0
220
0.0
230
1.0
 70
    11
 71
     3
 72
    20
 73
    16
 74
     0
 42
0.0000000001
 43
0.0000000001
 40
0.0
 40
0.0
 40
0.0
 40
0.0
 40
0.25
 40
0.25
 40
0.25
 40
0.25
 40
0.5
 40
0.5
 40
0.5
 40
0.5
 40
0.75
 40
0.75
 40
0.75
 40
0.75
 40
1.0
 40
1.0
 40
1.0
 40
1.0
 10
18.5875
 20
-12.45
 30
0.0
 10
18.5875
 20
-12.27742
 30
0.0
 10
18.72742
 20
-12.1375
 30
0.0
 10
18.9
 20
-12.1375
 30
0.0
 10
18.9
 20
-12.1375
 30
0.0
 10
19.07258
 20
-12.1375
 30
0.0
 10
19.2125
 20
-12.27742
 30
0.0
 10
19.2125
 20
-12.45
 30
0.0
 10
19.2125
 20
-12.45
 30
0.0
 10
19.2125
 20
-12.62258
 30
0.0
 10
19.07258
 20
-12.7625
 30
0.0
 10
18.9
 20
-12.7625
 30
0.0
 10
18.9
 20
-12.7625
 30
0.0
 10
18.72742
 20
-12.7625
 30
0.0
 10
18.5875
 20
-12.62258
 30
0.0
 10
18.5875
 20
-12.45
 30
0.0
  0
SPLINE
  5
96
330
1F
100
AcDbEntity
  8
Layer 1
 62
   250
370
    35
100
AcDbSpline
210
0.0
220
0.0
230
1.0
 70
    11
 71
     3
 72
    20
 73
    16
 74
     0
 42
0.0000000001
 43
0.0000000001
 40
0.0
 40
0.0
 40
0.0
 40
0.0
 40
0.25
 40
0.25
 40
0.25
 40
0.25
 40
0.5
 40
0.5
 40
0.5
 40
0.5
 40
0.75
 40
0.75
 40
0.75
 40
0.75
 40
1.0
 40
1.0
 40
1.0
 40
1.0
 10
18.5875
 20
-10.95
 30
0.0
 10
18.5875
 20
-10.77742
 30
0.0
 10
18.72742
 20
-10.6375
 30
0.0
 10
18.9
 20
-10.6375
 30
0.0
 10
18.9
 20
-10.6375
 30
0.0
 10
19.07258
 20
-10.6375
 30
0.0
 10
19.2125
 20
-10.77742
 30
0.0
 10
19.2125
 20
-10.95
 30
0.0
 10
19.2125
 20
-10.95
 30
0.0
 10
19.2125
 20
-11.12258
 30
0.0
 10
19.07258
 20
-11.2625
 30
0.0
 10
18.9
 20
-11.2625
 30
0.0
 10
18.9
 20
-11.2625
 30
0.0
 10
18.72742
 20
-11.2625
 30
0.0
 10
18.5875
 20
-11.12258
 30
0.0
 10
18.5875
 20
-10.95
 30
0.0
  0
SPLINE
  5
97
330
1F
100
AcDbEntity
  8
Layer 1
 62
   250
370
    35
100
AcDbSpline
210
0.0
220
0.0
230
1.0
 70
    11
 71
     3
 72
    20
 73
    16
 74
     0
 42
0.0000000001
 43
0.0000000001
 40
0.0
 40
0.0
 40
0.0
 40
0.0
 40
0.25
 40
0.25
 40
0.25
 40
0.25
 40
0.5
 40
0.5
 40
0.5
 40
0.5
 40
0.75
 40
0.75
 40
0.75
 40
0.75
 40
1.0
 40
1.0
 40
1.0
 40
1.0
 10
18.5875
 20
-13.95
 30
0.0
 10
18.5875
 20
-13.77742
 30
0.0
 10
18.72742
 20
-13.6375
 30
0.0
 10
18.9
 20
-13.6375
 30
0.0
 10
18.9
 20
-13.6375
 30
0.0
 10
19.07258
 20
-13.6375
 30
0.0
 10
19.2125
 20
-13.77742
 30
0.0
 10
19.2125
 20
-13.95
 30
0.0
 10
19.2125
 20
-13.95
 30
0.0
 10
19.2125
 20
-14.12258
 30
0.0
 10
19.07258
 20
-14.2625
 30
0.0
 10
18.9
 20
-14.2625
 30
0.0
 10
18.9
 20
-14.2625
 30
0.0
 10
18.72742
 20
-14.2625
 30
0.0
 10
18.5875
 20
-14.12258
 30
0.0
 10
18.5875
 20
-13.95
 30
0.0
  0
SPLINE
  5
98
330
1F
100
AcDbEntity
  8
Layer 1
 62
   235
370
    35
100
AcDbSpline
210
0.0
220
0.0
230
1.0
 70
    11
 71
     3
 72
   256
 73
   252
 74
     0
 42
0.0000000001
 43
0.0000000001
 40
0.0
 40
0.0
 40
0.0
 40
0.0
 40
0.0158730158730159
 40
0.0158730158730159
 40
0.0158730158730159
 40
0.0158730158730159
 40
0.0317460317460317
 40
0.0317460317460317
 40
0.0317460317460317
 40
0.0317460317460317
 40
0.0476190476190476
 40
0.0476190476190476
 40
0.0476190476190476
 40
0.0476190476190476
 40
0.0634920634920635
 40
0.0634920634920635
 40
0.0634920634920635
 40
0.0634920634920635
 40
0.0793650793650794
 40
0.0793650793650794
 40
0.0793650793650794
 40
0.0793650793650794
 40
0.0952380952380952
 40
0.0952380952380952
 40
0.0952380952380952
 40
0.0952380952380952
 40
0.1111111111111111
 40
0.1111111111111111
 40
0.1111111111111111
 40
0.1111111111111111
 40
0.126984126984127
 40
0.126984126984127
 40
0.126984126984127
 40
0.126984126984127
 40
0.1428571428571428
 40
0.1428571428571428
 40
0.1428571428571428
 40
0.1428571428571428
 40
0.1587301587301587
 40
0.1587301587301587
 40
0.1587301587301587
 40
0.1587301587301587
 40
0.1746031746031746
 40
0.1746031746031746
 40
0.1746031746031746
 40
0.1746031746031746
 40
0.1904761904761905
 40
0.1904761904761905
 40
0.1904761904761905
 40
0.1904761904761905
 40
0.2063492063492063
 40
0.2063492063492063
 40
0.2063492063492063
 40
0.2063492063492063
 40
0.2222222222222222
 40
0.2222222222222222
 40
0.2222222222222222
 40
0.2222222222222222
 40
0.2380952380952381
 40
0.2380952380952381
 40
0.2380952380952381
 40
0.2380952380952381
 40
0.253968253968254
 40
0.253968253968254
 40
0.253968253968254
 40
0.253968253968254
 40
0.2698412698412698
 40
0.2698412698412698
 40
0.2698412698412698
 40
0.2698412698412698
 40
0.2857142857142857
 40
0.2857142857142857
 40
0.2857142857142857
 40
0.2857142857142857
 40
0.3015873015873016
 40
0.3015873015873016
 40
0.3015873015873016
 40
0.3015873015873016
 40
0.3174603174603174
 40
0.3174603174603174
 40
0.3174603174603174
 40
0.3174603174603174
 40
0.3333333333333333
 40
0.3333333333333333
 40
0.3333333333333333
 40
0.3333333333333333
 40
0.3492063492063492
 40
0.3492063492063492
 40
0.3492063492063492
 40
0.3492063492063492
 40
0.3650793650793651
 40
0.3650793650793651
 40
0.3650793650793651
 40
0.3650793650793651
 40
0.3809523809523809
 40
0.3809523809523809
 40
0.3809523809523809
 40
0.3809523809523809
 40
0.3968253968253968
 40
0.3968253968253968
 40
0.3968253968253968
 40
0.3968253968253968
 40
0.4126984126984127
 40
0.4126984126984127
 40
0.4126984126984127
 40
0.4126984126984127
 40
0.4285714285714285
 40
0.4285714285714285
 40
0.4285714285714285
 40
0.4285714285714285
 40
0.4444444444444444
 40
0.4444444444444444
 40
0.4444444444444444
 40
0.4444444444444444
 40
0.4603174603174603
 40
0.4603174603174603
 40
0.4603174603174603
 40
0.4603174603174603
 40
0.4761904761904762
 40
0.4761904761904762
 40
0.4761904761904762
 40
0.4761904761904762
 40
0.492063492063492
 40
0.492063492063492
 40
0.492063492063492
 40
0.492063492063492
 40
0.5079365079365079
 40
0.5079365079365079
 40
0.5079365079365079
 40
0.5079365079365079
 40
0.5238095238095237
 40
0.5238095238095237
 40
0.5238095238095237
 40
0.5238095238095237
 40
0.5396825396825395
 40
0.5396825396825395
 40
0.5396825396825395
 40
0.5396825396825395
 40
0.5555555555555554
 40
0.5555555555555554
 40
0.5555555555555554
 40
0.5555555555555554
 40
0.5714285714285712
 40
0.5714285714285712
 40
0.5714285714285712
 40
0.5714285714285712
 40
0.587301587301587
 40
0.587301587301587
 40
0.587301587301587
 40
0.587301587301587
 40
0.6031746031746028
 40
0.6031746031746028
 40
0.6031746031746028
 40
0.6031746031746028
 40
0.6190476190476186
 40
0.6190476190476186
 40
0.6190476190476186
 40
0.6190476190476186
 40
0.6349206349206344
 40
0.6349206349206344
 40
0.6349206349206344
 40
0.6349206349206344
 40
0.6507936507936503
 40
0.6507936507936503
 40
0.6507936507936503
 40
0.6507936507936503
 40
0.6666666666666661
 40
0.6666666666666661
 40
0.6666666666666661
 40
0.6666666666666661
 40
0.6825396825396819
 40
0.6825396825396819
 40
0.6825396825396819
 40
0.6825396825396819
 40
0.6984126984126977
 40
0.6984126984126977
 40
0.6984126984126977
 40
0.6984126984126977
 40
0.7142857142857135
 40
0.7142857142857135
 40
0.7142857142857135
 40
0.7142857142857135
 40
0.7301587301587293
 40
0.7301587301587293
 40
0.7301587301587293
 40
0.7301587301587293
 40
0.7460317460317452
 40
0.7460317460317452
 40
0.7460317460317452
 40
0.7460317460317452
 40
0.761904761904761
 40
0.761904761904761
 40
0.761904761904761
 40
0.761904761904761
 40
0.7777777777777768
 40
0.7777777777777768
 40
0.7777777777777768
 40
0.7777777777777768
 40
0.7936507936507926
 40
0.7936507936507926
 40
0.7936507936507926
 40
0.7936507936507926
 40
0.8095238095238084
 40
0.8095238095238084
 40
0.8095238095238084
 40
0.8095238095238084
 40
0.8253968253968242
 40
0.8253968253968242
 40
0.8253968253968242
 40
0.8253968253968242
 40
0.8412698412698401
 40
0.8412698412698401
 40
0.8412698412698401
 40
0.8412698412698401
 40
0.8571428571428559
 40
0.8571428571428559
 40
0.8571428571428559
 40
0.8571428571428559
 40
0.8730158730158717
 40
0.8730158730158717
 40
0.8730158730158717
 40
0.8730158730158717
 40
0.8888888888888875
 40
0.8888888888888875
 40
0.8888888888888875
 40
0.8888888888888875
 40
0.9047619047619033
 40
0.9047619047619033
 40
0.9047619047619033
 40
0.9047619047619033
 40
0.9206349206349191
 40
0.9206349206349191
 40
0.9206349206349191
 40
0.9206349206349191
 40
0.936507936507935
 40
0.936507936507935
 40
0.936507936507935
 40
0.936507936507935
 40
0.9523809523809508
 40
0.9523809523809508
 40
0.9523809523809508
 40
0.9523809523809508
 40
0.9682539682539666
 40
0.9682539682539666
 40
0.9682539682539666
 40
0.9682539682539666
 40
0.9841269841269824
 40
0.9841269841269824
 40
0.9841269841269824
 40
0.9841269841269824
 40
1.0
 40
1.0
 40
1.0
 40
1.0
 10
-2.12642
 20
-15.03562
 30
0.0
 10
-2.12642
 20
-15.03562
 30
0.0
 10
-2.39804
 20
-15.03562
 30
0.0
 10
-2.39804
 20
-15.03562
 30
0.0
 10
-2.39804
 20
-15.03562
 30
0.0
 10
-2.41918
 20
-15.03562
 30
0.0
 10
-2.44012
 20
-15.03738
 30
0.0
 10
-2.46092
 20
-15.0409
 30
0.0
 10
-2.46092
 20
-15.0409
 30
0.0
 10
-2.4817
 20
-15.04443
 30
0.0
 10
-2.50054
 20
-15.05182
 30
0.0
 10
-2.51745
 20
-15.06309
 30
0.0
 10
-2.51745
 20
-15.06309
 30
0.0
 10
-2.53437
 20
-15.07438
 30
0.0
 10
-2.54792
 20
-15.09057
 30
0.0
 10
-2.55815
 20
-15.11171
 30
0.0
 10
-2.55815
 20
-15.11171
 30
0.0
 10
-2.56835
 20
-15.13285
 30
0.0
 10
-2.57348
 20
-15.16104
 30
0.0
 10
-2.57348
 20
-15.19626
 30
0.0
 10
-2.57348
 20
-15.19626
 30
0.0
 10
-2.57348
 20
-15.21106
 30
0.0
 10
-2.57171
 20
-15.22656
 30
0.0
 10
-2.5682
 20
-15.24276
 30
0.0
 10
-2.5682
 20
-15.24276
 30
0.0
 10
-2.56467
 20
-15.25897
 30
0.0
 10
-2.56009
 20
-15.27517
 30
0.0
 10
-2.55446
 20
-15.29138
 30
0.0
 10
-2.55446
 20
-15.29138
 30
0.0
 10
-2.54881
 20
-15.3076
 30
0.0
 10
-2.54194
 20
-15.32345
 30
0.0
 10
-2.53385
 20
-15.33894
 30
0.0
 10
-2.53385
 20
-15.33894
 30
0.0
 10
-2.52574
 20
-15.35445
 30
0.0
 10
-2.51711
 20
-15.36853
 30
0.0
 10
-2.50795
 20
-15.38121
 30
0.0
 10
-2.50795
 20
-15.38121
 30
0.0
 10
-2.55092
 20
-15.40589
 30
0.0
 10
-2.57242
 20
-15.4478
 30
0.0
 10
-2.57242
 20
-15.50698
 30
0.0
 10
-2.57242
 20
-15.50698
 30
0.0
 10
-2.57242
 20
-15.53306
 30
0.0
 10
-2.56748
 20
-15.56141
 30
0.0
 10
-2.55762
 20
-15.59206
 30
0.0
 10
-2.55762
 20
-15.59206
 30
0.0
 10
-2.54775
 20
-15.62271
 30
0.0
 10
-2.53332
 20
-15.65248
 30
0.0
 10
-2.51429
 20
-15.68138
 30
0.0
 10
-2.51429
 20
-15.68138
 30
0.0
 10
-2.51429
 20
-15.68138
 30
0.0
 10
-2.51746
 20
-15.6856
 30
0.0
 10
-2.51746
 20
-15.6856
 30
0.0
 10
-2.51746
 20
-15.6856
 30
0.0
 10
-2.51746
 20
-15.6856
 30
0.0
 10
-2.56291
 20
-15.6856
 30
0.0
 10
-2.56291
 20
-15.6856
 30
0.0
 10
-2.56291
 20
-15.6856
 30
0.0
 10
-2.56291
 20
-15.6856
 30
0.0
 10
-2.56291
 20
-16.10705
 30
0.0
 10
-2.56291
 20
-16.10705
 30
0.0
 10
-2.56291
 20
-16.10705
 30
0.0
 10
-2.56291
 20
-16.10705
 30
0.0
 10
-2.48153
 20
-16.10705
 30
0.0
 10
-2.48153
 20
-16.10705
 30
0.0
 10
-2.48153
 20
-16.10705
 30
0.0
 10
-2.48153
 20
-16.10705
 30
0.0
 10
-2.48153
 20
-16.03624
 30
0.0
 10
-2.48153
 20
-16.03624
 30
0.0
 10
-2.48153
 20
-16.03624
 30
0.0
 10
-2.48153
 20
-16.03624
 30
0.0
 10
-2.10246
 20
-16.03624
 30
0.0
 10
-2.10246
 20
-16.03624
 30
0.0
 10
-2.10246
 20
-16.03624
 30
0.0
 10
-2.03891
 20
-16.03624
 30
0.0
 10
-1.99233
 20
-16.05141
 30
0.0
 10
-1.96268
 20
-16.08169
 30
0.0
 10
-1.96268
 20
-16.08169
 30
0.0
 10
-1.93301
 20
-16.112
 30
0.0
 10
-1.9182
 20
-16.15462
 30
0.0
 10
-1.9182
 20
-16.20957
 30
0.0
 10
-1.9182
 20
-16.20957
 30
0.0
 10
-1.9182
 20
-16.26595
 30
0.0
 10
-1.93337
 20
-16.3091
 30
0.0
 10
-1.96373
 20
-16.33904
 30
0.0
 10
-1.96373
 20
-16.33904
 30
0.0
 10
-1.99408
 20
-16.369
 30
0.0
 10
-2.04033
 20
-16.38396
 30
0.0
 10
-2.10244
 20
-16.38396
 30
0.0
 10
-2.10244
 20
-16.38396
 30
0.0
 10
-2.10244
 20
-16.38396
 30
0.0
 10
-2.48153
 20
-16.38396
 30
0.0
 10
-2.48153
 20
-16.38396
 30
0.0
 10
-2.48153
 20
-16.38396
 30
0.0
 10
-2.48153
 20
-16.38396
 30
0.0
 10
-2.48153
 20
-16.31209
 30
0.0
 10
-2.48153
 20
-16.31209
 30
0.0
 10
-2.48153
 20
-16.31209
 30
0.0
 10
-2.48153
 20
-16.31209
 30
0.0
 10
-2.56291
 20
-16.31209
 30
0.0
 10
-2.56291
 20
-16.31209
 30
0.0
 10
-2.56291
 20
-16.31209
 30
0.0
 10
-2.56291
 20
-16.31209
 30
0.0
 10
-2.56291
 20
-16.56044
 30
0.0
 10
-2.56291
 20
-16.56044
 30
0.0
 10
-2.56291
 20
-16.56044
 30
0.0
 10
-2.56291
 20
-16.56044
 30
0.0
 10
-2.48153
 20
-16.56044
 30
0.0
 10
-2.48153
 20
-16.56044
 30
0.0
 10
-2.48153
 20
-16.56044
 30
0.0
 10
-2.48153
 20
-16.56044
 30
0.0
 10
-2.48153
 20
-16.49809
 30
0.0
 10
-2.48153
 20
-16.49809
 30
0.0
 10
-2.48153
 20
-16.49809
 30
0.0
 10
-2.48153
 20
-16.49809
 30
0.0
 10
-2.10151
 20
-16.49809
 30
0.0
 10
-2.10151
 20
-16.49809
 30
0.0
 10
-2.10151
 20
-16.49809
 30
0.0
 10
-2.05915
 20
-16.49809
 30
0.0
 10
-2.02103
 20
-16.49264
 30
0.0
 10
-1.98716
 20
-16.48175
 30
0.0
 10
-1.98716
 20
-16.48175
 30
0.0
 10
-1.95327
 20
-16.47085
 30
0.0
 10
-1.92471
 20
-16.4538
 30
0.0
 10
-1.90142
 20
-16.43059
 30
0.0
 10
-1.90142
 20
-16.43059
 30
0.0
 10
-1.87814
 20
-16.40736
 30
0.0
 10
-1.86032
 20
-16.37767
 30
0.0
 10
-1.84796
 20
-16.34145
 30
0.0
 10
-1.84796
 20
-16.34145
 30
0.0
 10
-1.83561
 20
-16.30523
 30
0.0
 10
-1.82942
 20
-16.2618
 30
0.0
 10
-1.82942
 20
-16.21115
 30
0.0
 10
-1.82942
 20
-16.21115
 30
0.0
 10
-1.82942
 20
-16.1134
 30
0.0
 10
-1.85394
 20
-16.04113
 30
0.0
 10
-1.90299
 20
-15.99436
 30
0.0
 10
-1.90299
 20
-15.99436
 30
0.0
 10
-1.95203
 20
-15.9476
 30
0.0
 10
-2.01819
 20
-15.92422
 30
0.0
 10
-2.10149
 20
-15.92422
 30
0.0
 10
-2.10149
 20
-15.92422
 30
0.0
 10
-2.10149
 20
-15.92422
 30
0.0
 10
-2.48153
 20
-15.92421
 30
0.0
 10
-2.48153
 20
-15.92421
 30
0.0
 10
-2.48153
 20
-15.92421
 30
0.0
 10
-2.48153
 20
-15.92421
 30
0.0
 10
-2.48153
 20
-15.79447
 30
0.0
 10
-2.48153
 20
-15.79447
 30
0.0
 10
-2.48153
 20
-15.79447
 30
0.0
 10
-2.48153
 20
-15.79447
 30
0.0
 10
-2.04608
 20
-15.79447
 30
0.0
 10
-2.04608
 20
-15.79447
 30
0.0
 10
-2.04608
 20
-15.79447
 30
0.0
 10
-2.04608
 20
-15.79447
 30
0.0
 10
-2.04608
 20
-15.68244
 30
0.0
 10
-2.04608
 20
-15.68244
 30
0.0
 10
-2.04608
 20
-15.68244
 30
0.0
 10
-2.04608
 20
-15.68244
 30
0.0
 10
-2.43397
 20
-15.68244
 30
0.0
 10
-2.43397
 20
-15.68244
 30
0.0
 10
-2.43397
 20
-15.68244
 30
0.0
 10
-2.44594
 20
-15.66413
 30
0.0
 10
-2.45633
 20
-15.64299
 30
0.0
 10
-2.46514
 20
-15.61902
 30
0.0
 10
-2.46514
 20
-15.61902
 30
0.0
 10
-2.47394
 20
-15.59507
 30
0.0
 10
-2.47834
 20
-15.57288
 30
0.0
 10
-2.47834
 20
-15.55244
 30
0.0
 10
-2.47834
 20
-15.55244
 30
0.0
 10
-2.47834
 20
-15.5285
 30
0.0
 10
-2.47217
 20
-15.50911
 30
0.0
 10
-2.45984
 20
-15.49432
 30
0.0
 10
-2.45984
 20
-15.49432
 30
0.0
 10
-2.44751
 20
-15.47952
 30
0.0
 10
-2.42445
 20
-15.47212
 30
0.0
 10
-2.39062
 20
-15.47212
 30
0.0
 10
-2.39062
 20
-15.47212
 30
0.0
 10
-2.39062
 20
-15.47212
 30
0.0
 10
-2.04608
 20
-15.47212
 30
0.0
 10
-2.04608
 20
-15.47212
 30
0.0
 10
-2.04608
 20
-15.47212
 30
0.0
 10
-2.04608
 20
-15.47212
 30
0.0
 10
-2.04608
 20
-15.36009
 30
0.0
 10
-2.04608
 20
-15.36009
 30
0.0
 10
-2.04608
 20
-15.36009
 30
0.0
 10
-2.04608
 20
-15.36009
 30
0.0
 10
-2.37371
 20
-15.36009
 30
0.0
 10
-2.37371
 20
-15.36009
 30
0.0
 10
-2.37371
 20
-15.36009
 30
0.0
 10
-2.38217
 20
-15.36009
 30
0.0
 10
-2.39222
 20
-15.36027
 30
0.0
 10
-2.40384
 20
-15.36061
 30
0.0
 10
-2.40384
 20
-15.36061
 30
0.0
 10
-2.41546
 20
-15.36098
 30
0.0
 10
-2.42691
 20
-15.36256
 30
0.0
 10
-2.43819
 20
-15.36536
 30
0.0
 10
-2.43819
 20
-15.36536
 30
0.0
 10
-2.44382
 20
-15.3569
 30
0.0
 10
-2.44911
 20
-15.34705
 30
0.0
 10
-2.45404
 20
-15.33577
 30
0.0
 10
-2.45404
 20
-15.33577
 30
0.0
 10
-2.45897
 20
-15.3245
 30
0.0
 10
-2.4632
 20
-15.31288
 30
0.0
 10
-2.46673
 20
-15.30089
 30
0.0
 10
-2.46673
 20
-15.30089
 30
0.0
 10
-2.47024
 20
-15.28892
 30
0.0
 10
-2.47307
 20
-15.27712
 30
0.0
 10
-2.47518
 20
-15.26549
 30
0.0
 10
-2.47518
 20
-15.26549
 30
0.0
 10
-2.4773
 20
-15.25387
 30
0.0
 10
-2.47835
 20
-15.24313
 30
0.0
 10
-2.47835
 20
-15.23325
 30
0.0
 10
-2.47835
 20
-15.23325
 30
0.0
 10
-2.47835
 20
-15.19803
 30
0.0
 10
-2.47006
 20
-15.17496
 30
0.0
 10
-2.45352
 20
-15.16402
 30
0.0
 10
-2.45352
 20
-15.16402
 30
0.0
 10
-2.43696
 20
-15.15311
 30
0.0
 10
-2.41142
 20
-15.14765
 30
0.0
 10
-2.37689
 20
-15.14765
 30
0.0
 10
-2.37689
 20
-15.14765
 30
0.0
 10
-2.37689
 20
-15.14765
 30
0.0
 10
-2.11373
 20
-15.14765
 30
0.0
 10
-2.11373
 20
-15.14765
 30
0.0
 10
-2.11373
 20
-15.14765
 30
0.0
 10
-2.08836
 20
-15.14625
 30
0.0
 10
-2.0697
 20
-15.13972
 30
0.0
 10
-2.05772
 20
-15.1281
 30
0.0
 10
-2.05772
 20
-15.1281
 30
0.0
 10
-2.04574
 20
-15.11648
 30
0.0
 10
-2.03975
 20
-15.09482
 30
0.0
 10
-2.03975
 20
-15.0631
 30
0.0
 10
-2.03975
 20
-15.0631
 30
0.0
 10
-2.03975
 20
-15.04901
 30
0.0
 10
-2.04133
 20
-15.03282
 30
0.0
 10
-2.0445
 20
-15.01448
 30
0.0
 10
-2.0445
 20
-15.01448
 30
0.0
 10
-2.04767
 20
-14.99617
 30
0.0
 10
-2.05277
 20
-14.97926
 30
0.0
 10
-2.05983
 20
-14.96375
 30
0.0
 10
-2.05983
 20
-14.96375
 30
0.0
 10
-2.05983
 20
-14.96375
 30
0.0
 10
-2.12641
 20
-14.96375
 30
0.0
 10
-2.12641
 20
-14.96375
 30
0.0
 10
-2.12641
 20
-14.96375
 30
0.0
 10
-2.12641
 20
-14.96375
 30
0.0
 10
-2.12641
 20
-15.03562
 30
0.0
 10
-2.12641
 20
-15.03562
 30
0.0
 10
-2.12641
 20
-15.03562
 30
0.0
 10
-2.12641
 20
-15.03562
 30
0.0
 10
-2.12642
 20
-15.03562
 30
0.0
 10
-2.12642
 20
-15.03562
 30
0.0
  0
SPLINE
  5
99
330
1F
100
AcDbEntity
  8
Layer 1
 62
   235
370
    35
100
AcDbSpline
210
0.0
220
0.0
230
1.0
 70
    11
 71
     3
 72
    68
 73
    64
 74
     0
 42
0.0000000001
 43
0.0000000001
 40
0.0
 40
0.0
 40
0.0
 40
0.0
 40
0.0625
 40
0.0625
 40
0.0625
 40
0.0625
 40
0.125
 40
0.125
 40
0.125
 40
0.125
 40
0.1875
 40
0.1875
 40
0.1875
 40
0.1875
 40
0.25
 40
0.25
 40
0.25
 40
0.25
 40
0.3125
 40
0.3125
 40
0.3125
 40
0.3125
 40
0.375
 40
0.375
 40
0.375
 40
0.375
 40
0.4375
 40
0.4375
 40
0.4375
 40
0.4375
 40
0.5
 40
0.5
 40
0.5
 40
0.5
 40
0.5625
 40
0.5625
 40
0.5625
 40
0.5625
 40
0.625
 40
0.625
 40
0.625
 40
0.625
 40
0.6875
 40
0.6875
 40
0.6875
 40
0.6875
 40
0.75
 40
0.75
 40
0.75
 40
0.75
 40
0.8125
 40
0.8125
 40
0.8125
 40
0.8125
 40
0.875
 40
0.875
 40
0.875
 40
0.875
 40
0.9375
 40
0.9375
 40
0.9375
 40
0.9375
 40
1.0
 40
1.0
 40
1.0
 40
1.0
 10
-2.04556
 20
-14.85959
 30
0.0
 10
-2.04556
 20
-14.85959
 30
0.0
 10
-2.12694
 20
-14.85959
 30
0.0
 10
-2.12694
 20
-14.85959
 30
0.0
 10
-2.12694
 20
-14.85959
 30
0.0
 10
-2.12694
 20
-14.85959
 30
0.0
 10
-2.12694
 20
-14.77293
 30
0.0
 10
-2.12694
 20
-14.77293
 30
0.0
 10
-2.12694
 20
-14.77293
 30
0.0
 10
-2.12694
 20
-14.77293
 30
0.0
 10
-2.6892
 20
-14.77293
 30
0.0
 10
-2.6892
 20
-14.77293
 30
0.0
 10
-2.6892
 20
-14.77293
 30
0.0
 10
-2.6892
 20
-14.77293
 30
0.0
 10
-2.6892
 20
-14.92618
 30
0.0
 10
-2.6892
 20
-14.92618
 30
0.0
 10
-2.6892
 20
-14.92618
 30
0.0
 10
-2.6892
 20
-14.92618
 30
0.0
 10
-2.57294
 20
-14.92618
 30
0.0
 10
-2.57294
 20
-14.92618
 30
0.0
 10
-2.57294
 20
-14.92618
 30
0.0
 10
-2.57294
 20
-14.92618
 30
0.0
 10
-2.57294
 20
-15.01072
 30
0.0
 10
-2.57294
 20
-15.01072
 30
0.0
 10
-2.57294
 20
-15.01072
 30
0.0
 10
-2.57294
 20
-15.01072
 30
0.0
 10
-2.77058
 20
-15.01072
 30
0.0
 10
-2.77058
 20
-15.01072
 30
0.0
 10
-2.77058
 20
-15.01072
 30
0.0
 10
-2.77058
 20
-15.01072
 30
0.0
 10
-2.77058
 20
-14.42204
 30
0.0
 10
-2.77058
 20
-14.42204
 30
0.0
 10
-2.77058
 20
-14.42204
 30
0.0
 10
-2.77058
 20
-14.42204
 30
0.0
 10
-2.57294
 20
-14.42204
 30
0.0
 10
-2.57294
 20
-14.42204
 30
0.0
 10
-2.57294
 20
-14.42204
 30
0.0
 10
-2.57294
 20
-14.42204
 30
0.0
 10
-2.57294
 20
-14.5066
 30
0.0
 10
-2.57294
 20
-14.5066
 30
0.0
 10
-2.57294
 20
-14.5066
 30
0.0
 10
-2.57294
 20
-14.5066
 30
0.0
 10
-2.6892
 20
-14.5066
 30
0.0
 10
-2.6892
 20
-14.5066
 30
0.0
 10
-2.6892
 20
-14.5066
 30
0.0
 10
-2.6892
 20
-14.5066
 30
0.0
 10
-2.6892
 20
-14.65773
 30
0.0
 10
-2.6892
 20
-14.65773
 30
0.0
 10
-2.6892
 20
-14.65773
 30
0.0
 10
-2.6892
 20
-14.65773
 30
0.0
 10
-2.12694
 20
-14.65773
 30
0.0
 10
-2.12694
 20
-14.65773
 30
0.0
 10
-2.12694
 20
-14.65773
 30
0.0
 10
-2.12694
 20
-14.65773
 30
0.0
 10
-2.12694
 20
-14.57106
 30
0.0
 10
-2.12694
 20
-14.57106
 30
0.0
 10
-2.12694
 20
-14.57106
 30
0.0
 10
-2.12694
 20
-14.57106
 30
0.0
 10
-2.04556
 20
-14.57106
 30
0.0
 10
-2.04556
 20
-14.57106
 30
0.0
 10
-2.04556
 20
-14.57106
 30
0.0
 10
-2.04556
 20
-14.57106
 30
0.0
 10
-2.04556
 20
-14.85959
 30
0.0
 10
-2.04556
 20
-14.85959
 30
0.0
  0
SPLINE
  5
9A
330
1F
100
AcDbEntity
  8
Layer 1
 62
   235
370
    35
100
AcDbSpline
210
0.0
220
0.0
230
1.0
 70
    11
 71
     3
 72
   108
 73
   104
 74
     0
 42
0.0000000001
 43
0.0000000001
 40
0.0
 40
0.0
 40
0.0
 40
0.0
 40
0.0384615384615385
 40
0.0384615384615385
 40
0.0384615384615385
 40
0.0384615384615385
 40
0.0769230769230769
 40
0.0769230769230769
 40
0.0769230769230769
 40
0.0769230769230769
 40
0.1153846153846154
 40
0.1153846153846154
 40
0.1153846153846154
 40
0.1153846153846154
 40
0.1538461538461539
 40
0.1538461538461539
 40
0.1538461538461539
 40
0.1538461538461539
 40
0.1923076923076923
 40
0.1923076923076923
 40
0.1923076923076923
 40
0.1923076923076923
 40
0.2307692307692308
 40
0.2307692307692308
 40
0.2307692307692308
 40
0.2307692307692308
 40
0.2692307692307693
 40
0.2692307692307693
 40
0.2692307692307693
 40
0.2692307692307693
 40
0.3076923076923077
 40
0.3076923076923077
 40
0.3076923076923077
 40
0.3076923076923077
 40
0.3461538461538461
 40
0.3461538461538461
 40
0.3461538461538461
 40
0.3461538461538461
 40
0.3846153846153846
 40
0.3846153846153846
 40
0.3846153846153846
 40
0.3846153846153846
 40
0.423076923076923
 40
0.423076923076923
 40
0.423076923076923
 40
0.423076923076923
 40
0.4615384615384615
 40
0.4615384615384615
 40
0.4615384615384615
 40
0.4615384615384615
 40
0.4999999999999999
 40
0.4999999999999999
 40
0.4999999999999999
 40
0.4999999999999999
 40
0.5384615384615383
 40
0.5384615384615383
 40
0.5384615384615383
 40
0.5384615384615383
 40
0.5769230769230768
 40
0.5769230769230768
 40
0.5769230769230768
 40
0.5769230769230768
 40
0.6153846153846152
 40
0.6153846153846152
 40
0.6153846153846152
 40
0.6153846153846152
 40
0.6538461538461536
 40
0.6538461538461536
 40
0.6538461538461536
 40
0.6538461538461536
 40
0.6923076923076921
 40
0.6923076923076921
 40
0.6923076923076921
 40
0.6923076923076921
 40
0.7307692307692305
 40
0.7307692307692305
 40
0.7307692307692305
 40
0.7307692307692305
 40
0.7692307692307689
 40
0.7692307692307689
 40
0.7692307692307689
 40
0.7692307692307689
 40
0.8076923076923074
 40
0.8076923076923074
 40
0.8076923076923074
 40
0.8076923076923074
 40
0.8461538461538458
 40
0.8461538461538458
 40
0.8461538461538458
 40
0.8461538461538458
 40
0.8846153846153842
 40
0.8846153846153842
 40
0.8846153846153842
 40
0.8846153846153842
 40
0.9230769230769227
 40
0.9230769230769227
 40
0.9230769230769227
 40
0.9230769230769227
 40
0.9615384615384611
 40
0.9615384615384611
 40
0.9615384615384611
 40
0.9615384615384611
 40
1.0
 40
1.0
 40
1.0
 40
1.0
 10
-2.35627
 20
-14.22701
 30
0.0
 10
-2.35627
 20
-14.22701
 30
0.0
 10
-2.12693
 20
-14.22701
 30
0.0
 10
-2.12693
 20
-14.22701
 30
0.0
 10
-2.12693
 20
-14.22701
 30
0.0
 10
-2.12693
 20
-14.22701
 30
0.0
 10
-2.12693
 20
-14.14563
 30
0.0
 10
-2.12693
 20
-14.14563
 30
0.0
 10
-2.12693
 20
-14.14563
 30
0.0
 10
-2.12693
 20
-14.14563
 30
0.0
 10
-2.04553
 20
-14.14563
 30
0.0
 10
-2.04553
 20
-14.14563
 30
0.0
 10
-2.04553
 20
-14.14563
 30
0.0
 10
-2.04553
 20
-14.14563
 30
0.0
 10
-2.04554
 20
-14.41091
 30
0.0
 10
-2.04554
 20
-14.41091
 30
0.0
 10
-2.04554
 20
-14.41091
 30
0.0
 10
-2.04554
 20
-14.41091
 30
0.0
 10
-2.12693
 20
-14.41091
 30
0.0
 10
-2.12693
 20
-14.41091
 30
0.0
 10
-2.12693
 20
-14.41091
 30
0.0
 10
-2.12693
 20
-14.41091
 30
0.0
 10
-2.12693
 20
-14.34327
 30
0.0
 10
-2.12693
 20
-14.34327
 30
0.0
 10
-2.12693
 20
-14.34327
 30
0.0
 10
-2.12693
 20
-14.34327
 30
0.0
 10
-2.68919
 20
-14.34327
 30
0.0
 10
-2.68919
 20
-14.34327
 30
0.0
 10
-2.68919
 20
-14.34327
 30
0.0
 10
-2.68919
 20
-14.34327
 30
0.0
 10
-2.68919
 20
-14.41091
 30
0.0
 10
-2.68919
 20
-14.41091
 30
0.0
 10
-2.68919
 20
-14.41091
 30
0.0
 10
-2.68919
 20
-14.41091
 30
0.0
 10
-2.77058
 20
-14.41091
 30
0.0
 10
-2.77058
 20
-14.41091
 30
0.0
 10
-2.77058
 20
-14.41091
 30
0.0
 10
-2.77058
 20
-14.41091
 30
0.0
 10
-2.77058
 20
-14.0801
 30
0.0
 10
-2.77058
 20
-14.0801
 30
0.0
 10
-2.77058
 20
-14.0801
 30
0.0
 10
-2.77058
 20
-14.00612
 30
0.0
 10
-2.75292
 20
-13.94905
 30
0.0
 10
-2.71766
 20
-13.90889
 30
0.0
 10
-2.71766
 20
-13.90889
 30
0.0
 10
-2.68235
 20
-13.86873
 30
0.0
 10
-2.63154
 20
-13.84865
 30
0.0
 10
-2.5652
 20
-13.84865
 30
0.0
 10
-2.5652
 20
-13.84865
 30
0.0
 10
-2.54827
 20
-13.84865
 30
0.0
 10
-2.53027
 20
-13.85076
 30
0.0
 10
-2.51121
 20
-13.85499
 30
0.0
 10
-2.51121
 20
-13.85499
 30
0.0
 10
-2.49215
 20
-13.85922
 30
0.0
 10
-2.47364
 20
-13.86645
 30
0.0
 10
-2.45563
 20
-13.87666
 30
0.0
 10
-2.45563
 20
-13.87666
 30
0.0
 10
-2.43763
 20
-13.88689
 30
0.0
 10
-2.4214
 20
-13.90044
 30
0.0
 10
-2.40693
 20
-13.91735
 30
0.0
 10
-2.40693
 20
-13.91735
 30
0.0
 10
-2.39247
 20
-13.93426
 30
0.0
 10
-2.38135
 20
-13.95505
 30
0.0
 10
-2.37358
 20
-13.9797
 30
0.0
 10
-2.37358
 20
-13.9797
 30
0.0
 10
-2.37358
 20
-13.9797
 30
0.0
 10
-2.11821
 20
-13.86233
 30
0.0
 10
-2.11821
 20
-13.86233
 30
0.0
 10
-2.11821
 20
-13.86233
 30
0.0
 10
-2.11821
 20
-13.86233
 30
0.0
 10
-2.12506
 20
-13.81335
 30
0.0
 10
-2.12506
 20
-13.81335
 30
0.0
 10
-2.12506
 20
-13.81335
 30
0.0
 10
-2.12506
 20
-13.81335
 30
0.0
 10
-2.04368
 20
-13.81335
 30
0.0
 10
-2.04368
 20
-13.81335
 30
0.0
 10
-2.04368
 20
-13.81335
 30
0.0
 10
-2.0413
 20
-13.81866
 30
0.0
 10
-2.04049
 20
-13.82101
 30
0.0
 10
-2.03766
 20
-13.83966
 30
0.0
 10
-2.03766
 20
-13.83966
 30
0.0
 10
-2.03486
 20
-13.85834
 30
0.0
 10
-2.03391
 20
-13.8705
 30
0.0
 10
-2.03391
 20
-13.88246
 30
0.0
 10
-2.03391
 20
-13.88246
 30
0.0
 10
-2.03391
 20
-13.90783
 30
0.0
 10
-2.03955
 20
-13.9265
 30
0.0
 10
-2.05082
 20
-13.93847
 30
0.0
 10
-2.05082
 20
-13.93847
 30
0.0
 10
-2.06209
 20
-13.95046
 30
0.0
 10
-2.0783
 20
-13.96138
 30
0.0
 10
-2.09944
 20
-13.97124
 30
0.0
 10
-2.09944
 20
-13.97124
 30
0.0
 10
-2.09944
 20
-13.97124
 30
0.0
 10
-2.35626
 20
-14.08432
 30
0.0
 10
-2.35626
 20
-14.08432
 30
0.0
 10
-2.35626
 20
-14.08432
 30
0.0
 10
-2.35626
 20
-14.08432
 30
0.0
 10
-2.35626
 20
-14.22701
 30
0.0
 10
-2.35626
 20
-14.22701
 30
0.0
 10
-2.35626
 20
-14.22701
 30
0.0
 10
-2.35626
 20
-14.22701
 30
0.0
 10
-2.35627
 20
-14.22701
 30
0.0
 10
-2.35627
 20
-14.22701
 30
0.0
  0
SPLINE
  5
9B
330
1F
100
AcDbEntity
  8
Layer 1
 62
   235
370
    35
100
AcDbSpline
210
0.0
220
0.0
230
1.0
 70
    11
 71
     3
 72
    48
 73
    44
 74
     0
 42
0.0000000001
 43
0.0000000001
 40
0.0
 40
0.0
 40
0.0
 40
0.0
 40
0.0909090909090909
 40
0.0909090909090909
 40
0.0909090909090909
 40
0.0909090909090909
 40
0.1818181818181818
 40
0.1818181818181818
 40
0.1818181818181818
 40
0.1818181818181818
 40
0.2727272727272727
 40
0.2727272727272727
 40
0.2727272727272727
 40
0.2727272727272727
 40
0.3636363636363636
 40
0.3636363636363636
 40
0.3636363636363636
 40
0.3636363636363636
 40
0.4545454545454546
 40
0.4545454545454546
 40
0.4545454545454546
 40
0.4545454545454546
 40
0.5454545454545455
 40
0.5454545454545455
 40
0.5454545454545455
 40
0.5454545454545455
 40
0.6363636363636365
 40
0.6363636363636365
 40
0.6363636363636365
 40
0.6363636363636365
 40
0.7272727272727274
 40
0.7272727272727274
 40
0.7272727272727274
 40
0.7272727272727274
 40
0.8181818181818183
 40
0.8181818181818183
 40
0.8181818181818183
 40
0.8181818181818183
 40
0.9090909090909093
 40
0.9090909090909093
 40
0.9090909090909093
 40
0.9090909090909093
 40
1.0
 40
1.0
 40
1.0
 40
1.0
 10
-2.56502
 20
-13.97019
 30
0.0
 10
-2.58764
 20
-13.97019
 30
0.0
 10
-2.60693
 20
-13.97372
 30
0.0
 10
-2.62285
 20
-13.98076
 30
0.0
 10
-2.62285
 20
-13.98076
 30
0.0
 10
-2.63876
 20
-13.98781
 30
0.0
 10
-2.65168
 20
-13.99714
 30
0.0
 10
-2.66159
 20
-14.00876
 30
0.0
 10
-2.66159
 20
-14.00876
 30
0.0
 10
-2.67149
 20
-14.02038
 30
0.0
 10
-2.67857
 20
-14.03413
 30
0.0
 10
-2.68281
 20
-14.04998
 30
0.0
 10
-2.68281
 20
-14.04998
 30
0.0
 10
-2.68705
 20
-14.06583
 30
0.0
 10
-2.68919
 20
-14.08222
 30
0.0
 10
-2.68919
 20
-14.09913
 30
0.0
 10
-2.68919
 20
-14.09913
 30
0.0
 10
-2.68919
 20
-14.09913
 30
0.0
 10
-2.68919
 20
-14.22701
 30
0.0
 10
-2.68919
 20
-14.22701
 30
0.0
 10
-2.68919
 20
-14.22701
 30
0.0
 10
-2.68919
 20
-14.22701
 30
0.0
 10
-2.43554
 20
-14.22701
 30
0.0
 10
-2.43554
 20
-14.22701
 30
0.0
 10
-2.43554
 20
-14.22701
 30
0.0
 10
-2.43554
 20
-14.22701
 30
0.0
 10
-2.43554
 20
-14.09913
 30
0.0
 10
-2.43554
 20
-14.09913
 30
0.0
 10
-2.43554
 20
-14.09913
 30
0.0
 10
-2.43554
 20
-14.08504
 30
0.0
 10
-2.4373
 20
-14.07042
 30
0.0
 10
-2.44083
 20
-14.05527
 30
0.0
 10
-2.44083
 20
-14.05527
 30
0.0
 10
-2.44437
 20
-14.04013
 30
0.0
 10
-2.45093
 20
-14.0262
 30
0.0
 10
-2.46047
 20
-14.01352
 30
0.0
 10
-2.46047
 20
-14.01352
 30
0.0
 10
-2.47001
 20
-14.00083
 30
0.0
 10
-2.48311
 20
-13.99044
 30
0.0
 10
-2.49974
 20
-13.98235
 30
0.0
 10
-2.49974
 20
-13.98235
 30
0.0
 10
-2.51636
 20
-13.97425
 30
0.0
 10
-2.53813
 20
-13.97019
 30
0.0
 10
-2.56502
 20
-13.97019
 30
0.0
  0
SPLINE
  5
9C
330
1F
100
AcDbEntity
  8
Layer 1
 62
   235
370
    35
100
AcDbSpline
210
0.0
220
0.0
230
1.0
 70
    11
 71
     3
 72
   116
 73
   112
 74
     0
 42
0.0000000001
 43
0.0000000001
 40
0.0
 40
0.0
 40
0.0
 40
0.0
 40
0.0357142857142857
 40
0.0357142857142857
 40
0.0357142857142857
 40
0.0357142857142857
 40
0.0714285714285714
 40
0.0714285714285714
 40
0.0714285714285714
 40
0.0714285714285714
 40
0.1071428571428571
 40
0.1071428571428571
 40
0.1071428571428571
 40
0.1071428571428571
 40
0.1428571428571428
 40
0.1428571428571428
 40
0.1428571428571428
 40
0.1428571428571428
 40
0.1785714285714285
 40
0.1785714285714285
 40
0.1785714285714285
 40
0.1785714285714285
 40
0.2142857142857142
 40
0.2142857142857142
 40
0.2142857142857142
 40
0.2142857142857142
 40
0.2499999999999999
 40
0.2499999999999999
 40
0.2499999999999999
 40
0.2499999999999999
 40
0.2857142857142856
 40
0.2857142857142856
 40
0.2857142857142856
 40
0.2857142857142856
 40
0.3214285714285713
 40
0.3214285714285713
 40
0.3214285714285713
 40
0.3214285714285713
 40
0.357142857142857
 40
0.357142857142857
 40
0.357142857142857
 40
0.357142857142857
 40
0.3928571428571427
 40
0.3928571428571427
 40
0.3928571428571427
 40
0.3928571428571427
 40
0.4285714285714284
 40
0.4285714285714284
 40
0.4285714285714284
 40
0.4285714285714284
 40
0.4642857142857141
 40
0.4642857142857141
 40
0.4642857142857141
 40
0.4642857142857141
 40
0.4999999999999998
 40
0.4999999999999998
 40
0.4999999999999998
 40
0.4999999999999998
 40
0.5357142857142856
 40
0.5357142857142856
 40
0.5357142857142856
 40
0.5357142857142856
 40
0.5714285714285713
 40
0.5714285714285713
 40
0.5714285714285713
 40
0.5714285714285713
 40
0.607142857142857
 40
0.607142857142857
 40
0.607142857142857
 40
0.607142857142857
 40
0.6428571428571427
 40
0.6428571428571427
 40
0.6428571428571427
 40
0.6428571428571427
 40
0.6785714285714284
 40
0.6785714285714284
 40
0.6785714285714284
 40
0.6785714285714284
 40
0.7142857142857141
 40
0.7142857142857141
 40
0.7142857142857141
 40
0.7142857142857141
 40
0.7499999999999998
 40
0.7499999999999998
 40
0.7499999999999998
 40
0.7499999999999998
 40
0.7857142857142855
 40
0.7857142857142855
 40
0.7857142857142855
 40
0.7857142857142855
 40
0.8214285714285712
 40
0.8214285714285712
 40
0.8214285714285712
 40
0.8214285714285712
 40
0.8571428571428569
 40
0.8571428571428569
 40
0.8571428571428569
 40
0.8571428571428569
 40
0.8928571428571426
 40
0.8928571428571426
 40
0.8928571428571426
 40
0.8928571428571426
 40
0.9285714285714283
 40
0.9285714285714283
 40
0.9285714285714283
 40
0.9285714285714283
 40
0.964285714285714
 40
0.964285714285714
 40
0.964285714285714
 40
0.964285714285714
 40
1.0
 40
1.0
 40
1.0
 40
1.0
 10
-2.77058
 20
-13.39003
 30
0.0
 10
-2.77058
 20
-13.39003
 30
0.0
 10
-2.77058
 20
-13.14906
 30
0.0
 10
-2.77058
 20
-13.14906
 30
0.0
 10
-2.77058
 20
-13.14906
 30
0.0
 10
-2.77058
 20
-13.14906
 30
0.0
 10
-2.68709
 20
-13.14906
 30
0.0
 10
-2.68709
 20
-13.14906
 30
0.0
 10
-2.68709
 20
-13.14906
 30
0.0
 10
-2.68709
 20
-13.14906
 30
0.0
 10
-2.68709
 20
-13.21565
 30
0.0
 10
-2.68709
 20
-13.21565
 30
0.0
 10
-2.68709
 20
-13.21565
 30
0.0
 10
-2.68709
 20
-13.21565
 30
0.0
 10
-2.41706
 20
-13.39743
 30
0.0
 10
-2.41706
 20
-13.39743
 30
0.0
 10
-2.41706
 20
-13.39743
 30
0.0
 10
-2.41706
 20
-13.39743
 30
0.0
 10
-2.12693
 20
-13.21036
 30
0.0
 10
-2.12693
 20
-13.21036
 30
0.0
 10
-2.12693
 20
-13.21036
 30
0.0
 10
-2.12693
 20
-13.21036
 30
0.0
 10
-2.12693
 20
-13.14061
 30
0.0
 10
-2.12693
 20
-13.14061
 30
0.0
 10
-2.12693
 20
-13.14061
 30
0.0
 10
-2.12693
 20
-13.14061
 30
0.0
 10
-2.04555
 20
-13.13956
 30
0.0
 10
-2.04555
 20
-13.13956
 30
0.0
 10
-2.04555
 20
-13.13956
 30
0.0
 10
-2.04555
 20
-13.13956
 30
0.0
 10
-2.04555
 20
-13.41328
 30
0.0
 10
-2.04555
 20
-13.41328
 30
0.0
 10
-2.04555
 20
-13.41328
 30
0.0
 10
-2.04555
 20
-13.41328
 30
0.0
 10
-2.12693
 20
-13.41328
 30
0.0
 10
-2.12693
 20
-13.41328
 30
0.0
 10
-2.12693
 20
-13.41328
 30
0.0
 10
-2.12693
 20
-13.41328
 30
0.0
 10
-2.12693
 20
-13.3467
 30
0.0
 10
-2.12693
 20
-13.3467
 30
0.0
 10
-2.12693
 20
-13.3467
 30
0.0
 10
-2.12693
 20
-13.3467
 30
0.0
 10
-2.34993
 20
-13.48515
 30
0.0
 10
-2.34993
 20
-13.48515
 30
0.0
 10
-2.34993
 20
-13.48515
 30
0.0
 10
-2.34993
 20
-13.48515
 30
0.0
 10
-2.12693
 20
-13.62677
 30
0.0
 10
-2.12693
 20
-13.62677
 30
0.0
 10
-2.12693
 20
-13.62677
 30
0.0
 10
-2.12693
 20
-13.62677
 30
0.0
 10
-2.12693
 20
-13.55702
 30
0.0
 10
-2.12693
 20
-13.55702
 30
0.0
 10
-2.12693
 20
-13.55702
 30
0.0
 10
-2.12693
 20
-13.55702
 30
0.0
 10
-2.04555
 20
-13.55702
 30
0.0
 10
-2.04555
 20
-13.55702
 30
0.0
 10
-2.04555
 20
-13.55702
 30
0.0
 10
-2.04555
 20
-13.55702
 30
0.0
 10
-2.04555
 20
-13.80222
 30
0.0
 10
-2.04555
 20
-13.80222
 30
0.0
 10
-2.04555
 20
-13.80222
 30
0.0
 10
-2.04555
 20
-13.80222
 30
0.0
 10
-2.12693
 20
-13.80222
 30
0.0
 10
-2.12693
 20
-13.80222
 30
0.0
 10
-2.12693
 20
-13.80222
 30
0.0
 10
-2.12693
 20
-13.80222
 30
0.0
 10
-2.12693
 20
-13.73774
 30
0.0
 10
-2.12693
 20
-13.73774
 30
0.0
 10
-2.12693
 20
-13.73774
 30
0.0
 10
-2.12693
 20
-13.73774
 30
0.0
 10
-2.4213
 20
-13.54433
 30
0.0
 10
-2.4213
 20
-13.54433
 30
0.0
 10
-2.4213
 20
-13.54433
 30
0.0
 10
-2.4213
 20
-13.54433
 30
0.0
 10
-2.68709
 20
-13.71025
 30
0.0
 10
-2.68709
 20
-13.71025
 30
0.0
 10
-2.68709
 20
-13.71025
 30
0.0
 10
-2.68709
 20
-13.71025
 30
0.0
 10
-2.68709
 20
-13.78635
 30
0.0
 10
-2.68709
 20
-13.78635
 30
0.0
 10
-2.68709
 20
-13.78635
 30
0.0
 10
-2.68709
 20
-13.78635
 30
0.0
 10
-2.77058
 20
-13.78531
 30
0.0
 10
-2.77058
 20
-13.78531
 30
0.0
 10
-2.77058
 20
-13.78531
 30
0.0
 10
-2.77058
 20
-13.78531
 30
0.0
 10
-2.77058
 20
-13.51686
 30
0.0
 10
-2.77058
 20
-13.51686
 30
0.0
 10
-2.77058
 20
-13.51686
 30
0.0
 10
-2.77058
 20
-13.51686
 30
0.0
 10
-2.68709
 20
-13.51686
 30
0.0
 10
-2.68709
 20
-13.51686
 30
0.0
 10
-2.68709
 20
-13.51686
 30
0.0
 10
-2.68709
 20
-13.51686
 30
0.0
 10
-2.68709
 20
-13.57816
 30
0.0
 10
-2.68709
 20
-13.57816
 30
0.0
 10
-2.68709
 20
-13.57816
 30
0.0
 10
-2.68709
 20
-13.57816
 30
0.0
 10
-2.48628
 20
-13.4545
 30
0.0
 10
-2.48628
 20
-13.4545
 30
0.0
 10
-2.48628
 20
-13.4545
 30
0.0
 10
-2.48628
 20
-13.4545
 30
0.0
 10
-2.68709
 20
-13.32662
 30
0.0
 10
-2.68709
 20
-13.32662
 30
0.0
 10
-2.68709
 20
-13.32662
 30
0.0
 10
-2.68709
 20
-13.32662
 30
0.0
 10
-2.68709
 20
-13.39003
 30
0.0
 10
-2.68709
 20
-13.39003
 30
0.0
 10
-2.68709
 20
-13.39003
 30
0.0
 10
-2.68709
 20
-13.39003
 30
0.0
 10
-2.77058
 20
-13.39003
 30
0.0
 10
-2.77058
 20
-13.39003
 30
0.0
  0
SPLINE
  5
9D
330
1F
100
AcDbEntity
  8
Layer 1
370
    53
100
AcDbSpline
210
0.0
220
0.0
230
1.0
 70
    11
 71
     3
 72
    36
 73
    32
 74
     0
 42
0.0000000001
 43
0.0000000001
 40
0.0
 40
0.0
 40
0.0
 40
0.0
 40
0.125
 40
0.125
 40
0.125
 40
0.125
 40
0.25
 40
0.25
 40
0.25
 40
0.25
 40
0.375
 40
0.375
 40
0.375
 40
0.375
 40
0.5
 40
0.5
 40
0.5
 40
0.5
 40
0.625
 40
0.625
 40
0.625
 40
0.625
 40
0.75
 40
0.75
 40
0.75
 40
0.75
 40
0.875
 40
0.875
 40
0.875
 40
0.875
 40
1.0
 40
1.0
 40
1.0
 40
1.0
 10
-0.69997
 20
-8.34994
 30
0.0
 10
-0.69997
 20
-8.34994
 30
0.0
 10
16.29996
 20
-8.34994
 30
0.0
 10
16.29996
 20
-8.34994
 30
0.0
 10
16.29996
 20
-8.34994
 30
0.0
 10
16.57696
 20
-8.34994
 30
0.0
 10
16.80006
 20
-8.57303
 30
0.0
 10
16.80006
 20
-8.85004
 30
0.0
 10
16.80006
 20
-8.85004
 30
0.0
 10
16.80006
 20
-8.85004
 30
0.0
 10
16.80006
 20
-20.84996
 30
0.0
 10
16.80006
 20
-20.84996
 30
0.0
 10
16.80006
 20
-20.84996
 30
0.0
 10
16.80006
 20
-21.12696
 30
0.0
 10
16.57696
 20
-21.35006
 30
0.0
 10
16.29996
 20
-21.35006
 30
0.0
 10
16.29996
 20
-21.35006
 30
0.0
 10
16.29996
 20
-21.35006
 30
0.0
 10
-0.69997
 20
-21.35006
 30
0.0
 10
-0.69997
 20
-21.35006
 30
0.0
 10
-0.69997
 20
-21.35006
 30
0.0
 10
-0.97697
 20
-21.35006
 30
0.0
 10
-1.20006
 20
-21.12696
 30
0.0
 10
-1.20006
 20
-20.84996
 30
0.0
 10
-1.20006
 20
-20.84996
 30
0.0
 10
-1.20006
 20
-20.84996
 30
0.0
 10
-1.20006
 20
-8.85004
 30
0.0
 10
-1.20006
 20
-8.85004
 30
0.0
 10
-1.20006
 20
-8.85004
 30
0.0
 10
-1.20006
 20
-8.57303
 30
0.0
 10
-0.97697
 20
-8.34994
 30
0.0
 10
-0.69997
 20
-8.34994
 30
0.0
  0
ELLIPSE
  5
9E
330
1F
100
AcDbEntity
  8
Layer 1
 62
   250
370
    35
100
AcDbEllipse
 10
14.925
 20
-19.29464
 30
0.0
 11
0.0
 21
0.15
 31
0.0
210
0.0
220
0.0
230
1.0
 40
1.0
 41
0.0
 42
6.283185307179586
  0
ELLIPSE
  5
9F
330
1F
100
AcDbEntity
  8
Layer 1
 62
   250
370
    35
100
AcDbEllipse
 10
14.925
 20
-10.39937
 30
0.0
 11
0.0
 21
0.15
 31
0.0
210
0.0
220
0.0
230
1.0
 40
1.0
 41
0.0
 42
6.283185307179586
  0
LWPOLYLINE
  5
A0
330
1F
100
AcDbEntity
  8
Layer 1
 62
    30
370
    35
100
AcDbPolyline
 90
        5
 70
     1
 43
0.0
 10
-0.7
 20
-19.85
 10
15.3
 20
-19.85
 10
15.3
 20
-9.85
 10
-0.7
 20
-9.85
 10
-0.7
 20
-19.85
  0
SPLINE
  5
A1
330
1F
100
AcDbEntity
  8
Layer 1
370
    53
100
AcDbSpline
210
0.0
220
0.0
230
1.0
 70
    11
 71
     3
 72
    20
 73
    16
 74
     0
 42
0.0000000001
 43
0.0000000001
 40
0.0
 40
0.0
 40
0.0
 40
0.0
 40
0.25
 40
0.25
 40
0.25
 40
0.25
 40
0.5
 40
0.5
 40
0.5
 40
0.5
 40
0.75
 40
0.75
 40
0.75
 40
0.75
 40
1.0
 40
1.0
 40
1.0
 40
1.0
 10
12.99998
 20
-9.2
 30
0.0
 10
12.99998
 20
-9.2
 30
0.0
 10
13.59998
 20
-9.2
 30
0.0
 10
13.59998
 20
-9.2
 30
0.0
 10
13.59998
 20
-9.2
 30
0.0
 10
13.59998
 20
-9.2
 30
0.0
 10
13.59998
 20
-9.50001
 30
0.0
 10
13.59998
 20
-9.50001
 30
0.0
 10
13.59998
 20
-9.50001
 30
0.0
 10
13.59998
 20
-9.50001
 30
0.0
 10
12.99998
 20
-9.50001
 30
0.0
 10
12.99998
 20
-9.50001
 30
0.0
 10
12.99998
 20
-9.50001
 30
0.0
 10
12.99998
 20
-9.50001
 30
0.0
 10
12.99998
 20
-9.2
 30
0.0
 10
12.99998
 20
-9.2
 30
0.0
  0
SPLINE
  5
A2
330
1F
100
AcDbEntity
  8
Layer 1
370
    53
100
AcDbSpline
210
0.0
220
0.0
230
1.0
 70
    11
 71
     3
 72
    20
 73
    16
 74
     0
 42
0.0000000001
 43
0.0000000001
 40
0.0
 40
0.0
 40
0.0
 40
0.0
 40
0.25
 40
0.25
 40
0.25
 40
0.25
 40
0.5
 40
0.5
 40
0.5
 40
0.5
 40
0.75
 40
0.75
 40
0.75
 40
0.75
 40
1.0
 40
1.0
 40
1.0
 40
1.0
 10
11.00001
 20
-9.2
 30
0.0
 10
11.00001
 20
-9.2
 30
0.0
 10
11.60002
 20
-9.2
 30
0.0
 10
11.60002
 20
-9.2
 30
0.0
 10
11.60002
 20
-9.2
 30
0.0
 10
11.60002
 20
-9.2
 30
0.0
 10
11.60002
 20
-9.50001
 30
0.0
 10
11.60002
 20
-9.50001
 30
0.0
 10
11.60002
 20
-9.50001
 30
0.0
 10
11.60002
 20
-9.50001
 30
0.0
 10
11.00001
 20
-9.50001
 30
0.0
 10
11.00001
 20
-9.50001
 30
0.0
 10
11.00001
 20
-9.50001
 30
0.0
 10
11.00001
 20
-9.50001
 30
0.0
 10
11.00001
 20
-9.2
 30
0.0
 10
11.00001
 20
-9.2
 30
0.0
  0
SPLINE
  5
A3
330
1F
100
AcDbEntity
  8
Layer 1
370
    53
100
AcDbSpline
210
0.0
220
0.0
230
1.0
 70
    11
 71
     3
 72
    20
 73
    16
 74
     0
 42
0.0000000001
 43
0.0000000001
 40
0.0
 40
0.0
 40
0.0
 40
0.0
 40
0.25
 40
0.25
 40
0.25
 40
0.25
 40
0.5
 40
0.5
 40
0.5
 40
0.5
 40
0.75
 40
0.75
 40
0.75
 40
0.75
 40
1.0
 40
1.0
 40
1.0
 40
1.0
 10
12.99998
 20
-20.2
 30
0.0
 10
12.99998
 20
-20.2
 30
0.0
 10
13.59998
 20
-20.2
 30
0.0
 10
13.59998
 20
-20.2
 30
0.0
 10
13.59998
 20
-20.2
 30
0.0
 10
13.59998
 20
-20.2
 30
0.0
 10
13.59998
 20
-20.50001
 30
0.0
 10
13.59998
 20
-20.50001
 30
0.0
 10
13.59998
 20
-20.50001
 30
0.0
 10
13.59998
 20
-20.50001
 30
0.0
 10
12.99998
 20
-20.50001
 30
0.0
 10
12.99998
 20
-20.50001
 30
0.0
 10
12.99998
 20
-20.50001
 30
0.0
 10
12.99998
 20
-20.50001
 30
0.0
 10
12.99998
 20
-20.2
 30
0.0
 10
12.99998
 20
-20.2
 30
0.0
  0
SPLINE
  5
A4
330
1F
100
AcDbEntity
  8
Layer 1
370
    53
100
AcDbSpline
210
0.0
220
0.0
230
1.0
 70
    11
 71
     3
 72
    20
 73
    16
 74
     0
 42
0.0000000001
 43
0.0000000001
 40
0.0
 40
0.0
 40
0.0
 40
0.0
 40
0.25
 40
0.25
 40
0.25
 40
0.25
 40
0.5
 40
0.5
 40
0.5
 40
0.5
 40
0.75
 40
0.75
 40
0.75
 40
0.75
 40
1.0
 40
1.0
 40
1.0
 40
1.0
 10
11.00001
 20
-20.2
 30
0.0
 10
11.00001
 20
-20.2
 30
0.0
 10
11.60002
 20
-20.2
 30
0.0
 10
11.60002
 20
-20.2
 30
0.0
 10
11.60002
 20
-20.2
 30
0.0
 10
11.60002
 20
-20.2
 30
0.0
 10
11.60002
 20
-20.50001
 30
0.0
 10
11.60002
 20
-20.50001
 30
0.0
 10
11.60002
 20
-20.50001
 30
0.0
 10
11.60002
 20
-20.50001
 30
0.0
 10
11.00001
 20
-20.50001
 30
0.0
 10
11.00001
 20
-20.50001
 30
0.0
 10
11.00001
 20
-20.50001
 30
0.0
 10
11.00001
 20
-20.50001
 30
0.0
 10
11.00001
 20
-20.2
 30
0.0
 10
11.00001
 20
-20.2
 30
0.0
  0
SPLINE
  5
A5
330
1F
100
AcDbEntity
  8
Layer 1
370
    53
100
AcDbSpline
210
0.0
220
0.0
230
1.0
 70
    11
 71
     3
 72
    20
 73
    16
 74
     0
 42
0.0000000001
 43
0.0000000001
 40
0.0
 40
0.0
 40
0.0
 40
0.0
 40
0.25
 40
0.25
 40
0.25
 40
0.25
 40
0.5
 40
0.5
 40
0.5
 40
0.5
 40
0.75
 40
0.75
 40
0.75
 40
0.75
 40
1.0
 40
1.0
 40
1.0
 40
1.0
 10
9.00001
 20
-9.2
 30
0.0
 10
9.00001
 20
-9.2
 30
0.0
 10
9.60002
 20
-9.2
 30
0.0
 10
9.60002
 20
-9.2
 30
0.0
 10
9.60002
 20
-9.2
 30
0.0
 10
9.60002
 20
-9.2
 30
0.0
 10
9.60002
 20
-9.50001
 30
0.0
 10
9.60002
 20
-9.50001
 30
0.0
 10
9.60002
 20
-9.50001
 30
0.0
 10
9.60002
 20
-9.50001
 30
0.0
 10
9.00001
 20
-9.50001
 30
0.0
 10
9.00001
 20
-9.50001
 30
0.0
 10
9.00001
 20
-9.50001
 30
0.0
 10
9.00001
 20
-9.50001
 30
0.0
 10
9.00001
 20
-9.2
 30
0.0
 10
9.00001
 20
-9.2
 30
0.0
  0
SPLINE
  5
A6
330
1F
100
AcDbEntity
  8
Layer 1
370
    53
100
AcDbSpline
210
0.0
220
0.0
230
1.0
 70
    11
 71
     3
 72
    20
 73
    16
 74
     0
 42
0.0000000001
 43
0.0000000001
 40
0.0
 40
0.0
 40
0.0
 40
0.0
 40
0.25
 40
0.25
 40
0.25
 40
0.25
 40
0.5
 40
0.5
 40
0.5
 40
0.5
 40
0.75
 40
0.75
 40
0.75
 40
0.75
 40
1.0
 40
1.0
 40
1.0
 40
1.0
 10
9.00001
 20
-20.2
 30
0.0
 10
9.00001
 20
-20.2
 30
0.0
 10
9.60002
 20
-20.2
 30
0.0
 10
9.60002
 20
-20.2
 30
0.0
 10
9.60002
 20
-20.2
 30
0.0
 10
9.60002
 20
-20.2
 30
0.0
 10
9.60002
 20
-20.50001
 30
0.0
 10
9.60002
 20
-20.50001
 30
0.0
 10
9.60002
 20
-20.50001
 30
0.0
 10
9.60002
 20
-20.50001
 30
0.0
 10
9.00001
 20
-20.50001
 30
0.0
 10
9.00001
 20
-20.50001
 30
0.0
 10
9.00001
 20
-20.50001
 30
0.0
 10
9.00001
 20
-20.50001
 30
0.0
 10
9.00001
 20
-20.2
 30
0.0
 10
9.00001
 20
-20.2
 30
0.0
  0
SPLINE
  5
A7
330
1F
100
AcDbEntity
  8
Layer 1
370
    53
100
AcDbSpline
210
0.0
220
0.0
230
1.0
 70
    11
 71
     3
 72
    20
 73
    16
 74
     0
 42
0.0000000001
 43
0.0000000001
 40
0.0
 40
0.0
 40
0.0
 40
0.0
 40
0.25
 40
0.25
 40
0.25
 40
0.25
 40
0.5
 40
0.5
 40
0.5
 40
0.5
 40
0.75
 40
0.75
 40
0.75
 40
0.75
 40
1.0
 40
1.0
 40
1.0
 40
1.0
 10
4.99998
 20
-9.2
 30
0.0
 10
4.99998
 20
-9.2
 30
0.0
 10
5.59998
 20
-9.2
 30
0.0
 10
5.59998
 20
-9.2
 30
0.0
 10
5.59998
 20
-9.2
 30
0.0
 10
5.59998
 20
-9.2
 30
0.0
 10
5.59998
 20
-9.50001
 30
0.0
 10
5.59998
 20
-9.50001
 30
0.0
 10
5.59998
 20
-9.50001
 30
0.0
 10
5.59998
 20
-9.50001
 30
0.0
 10
4.99998
 20
-9.50001
 30
0.0
 10
4.99998
 20
-9.50001
 30
0.0
 10
4.99998
 20
-9.50001
 30
0.0
 10
4.99998
 20
-9.50001
 30
0.0
 10
4.99998
 20
-9.2
 30
0.0
 10
4.99998
 20
-9.2
 30
0.0
  0
SPLINE
  5
A8
330
1F
100
AcDbEntity
  8
Layer 1
370
    53
100
AcDbSpline
210
0.0
220
0.0
230
1.0
 70
    11
 71
     3
 72
    20
 73
    16
 74
     0
 42
0.0000000001
 43
0.0000000001
 40
0.0
 40
0.0
 40
0.0
 40
0.0
 40
0.25
 40
0.25
 40
0.25
 40
0.25
 40
0.5
 40
0.5
 40
0.5
 40
0.5
 40
0.75
 40
0.75
 40
0.75
 40
0.75
 40
1.0
 40
1.0
 40
1.0
 40
1.0
 10
3.00001
 20
-9.2
 30
0.0
 10
3.00001
 20
-9.2
 30
0.0
 10
3.60002
 20
-9.2
 30
0.0
 10
3.60002
 20
-9.2
 30
0.0
 10
3.60002
 20
-9.2
 30
0.0
 10
3.60002
 20
-9.2
 30
0.0
 10
3.60002
 20
-9.50001
 30
0.0
 10
3.60002
 20
-9.50001
 30
0.0
 10
3.60002
 20
-9.50001
 30
0.0
 10
3.60002
 20
-9.50001
 30
0.0
 10
3.00001
 20
-9.50001
 30
0.0
 10
3.00001
 20
-9.50001
 30
0.0
 10
3.00001
 20
-9.50001
 30
0.0
 10
3.00001
 20
-9.50001
 30
0.0
 10
3.00001
 20
-9.2
 30
0.0
 10
3.00001
 20
-9.2
 30
0.0
  0
SPLINE
  5
A9
330
1F
100
AcDbEntity
  8
Layer 1
370
    53
100
AcDbSpline
210
0.0
220
0.0
230
1.0
 70
    11
 71
     3
 72
    20
 73
    16
 74
     0
 42
0.0000000001
 43
0.0000000001
 40
0.0
 40
0.0
 40
0.0
 40
0.0
 40
0.25
 40
0.25
 40
0.25
 40
0.25
 40
0.5
 40
0.5
 40
0.5
 40
0.5
 40
0.75
 40
0.75
 40
0.75
 40
0.75
 40
1.0
 40
1.0
 40
1.0
 40
1.0
 10
1.00001
 20
-9.2
 30
0.0
 10
1.00001
 20
-9.2
 30
0.0
 10
1.60002
 20
-9.2
 30
0.0
 10
1.60002
 20
-9.2
 30
0.0
 10
1.60002
 20
-9.2
 30
0.0
 10
1.60002
 20
-9.2
 30
0.0
 10
1.60002
 20
-9.50001
 30
0.0
 10
1.60002
 20
-9.50001
 30
0.0
 10
1.60002
 20
-9.50001
 30
0.0
 10
1.60002
 20
-9.50001
 30
0.0
 10
1.00001
 20
-9.50001
 30
0.0
 10
1.00001
 20
-9.50001
 30
0.0
 10
1.00001
 20
-9.50001
 30
0.0
 10
1.00001
 20
-9.50001
 30
0.0
 10
1.00001
 20
-9.2
 30
0.0
 10
1.00001
 20
-9.2
 30
0.0
  0
SPLINE
  5
AA
330
1F
100
AcDbEntity
  8
Layer 1
370
    53
100
AcDbSpline
210
0.0
220
0.0
230
1.0
 70
    11
 71
     3
 72
    20
 73
    16
 74
     0
 42
0.0000000001
 43
0.0000000001
 40
0.0
 40
0.0
 40
0.0
 40
0.0
 40
0.25
 40
0.25
 40
0.25
 40
0.25
 40
0.5
 40
0.5
 40
0.5
 40
0.5
 40
0.75
 40
0.75
 40
0.75
 40
0.75
 40
1.0
 40
1.0
 40
1.0
 40
1.0
 10
4.99998
 20
-20.2
 30
0.0
 10
4.99998
 20
-20.2
 30
0.0
 10
5.59998
 20
-20.2
 30
0.0
 10
5.59998
 20
-20.2
 30
0.0
 10
5.59998
 20
-20.2
 30
0.0
 10
5.59998
 20
-20.2
 30
0.0
 10
5.59998
 20
-20.50001
 30
0.0
 10
5.59998
 20
-20.50001
 30
0.0
 10
5.59998
 20
-20.50001
 30
0.0
 10
5.59998
 20
-20.50001
 30
0.0
 10
4.99998
 20
-20.50001
 30
0.0
 10
4.99998
 20
-20.50001
 30
0.0
 10
4.99998
 20
-20.50001
 30
0.0
 10
4.99998
 20
-20.50001
 30
0.0
 10
4.99998
 20
-20.2
 30
0.0
 10
4.99998
 20
-20.2
 30
0.0
  0
SPLINE
  5
AB
330
1F
100
AcDbEntity
  8
Layer 1
370
    53
100
AcDbSpline
210
0.0
220
0.0
230
1.0
 70
    11
 71
     3
 72
    20
 73
    16
 74
     0
 42
0.0000000001
 43
0.0000000001
 40
0.0
 40
0.0
 40
0.0
 40
0.0
 40
0.25
 40
0.25
 40
0.25
 40
0.25
 40
0.5
 40
0.5
 40
0.5
 40
0.5
 40
0.75
 40
0.75
 40
0.75
 40
0.75
 40
1.0
 40
1.0
 40
1.0
 40
1.0
 10
3.00001
 20
-20.2
 30
0.0
 10
3.00001
 20
-20.2
 30
0.0
 10
3.60002
 20
-20.2
 30
0.0
 10
3.60002
 20
-20.2
 30
0.0
 10
3.60002
 20
-20.2
 30
0.0
 10
3.60002
 20
-20.2
 30
0.0
 10
3.60002
 20
-20.50001
 30
0.0
 10
3.60002
 20
-20.50001
 30
0.0
 10
3.60002
 20
-20.50001
 30
0.0
 10
3.60002
 20
-20.50001
 30
0.0
 10
3.00001
 20
-20.50001
 30
0.0
 10
3.00001
 20
-20.50001
 30
0.0
 10
3.00001
 20
-20.50001
 30
0.0
 10
3.00001
 20
-20.50001
 30
0.0
 10
3.00001
 20
-20.2
 30
0.0
 10
3.00001
 20
-20.2
 30
0.0
  0
SPLINE
  5
AC
330
1F
100
AcDbEntity
  8
Layer 1
370
    53
100
AcDbSpline
210
0.0
220
0.0
230
1.0
 70
    11
 71
     3
 72
    20
 73
    16
 74
     0
 42
0.0000000001
 43
0.0000000001
 40
0.0
 40
0.0
 40
0.0
 40
0.0
 40
0.25
 40
0.25
 40
0.25
 40
0.25
 40
0.5
 40
0.5
 40
0.5
 40
0.5
 40
0.75
 40
0.75
 40
0.75
 40
0.75
 40
1.0
 40
1.0
 40
1.0
 40
1.0
 10
1.00001
 20
-20.2
 30
0.0
 10
1.00001
 20
-20.2
 30
0.0
 10
1.60002
 20
-20.2
 30
0.0
 10
1.60002
 20
-20.2
 30
0.0
 10
1.60002
 20
-20.2
 30
0.0
 10
1.60002
 20
-20.2
 30
0.0
 10
1.60002
 20
-20.50001
 30
0.0
 10
1.60002
 20
-20.50001
 30
0.0
 10
1.60002
 20
-20.50001
 30
0.0
 10
1.60002
 20
-20.50001
 30
0.0
 10
1.00001
 20
-20.50001
 30
0.0
 10
1.00001
 20
-20.50001
 30
0.0
 10
1.00001
 20
-20.50001
 30
0.0
 10
1.00001
 20
-20.50001
 30
0.0
 10
1.00001
 20
-20.2
 30
0.0
 10
1.00001
 20
-20.2
 30
0.0
  0
ELLIPSE
  5
AD
330
1F
100
AcDbEntity
  8
Layer 1
 62
   250
370
    35
100
AcDbEllipse
 10
-0.69997
 20
-8.84994
 30
0.0
 11
0.0
 21
0.15
 31
0.0
210
0.0
220
0.0
230
1.0
 40
1.0
 41
0.0
 42
6.283185307179586
  0
ELLIPSE
  5
AE
330
1F
100
AcDbEntity
  8
Layer 1
 62
   250
370
    35
100
AcDbEllipse
 10
-0.69997
 20
-20.8501
 30
0.0
 11
0.0
 21
0.15
 31
0.0
210
0.0
220
0.0
230
1.0
 40
1.0
 41
0.0
 42
6.283185307179586
  0
ELLIPSE
  5
AF
330
1F
100
AcDbEntity
  8
Layer 1
 62
   250
370
    35
100
AcDbEllipse
 10
16.30003
 20
-8.84994
 30
0.0
 11
0.0
 21
0.15
 31
0.0
210
0.0
220
0.0
230
1.0
 40
1.0
 41
0.0
 42
6.283185307179586
  0
ELLIPSE
  5
B0
330
1F
100
AcDbEntity
  8
Layer 1
 62
   250
370
    35
100
AcDbEllipse
 10
16.30003
 20
-20.8501
 30
0.0
 11
0.0
 21
0.15
 31
0.0
210
0.0
220
0.0
230
1.0
 40
1.0
 41
0.0
 42
6.283185307179586
  0
SPLINE
  5
B1
330
1F
100
AcDbEntity
  8
Layer 1
370
    53
100
AcDbSpline
210
0.0
220
0.0
230
1.0
 70
    11
 71
     3
 72
    20
 73
    16
 74
     0
 42
0.0000000001
 43
0.0000000001
 40
0.0
 40
0.0
 40
0.0
 40
0.0
 40
0.25
 40
0.25
 40
0.25
 40
0.25
 40
0.5
 40
0.5
 40
0.5
 40
0.5
 40
0.75
 40
0.75
 40
0.75
 40
0.75
 40
1.0
 40
1.0
 40
1.0
 40
1.0
 10
6.99998
 20
-20.2
 30
0.0
 10
6.99998
 20
-20.2
 30
0.0
 10
7.59998
 20
-20.2
 30
0.0
 10
7.59998
 20
-20.2
 30
0.0
 10
7.59998
 20
-20.2
 30
0.0
 10
7.59998
 20
-20.2
 30
0.0
 10
7.59998
 20
-20.50001
 30
0.0
 10
7.59998
 20
-20.50001
 30
0.0
 10
7.59998
 20
-20.50001
 30
0.0
 10
7.59998
 20
-20.50001
 30
0.0
 10
6.99998
 20
-20.50001
 30
0.0
 10
6.99998
 20
-20.50001
 30
0.0
 10
6.99998
 20
-20.50001
 30
0.0
 10
6.99998
 20
-20.50001
 30
0.0
 10
6.99998
 20
-20.2
 30
0.0
 10
6.99998
 20
-20.2
 30
0.0
  0
SPLINE
  5
B2
330
1F
100
AcDbEntity
  8
Layer 1
370
    53
100
AcDbSpline
210
0.0
220
0.0
230
1.0
 70
    11
 71
     3
 72
    20
 73
    16
 74
     0
 42
0.0000000001
 43
0.0000000001
 40
0.0
 40
0.0
 40
0.0
 40
0.0
 40
0.25
 40
0.25
 40
0.25
 40
0.25
 40
0.5
 40
0.5
 40
0.5
 40
0.5
 40
0.75
 40
0.75
 40
0.75
 40
0.75
 40
1.0
 40
1.0
 40
1.0
 40
1.0
 10
6.99998
 20
-9.2
 30
0.0
 10
6.99998
 20
-9.2
 30
0.0
 10
7.59998
 20
-9.2
 30
0.0
 10
7.59998
 20
-9.2
 30
0.0
 10
7.59998
 20
-9.2
 30
0.0
 10
7.59998
 20
-9.2
 30
0.0
 10
7.59998
 20
-9.50001
 30
0.0
 10
7.59998
 20
-9.50001
 30
0.0
 10
7.59998
 20
-9.50001
 30
0.0
 10
7.59998
 20
-9.50001
 30
0.0
 10
6.99998
 20
-9.50001
 30
0.0
 10
6.99998
 20
-9.50001
 30
0.0
 10
6.99998
 20
-9.50001
 30
0.0
 10
6.99998
 20
-9.50001
 30
0.0
 10
6.99998
 20
-9.2
 30
0.0
 10
6.99998
 20
-9.2
 30
0.0
  0
ELLIPSE
  5
B3
330
1F
100
AcDbEntity
  8
Layer 1
 62
   250
370
    35
100
AcDbEllipse
 10
11.825
 20
-10.39937
 30
0.0
 11
0.0
 21
0.15
 31
0.0
210
0.0
220
0.0
230
1.0
 40
1.0
 41
0.0
 42
6.283185307179586
  0
ELLIPSE
  5
B4
330
1F
100
AcDbEntity
  8
Layer 1
 62
   250
370
    35
100
AcDbEllipse
 10
7.325
 20
-10.39937
 30
0.0
 11
0.0
 21
0.15
 31
0.0
210
0.0
220
0.0
230
1.0
 40
1.0
 41
0.0
 42
6.283185307179586
  0
ELLIPSE
  5
B5
330
1F
100
AcDbEntity
  8
Layer 1
 62
   250
370
    35
100
AcDbEllipse
 10
7.325
 20
-19.29464
 30
0.0
 11
0.0
 21
0.15
 31
0.0
210
0.0
220
0.0
230
1.0
 40
1.0
 41
0.0
 42
6.283185307179586
  0
ELLIPSE
  5
B6
330
1F
100
AcDbEntity
  8
Layer 1
 62
   250
370
    35
100
AcDbEllipse
 10
-0.275
 20
-19.29464
 30
0.0
 11
0.0
 21
0.15
 31
0.0
210
0.0
220
0.0
230
1.0
 40
1.0
 41
0.0
 42
6.283185307179586
  0
ELLIPSE
  5
B7
330
1F
100
AcDbEntity
  8
Layer 1
 62
   250
370
    35
100
AcDbEllipse
 10
-0.275
 20
-10.39937
 30
0.0
 11
0.0
 21
0.15
 31
0.0
210
0.0
220
0.0
230
1.0
 40
1.0
 41
0.0
 42
6.283185307179586
  0
ENDSEC
  0
SECTION
  2
OBJECTS
  0
DICTIONARY
  5
C
330
0
100
AcDbDictionary
281
     1
  3
ACAD_GROUP
350
D
  3
ACAD_LAYOUT
350
1A
  3
ACAD_MLEADERSTYLE
350
B9
  3
ACAD_MLINESTYLE
350
17
  3
ACAD_PLOTSETTINGS
350
19
  3
ACAD_PLOTSTYLENAME
350
E
  3
ACAD_SCALELIST
350
3B
  3
ACAD_TABLESTYLE
350
B8
  3
ACAD_VISUALSTYLE
350
2A
  0
DICTIONARY
  5
D
102
{ACAD_REACTORS
330
C
102
}
330
C
100
AcDbDictionary
281
     1
  0
DICTIONARY
  5
1A
102
{ACAD_REACTORS
330
C
102
}
330
C
100
AcDbDictionary
281
     1
  3
Layout1
350
1E
  3
Layout2
350
26
  3
Model
350
22
  0
DICTIONARY
  5
B9
102
{ACAD_REACTORS
330
C
102
}
330
C
100
AcDbDictionary
281
     1
  0
DICTIONARY
  5
17
102
{ACAD_REACTORS
330
C
102
}
330
C
100
AcDbDictionary
281
     1
  3
Standard
350
18
  0
DICTIONARY
  5
19
102
{ACAD_REACTORS
330
C
102
}
330
C
100
AcDbDictionary
281
     1
  0
ACDBDICTIONARYWDFLT
  5
E
102
{ACAD_REACTORS
330
C
102
}
330
C
100
AcDbDictionary
281
     1
  3
Normal
350
F
100
AcDbDictionaryWithDefault
340
F
  0
DICTIONARY
  5
3B
102
{ACAD_REACTORS
330
C
102
}
330
C
100
AcDbDictionary
281
     1
  3
A0
350
3C
  3
A1
350
3D
  3
A2
350
3E
  3
A3
350
3F
  3
A4
350
40
  3
A5
350
41
  3
A6
350
42
  3
A7
350
43
  3
A8
350
44
  3
A9
350
45
  3
B0
350
46
  3
B1
350
47
  3
B2
350
48
  3
B3
350
49
  3
B4
350
4A
  3
B5
350
4B
  3
B6
350
4C
  3
B7
350
4D
  3
B8
350
4E
  3
B9
350
4F
  3
C0
350
50
  3
C1
350
51
  3
C2
350
52
  3
C3
350
53
  3
C4
350
54
  3
C5
350
55
  3
C6
350
56
  3
C7
350
57
  3
C8
350
58
  3
C9
350
59
  3
D0
350
5A
  3
D1
350
5B
  3
D2
350
5C
  0
DICTIONARY
  5
B8
102
{ACAD_REACTORS
330
C
102
}
330
C
100
AcDbDictionary
281
     1
  0
DICTIONARY
  5
2A
102
{ACAD_REACTORS
330
C
102
}
330
C
100
AcDbDictionary
281
     1
  3
2dWireframe
350
2F
  3
3D Hidden
350
31
  3
3dWireframe
350
30
  3
Basic
350
32
  3
Brighten
350
36
  3
ColorChange
350
3A
  3
Conceptual
350
34
  3
Dim
350
35
  3
Facepattern
350
39
  3
Flat
350
2B
  3
FlatWithEdges
350
2C
  3
Gouraud
350
2D
  3
GouraudWithEdges
350
2E
  3
Linepattern
350
38
  3
Realistic
350
33
  3
Thicken
350
37
  0
LAYOUT
  5
1E
102
{ACAD_REACTORS
330
1A
102
}
330
1A
100
AcDbPlotSettings
  1

  2
none_device
  4

  6

 40
0.0
 41
0.0
 42
0.0
 43
0.0
 44
0.0
 45
0.0
 46
0.0
 47
0.0
 48
0.0
 49
0.0
140
0.0
141
0.0
142
1.0
143
1.0
 70
   688
 72
     0
 73
     0
 74
     5
  7

 75
    16
 76
     0
 77
     2
 78
   300
147
1.0
148
0.0
149
0.0
100
AcDbLayout
  1
Layout1
 70
     1
 71
     1
 10
0.0
 20
0.0
 11
12.0
 21
9.0
 12
0.0
 22
0.0
 32
0.0
 14
1.000000000000000E+20
 24
1.000000000000000E+20
 34
1.000000000000000E+20
 15
-1.000000000000000E+20
 25
-1.000000000000000E+20
 35
-1.000000000000000E+20
146
0.0
 13
0.0
 23
0.0
 33
0.0
 16
1.0
 26
0.0
 36
0.0
 17
0.0
 27
1.0
 37
0.0
 76
     0
330
1B
  0
LAYOUT
  5
26
102
{ACAD_REACTORS
330
1A
102
}
330
1A
100
AcDbPlotSettings
  1

  2
none_device
  4

  6

 40
0.0
 41
0.0
 42
0.0
 43
0.0
 44
0.0
 45
0.0
 46
0.0
 47
0.0
 48
0.0
 49
0.0
140
0.0
141
0.0
142
1.0
143
1.0
 70
   688
 72
     0
 73
     0
 74
     5
  7

 75
    16
 76
     0
 77
     2
 78
   300
147
1.0
148
0.0
149
0.0
100
AcDbLayout
  1
Layout2
 70
     1
 71
     2
 10
0.0
 20
0.0
 11
0.0
 21
0.0
 12
0.0
 22
0.0
 32
0.0
 14
0.0
 24
0.0
 34
0.0
 15
0.0
 25
0.0
 35
0.0
146
0.0
 13
0.0
 23
0.0
 33
0.0
 16
1.0
 26
0.0
 36
0.0
 17
0.0
 27
1.0
 37
0.0
 76
     0
330
23
  0
LAYOUT
  5
22
102
{ACAD_REACTORS
330
1A
102
}
330
1A
100
AcDbPlotSettings
  1

  2
none_device
  4

  6

 40
0.0
 41
0.0
 42
0.0
 43
0.0
 44
0.0
 45
0.0
 46
0.0
 47
0.0
 48
0.0
 49
0.0
140
0.0
141
0.0
142
1.0
143
1.0
 70
  1712
 72
     0
 73
     0
 74
     0
  7

 75
     0
 76
     0
 77
     2
 78
   300
147
1.0
148
0.0
149
0.0
100
AcDbLayout
  1
Model
 70
     1
 71
     0
 10
0.0
 20
0.0
 11
12.0
 21
9.0
 12
0.0
 22
0.0
 32
0.0
 14
-19.52828
 24
-21.37828
 34
0.0
 15
20.71764
 25
0.00002
 35
0.0
146
0.0
 13
0.0
 23
0.0
 33
0.0
 16
1.0
 26
0.0
 36
0.0
 17
0.0
 27
1.0
 37
0.0
 76
     0
330
1F
331
29
  0
MLINESTYLE
  5
18
102
{ACAD_REACTORS
330
17
102
}
330
17
100
AcDbMlineStyle
  2
Standard
 70
     0
  3

 62
   256
 51
90.0
 52
90.0
 71
     2
 49
0.5
 62
   256
  6
BYLAYER
 49
-0.5
 62
   256
  6
BYLAYER
  0
ACDBPLACEHOLDER
  5
F
102
{ACAD_REACTORS
330
E
102
}
330
E
  0
SCALE
  5
3C
102
{ACAD_REACTORS
330
3B
102
}
330
3B
100
AcDbScale
 70
     0
300
1:1
140
1.0
141
1.0
290
     1
  0
SCALE
  5
3D
102
{ACAD_REACTORS
330
3B
102
}
330
3B
100
AcDbScale
 70
     0
300
1:2
140
1.0
141
2.0
290
     0
  0
SCALE
  5
3E
102
{ACAD_REACTORS
330
3B
102
}
330
3B
100
AcDbScale
 70
     0
300
1:4
140
1.0
141
4.0
290
     0
  0
SCALE
  5
3F
102
{ACAD_REACTORS
330
3B
102
}
330
3B
100
AcDbScale
 70
     0
300
1:5
140
1.0
141
5.0
290
     0
  0
SCALE
  5
40
102
{ACAD_REACTORS
330
3B
102
}
330
3B
100
AcDbScale
 70
     0
300
1:8
140
1.0
141
8.0
290
     0
  0
SCALE
  5
41
102
{ACAD_REACTORS
330
3B
102
}
330
3B
100
AcDbScale
 70
     0
300
1:10
140
1.0
141
10.0
290
     0
  0
SCALE
  5
42
102
{ACAD_REACTORS
330
3B
102
}
330
3B
100
AcDbScale
 70
     0
300
1:16
140
1.0
141
16.0
290
     0
  0
SCALE
  5
43
102
{ACAD_REACTORS
330
3B
102
}
330
3B
100
AcDbScale
 70
     0
300
1:20
140
1.0
141
20.0
290
     0
  0
SCALE
  5
44
102
{ACAD_REACTORS
330
3B
102
}
330
3B
100
AcDbScale
 70
     0
300
1:30
140
1.0
141
30.0
290
     0
  0
SCALE
  5
45
102
{ACAD_REACTORS
330
3B
102
}
330
3B
100
AcDbScale
 70
     0
300
1:40
140
1.0
141
40.0
290
     0
  0
SCALE
  5
46
102
{ACAD_REACTORS
330
3B
102
}
330
3B
100
AcDbScale
 70
     0
300
1:50
140
1.0
141
50.0
290
     0
  0
SCALE
  5
47
102
{ACAD_REACTORS
330
3B
102
}
330
3B
100
AcDbScale
 70
     0
300
1:100
140
1.0
141
100.0
290
     0
  0
SCALE
  5
48
102
{ACAD_REACTORS
330
3B
102
}
330
3B
100
AcDbScale
 70
     0
300
2:1
140
2.0
141
1.0
290
     0
  0
SCALE
  5
49
102
{ACAD_REACTORS
330
3B
102
}
330
3B
100
AcDbScale
 70
     0
300
4:1
140
4.0
141
1.0
290
     0
  0
SCALE
  5
4A
102
{ACAD_REACTORS
330
3B
102
}
330
3B
100
AcDbScale
 70
     0
300
8:1
140
8.0
141
1.0
290
     0
  0
SCALE
  5
4B
102
{ACAD_REACTORS
330
3B
102
}
330
3B
100
AcDbScale
 70
     0
300
10:1
140
10.0
141
1.0
290
     0
  0
SCALE
  5
4C
102
{ACAD_REACTORS
330
3B
102
}
330
3B
100
AcDbScale
 70
     0
300
100:1
140
100.0
141
1.0
290
     0
  0
SCALE
  5
4D
102
{ACAD_REACTORS
330
3B
102
}
330
3B
100
AcDbScale
 70
     0
300
1/128" = 1'-0"
140
0.0078125
141
12.0
290
     0
  0
SCALE
  5
4E
102
{ACAD_REACTORS
330
3B
102
}
330
3B
100
AcDbScale
 70
     0
300
1/64" = 1'-0"
140
0.015625
141
12.0
290
     0
  0
SCALE
  5
4F
102
{ACAD_REACTORS
330
3B
102
}
330
3B
100
AcDbScale
 70
     0
300
1/32" = 1'-0"
140
0.03125
141
12.0
290
     0
  0
SCALE
  5
50
102
{ACAD_REACTORS
330
3B
102
}
330
3B
100
AcDbScale
 70
     0
300
1/16" = 1'-0"
140
0.0625
141
12.0
290
     0
  0
SCALE
  5
51
102
{ACAD_REACTORS
330
3B
102
}
330
3B
100
AcDbScale
 70
     0
300
3/32" = 1'-0"
140
0.09375
141
12.0
290
     0
  0
SCALE
  5
52
102
{ACAD_REACTORS
330
3B
102
}
330
3B
100
AcDbScale
 70
     0
300
1/8" = 1'-0"
140
0.125
141
12.0
290
     0
  0
SCALE
  5
53
102
{ACAD_REACTORS
330
3B
102
}
330
3B
100
AcDbScale
 70
     0
300
3/16" = 1'-0"
140
0.1875
141
12.0
290
     0
  0
SCALE
  5
54
102
{ACAD_REACTORS
330
3B
102
}
330
3B
100
AcDbScale
 70
     0
300
1/4" = 1'-0"
140
0.25
141
12.0
290
     0
  0
SCALE
  5
55
102
{ACAD_REACTORS
330
3B
102
}
330
3B
100
AcDbScale
 70
     0
300
3/8" = 1'-0"
140
0.375
141
12.0
290
     0
  0
SCALE
  5
56
102
{ACAD_REACTORS
330
3B
102
}
330
3B
100
AcDbScale
 70
     0
300
1/2" = 1'-0"
140
0.5
141
12.0
290
     0
  0
SCALE
  5
57
102
{ACAD_REACTORS
330
3B
102
}
330
3B
100
AcDbScale
 70
     0
300
3/4" = 1'-0"
140
0.75
141
12.0
290
     0
  0
SCALE
  5
58
102
{ACAD_REACTORS
330
3B
102
}
330
3B
100
AcDbScale
 70
     0
300
1" = 1'-0"
140
1.0
141
12.0
290
     0
  0
SCALE
  5
59
102
{ACAD_REACTORS
330
3B
102
}
330
3B
100
AcDbScale
 70
     0
300
1-1/2" = 1'-0"
140
1.5
141
12.0
290
     0
  0
SCALE
  5
5A
102
{ACAD_REACTORS
330
3B
102
}
330
3B
100
AcDbScale
 70
     0
300
3" = 1'-0"
140
3.0
141
12.0
290
     0
  0
SCALE
  5
5B
102
{ACAD_REACTORS
330
3B
102
}
330
3B
100
AcDbScale
 70
     0
300
6" = 1'-0"
140
6.0
141
12.0
290
     0
  0
SCALE
  5
5C
102
{ACAD_REACTORS
330
3B
102
}
330
3B
100
AcDbScale
 70
     0
300
1'-0" = 1'-0"
140
12.0
141
12.0
290
     0
  0
VISUALSTYLE
  5
2F
102
{ACAD_REACTORS
330
2A
102
}
330
2A
100
AcDbVisualStyle
  2
2dWireframe
 70
     4
 71
     0
 72
     2
 73
     0
 90
        0
 40
-0.6
 41
-30.0
 62
     5
 63
     7
421
 16777215
 74
     1
 91
        4
 64
     7
 65
   257
 75
     1
175
     1
 42
1.0
 92
        0
 66
   257
 43
1.0
 76
     1
 77
     6
 78
     2
 67
     7
 79
     5
170
     0
171
     0
290
     0
174
     0
 93
        1
 44
0.0
173
     0
291
     0
 45
0.0
  0
VISUALSTYLE
  5
31
102
{ACAD_REACTORS
330
2A
102
}
330
2A
100
AcDbVisualStyle
  2
3D Hidden
 70
     6
 71
     1
 72
     2
 73
     2
 90
        0
 40
-0.6
 41
-30.0
 62
     5
 63
     7
421
 16777215
 74
     2
 91
        2
 64
     7
 65
   257
 75
     2
175
     1
 42
40.0
 92
        0
 66
   257
 43
1.0
 76
     1
 77
     6
 78
     2
 67
     7
 79
     3
170
     0
171
     0
290
     0
174
     0
 93
        1
 44
0.0
173
     0
291
     0
 45
0.0
  0
VISUALSTYLE
  5
30
102
{ACAD_REACTORS
330
2A
102
}
330
2A
100
AcDbVisualStyle
  2
3dWireframe
 70
     5
 71
     0
 72
     2
 73
     0
 90
        0
 40
-0.6
 41
-30.0
 62
     5
 63
     7
421
 16777215
 74
     1
 91
        4
 64
     7
 65
   257
 75
     1
175
     1
 42
1.0
 92
        0
 66
   257
 43
1.0
 76
     1
 77
     6
 78
     2
 67
     7
 79
     5
170
     0
171
     0
290
     0
174
     0
 93
        1
 44
0.0
173
     0
291
     0
 45
0.0
  0
VISUALSTYLE
  5
32
102
{ACAD_REACTORS
330
2A
102
}
330
2A
100
AcDbVisualStyle
  2
Basic
 70
     7
 71
     1
 72
     0
 73
     1
 90
        0
 40
-0.6
 41
-30.0
 62
     5
 63
     7
421
 16777215
 74
     0
 91
        4
 64
     7
 65
   257
 75
     1
175
     1
 42
1.0
 92
        8
 66
     7
 43
1.0
 76
     1
 77
     6
 78
     2
 67
     7
 79
     5
170
     0
171
     0
290
     0
174
     0
 93
        1
 44
0.0
173
     0
291
     1
 45
0.0
  0
VISUALSTYLE
  5
36
102
{ACAD_REACTORS
330
2A
102
}
330
2A
100
AcDbVisualStyle
  2
Brighten
 70
    12
 71
     2
 72
     2
 73
     0
 90
        0
 40
-0.6
 41
-30.0
 62
     5
 63
     7
421
 16777215
 74
     1
 91
        4
 64
     7
 65
   257
 75
     1
175
     1
 42
1.0
 92
        8
 66
     7
 43
1.0
 76
     1
 77
     6
 78
     2
 67
     7
 79
     5
170
     0
171
     0
290
     0
174
     0
 93
        1
 44
50.0
173
     0
291
     1
 45
0.0
  0
VISUALSTYLE
  5
3A
102
{ACAD_REACTORS
330
2A
102
}
330
2A
100
AcDbVisualStyle
  2
ColorChange
 70
    16
 71
     2
 72
     2
 73
     3
 90
        0
 40
-0.6
 41
-30.0
 62
     5
 63
     8
421
  8421504
 74
     1
 91
        4
 64
     7
 65
   257
 75
     1
175
     1
 42
1.0
 92
        8
 66
     8
424
  8421504
 43
1.0
 76
     1
 77
     6
 78
     2
 67
     7
 79
     5
170
     0
171
     0
290
     0
174
     0
 93
        1
 44
0.0
173
     0
291
     1
 45
0.0
  0
VISUALSTYLE
  5
34
102
{ACAD_REACTORS
330
2A
102
}
330
2A
100
AcDbVisualStyle
  2
Conceptual
 70
     9
 71
     3
 72
     2
 73
     0
 90
        0
 40
-0.6
 41
-30.0
 62
     5
 63
     7
421
 16777215
 74
     2
 91
        2
 64
     7
 65
   257
 75
     1
175
     1
 42
40.0
 92
        8
 66
     7
 43
1.0
 76
     1
 77
     6
 78
     2
 67
     7
 79
     3
170
     0
171
     0
290
     0
174
     0
 93
        1
 44
0.0
173
     0
291
     0
 45
0.0
  0
VISUALSTYLE
  5
35
102
{ACAD_REACTORS
330
2A
102
}
330
2A
100
AcDbVisualStyle
  2
Dim
 70
    11
 71
     2
 72
     2
 73
     0
 90
        0
 40
-0.6
 41
-30.0
 62
     5
 63
     7
421
 16777215
 74
     1
 91
        4
 64
     7
 65
   257
 75
     1
175
     1
 42
1.0
 92
        8
 66
     7
 43
1.0
 76
     1
 77
     6
 78
     2
 67
     7
 79
     5
170
     0
171
     0
290
     0
174
     0
 93
        1
 44
-50.0
173
     0
291
     1
 45
0.0
  0
VISUALSTYLE
  5
39
102
{ACAD_REACTORS
330
2A
102
}
330
2A
100
AcDbVisualStyle
  2
Facepattern
 70
    15
 71
     2
 72
     2
 73
     0
 90
        0
 40
-0.6
 41
-30.0
 62
     5
 63
     7
421
 16777215
 74
     1
 91
        4
 64
     7
 65
   257
 75
     1
175
     1
 42
1.0
 92
        8
 66
     7
 43
1.0
 76
     1
 77
     6
 78
     2
 67
     7
 79
     5
170
     0
171
     0
290
     0
174
     0
 93
        1
 44
0.0
173
     0
291
     1
 45
0.0
  0
VISUALSTYLE
  5
2B
102
{ACAD_REACTORS
330
2A
102
}
330
2A
100
AcDbVisualStyle
  2
Flat
 70
     0
 71
     2
 72
     1
 73
     1
 90
        2
 40
-0.6
 41
30.0
 62
     5
 63
     7
421
 16777215
 74
     0
 91
        4
 64
     7
 65
   257
 75
     1
175
     1
 42
1.0
 92
        8
 66
     7
 43
1.0
 76
     1
 77
     6
 78
     2
 67
     7
 79
     5
170
     0
171
     0
290
     0
174
     0
 93
       13
 44
0.0
173
     0
291
     1
 45
0.0
  0
VISUALSTYLE
  5
2C
102
{ACAD_REACTORS
330
2A
102
}
330
2A
100
AcDbVisualStyle
  2
FlatWithEdges
 70
     1
 71
     2
 72
     1
 73
     1
 90
        2
 40
-0.6
 41
30.0
 62
     5
 63
     7
421
 16777215
 74
     1
 91
        4
 64
     7
 65
   257
 75
     1
175
     1
 42
1.0
 92
        0
 66
   257
 43
1.0
 76
     1
 77
     6
 78
     2
 67
     7
 79
     5
170
     0
171
     0
290
     0
174
     0
 93
       13
 44
0.0
173
     0
291
     1
 45
0.0
  0
VISUALSTYLE
  5
2D
102
{ACAD_REACTORS
330
2A
102
}
330
2A
100
AcDbVisualStyle
  2
Gouraud
 70
     2
 71
     2
 72
     2
 73
     1
 90
        2
 40
-0.6
 41
30.0
 62
     5
 63
     7
421
 16777215
 74
     0
 91
        4
 64
     7
 65
   257
 75
     1
175
     1
 42
1.0
 92
        0
 66
     7
 43
1.0
 76
     1
 77
     6
 78
     2
 67
     7
 79
     5
170
     0
171
     0
290
     0
174
     0
 93
       13
 44
0.0
173
     0
291
     1
 45
0.0
  0
VISUALSTYLE
  5
2E
102
{ACAD_REACTORS
330
2A
102
}
330
2A
100
AcDbVisualStyle
  2
GouraudWithEdges
 70
     3
 71
     2
 72
     2
 73
     1
 90
        2
 40
-0.6
 41
30.0
 62
     5
 63
     7
421
 16777215
 74
     1
 91
        4
 64
     7
 65
   257
 75
     1
175
     1
 42
1.0
 92
        0
 66
   257
 43
1.0
 76
     1
 77
     6
 78
     2
 67
     7
 79
     5
170
     0
171
     0
290
     0
174
     0
 93
       13
 44
0.0
173
     0
291
     1
 45
0.0
  0
VISUALSTYLE
  5
38
102
{ACAD_REACTORS
330
2A
102
}
330
2A
100
AcDbVisualStyle
  2
Linepattern
 70
    14
 71
     2
 72
     2
 73
     0
 90
        0
 40
-0.6
 41
-30.0
 62
     5
 63
     7
421
 16777215
 74
     1
 91
        4
 64
     7
 65
   257
 75
     7
175
     7
 42
1.0
 92
        8
 66
     7
 43
1.0
 76
     1
 77
     6
 78
     2
 67
     7
 79
     5
170
     0
171
     0
290
     0
174
     0
 93
        1
 44
0.0
173
     0
291
     1
 45
0.0
  0
VISUALSTYLE
  5
33
102
{ACAD_REACTORS
330
2A
102
}
330
2A
100
AcDbVisualStyle
  2
Realistic
 70
     8
 71
     2
 72
     2
 73
     0
 90
        0
 40
-0.6
 41
-30.0
 62
     5
 63
     7
421
 16777215
 74
     1
 91
        0
 64
     7
 65
   257
 75
     1
175
     1
 42
1.0
 92
        8
 66
     8
424
  7895160
 43
1.0
 76
     1
 77
     6
 78
     2
 67
     7
 79
     5
170
     0
171
     0
290
     0
174
     0
 93
       13
 44
0.0
173
     0
291
     0
 45
0.0
  0
VISUALSTYLE
  5
37
102
{ACAD_REACTORS
330
2A
102
}
330
2A
100
AcDbVisualStyle
  2
Thicken
 70
    13
 71
     2
 72
     2
 73
     0
 90
        0
 40
-0.6
 41
-30.0
 62
     5
 63
     7
421
 16777215
 74
     1
 91
        4
 64
     7
 65
   257
 75
     1
175
     1
 42
1.0
 92
       12
 66
     7
 43
1.0
 76
     1
 77
     6
 78
     2
 67
     7
 79
     5
170
     0
171
     0
290
     0
174
     0
 93
        1
 44
0.0
173
     0
291
     1
 45
0.0
  0
ENDSEC
  0
EOF
